<?xml version="1.0" standalone="no"?>
<!DOCTYPE svg PUBLIC "-//W3C//DTD SVG 1.1//EN" "http://www.w3.org/Graphics/SVG/1.1/DTD/svg11.dtd" >
<svg xmlns="http://www.w3.org/2000/svg" xmlns:xlink="http://www.w3.org/1999/xlink" version="1.1">
<metadata>
Created by FontForge 20170731 at Wed Mar 18 02:58:34 2009
 By Aleksey,,,
(c) 2008 Adobe Systems Incorporated. All Rights Reserved.
</metadata>
<defs>
<font id="AdobeClean-BoldIt" horiz-adv-x="391" >
  <font-face 
    font-family="Adobe Clean"
    font-weight="700"
    font-style="italic"
    font-stretch="normal"
    units-per-em="1000"
    panose-1="2 11 8 3 2 4 4 9 2 4"
    ascent="715"
    descent="-285"
    x-height="486"
    cap-height="652"
    bbox="-234.842 -241 1240.14 948"
    underline-thickness="50"
    underline-position="-200"
    slope="-12"
    unicode-range="U+0020-FB05"
  />
<missing-glyph horiz-adv-x="500" 
d="M0 0v700h500v-700h-500zM80 50h340l-170 255zM279 350l171 -255v510zM50 605v-510l170 255zM80 650l170 -255l170 255h-340z" />
    <glyph glyph-name="f_f" unicode="ff" horiz-adv-x="561" 
d="M240 486h175l7 30q43 202 207 202q38 0 58 -9q5 -4 4 -9l-18 -79q-2 -6 -6 -5q-17 5 -37 5q-33 0 -55.5 -22t-36.5 -84l-7 -29h85q6 0 5 -6l-15 -70q-1 -4 -6 -6l-88 -4q-96 -483 -123 -568q-3 -8 -10 -8q-19 -2 -60 -6.5t-42 -4.5q-8 0 -5 8q22 71 125 579h-175
q-101 -496 -124 -568q-3 -8 -10 -8q-19 -2 -60 -6l-42 -5q-7 0 -5 8q15 48 61 266t64 314l-56 3q-7 2 -5 8l15 68q2 6 7 6h57l6 24q46 208 209 208q39 0 57 -9q6 -3 4 -9l-17 -79q-2 -7 -7 -5q-15 5 -36 5q-33 0 -56 -20.5t-37 -85.5z" />
    <glyph glyph-name="f_f_i" unicode="ffi" horiz-adv-x="832" 
d="M240 486h175l7 30q43 202 207 202q38 0 58 -9q5 -4 4 -9l-18 -79q-2 -6 -6 -5q-17 5 -37 5q-33 0 -55.5 -22t-36.5 -84l-7 -29h85q6 0 5 -6l-15 -70q-1 -4 -6 -6l-88 -4q-96 -483 -123 -568q-3 -8 -10 -8q-19 -2 -60 -6.5t-42 -4.5q-8 0 -5 8q22 71 125 579h-175
q-101 -496 -124 -568q-3 -8 -10 -8q-19 -2 -60 -6l-42 -5q-7 0 -5 8q15 48 61 266t64 314l-56 3q-7 2 -5 8l15 68q2 6 7 6h57l6 24q46 208 209 208q39 0 57 -9q6 -3 4 -9l-17 -79q-2 -7 -7 -5q-15 5 -36 5q-33 0 -56 -20.5t-37 -85.5zM780 555q-28 0 -43.5 16.5t-11.5 42.5
q4 27 24.5 43t49.5 16q28 0 43 -16.5t10 -42.5q-3 -27 -23 -43t-49 -16zM601 7l100 473q2 6 9 6h103q8 0 6 -8l-101 -471q-1 -7 -9 -7h-103q-6 0 -5 7z" />
    <glyph glyph-name="f_f_l" unicode="ffl" horiz-adv-x="853" 
d="M240 486h175l7 30q43 202 207 202q38 0 58 -9q5 -4 4 -9l-18 -79q-2 -6 -6 -5q-17 5 -37 5q-33 0 -55.5 -22t-36.5 -84l-7 -29h85q6 0 5 -6l-15 -70q-1 -4 -6 -6l-88 -4q-96 -483 -123 -568q-3 -8 -10 -8q-19 -2 -60 -6.5t-42 -4.5q-8 0 -5 8q22 71 125 579h-175
q-101 -496 -124 -568q-3 -8 -10 -8q-19 -2 -60 -6l-42 -5q-7 0 -5 8q15 48 61 266t64 314l-56 3q-7 2 -5 8l15 68q2 6 7 6h57l6 24q46 208 209 208q39 0 57 -9q6 -3 4 -9l-17 -79q-2 -7 -7 -5q-15 5 -36 5q-33 0 -56 -20.5t-37 -85.5zM806 76l-15 -65q-3 -7 -8 -10
q-25 -11 -71 -11q-109 0 -82 127l124 587q1 6 8 7q103 7 104 7q6 0 6 -7l-125 -593q-7 -41 24 -41q13 0 31 5q2 1 3.5 -1t0.5 -5z" />
    <glyph glyph-name="longs_t" unicode="&#x17f;t" horiz-adv-x="606" 
d="M554 83l-13 -63q-3 -8 -9 -11q-37 -19 -94 -19q-55 0 -84 34.5t-14 106.5l57 269l-60 4q-7 0 -5 8l15 68q2 6 9 6h60l25 115q2 7 8 7q59 3 106 20q4 2 6.5 0t1.5 -5q-10 -43 -30 -137h94q9 0 6 -7l-14 -67q-1 -8 -8 -8l-98 -4l-53 -258q-13 -61 37 -61q30 0 51 8
q2 2 4.5 0t1.5 -6zM67 486h57l6 25q46 207 209 207q39 0 57 -9q6 -3 4 -9l-17 -78q-1 -3 -2.5 -5t-3.5 -1q-15 5 -36 5q-33 0 -56.5 -20.5t-38.5 -84.5q-129 -626 -148 -684q-3 -8 -10 -8q-19 -2 -60 -6l-42 -5q-7 0 -5 8q15 48 61 266t64 314l-56 3q-6 2 -5 8l15 68
q2 6 7 6z" />
    <glyph glyph-name="T_h" unicode="Th" horiz-adv-x="1019" 
d="M632 652l11 52q1 6 7 7q81 4 106 7q6 0 5 -7l-60 -285q83 70 165 70q59 0 92 -43.5t12 -144.5l-65 -301q-1 -7 -7 -7h-105q-7 0 -5 8l64 294q21 98 -45 98q-61 0 -127 -77l-67 -317q-1 -6 -9 -6h-103q-7 0 -6 6l116 550h-210l-115 -546q-3 -9 -11 -10h-98q-6 -1 -7.5 1.5
t-0.5 7.5l116 547h-200q-8 0 -5 7l29 84q1 5 8 5h515z" />
    <glyph glyph-name="Tcaron_h" unicode="&#x164;h" horiz-adv-x="1019" 
d="M632 652l11 52q1 6 7 7q81 4 106 7q6 0 5 -7l-60 -285q83 70 165 70q59 0 92 -43.5t12 -144.5l-65 -301q-1 -7 -7 -7h-105q-7 0 -5 8l64 294q21 98 -45 98q-61 0 -127 -77l-67 -317q-1 -6 -9 -6h-103q-7 0 -6 6l116 550h-210l-115 -546q-3 -9 -11 -10h-98q-6 -1 -7.5 1.5
t-0.5 7.5l116 547h-200q-8 0 -5 7l29 84q1 5 8 5h515zM322 822l47 -65l80 65q6 5 12 5h97q4 0 4.5 -3t-2.5 -5l-147 -116q-5 -4 -9 -4h-93q-7 0 -9 5l-82 117q-3 6 4 6h89q6 0 9 -5z" />
    <glyph glyph-name="uni021A_h" unicode="&#x21a;h" horiz-adv-x="1019" 
d="M632 652l11 52q1 6 7 7q81 4 106 7q6 0 5 -7l-60 -285q83 70 165 70q59 0 92 -43.5t12 -144.5l-65 -301q-1 -7 -7 -7h-105q-7 0 -5 8l64 294q21 98 -45 98q-61 0 -127 -77l-67 -317q-1 -6 -9 -6h-103q-7 0 -6 6l116 550h-210l-115 -546q-3 -9 -11 -10h-98q-6 -1 -7.5 1.5
t-0.5 7.5l116 547h-200q-8 0 -5 7l29 84q1 5 8 5h515zM191 -224h-97q-4 0 -4.5 2.5t1.5 4.5q55 52 66 106q7 33 -1 67q-2 6 4 6h101q8 0 9 -4q9 -28 1 -66q-13 -68 -67 -113q-3 -3 -13 -3z" />
    <glyph glyph-name="f_b" unicode="fb" horiz-adv-x="846" 
d="M106 400l-57 4q-7 0 -5 7l16 69q2 6 7 6h57l6 25q46 207 209 207q39 0 57 -9q6 -3 4 -9l-17 -79q-2 -7 -7 -6q-15 5 -36 5q-32 0 -55.5 -20.5t-37.5 -80.5l-7 -33h86q5 0 4 -6l-15 -70q-1 -6 -6 -6l-87 -5q-102 -498 -124 -567q-3 -8 -10 -8q-19 -2 -60 -6l-42 -5
q-7 0 -5 8q18 57 125 579zM324 40l140 663q2 8 8 9q90 6 105 6q6 0 5 -7l-51 -245q54 30 116 30q73 0 116 -52t43 -134q0 -136 -88.5 -228t-224.5 -92q-104 0 -165 40q-5 5 -4 10zM512 376l-60 -285q21 -12 58 -12q73 0 124.5 64.5t51.5 160.5q0 45 -20 73t-61 28
q-47 0 -93 -29z" />
    <glyph glyph-name="f_h" unicode="fh" horiz-adv-x="841" 
d="M106 400l-57 4q-7 0 -5 7l16 69q2 6 7 6h57l6 25q46 207 209 207q39 0 57 -9q6 -3 4 -9l-17 -79q-2 -7 -7 -6q-15 5 -36 5q-32 0 -55.5 -20.5t-37.5 -80.5l-7 -33h86q5 0 4 -6l-15 -70q-1 -6 -6 -6l-87 -5q-102 -498 -124 -567q-3 -8 -10 -8q-19 -2 -60 -6l-42 -5
q-7 0 -5 8q18 57 125 579zM317 6l147 698q1 6 8 7q86 4 105 7q7 0 6 -7l-61 -285q83 70 165 70q59 0 92 -43.5t12 -144.5l-64 -301q-1 -7 -8 -7h-104q-6 0 -6 8l65 297q19 95 -45 95q-61 0 -127 -74l-68 -320q-1 -6 -8 -6h-103q-7 0 -6 6z" />
    <glyph glyph-name="f_i" unicode="fi" horiz-adv-x="527" 
d="M242 486h265q8 0 7 -8l-100 -469q-3 -9 -10 -9h-98q-11 0 -8 9l83 391h-159q-102 -501 -124 -568q-3 -8 -10 -8q-19 -2 -60 -6l-42 -5q-7 0 -5 8q21 69 125 580l-57 2q-6 1 -5 8l16 68q1 7 7 7h58q32 128 97.5 180t163.5 52q79 0 116 -27q3 -3 2 -10l-19 -82q-2 -9 -8 -6
q-45 28 -102 28q-49 0 -81 -26t-52 -109z" />
    <glyph glyph-name="f_j" unicode="fj" horiz-adv-x="532" 
d="M222 399q-100 -493 -124 -567q-3 -8 -10 -8q-19 -2 -60 -6l-42 -5q-7 0 -5 8q15 48 61 266t64 313l-57 3q-7 1 -4 8l15 68q1 7 7 7h58q33 127 99 179.5t163 52.5q81 0 120 -28q5 -3 3 -11l-20 -81q0 -9 -8 -6q-47 30 -106 30q-47 0 -80 -27t-54 -109h269q8 0 7 -8
l-100 -472q-19 -85 -38 -126.5t-49 -67.5q-43 -36 -120 -36q-23 0 -31 3q-8 0 -4 8l17 76q1 5 8 5q42 2 60 21t33 84l92 427z" />
    <glyph glyph-name="f_k" unicode="fk" horiz-adv-x="811" 
d="M106 400l-57 4q-7 0 -5 7l16 69q2 6 7 6h57l6 25q46 207 209 207q39 0 57 -9q6 -3 4 -9l-17 -79q-2 -7 -7 -6q-15 5 -36 5q-32 0 -55.5 -20.5t-37.5 -80.5l-7 -33h86q5 0 4 -6l-15 -70q-1 -6 -6 -6l-87 -5q-102 -498 -124 -567q-3 -8 -10 -8q-19 -2 -60 -6l-42 -5
q-7 0 -5 8q18 57 125 579zM464 704q1 6 7 7q13 1 57 4t49 3q7 0 5 -7l-88 -419h41q11 0 19 10q20 24 78 94t70 85q5 5 12 5h108q10 0 3 -9q-35 -47 -199 -223q-3 -3 -2 -6q36 -59 133 -240q4 -8 -6 -8h-114q-7 0 -11 7q-15 26 -48.5 92.5t-46.5 90.5q-4 10 -14 10h-43
l-40 -192q-1 -8 -9 -8h-103q-6 0 -5 7z" />
    <glyph glyph-name="f_l" unicode="fl" horiz-adv-x="559" 
d="M106 400l-57 4q-7 0 -5 7l16 69q2 6 7 6h57l6 25q46 207 209 207q39 0 57 -9q6 -3 4 -9l-17 -79q-2 -7 -7 -6q-15 5 -36 5q-32 0 -55.5 -20.5t-37.5 -80.5l-7 -33h86q5 0 4 -6l-15 -70q-1 -6 -6 -6l-87 -5q-102 -498 -124 -567q-3 -8 -10 -8q-19 -2 -60 -6l-42 -5
q-7 0 -5 8q18 57 125 579zM512 76l-15 -65q-3 -7 -8 -10q-25 -11 -71 -11q-109 0 -82 127l124 587q1 6 8 7q103 7 104 7q6 0 6 -7l-125 -593q-9 -41 24 -41q13 0 31 5q2 1 3.5 -1t0.5 -5z" />
    <glyph glyph-name="f_t" unicode="ft" horiz-adv-x="606" 
d="M222 400q-102 -501 -124 -568q-3 -8 -10 -8q-19 -2 -60 -6l-42 -5q-7 0 -5 8q15 48 61 266t64 314l-56 4q-7 0 -5 7l15 68q2 6 7 6h57l6 25q46 207 209 207q39 0 57 -9q6 -3 4 -9l-18 -84q-2 -7 -7 -5q-15 5 -36 5q-33 0 -56 -21.5t-38 -86.5l-5 -22h176l25 115q2 7 8 7
q60 3 107 20q4 2 6.5 0t1.5 -5q-12 -54 -31 -137h94q10 0 7 -7l-14 -67q-1 -7 -9 -7l-97 -5l-53 -258q-13 -62 37 -62q25 0 51 10q3 1 5 -0.5t1 -5.5l-14 -65q-3 -9 -9 -12q-33 -17 -93 -17q-56 0 -84.5 34.5t-13.5 106.5l57 269h-176z" />
    <glyph glyph-name="f_f_b" unicode="ffb" horiz-adv-x="1136" 
d="M614 40l141 663q2 8 8 9q90 6 104 6q6 0 5 -7l-51 -245q55 30 117 30q72 0 115 -52t43 -134q1 -136 -87.5 -228t-224.5 -92q-104 0 -166 40q-5 5 -4 10zM802 376l-60 -285q21 -12 58 -12q73 0 124.5 64.5t51.5 160.5q0 45 -20 73t-61 28q-45 0 -93 -29zM240 486h175l7 30
q43 202 207 202q38 0 58 -9q5 -4 4 -9l-18 -79q-2 -6 -6 -5q-17 5 -37 5q-33 0 -55.5 -22t-36.5 -84l-7 -29h85q6 0 5 -6l-15 -70q-1 -4 -6 -6l-88 -4q-96 -483 -123 -568q-3 -8 -10 -8q-19 -2 -60 -6.5t-42 -4.5q-8 0 -5 8q22 71 125 579h-175q-101 -496 -124 -568
q-3 -8 -10 -8q-19 -2 -60 -6l-42 -5q-7 0 -5 8q15 48 61 266t64 314l-56 3q-7 2 -5 8l15 68q2 6 7 6h57l6 24q46 208 209 208q39 0 57 -9q6 -3 4 -9l-17 -79q-2 -7 -7 -5q-15 5 -36 5q-33 0 -56 -20.5t-37 -85.5z" />
    <glyph glyph-name="f_f_h" unicode="ffh" horiz-adv-x="1135" 
d="M611 6l147 698q1 6 8 7q86 4 105 7q7 0 6 -7l-61 -285q83 70 165 70q59 0 92 -43.5t12 -144.5l-64 -301q-1 -7 -8 -7h-104q-6 0 -6 8l65 297q21 95 -45 95q-61 0 -127 -74l-68 -320q-1 -6 -8 -6h-103q-7 0 -6 6zM240 486h175l7 30q43 202 207 202q38 0 58 -9q5 -4 4 -9
l-18 -79q-2 -6 -6 -5q-17 5 -37 5q-33 0 -55.5 -22t-36.5 -84l-7 -29h85q6 0 5 -6l-15 -70q-1 -4 -6 -6l-88 -4q-96 -483 -123 -568q-3 -8 -10 -8q-19 -2 -60 -6.5t-42 -4.5q-8 0 -5 8q22 71 125 579h-175q-101 -496 -124 -568q-3 -8 -10 -8q-19 -2 -60 -6l-42 -5q-7 0 -5 8
q15 48 61 266t64 314l-56 3q-7 2 -5 8l15 68q2 6 7 6h57l6 24q46 208 209 208q39 0 57 -9q6 -3 4 -9l-17 -79q-2 -7 -7 -5q-15 5 -36 5q-33 0 -56 -20.5t-37 -85.5z" />
    <glyph glyph-name="f_f_j" unicode="ffj" horiz-adv-x="846" 
d="M715 478q2 7 9 7h102q7 0 6 -7l-99 -472q-19 -85 -38 -126.5t-48 -66.5q-44 -38 -124 -38q-26 0 -38 4q-7 2 -4 9l16 73q1 6 8 6q48 1 68.5 21.5t34.5 84.5zM792 555q-28 0 -43.5 16.5t-11.5 42.5q4 27 24 43t49 16t43.5 -16t10.5 -43t-23.5 -43t-48.5 -16zM240 486h175
l7 30q43 202 207 202q38 0 58 -9q5 -4 4 -9l-18 -79q-2 -6 -6 -5q-17 5 -37 5q-33 0 -55.5 -22t-36.5 -84l-7 -29h85q6 0 5 -6l-15 -70q-1 -4 -6 -6l-88 -4q-96 -483 -123 -568q-3 -8 -10 -8q-19 -2 -60 -6.5t-42 -4.5q-8 0 -5 8q22 71 125 579h-175q-101 -496 -124 -568
q-3 -8 -10 -8q-19 -2 -60 -6l-42 -5q-7 0 -5 8q15 48 61 266t64 314l-56 3q-7 2 -5 8l15 68q2 6 7 6h57l6 24q46 208 209 208q39 0 57 -9q6 -3 4 -9l-17 -79q-2 -7 -7 -5q-15 5 -36 5q-33 0 -56 -20.5t-37 -85.5z" />
    <glyph glyph-name="f_f_k" unicode="ffk" horiz-adv-x="1104" 
d="M757 704q1 6 7 7q13 1 57 4t49 3q7 0 5 -7l-87 -419h40q11 0 19 10q11 13 44 53t61 74t44 52q4 5 11 5h108q10 0 3 -9q-53 -69 -199 -223q-3 -3 -2 -6q36 -59 133 -240q4 -8 -6 -8h-114q-7 0 -10 7q-16 28 -50.5 95t-45.5 88q-4 10 -14 10h-43l-40 -192q-1 -8 -9 -8h-102
q-7 0 -6 7zM240 486h175l7 30q43 202 207 202q38 0 58 -9q5 -4 4 -9l-18 -79q-2 -6 -6 -5q-17 5 -37 5q-33 0 -55.5 -22t-36.5 -84l-7 -29h85q6 0 5 -6l-15 -70q-1 -4 -6 -6l-88 -4q-96 -483 -123 -568q-3 -8 -10 -8q-19 -2 -60 -6.5t-42 -4.5q-8 0 -5 8q22 71 125 579h-175
q-101 -496 -124 -568q-3 -8 -10 -8q-19 -2 -60 -6l-42 -5q-7 0 -5 8q15 48 61 266t64 314l-56 3q-7 2 -5 8l15 68q2 6 7 6h57l6 24q46 208 209 208q39 0 57 -9q6 -3 4 -9l-17 -79q-2 -7 -7 -5q-15 5 -36 5q-33 0 -56 -20.5t-37 -85.5z" />
    <glyph glyph-name="f_f_t" unicode="fft" horiz-adv-x="896" 
d="M67 486h57l6 24q46 208 209 208q39 0 57 -9q6 -3 4 -9l-18 -79q-1 -3 -2.5 -5t-3.5 -1q-18 6 -37 6q-33 0 -56 -20.5t-37 -84.5l-6 -30h175l7 30q43 202 205 202q37 0 57 -9q5 -4 4 -9l-18 -79q-2 -7 -7 -6q-18 6 -36 6q-31 0 -53 -22t-36 -84l-6 -29h174l25 115q2 7 8 7
q58 3 107 20q8 4 8 -5q-5 -20 -15 -66t-16 -71h94q10 0 7 -7l-15 -70q-1 -7 -9 -7l-97 -5l-53 -259q-13 -61 37 -61q30 0 51 8q2 2 4.5 0t1.5 -6l-13 -59q-1 -7 -9 -11q-37 -19 -93 -19t-84.5 34.5t-13.5 106.5l56 269h-174q-102 -501 -124 -568q-3 -8 -10 -8
q-19 -2 -60 -6.5t-42 -4.5q-8 0 -5 8q18 57 125 579h-175q-102 -501 -124 -568q-3 -8 -10 -8q-19 -2 -60 -6l-42 -5q-7 0 -5 8q15 48 61 266t64 314l-56 4q-7 0 -5 8l15 67q2 6 7 6z" />
    <glyph glyph-name="longs_b" unicode="&#x17f;b" horiz-adv-x="832" 
d="M67 486h57l6 25q46 207 209 207q39 0 57 -9q6 -3 4 -9l-17 -78q-1 -3 -2.5 -5t-3.5 -1q-15 5 -36 5q-33 0 -56.5 -20.5t-38.5 -84.5q-129 -626 -148 -684q-3 -8 -10 -8q-19 -2 -60 -6l-42 -5q-7 0 -5 8q15 48 61 266t64 314l-56 3q-6 2 -5 8l15 68q2 6 7 6zM311 40
l140 663q2 8 8 9q90 6 105 6q7 0 4 -7l-51 -245q55 30 117 30q72 0 115.5 -52t43.5 -134q0 -136 -88.5 -228t-224.5 -92q-104 0 -166 40q-4 4 -3 10zM498 376l-59 -285q20 -12 57 -12q73 0 124.5 64.5t51.5 160.5q0 45 -19.5 73t-60.5 28q-46 0 -94 -29z" />
    <glyph glyph-name="longs_h" unicode="&#x17f;h" horiz-adv-x="827" 
d="M67 486h57l6 25q46 207 209 207q39 0 57 -9q6 -3 4 -9l-17 -78q-1 -3 -2.5 -5t-3.5 -1q-15 5 -36 5q-33 0 -56.5 -20.5t-38.5 -84.5q-129 -626 -148 -684q-3 -8 -10 -8q-19 -2 -60 -6l-42 -5q-7 0 -5 8q15 48 61 266t64 314l-56 3q-6 2 -5 8l15 68q2 6 7 6zM303 6
l148 698q1 6 7 7q81 4 106 7q7 0 6 -7l-61 -285q83 70 165 70q59 0 92 -43.5t12 -144.5l-64 -301q-1 -7 -8 -7h-105q-7 0 -5 8l65 297q19 95 -45 95q-61 0 -128 -74l-67 -320q-1 -6 -9 -6h-103q-6 0 -6 6z" />
    <glyph glyph-name="longs_i" unicode="&#x17f;i" horiz-adv-x="531" 
d="M67 486h57l6 25q46 207 209 207q39 0 57 -9q6 -3 4 -9l-17 -78q-1 -3 -2.5 -5t-3.5 -1q-15 5 -36 5q-33 0 -56.5 -20.5t-38.5 -84.5q-129 -626 -148 -684q-3 -8 -10 -8q-19 -2 -60 -6l-42 -5q-7 0 -5 8q15 48 61 266t64 314l-56 3q-6 2 -5 8l15 68q2 6 7 6zM479 555
q-28 0 -43.5 16.5t-11.5 42.5q4 27 24 43t49 16t43.5 -16t10.5 -43t-23.5 -43t-48.5 -16zM299 7l101 473q1 6 8 6h104q8 0 5 -8l-100 -471q-2 -7 -9 -7h-103q-6 0 -6 7z" />
    <glyph glyph-name="longs_k" unicode="&#x17f;k" horiz-adv-x="797" 
d="M67 486h57l6 25q46 207 209 207q39 0 57 -9q6 -3 4 -9l-17 -78q-1 -3 -2.5 -5t-3.5 -1q-15 5 -36 5q-33 0 -56.5 -20.5t-38.5 -84.5q-129 -626 -148 -684q-3 -8 -10 -8q-19 -2 -60 -6l-42 -5q-7 0 -5 8q15 48 61 266t64 314l-56 3q-6 2 -5 8l15 68q2 6 7 6zM450 704
q1 6 7 7q13 1 57 4t49 3q7 0 5 -7l-88 -419h41q11 0 19 10q20 24 78 94t70 85q5 5 12 5h107q9 0 4 -9q-35 -47 -199 -223q-3 -3 -2 -6q36 -59 133 -240q4 -8 -6 -8h-114q-7 0 -11 7q-16 29 -51.5 99t-43.5 84q-4 10 -14 10h-43l-40 -192q-1 -8 -9 -8h-103q-6 0 -5 7z" />
    <glyph glyph-name="longs_l" unicode="&#x17f;l" horiz-adv-x="551" 
d="M67 486h57l6 25q46 207 209 207q39 0 57 -9q6 -3 4 -9l-17 -78q-1 -3 -2.5 -5t-3.5 -1q-15 5 -36 5q-33 0 -56.5 -20.5t-38.5 -84.5q-129 -626 -148 -684q-3 -8 -10 -8q-19 -2 -60 -6l-42 -5q-7 0 -5 8q15 48 61 266t64 314l-56 3q-6 2 -5 8l15 68q2 6 7 6zM504 76
l-16 -65q-1 -7 -7 -10q-27 -11 -71 -11q-109 0 -83 127l124 587q3 6 8 7q9 1 36.5 2.5t46 3t22.5 1.5q6 0 5 -7l-124 -593q-9 -41 23 -41q14 0 31 5q3 1 4 -1t1 -5z" />
    <glyph glyph-name="longs_longs_b" unicode="&#x17f;&#x17f;b" horiz-adv-x="1123" 
d="M601 40l141 663q2 8 8 9q90 6 105 6q7 0 4 -7l-51 -245q56 30 117 30q72 0 115 -52t43 -134q1 -136 -87.5 -228t-224.5 -92q-104 0 -166 40q-5 5 -4 10zM789 376l-60 -285q21 -12 58 -12q73 0 124.5 64.5t51.5 160.5q0 45 -19.5 73t-60.5 28q-46 0 -94 -29zM336 704
q39 0 57 -9q6 -3 4 -9l-17 -78q-1 -3 -2.5 -5t-3.5 -1q-17 5 -37 5q-32 0 -56 -23t-40 -92q-12 -57 -35.5 -170.5t-36 -173.5t-29 -136t-26.5 -118.5t-16 -61.5q-3 -8 -10 -8q-19 -2 -60 -6l-42 -5q-7 0 -5 8q15 48 61 266t64 314l-56 3q-6 2 -5 8l15 68q2 6 7 6h57l5 19
q23 105 75 152t132 47zM398 401l-56 3q-6 2 -5 8l15 68q2 6 7 6h57l6 25q46 207 209 207q39 0 57 -9q6 -3 4 -9l-17 -78q-2 -7 -7 -6q-15 5 -36 5q-33 0 -57 -22.5t-40 -92.5q-120 -585 -142 -654q-3 -8 -10 -8q-19 -2 -61 -6l-41 -5q-7 0 -5 8q15 48 60 259.5t62 300.5z
" />
    <glyph glyph-name="longs_longs_i" unicode="&#x17f;&#x17f;i" horiz-adv-x="822" 
d="M336 704q39 0 57 -9q6 -3 4 -9l-17 -78q-1 -3 -2.5 -5t-3.5 -1q-17 5 -37 5q-32 0 -56 -23t-40 -92q-12 -57 -35.5 -170.5t-36 -173.5t-29 -136t-26.5 -118.5t-16 -61.5q-3 -8 -10 -8q-19 -2 -60 -6l-42 -5q-7 0 -5 8q15 48 61 266t64 314l-56 3q-6 2 -5 8l15 68q2 6 7 6
h57l5 19q23 105 75 152t132 47zM398 401l-56 3q-6 2 -5 8l15 68q2 6 7 6h57l6 25q46 207 209 207q39 0 57 -9q6 -3 4 -9l-17 -78q-2 -7 -7 -6q-15 5 -36 5q-33 0 -57 -22.5t-40 -92.5q-120 -585 -142 -654q-3 -8 -10 -8q-19 -2 -61 -6l-41 -5q-7 0 -5 8q15 48 60 259.5
t62 300.5zM771 555q-28 0 -43.5 16.5t-11.5 42.5q4 27 24 43t49 16t43.5 -16t10.5 -43t-23.5 -43t-48.5 -16zM591 7l101 473q1 6 8 6h104q8 0 5 -8l-100 -471q-2 -7 -10 -7h-102q-6 0 -6 7z" />
    <glyph glyph-name="longs_longs_l" unicode="&#x17f;&#x17f;l" horiz-adv-x="841" 
d="M336 704q39 0 57 -9q6 -3 4 -9l-17 -78q-1 -3 -2.5 -5t-3.5 -1q-17 5 -37 5q-32 0 -56 -23t-40 -92q-12 -57 -35.5 -170.5t-36 -173.5t-29 -136t-26.5 -118.5t-16 -61.5q-3 -8 -10 -8q-19 -2 -60 -6l-42 -5q-7 0 -5 8q15 48 61 266t64 314l-56 3q-6 2 -5 8l15 68q2 6 7 6
h57l5 19q23 105 75 152t132 47zM398 401l-56 3q-6 2 -5 8l15 68q2 6 7 6h57l6 25q46 207 209 207q39 0 57 -9q6 -3 4 -9l-17 -78q-2 -7 -7 -6q-15 5 -36 5q-33 0 -57 -22.5t-40 -92.5q-120 -585 -142 -654q-3 -8 -10 -8q-19 -2 -61 -6l-41 -5q-7 0 -5 8q15 48 60 259.5
t62 300.5zM795 76l-16 -65q-1 -6 -8 -10q-25 -11 -70 -11q-110 0 -83 127l124 587q1 6 8 7q103 7 104 7q7 0 6 -7l-124 -593q-9 -41 23 -41q14 0 31 5q3 1 4 -1t1 -5z" />
    <glyph glyph-name="t_t" unicode="tt" horiz-adv-x="607" 
d="M53 480q2 6 9 6h60l24 115q4 7 8 7q60 3 107 20q4 2 6.5 0t1.5 -5q-5 -20 -15 -66t-16 -71h179l25 115q2 7 8 7q59 3 106 20q5 2 7 0t1 -5q-5 -21 -14.5 -67t-15.5 -70h94q8 0 7 -7l-15 -65q-1 -7 -8 -7l-98 -5l-53 -263q-13 -61 38 -61q29 0 50 8q2 2 4.5 0t1.5 -6
l-13 -60q-3 -8 -9 -11q-37 -19 -94 -19q-55 0 -83.5 34.5t-13.5 106.5l56 271h-179l-53 -263q-13 -61 36 -61q30 0 49 8q3 1 4.5 -0.5t1.5 -5.5l-14 -62q-2 -9 -9 -11q-35 -17 -90 -17t-84 34.5t-14 106.5l57 272l-60 4q-6 0 -5 8z" />
    <glyph glyph-name=".notdef" horiz-adv-x="500" 
d="M0 0v700h500v-700h-500zM80 50h340l-170 255zM279 350l171 -255v510zM50 605v-510l170 255zM80 650l170 -255l170 255h-340z" />
    <glyph glyph-name=".null" horiz-adv-x="0" 
 />
    <glyph glyph-name="nonmarkingreturn" horiz-adv-x="333" 
 />
    <glyph glyph-name="space" unicode=" " horiz-adv-x="231" 
 />
    <glyph glyph-name="exclam" unicode="!" horiz-adv-x="313" 
d="M269 663q36 0 54 -10q5 -4 3 -10l-15 -72q-11 -50 -47 -183t-45 -162q-2 -6 -9 -6h-72q-6 0 -6 6q5 40 25.5 165t30.5 177l16 74q2 7 7 10q26 11 58 11zM137 -10q-31 0 -48 19t-13 48t24.5 47.5t52.5 18.5q31 0 48 -19t14 -47q-4 -30 -24.5 -48.5t-53.5 -18.5z" />
    <glyph glyph-name="quotedbl" unicode="&#x22;" horiz-adv-x="410" 
d="M111 460l54 252q1 4 6 4h97q6 0 5 -6l-66 -251q-2 -6 -8 -6h-83q-5 0 -5 7zM292 460l53 252q1 4 6 4h97q8 0 5 -6l-66 -251q-2 -6 -8 -6h-82q-7 0 -5 7z" />
    <glyph glyph-name="numbersign" unicode="#" horiz-adv-x="540" 
d="M110 31h-63q-8 0 -4 7l63 154h-71q-6 0 -6 7l9 71q1 6 6 6h95l39 100h-74q-4 0 -3 5l9 74q1 5 6 5h97l55 138q4 6 9 6h62q7 0 4 -6l-55 -138h92l54 139q2 5 7 5h64q6 0 3 -6l-55 -138h70q5 0 5 -6l-9 -73q-1 -5 -7 -5h-93l-39 -100h69q6 0 5 -6l-9 -73q0 -5 -6 -5h-91
l-61 -154q-4 -7 -9 -7h-62q-9 0 -5 7l61 154h-91l-63 -155q-3 -6 -8 -6zM253 376l-40 -100h93l40 100h-93z" />
    <glyph glyph-name="dollar" unicode="$" horiz-adv-x="540" 
d="M264 8l-17 -76q-1 -7 -7 -7h-82q-6 0 -6 7l17 76q-90 11 -145 56q-5 4 -4 14l21 87q2 9 9 4q82 -70 181 -70q53 0 84 21.5t31 59.5q1 26 -20 48.5t-75 50.5q-84 43 -118 83.5t-34 96.5q0 76 55.5 128.5t150.5 59.5l15 74q1 7 7 7h82q7 0 6 -7l-15 -75q70 -7 113 -44
q4 -2 2 -10l-19 -85q0 -4 -3 -4.5t-6 1.5q-71 54 -162 54q-54 0 -82 -23t-28 -55q0 -26 20 -47.5t79 -52.5q86 -44 119.5 -84t33.5 -96q0 -88 -61 -136.5t-142 -55.5z" />
    <glyph glyph-name="percent" unicode="%" horiz-adv-x="803" 
d="M736 646l-548 -641q-5 -5 -12 -5h-75q-4 0 -4 3t2 5l550 639q5 5 11 5h74q8 0 2 -6zM280 663q60 0 93.5 -37t33.5 -101q0 -83 -52 -153t-143 -70q-61 0 -93.5 37t-32.5 94q0 93 55.5 161.5t138.5 68.5zM271 594q-37 0 -66.5 -48t-29.5 -108q-1 -31 12.5 -48.5t39.5 -17.5
q39 0 66.5 48.5t27.5 108.5q0 65 -50 65zM622 352q59 0 93 -38t34 -101q0 -82 -52.5 -152.5t-142.5 -70.5q-62 0 -94 37t-32 95q0 93 55.5 161.5t138.5 68.5zM613 283q-38 0 -67.5 -48t-29.5 -108q0 -66 52 -66q39 0 66.5 48.5t27.5 107.5q0 66 -49 66z" />
    <glyph glyph-name="ampersand" unicode="&#x26;" horiz-adv-x="681" 
d="M375 646q85 0 122 -27q6 -3 4 -9l-18 -78q-1 -9 -8 -4q-40 26 -97 26q-44 0 -67.5 -23.5t-23.5 -61.5q1 -42 46 -91h304q7 0 5 -8l-31 -77q-2 -7 -10 -7h-203q41 -43 89 -129q40 -77 90 -77l24 2q6 0 5 -7l-15 -65q-2 -10 -11 -12q-18 -8 -51 -8q-51 0 -82.5 27.5
t-71.5 107.5q-22 44 -47.5 82t-42.5 56.5t-22 18.5q-36 0 -68.5 -27.5t-32.5 -74.5q0 -40 28.5 -68t73.5 -28q44 0 76 13q2 1 3 -0.5t1 -4.5l-16 -77q-2 -8 -8 -10q-36 -15 -97 -15q-79 0 -131 47.5t-52 124.5q0 69 44 119t126 75q-39 53 -39 111q0 80 56.5 130t147.5 49z
" />
    <glyph glyph-name="quotesingle" unicode="'" horiz-adv-x="234" 
d="M111 460l54 252q1 4 6 4h101q8 0 5 -6l-66 -251q-2 -6 -8 -6h-87q-5 0 -5 7z" />
    <glyph glyph-name="parenleft" unicode="(" horiz-adv-x="375" 
d="M340 754h99q9 0 2 -9q-139 -139 -206 -281t-67 -311q0 -184 78 -318q4 -8 -6 -8h-91q-10 0 -13 5q-34 54 -56 140t-22 180q0 181 74.5 335.5t196.5 261.5q7 5 11 5z" />
    <glyph glyph-name="parenright" unicode=")" horiz-adv-x="376" 
d="M160 754h92q7 0 12 -7q32 -48 54.5 -134t23.5 -178q1 -180 -72 -335.5t-194 -266.5q-6 -6 -14 -6h-101q-12 0 -2 8q134 134 203.5 279t69.5 316q0 186 -77 317q-3 7 5 7z" />
    <glyph glyph-name="asterisk" unicode="*" horiz-adv-x="338" 
d="M255 475l73 -108q4 -6 -1 -8l-55 -32q-6 -3 -8 4l-58 119l-93 -89q-3 -3 -7 1l-37 46q-4 4 0 7l103 75l-107 49q-5 0 -2 7l33 57q3 5 8 2l93 -70l15 123q0 6 6 5l69 -14q5 -1 4 -6l-41 -119l115 26q5 2 5 -3l8 -66q0 -6 -5 -6h-118z" />
    <glyph glyph-name="plus" unicode="+" horiz-adv-x="557" 
d="M240 516h77q7 0 7 -7v-205h197q6 0 6 -8v-71q0 -7 -7 -7h-196v-209q0 -5 -7 -5h-77q-6 0 -6 6v208h-196q-8 0 -8 7v72q0 7 7 7h197v206q2 6 6 6z" />
    <glyph glyph-name="comma" unicode="," horiz-adv-x="245" 
d="M43 -135h-93q-9 0 -4 7q54 71 77 134t30 136q2 7 6 7h98q7 0 7 -6q-4 -72 -32.5 -145t-78.5 -128q-5 -5 -10 -5z" />
    <glyph glyph-name="hyphen" unicode="-" horiz-adv-x="352" 
d="M285 201h-236q-6 0 -5 7l19 87q0 6 7 6h235q7 0 5 -6l-18 -87q-1 -7 -7 -7z" />
    <glyph glyph-name="period" unicode="." horiz-adv-x="245" 
d="M77 -10q-30 0 -47.5 20t-13.5 51q4 30 25.5 49.5t51.5 19.5q31 0 48 -20.5t14 -49.5q-4 -32 -24.5 -51t-53.5 -19z" />
    <glyph glyph-name="slash" unicode="/" horiz-adv-x="425" 
d="M478 701l-386 -758q-2 -5 -8 -5h-93q-6 0 -3 7l386 757q2 4 7 4h93q6 0 4 -5z" />
    <glyph glyph-name="zero" unicode="0" horiz-adv-x="540" 
d="M340 572q-45 0 -86 -63t-64 -150.5t-23 -166.5q0 -53 19 -82t54 -29q38 0 72 42.5t54.5 104t32 125.5t11.5 113q0 106 -70 106zM227 -10q-86 0 -130 56.5t-45 150.5q0 76 19 155.5t54.5 150t95 115.5t131.5 45q87 0 128.5 -59t41.5 -151q0 -57 -10 -118t-33 -123.5
t-56 -111t-84 -79.5t-112 -31z" />
    <glyph glyph-name="one" unicode="1" horiz-adv-x="540" 
d="M422 0h-361q-8 0 -5 9l17 77q3 8 11 8h123l95 451q-66 -26 -131 -38q-5 -1 -6.5 1t-0.5 7l16 70q3 6 6 7q97 25 166 58q6 3 12 3h72q5 0 3 -6l-116 -553h116q8 0 8 -8l-17 -76q0 -10 -8 -10z" />
    <glyph glyph-name="two" unicode="2" horiz-adv-x="540" 
d="M419 0h-404q-6 0 -4 8l12 57q3 8 8 10q120 92 201 162q92 78 125.5 129.5t32.5 105.5q0 39 -25 64t-78 25q-90 0 -168 -50q-2 -1 -4 0t-1 4l21 93q1 6 7 10q77 45 175 45q91 0 140.5 -48.5t49.5 -122.5q0 -69 -30.5 -125.5t-102.5 -123.5q-33 -31 -174 -149q75 3 168 3
h89q6 0 5 -6l-32 -83q-4 -8 -11 -8z" />
    <glyph glyph-name="three" unicode="3" horiz-adv-x="540" 
d="M230 287h-70q-6 0 -5 6l19 84q1 5 5 5h68q67 0 102 26t35 72q0 39 -27.5 63t-82.5 24q-83 0 -151 -43q-3 -2 -5 -0.5t-1 5.5l19 86q2 8 6 9q72 39 165 39q89 0 140.5 -45.5t51.5 -115.5q0 -60 -35 -103t-101 -64v-2q45 -15 75 -50t30 -93q0 -94 -72 -147t-177 -53
q-126 0 -201 56q-5 5 -2 10l20 88q1 6 7 2q79 -57 175 -57q69 0 99.5 31t30.5 76q0 42 -29.5 66.5t-88.5 24.5z" />
    <glyph glyph-name="four" unicode="4" horiz-adv-x="540" 
d="M23 180l10 49q0 2 1 4t2.5 4.5t2.5 3.5q45 60 174 209.5t181 198.5q8 4 12 4h87q9 0 6 -9l-82 -390h91q4 0 4 -6l-26 -68q-1 -6 -6 -6h-80l-36 -168q-2 -6 -8 -6h-101q-7 0 -5 6l36 168h-260q-3 0 -3 6zM155 254h147q52 234 56 249h-1q-40 -46 -112 -134.5t-90 -114.5z
" />
    <glyph glyph-name="five" unicode="5" horiz-adv-x="540" 
d="M212 652h274q8 0 4 -7l-35 -83q-1 -6 -7 -6h-188q-5 -13 -15.5 -40.5t-22.5 -59.5l-15 -40q127 -33 192.5 -84t65.5 -134q0 -97 -69 -153t-174 -56q-117 0 -196 57q-4 4 -3 10l21 90q2 5 7 2q92 -61 181 -61q57 0 86.5 29.5t29.5 73.5q0 53 -61 89t-194 65l10 47
q83 220 101 258q2 3 8 3z" />
    <glyph glyph-name="six" unicode="6" horiz-adv-x="540" 
d="M279 330q-65 0 -108 -38q-18 -41 -18 -94q0 -58 30 -89.5t73 -31.5q54 0 89 40.5t35 104.5q0 50 -28 79t-73 29zM503 667l-21 -95q-3 -8 -7 -9q-93 -29 -159.5 -76t-97.5 -100q50 27 104 27q73 0 121 -48.5t48 -126.5q0 -104 -68.5 -177t-177.5 -73q-97 0 -150 57.5
t-53 145.5q0 91 43 175t111 144t146.5 102t155.5 60q2 1 4 -0.5t1 -5.5z" />
    <glyph glyph-name="seven" unicode="7" horiz-adv-x="540" 
d="M153 652h409q5 0 4 -4l-14 -64q0 -1 -5 -13q-159 -268 -359 -566q-3 -5 -9 -5h-112q-8 0 -4 8q255 390 366 547h-306q-8 0 -5 8l26 84q2 5 9 5z" />
    <glyph glyph-name="eight" unicode="8" horiz-adv-x="540" 
d="M333 576q-50 0 -81 -36t-31 -85q0 -48 29 -74q8 -7 21 -7h63q16 0 26 6q59 37 59 110q0 35 -22 60.5t-64 25.5zM244 77q54 0 87 33t33 86q0 48 -34 78q-8 7 -20 7h-74q-12 0 -19 -4q-72 -39 -72 -110q0 -41 27 -65.5t72 -24.5zM342 663q87 0 133.5 -49.5t46.5 -112.5
q0 -118 -116 -178q68 -50 68 -130q0 -95 -69.5 -149t-173.5 -54q-93 0 -145 46t-52 113q0 115 135 181q-56 50 -56 124q0 87 64 148t165 61z" />
    <glyph glyph-name="nine" unicode="9" horiz-adv-x="540" 
d="M85 -14l20 95q1 7 7 8q179 58 251 172q-43 -26 -99 -26q-80 0 -130 50t-50 134q0 98 68 171t177 73q90 0 142 -60.5t52 -156.5q0 -95 -37 -176.5t-99 -138t-137.5 -94.5t-158.5 -55q-6 -2 -6 4zM300 320q69 0 102 36q15 30 15 91q0 59 -26 92t-73 33q-54 0 -88.5 -42
t-34.5 -99q0 -51 29 -81t76 -30z" />
    <glyph glyph-name="colon" unicode=":" horiz-adv-x="306" 
d="M108 -10q-30 0 -47.5 20t-13.5 51q4 30 25.5 49.5t51.5 19.5q31 0 48 -20.5t14 -49.5q-4 -32 -24 -51t-54 -19zM181 320q-30 0 -47.5 20t-13.5 51q3 30 24.5 49.5t52.5 19.5q30 0 47 -20.5t14 -49.5q-4 -32 -24 -51t-53 -19z" />
    <glyph glyph-name="semicolon" unicode=";" horiz-adv-x="306" 
d="M181 320q-30 0 -47.5 20t-13.5 51q3 30 24.5 49.5t52.5 19.5q30 0 47 -20.5t14 -49.5q-4 -32 -24 -51t-53 -19zM82 -135h-94q-9 0 -4 7q53 71 74.5 133.5t27.5 136.5q0 7 6 7h98q6 0 7 -6q-2 -71 -29.5 -144.5t-75.5 -128.5q-5 -5 -10 -5z" />
    <glyph glyph-name="less" unicode="&#x3c;" horiz-adv-x="557" 
d="M64 227v68q0 6 4 9l418 212q8 3 8 -4v-79q0 -7 -7 -9l-325 -162v-2l326 -163q6 -3 6 -9v-77q0 -7 -7 -6l-418 213q-5 4 -5 9z" />
    <glyph glyph-name="equal" unicode="=" horiz-adv-x="557" 
d="M31 395q0 7 8 7h480q7 0 7 -7v-72q0 -8 -8 -8h-479q-8 0 -8 9v71zM31 199q0 7 7 7h480q8 0 8 -8v-70q0 -8 -9 -8h-478q-8 0 -8 8v71z" />
    <glyph glyph-name="greater" unicode="&#x3e;" horiz-adv-x="557" 
d="M494 294v-66q0 -5 -5 -9l-420 -214q-5 -2 -5 4v79q0 7 5 9l325 162v2l-324 163q-6 2 -6 8v80q0 7 6 4l419 -213q5 -3 5 -9z" />
    <glyph glyph-name="question" unicode="?" horiz-adv-x="450" 
d="M310 661q78 0 121 -39.5t43 -97.5q0 -44 -26 -78.5t-87 -75.5q-53 -36 -73 -53.5t-20 -29.5q0 -20 26 -70q3 -6 -3 -6h-88q-5 0 -8 3q-35 51 -35 88q0 20 18.5 42.5t77.5 62.5q9 6 22 15l19.5 13.5t16.5 11.5t15 11t12 9.5t10 9.5t7 9t5.5 9.5t2.5 9.5t1 10q-1 23 -20 38
t-58 15q-82 0 -155 -46q-5 -5 -5 3l19 84q1 5 5 9q23 16 66 29.5t91 13.5zM208 -10q-31 0 -48.5 19t-12.5 48q3 29 24 47.5t53 18.5q30 0 47 -19t14 -47q-4 -30 -24 -48.5t-53 -18.5z" />
    <glyph glyph-name="at" unicode="@" horiz-adv-x="827" 
d="M454 93l56 275q-10 4 -30 4q-65 0 -104.5 -48.5t-39.5 -114.5q0 -104 107 -115q7 0 11 -1zM468 623q139 0 233 -81.5t94 -223.5q0 -144 -96 -228t-233 -84q-103 0 -165.5 48.5t-62.5 148.5q0 109 77.5 178.5t186.5 69.5q76 0 108 -18q4 -1 4 -7l-67 -332q24 4 49.5 18.5
t51 40t42 68t16.5 94.5q0 114 -67 174t-181 60q-135 0 -224 -94t-89 -244q0 -94 44.5 -166.5t133.5 -114.5q5 -4 5 -11l-19 -77q-1 -6 -7 -5q-117 46 -184 145t-67 224q0 180 117.5 298.5t299.5 118.5z" />
    <glyph glyph-name="A" unicode="A" horiz-adv-x="626" 
d="M416 183h-219l-96 -178q-3 -5 -9 -5h-105q-8 0 -5 8q35 63 156 280.5t172 310.5q8 16 16 49q1 4 6 4h133q5 0 5 -4q13 -91 41 -310t44 -330q0 -8 -7 -8h-99q-8 0 -9 7zM245 280h164q-26 203 -30 272h-2q-21 -58 -132 -272z" />
    <glyph glyph-name="B" unicode="B" horiz-adv-x="574" 
d="M27 10l133 634q1 7 7 8q117 3 179 3q63 0 107.5 -14t66 -38t30 -48t8.5 -52q0 -123 -137 -166v-1q44 -14 73 -49.5t29 -89.5q0 -101 -80.5 -150t-222.5 -50q-119 0 -188 3q-7 0 -5 10zM200 288l-41 -195q26 -2 90 -2q156 0 156 108q0 40 -29.5 64.5t-92.5 24.5h-83z
M258 560l-38 -178h84q66 -1 102 26t35 75q0 79 -110 79q-55 0 -73 -2z" />
    <glyph glyph-name="C" unicode="C" horiz-adv-x="578" 
d="M461 663q98 0 146 -28q5 -3 3 -10l-22 -87q-2 -8 -8 -4q-54 27 -126 27q-122 0 -194.5 -85t-72.5 -204q0 -91 51.5 -133.5t124.5 -42.5q83 0 151 29q4 2 6 0.5t1 -5.5l-22 -92q-3 -10 -8 -12q-55 -26 -153 -26q-114 0 -193 69t-79 202q0 76 26.5 147.5t75 128.5t125 91.5
t168.5 34.5z" />
    <glyph glyph-name="D" unicode="D" horiz-adv-x="655" 
d="M28 10l132 636q1 5 6 5q48 3 161 3q144 0 222 -75t79 -199q0 -198 -134 -306q-99 -77 -280 -77q-78 0 -180 3q-9 0 -6 10zM259 559l-99 -465q26 -2 74 -2q116 0 176 49q97 80 97 237q0 90 -49 136.5t-140 46.5q-41 0 -59 -2z" />
    <glyph glyph-name="E" unicode="E" horiz-adv-x="519" 
d="M461 89l-32 -84q-1 -5 -7 -5h-390q-6 0 -6 7l135 640q1 5 7 5h353q7 0 7 -5v-85q0 -6 -6 -6h-265l-38 -177h246q5 0 4 -6l-17 -85q-2 -6 -8 -6h-245l-39 -185h298q6 0 3 -8z" />
    <glyph glyph-name="F" unicode="F" horiz-adv-x="498" 
d="M196 268l-53 -261q-2 -7 -9 -7h-103q-7 0 -5 8l134 638q2 6 7 6h363q7 0 7 -6v-84q0 -6 -7 -6h-273l-40 -192h242q7 0 5 -6l-17 -84q-2 -6 -9 -6h-242z" />
    <glyph glyph-name="G" unicode="G" horiz-adv-x="655" 
d="M479 252l-123 4q-5 1 -5 7l17 74q1 7 8 7h233q5 0 5 -7l-63 -292q-1 -9 -11 -12q-92 -43 -204 -43q-126 0 -197.5 71.5t-71.5 194.5q0 80 27.5 153t77.5 129.5t126.5 90.5t167.5 34q122 0 182 -42q4 -3 2 -11l-21 -85q-2 -11 -9 -5q-66 41 -164 41q-125 0 -196.5 -87.5
t-71.5 -211.5q0 -82 46 -127.5t123 -45.5q52 0 91 18z" />
    <glyph glyph-name="H" unicode="H" horiz-adv-x="652" 
d="M522 0h-103q-9 0 -6 8l58 277h-270l-58 -278q-3 -7 -8 -7h-102q-8 0 -7 7l135 640q1 5 7 5h104q6 0 5 -6l-55 -265h270l56 266q1 5 7 5h104q6 0 5 -6l-134 -639q-3 -7 -8 -7z" />
    <glyph glyph-name="I" unicode="I" horiz-adv-x="264" 
d="M277 645l-135 -638q-1 -7 -8 -7h-101q-7 0 -7 7l135 640q1 5 7 5h103q7 0 6 -7z" />
    <glyph glyph-name="J" unicode="J" horiz-adv-x="392" 
d="M296 652h102q7 0 6 -7l-98 -467q-24 -119 -80.5 -174.5t-147.5 -55.5q-74 0 -113 28q-5 4 -4 11l20 81q2 5 6 3q41 -23 87 -23q50 0 75 30t40 98l99 470q1 6 8 6z" />
    <glyph glyph-name="K" unicode="K" horiz-adv-x="599" 
d="M135 0h-102q-8 0 -6 8l134 639q2 5 8 5h103q7 0 6 -6l-57 -268h59q12 0 20 11q17 20 97.5 119t118.5 140q3 4 12 4h109q8 0 3 -9q-177 -212 -273 -311q-5 -5 -2 -10q43 -69 174 -314q3 -8 -5 -8h-109q-8 0 -11 5q-15 25 -139 265q-5 12 -16 12h-58l-58 -275q-1 -7 -8 -7z
" />
    <glyph glyph-name="L" unicode="L" horiz-adv-x="505" 
d="M277 645l-115 -548h283q8 0 5 -8l-32 -83q-2 -6 -9 -6h-377q-6 0 -6 6l135 641q2 5 7 5h105q5 0 4 -7z" />
    <glyph glyph-name="M" unicode="M" horiz-adv-x="837" 
d="M313 8q-20 365 -23 555h-1q-41 -178 -163 -557q-2 -6 -9 -6h-104q-7 0 -4 8l210 640q1 4 7 4h146q5 0 6 -5q29 -379 25 -490h1q59 140 240 489q3 6 9 6h141q8 0 7 -8l-70 -637q0 -7 -7 -7h-105q-7 0 -6 7q51 433 77 554h-2q-54 -137 -270 -555q-2 -6 -9 -6h-88q-8 0 -8 8
z" />
    <glyph glyph-name="N" unicode="N" horiz-adv-x="652" 
d="M161 647q1 5 8 5h131q6 0 7 -4q123 -373 148 -503h1q11 83 98 502q1 5 8 5h99q5 0 4 -6l-134 -638q-2 -8 -9 -8h-126q-7 0 -10 7q-129 403 -144 524h-1q-11 -86 -104 -525q-1 -6 -7 -6h-97q-8 0 -7 8z" />
    <glyph glyph-name="O" unicode="O" horiz-adv-x="685" 
d="M423 663q103 0 168.5 -67.5t65.5 -186.5q0 -81 -23 -155.5t-66.5 -133.5t-112 -94.5t-151.5 -35.5q-107 0 -173.5 64.5t-66.5 184.5q0 78 24.5 152.5t68.5 135.5t113.5 98.5t152.5 37.5zM406 566q-64 0 -116 -48.5t-78.5 -121.5t-26.5 -150t37.5 -118t97.5 -41
q99 0 158.5 98.5t59.5 220.5q0 79 -36.5 119.5t-95.5 40.5z" />
    <glyph glyph-name="P" unicode="P" horiz-adv-x="559" 
d="M26 7l134 638q1 7 7 7q78 3 149 3q121 0 182 -55t62 -143q0 -85 -44 -142t-108.5 -80t-145.5 -23q-46 0 -76 2l-43 -207q-2 -7 -8 -7h-104q-5 0 -5 7zM259 558l-53 -251q19 -3 68 -3q75 0 121.5 37t46.5 108q0 55 -34 83t-92 28q-39 0 -57 -2z" />
    <glyph glyph-name="Q" unicode="Q" horiz-adv-x="685" 
d="M406 566q-96 0 -158.5 -100.5t-62.5 -223.5q0 -75 37.5 -115t98.5 -40q67 0 118 49.5t75.5 121.5t24.5 151q-1 78 -37.5 117.5t-95.5 39.5zM423 663q105 0 169.5 -69.5t65.5 -184.5q0 -140 -58.5 -237.5t-132.5 -137.5q88 -77 192 -138q4 -2 3 -5t-6 -4l-112 -36
q-6 -1 -14 4q-72 49 -175 140q-17 -5 -50 -5q-114 1 -177.5 71.5t-63.5 178.5q0 111 44.5 207.5t127.5 156t187 59.5z" />
    <glyph glyph-name="R" unicode="R" horiz-adv-x="586" 
d="M195 261l-54 -255q-2 -6 -7 -6h-102q-6 0 -6 7l134 638q1 7 8 7q70 2 163 2q116 0 172 -46.5t56 -125.5q1 -151 -168 -200q2 -4 65 -128t71 -145q5 -9 -5 -9h-113q-9 0 -12 7q-14 28 -104 237q-8 17 -26 17h-72zM259 560l-44 -207h69q80 0 119 31t40 83q0 95 -124 95
q-32 0 -60 -2z" />
    <glyph glyph-name="S" unicode="S" horiz-adv-x="507" 
d="M215 -10q-60 0 -116 19t-86 46q-6 4 -4 12l21 90q2 7 8 3q86 -72 190 -72q50 0 78.5 23.5t28.5 59.5q0 27 -18.5 49.5t-74.5 56.5q-80 48 -115 89.5t-35 99.5q0 80 60 138t173 58q56 0 100.5 -14.5t66.5 -32.5q5 -3 3 -10l-20 -84q-2 -6 -8 -3q-69 49 -151 49
q-55 0 -82.5 -26t-27.5 -61q0 -28 22 -49.5t78 -55.5q86 -52 117 -92.5t31 -95.5q0 -91 -65 -144t-174 -53z" />
    <glyph glyph-name="T" unicode="T" horiz-adv-x="544" 
d="M159 8l116 548h-191q-8 0 -4 7l30 85q1 4 7 4h478q6 0 6 -5l-1 -84q0 -7 -7 -7h-202l-116 -549q-1 -7 -9 -7h-101q-7 0 -6 8z" />
    <glyph glyph-name="U" unicode="U" horiz-adv-x="645" 
d="M274 646l-85 -406q-15 -72 14 -111.5t95 -39.5q60 0 101 33t60 121l86 404q1 5 8 5h103q6 0 5 -7l-87 -408q-27 -131 -101 -189t-189 -58t-176 64t-36 184l86 409q1 5 8 5h102q8 0 6 -6z" />
    <glyph glyph-name="V" unicode="V" horiz-adv-x="616" 
d="M284 116h2q42 96 279 531q3 5 9 5h107q8 0 2 -8l-358 -637q-4 -7 -11 -7h-112q-8 0 -10 6l-90 639q-2 7 6 7h103q6 0 7 -5q57 -430 66 -531z" />
    <glyph glyph-name="W" unicode="W" horiz-adv-x="881" 
d="M594 637q14 -371 8 -507h2q38 104 218 517q1 5 8 5h110q5 0 3 -6l-302 -639q-4 -7 -11 -7h-109q-9 0 -10 9q-13 330 -10 516h-1q-57 -157 -232 -518q-1 -7 -9 -7h-112q-7 0 -8 7l-30 639q0 6 8 6h105q6 0 6 -5q15 -501 14 -518h1q36 106 219 508q2 6 9 6h117q6 0 6 -6z
" />
    <glyph glyph-name="X" unicode="X" horiz-adv-x="584" 
d="M642 646l-254 -313l131 -326q2 -5 -5 -7h-109q-9 0 -10 6q-18 43 -53.5 138t-43.5 116h-1q-146 -193 -196 -254q-6 -6 -11 -6h-119q-11 0 -3 8l269 321l-125 317q-2 6 5 6h110q7 0 8 -4q16 -44 49 -141t40 -116h1q188 252 192 257q3 4 9 4h114q6 0 2 -6z" />
    <glyph glyph-name="Y" unicode="Y" horiz-adv-x="559" 
d="M277 0h-100q-9 0 -7 9l47 219q4 26 0 40l-123 378q-2 6 5 6h109q6 0 7 -4q74 -253 83 -317q52 88 214 316q3 5 10 5h110q8 0 3 -7l-285 -381q-11 -13 -19 -43l-45 -213q-1 -8 -9 -8z" />
    <glyph glyph-name="Z" unicode="Z" horiz-adv-x="551" 
d="M463 0h-476q-6 0 -6 7l12 56q7 11 8 13q36 42 187 216t228 264h-313q-7 0 -6 7l31 85q1 4 7 4h445q6 0 5 -6l-14 -59q-2 -7 -9 -15q-156 -186 -408 -476h346q8 0 4 -7l-32 -83q-2 -6 -9 -6z" />
    <glyph glyph-name="bracketleft" unicode="[" horiz-adv-x="355" 
d="M277 684l-167 -784l127 -1q5 0 3 -6l-13 -61q-1 -5 -7 -5h-215q-8 0 -7 9l194 911q3 8 10 8h215q5 0 4 -4l-12 -61q-1 -5 -6 -5z" />
    <glyph glyph-name="backslash" unicode="\" horiz-adv-x="393" 
d="M191 -55l-58 754q0 7 6 7h87q6 0 6 -6l63 -753q0 -9 -8 -9h-88q-6 0 -8 7z" />
    <glyph glyph-name="bracketright" unicode="]" horiz-adv-x="360" 
d="M110 -102l166 784l-127 1q-3 0 -2 6l13 61q1 5 7 5h215q7 0 6 -8l-194 -912q-3 -8 -10 -8h-215q-5 0 -4 4l13 62q1 5 6 5h126z" />
    <glyph glyph-name="asciicircum" unicode="^" horiz-adv-x="516" 
d="M478 233h-80q-9 0 -11 6l-129 295h-1l-126 -294q-3 -8 -9 -7h-79q-9 0 -6 8l167 371q4 6 7 6h91q6 0 9 -6l171 -370q3 -9 -4 -9z" />
    <glyph glyph-name="underscore" unicode="_" horiz-adv-x="517" 
d="M2 -74h511v-49h-511v49z" />
    <glyph glyph-name="grave" unicode="`" 
d="M258 694l52 -147q4 -8 -6 -8h-93q-5 0 -9 6l-75 145q-4 9 6 9h116q7 0 9 -5z" />
    <glyph glyph-name="a" unicode="a" horiz-adv-x="535" 
d="M520 473l-93 -438q-1 -4 -7 -8q-81 -37 -180 -37q-94 0 -147 51t-53 141q-1 121 96.5 217.5t249.5 96.5q78 0 132 -18q2 0 2 -5zM321 91l66 311q-10 2 -29 2q-79 0 -138.5 -63t-59.5 -150q0 -55 28.5 -82t78.5 -27q33 0 54 9z" />
    <glyph glyph-name="b" unicode="b" horiz-adv-x="545" 
d="M23 40l141 663q2 8 8 9q90 6 105 6q5 0 4 -7l-51 -245q56 30 117 30q72 0 115 -52t43 -134q1 -136 -87.5 -228t-224.5 -92q-104 0 -166 40q-5 5 -4 10zM211 376l-60 -285q21 -12 58 -12q73 0 124.5 64.5t51.5 160.5q0 45 -19.5 73t-60.5 28q-46 0 -94 -29z" />
    <glyph glyph-name="c" unicode="c" horiz-adv-x="433" 
d="M371 95l-18 -78q-1 -8 -8 -11q-37 -16 -98 -16q-100 0 -153.5 57t-53.5 148q0 126 87.5 213.5t211.5 87.5q57 0 89 -14q6 -3 3 -11l-18 -77q-1 -6 -8 -5q-27 12 -69 12q-77 0 -126 -57.5t-49 -136.5q0 -60 33 -91.5t82 -31.5q54 0 90 16q4 1 5 -0.5t0 -4.5z" />
    <glyph glyph-name="d" unicode="d" horiz-adv-x="541" 
d="M575 711l-141 -672q-1 -7 -8 -10q-86 -39 -179 -39q-96 0 -151.5 52.5t-55.5 144.5q0 126 90.5 217.5t223.5 91.5q33 0 57 -8l46 215q1 7 7 8q88 7 107 7q5 0 4 -7zM328 93l65 305q-23 10 -55 10q-72 0 -125 -62t-52 -148q0 -57 29.5 -86.5t78.5 -29.5q33 0 59 11z" />
    <glyph glyph-name="e" unicode="e" horiz-adv-x="492" 
d="M407 114l-17 -83q-2 -7 -9 -11q-55 -30 -143 -30q-100 0 -149 53t-49 144q0 120 80 214.5t196 94.5q79 0 119 -39t40 -95q0 -82 -81.5 -124.5t-238.5 -39.5q-1 -9 -1 -21q0 -92 113 -92q74 0 136 33q4 2 4 -2v-2zM166 275q203 -5 203 87q0 19 -13 35t-46 16
q-47 0 -87 -39t-57 -99z" />
    <glyph glyph-name="f" unicode="f" horiz-adv-x="271" 
d="M106 400l-57 4q-7 0 -5 7l16 69q2 6 7 6h57l6 25q46 207 209 207q39 0 57 -9q6 -3 4 -9l-17 -79q-2 -7 -7 -6q-15 5 -36 5q-32 0 -55.5 -20.5t-36.5 -80.5l-8 -33h86q5 0 4 -6l-15 -70q-1 -4 -6 -6l-87 -4q-101 -496 -124 -568q-3 -8 -10 -8q-19 -2 -60 -6l-42 -5
q-7 0 -5 8q18 57 125 579z" />
    <glyph glyph-name="g" unicode="g" horiz-adv-x="535" 
d="M-21 -185l24 86q2 7 7 4q61 -32 132 -32q72 0 105.5 34.5t53.5 113.5q-41 -18 -93 -18q-75 0 -122 45.5t-47 131.5q0 125 91.5 220.5t237.5 95.5q87 0 146 -21q6 -2 5 -9q-12 -39 -16 -58l-76 -357q-19 -83 -48 -139.5t-67.5 -85.5t-79.5 -40.5t-95 -11.5q-93 0 -154 32
q-6 3 -4 9zM322 110l62 294q-12 4 -44 4q-74 0 -127 -62t-53 -149q0 -104 93 -104q38 0 69 17z" />
    <glyph glyph-name="h" unicode="h" horiz-adv-x="540" 
d="M16 6l148 698q1 6 7 7q81 4 106 7q6 0 5 -7l-60 -285q83 70 165 70q59 0 92 -43.5t12 -144.5l-65 -301q-1 -7 -8 -7h-104q-7 0 -5 8l65 297q19 95 -45 95q-61 0 -128 -74l-67 -320q-1 -6 -9 -6h-103q-8 0 -6 6z" />
    <glyph glyph-name="i" unicode="i" horiz-adv-x="246" 
d="M195 555q-28 0 -43.5 16.5t-11.5 42.5q4 27 24 43t49 16t43.5 -16t10.5 -43t-23.5 -43t-48.5 -16zM15 7l101 473q1 6 8 6h104q8 0 5 -8l-100 -471q-2 -7 -10 -7h-102q-6 0 -6 7z" />
    <glyph glyph-name="j" unicode="j" horiz-adv-x="246" 
d="M115 478q2 7 9 7h102q7 0 6 -7l-99 -472q-19 -85 -38 -126.5t-48 -66.5q-44 -38 -124 -38q-26 0 -38 4q-7 2 -4 9l16 73q1 6 8 6q48 1 68.5 21.5t34.5 84.5zM192 555q-28 0 -43.5 16.5t-11.5 42.5q4 27 24 43t49 16t43.5 -16t10.5 -43t-23.5 -43t-48.5 -16z" />
    <glyph glyph-name="k" unicode="k" horiz-adv-x="509" 
d="M162 704q1 5 8 7q13 1 57 4t49 3q7 0 5 -7l-88 -419h40q10 0 20 10q20 24 78 94t70 85q5 5 11 5h108q10 0 3 -9q-53 -69 -199 -223q-3 -3 -1 -6q56 -94 132 -240q4 -8 -5 -8h-115q-7 0 -10 7q-16 29 -51.5 99t-43.5 84q-5 10 -14 10h-43l-40 -192q-1 -8 -9 -8h-103
q-7 0 -6 7z" />
    <glyph glyph-name="l" unicode="l" horiz-adv-x="262" 
d="M215 76l-15 -65q-3 -7 -8 -10q-27 -11 -71 -11q-109 0 -83 127l124 587q3 6 8 7q9 1 37 2.5t46.5 3t21.5 1.5q6 0 5 -7l-124 -593q-9 -41 23 -41q14 0 31 5q3 1 4.5 -1t0.5 -5z" />
    <glyph glyph-name="m" unicode="m" horiz-adv-x="819" 
d="M669 496q56 0 89 -44t12 -142l-64 -302q-1 -8 -9 -8h-101q-11 0 -8 9l64 303q19 89 -44 89q-55 0 -122 -74q-2 -24 -7 -41l-60 -279q-1 -7 -9 -7h-100q-8 0 -7 7l64 300q19 94 -44 94q-59 0 -125 -76l-67 -317q-3 -8 -10 -8h-99q-8 0 -7 7l79 372q12 55 17 100q1 7 8 7
h93q6 0 6 -6q0 -27 -5 -60q87 76 166 76q42 0 70 -22.5t35 -63.5q95 86 185 86z" />
    <glyph glyph-name="n" unicode="n" horiz-adv-x="540" 
d="M16 6l77 365q12 49 19 108q1 7 8 7h94q6 0 7 -4q0 -16 -5 -61q85 75 172 75q56 0 90 -44t12 -144l-64 -302q-2 -6 -7 -6h-104q-7 0 -6 7l65 302q17 92 -45 92t-127 -76l-69 -320q-1 -5 -7 -5h-104q-6 0 -6 6z" />
    <glyph glyph-name="o" unicode="o" horiz-adv-x="548" 
d="M318 496q88 0 140 -55.5t52 -143.5q0 -132 -77.5 -219.5t-198.5 -87.5q-95 0 -144.5 54.5t-49.5 139.5q0 127 77 219.5t201 92.5zM306 411q-60 0 -103 -71t-43 -159q0 -48 22 -76.5t64 -28.5q59 0 101.5 69t42.5 160q0 44 -19 75t-65 31z" />
    <glyph glyph-name="p" unicode="p" horiz-adv-x="543" 
d="M316 496q90 0 139.5 -52t49.5 -132q0 -96 -43.5 -170.5t-114.5 -113t-156 -38.5q-29 0 -59 11l-42 -200q-2 -7 -8 -8q-19 -2 -57 -5t-49 -4q-6 0 -5 7l138 659q2 5 10 9q113 37 197 37zM291 406q-42 0 -77 -16l-62 -298q28 -13 57 -13q72 0 123.5 63t51.5 157
q0 49 -23.5 78t-69.5 29z" />
    <glyph glyph-name="q" unicode="q" horiz-adv-x="540" 
d="M217 -10q-80 0 -128.5 50.5t-48.5 131.5q0 132 92 228t237 96q92 0 154 -28q6 -3 5 -9q-10 -29 -17 -56l-129 -604q-1 -6 -7 -7q-26 -2 -105 -8q-7 0 -5 8l46 217q-42 -19 -94 -19zM330 100l63 301q-25 7 -49 7q-78 0 -131 -66t-53 -153q0 -52 25 -79.5t69 -27.5
q41 0 76 18z" />
    <glyph glyph-name="r" unicode="r" horiz-adv-x="355" 
d="M117 486h88q8 0 8 -7q5 -31 -4 -73q33 42 82.5 66t91.5 23q9 0 6 -9l-23 -99q-2 -5 -6 -5q-113 2 -164 -76l-64 -300q-2 -6 -8 -6h-104q-6 0 -5 6l75 356q16 73 20 118q0 6 7 6z" />
    <glyph glyph-name="s" unicode="s" horiz-adv-x="402" 
d="M356 370q-59 36 -128 36q-32 0 -48.5 -13t-16.5 -34q0 -16 11 -28.5t49 -34.5q75 -39 103.5 -73t28.5 -79q0 -75 -55 -114.5t-138 -39.5q-102 0 -161 50q-5 4 -3 13l19 80q2 8 7 3q78 -55 149 -55q68 0 68 47q0 18 -13 32t-55 38q-64 36 -90 67.5t-26 75.5q0 68 52 111
t141 43q85 0 130 -33q6 -3 3 -10l-19 -79q-1 -6 -8 -3z" />
    <glyph glyph-name="t" unicode="t" horiz-adv-x="312" 
d="M260 83l-13 -63q-3 -8 -10 -11q-35 -19 -93 -19q-55 0 -84 34.5t-14 106.5l57 269l-60 4q-7 0 -5 8l15 68q2 6 9 6h60l24 115q4 7 8 7q60 3 107 20q4 2 6.5 0t1.5 -5q-5 -20 -15 -66t-16 -71h95q9 0 6 -7l-14 -67q-1 -8 -9 -8l-97 -4l-53 -258q-13 -61 37 -61q30 0 51 8
q2 2 4.5 0t1.5 -6z" />
    <glyph glyph-name="u" unicode="u" horiz-adv-x="528" 
d="M515 480l-77 -366q-12 -63 -12 -107q0 -7 -8 -7h-92q-9 0 -10 7q-2 19 3 52q-73 -69 -161 -69q-61 0 -96 42.5t-15 135.5l65 312q3 6 9 6h104q5 0 5 -8l-64 -306q-9 -40 3.5 -63t46.5 -23q58 0 113 66l71 329q2 5 8 5h102q6 0 5 -6z" />
    <glyph glyph-name="v" unicode="v" horiz-adv-x="478" 
d="M237 0h-120q-7 0 -8 6q-7 56 -31.5 242.5t-29.5 230.5q0 6 7 7h103q8 0 8 -6q31 -322 31 -377h2q27 60 193 378q2 5 8 5h109q8 0 5 -7q-70 -138 -268 -473q-4 -6 -9 -6z" />
    <glyph glyph-name="w" unicode="w" horiz-adv-x="730" 
d="M506 0h-109q-8 0 -8 6q-12 311 -11 364q-9 -25 -168 -363q-4 -7 -11 -7h-106q-9 0 -10 7l-27 472q0 7 8 7h104q7 0 8 -5q9 -299 5 -370h2q1 3 7.5 17.5t18.5 42t29 67t46.5 103t65.5 138.5q4 7 10 7h97q8 0 8 -8q8 -333 7 -368h1q28 78 167 370q2 6 11 6h101q9 0 5 -9
l-242 -471q-2 -6 -9 -6z" />
    <glyph glyph-name="x" unicode="x" horiz-adv-x="468" 
d="M163 248l-99 231q-4 7 5 7h111q6 0 7 -5l64 -173h1l127 172q5 6 10 6h110q4 0 4.5 -3t-1.5 -5q-115 -145 -191 -233q15 -34 55 -124t50 -113q3 -8 -5 -8h-110q-7 0 -10 7l-66 172h-1q-31 -45 -132 -173q-2 -5 -10 -6h-118q-9 0 -3 8q177 210 202 240z" />
    <glyph glyph-name="y" unicode="y" horiz-adv-x="481" 
d="M52 486h114q5 0 6 -4q43 -230 50 -342h1q28 49 90 182t74 157q3 7 9 7h106q8 0 4 -9q-108 -247 -250 -453q-46 -68 -105 -137.5t-89 -97.5q-4 -5 -11 -5h-127q-4 0 -5 3t1 5q122 112 207 235q4 7 4 13q-5 32 -41 217t-43 222q-2 7 5 7z" />
    <glyph glyph-name="z" unicode="z" horiz-adv-x="424" 
d="M350 0h-368q-7 0 -5 5l13 54q1 3 6 10q57 67 166 189.5t120 135.5q-19 -1 -97 -1h-126q-6 0 -5 5l27 84q1 4 7 4h348q5 0 4 -6l-14 -59q-1 -3 -7 -12q-92 -116 -276 -318q28 2 113 2h125q7 0 5 -6l-29 -81q-1 -6 -7 -6z" />
    <glyph glyph-name="braceleft" unicode="{" horiz-adv-x="409" 
d="M42 250q-4 0 -3 6l18 78q2 5 6 5q67 0 96 20t41 69q5 23 14 80.5t13 76.5q6 30 18.5 57t38.5 57.5t73 49.5t111 20q6 1 6 -5l-16 -74q0 -4 -6 -7q-63 -7 -90.5 -35t-36.5 -71q-4 -19 -12.5 -73t-13.5 -78q-22 -105 -132 -129v-4q102 -23 77 -137q-6 -29 -20.5 -82
t-17.5 -64q-12 -49 6 -74.5t75 -35.5q5 -2 4 -7l-16 -76q-2 -7 -7 -5q-96 9 -138 61t-24 133q5 22 18.5 68.5t19.5 74.5q10 51 -12 76t-90 25z" />
    <glyph glyph-name="bar" unicode="|" horiz-adv-x="236" 
d="M169 -196h-103v980h103v-980z" />
    <glyph glyph-name="braceright" unicode="}" horiz-adv-x="409" 
d="M391 338q4 0 4 -7l-17 -77q-1 -5 -6 -5q-67 0 -97.5 -21t-41.5 -69q-4 -22 -13.5 -81t-14.5 -82q-38 -181 -241 -184q-6 0 -5 5l15 75q0 6 6 6q65 8 90.5 34.5t35.5 71.5q5 23 14 79t14 79q22 112 131 129l1 3q-103 25 -78 132q7 31 22.5 83.5t18.5 64.5q11 46 -6 73
t-78 35q-5 0 -4 7l16 75q1 6 7 6q97 -9 138.5 -59.5t23.5 -131.5q-6 -26 -18.5 -70t-17.5 -67q-13 -54 8.5 -78t92.5 -26z" />
    <glyph glyph-name="asciitilde" unicode="~" horiz-adv-x="562" 
d="M116 188h-71q-6 1 -6 8q-3 91 33 134t96 43q33 0 59.5 -12t71.5 -44q39 -28 58.5 -38.5t38.5 -10.5q25 0 35.5 19.5t9.5 72.5q0 7 7 7h69q7 0 7 -6q6 -97 -30 -138t-95 -41q-61 0 -132 53q-10 7 -24.5 18t-21 16t-16 10.5t-16.5 7.5t-15 2q-54 0 -52 -94q0 -7 -6 -7z" />
    <glyph glyph-name="uni00A0" unicode="&#xa0;" horiz-adv-x="231" 
 />
    <glyph glyph-name="exclamdown" unicode="&#xa1;" horiz-adv-x="259" 
d="M135 -177q-39 0 -54 10q-5 4 -3 10l15 72q11 50 47 183.5t45 161.5q2 6 8 6h73q6 0 6 -7q-5 -43 -25.5 -167t-31.5 -174l-15 -74q-2 -7 -7 -10q-22 -11 -58 -11zM267 496q31 0 48 -19.5t13 -48.5t-24.5 -47.5t-52.5 -18.5q-31 0 -48 19.5t-14 47.5q4 30 24.5 48.5
t53.5 18.5z" />
    <glyph glyph-name="cent" unicode="&#xa2;" horiz-adv-x="540" 
d="M332 92l-18 -87q-1 -6 -7 -6h-79q-5 0 -4 7l19 87q-68 13 -108 61.5t-40 126.5q0 107 71 184.5t175 89.5l19 86q1 5 7 5h77q6 0 5 -5l-17 -82q46 -2 77 -21q4 -3 3 -9l-19 -83q0 -7 -6 -4q-42 22 -101 22q-74 0 -123 -46.5t-49 -122.5q0 -53 33.5 -81t82.5 -28
q62 0 113 23q3 1 4 -0.5t0 -5.5l-17 -80q-1 -6 -7 -10q-31 -17 -91 -21z" />
    <glyph glyph-name="sterling" unicode="&#xa3;" horiz-adv-x="540" 
d="M420 0h-424q-6 0 -4 5l15 71q1 4 6 6q60 20 87.5 70t40.5 126h-77q-5 0 -4 7l15 69q1 7 8 7h70l11 66q45 236 234 236q72 0 101 -22q5 -3 3 -10l-18 -80q-2 -8 -7 -5q-32 19 -78 19q-60 0 -89 -48.5t-43 -155.5h144q6 0 5 -7l-15 -70q0 -6 -8 -6h-141q-22 -129 -92 -180
h297q7 0 4 -7l-31 -84q-3 -7 -10 -7z" />
    <glyph glyph-name="currency" unicode="&#xa4;" horiz-adv-x="540" 
d="M173 323q0 -59 31 -88t72 -29q44 0 73.5 27t29.5 90q0 51 -27 85t-78 34q-46 0 -73.5 -33t-27.5 -86zM84 323q0 60 32 105l-74 72q-4 4 0 9l48 49q4 4 9 -1l72 -71q45 32 104 32q61 0 106 -32l73 69q4 5 10 1l46 -48q4 -4 -1 -8l-72 -71q32 -47 32 -107t-31 -105l70 -70
q5 -5 0 -9l-46 -46q-7 -5 -11 1l-66 69q-42 -33 -109 -33q-65 0 -109 31l-64 -68q-7 -5 -11 -1l-46 45q-5 5 -1 11l70 68q-31 45 -31 108z" />
    <glyph glyph-name="yen" unicode="&#xa5;" horiz-adv-x="540" 
d="M257 0h-100q-6 0 -6 8l34 154h-124q-7 0 -6 7l11 54q2 6 8 6h124l14 65h-124q-6 0 -5 7l11 51q1 7 9 7h106l-107 287q-2 7 4 7h108q4 0 7 -5q66 -220 71 -256h1q37 75 171 255q4 6 10 6h113q8 0 2 -8l-226 -286h104q5 0 4 -6l-11 -53q-2 -6 -8 -6h-127l-14 -65h127
q8 0 6 -6l-12 -55q-2 -6 -7 -6h-128l-32 -154q-2 -8 -8 -8z" />
    <glyph glyph-name="brokenbar" unicode="&#xa6;" horiz-adv-x="236" 
d="M169 392h-102v392h102v-392zM169 196v-392h-103v392h103z" />
    <glyph glyph-name="section" unicode="&#xa7;" horiz-adv-x="573" 
d="M318 327q-59 78 -74.5 117.5t-10.5 80.5q-60 -60 -60 -148q0 -46 17 -87.5t58 -99.5q50 -70 67.5 -114t4.5 -82q72 61 72 153q0 83 -74 180zM382 663q48 1 87 -11t54 -26q3 -4 3 -9l-16 -80q-2 -9 -9 -4q-51 43 -121 43q-65 0 -65 -51q0 -18 14.5 -41t66.5 -88
q91 -116 91 -224q0 -137 -92 -229t-221 -92q-54 0 -94.5 15t-57.5 32q-4 7 -3 12l19 84q1 3 3.5 4.5t4.5 -0.5q67 -56 140 -56q51 0 55 37q4 25 -9.5 53t-67.5 99q-80 115 -80 212q0 84 37.5 157t106.5 117.5t154 45.5z" />
    <glyph glyph-name="dieresis" unicode="&#xa8;" 
d="M147 555q-27 0 -42 16.5t-11 42.5q4 27 23.5 43t47.5 16t42 -16.5t10 -42.5q-4 -27 -23 -43t-47 -16zM349 555q-27 0 -41.5 16.5t-11.5 42.5q4 27 23.5 43t47.5 16t42 -16.5t10 -42.5q-4 -27 -23 -43t-47 -16z" />
    <glyph glyph-name="copyright" unicode="&#xa9;" horiz-adv-x="759" 
d="M66 328q0 141 95 235t235 94t234.5 -94t94.5 -235q0 -144 -94.5 -238t-234.5 -94q-141 0 -235.5 94.5t-94.5 237.5zM130 328q0 -119 76.5 -196.5t189.5 -77.5q121 0 193.5 76.5t72.5 197.5q0 118 -77 195t-189 77q-118 0 -192 -77t-74 -195zM525 237v-57q0 -6 -5 -8
q-38 -23 -103 -23q-85 0 -136.5 51.5t-51.5 125.5q0 79 55 131.5t141 52.5q60 0 92 -17q5 -3 5 -11v-57q0 -6 -8 -4q-32 16 -79 16q-51 0 -82.5 -30t-31.5 -77q0 -51 33 -80t79 -29q50 0 86 19q6 3 6 -3z" />
    <glyph glyph-name="ordfeminine" unicode="&#xaa;" horiz-adv-x="385" 
d="M217 285q-66 0 -106.5 35.5t-40.5 96.5q0 86 63.5 141t160.5 54q67 0 122 -20q2 -1 2 -4l-45 -213q-8 -49 -9 -55q-3 -6 -5 -7q-70 -28 -142 -28zM281 365l37 173q-14 6 -41 6q-49 0 -81.5 -34t-32.5 -84q0 -32 18.5 -51.5t51.5 -19.5q30 0 48 10z" />
    <glyph glyph-name="guillemotleft" unicode="&#xab;" horiz-adv-x="673" 
d="M74 213l13 61q1 4 6 7l272 175q3 2 5 0.5t1 -5.5l-20 -90q-1 -8 -7 -12l-173 -114l124 -115q5 -3 3 -9l-17 -83q-1 -5 -6 -2l-198 178q-3 2 -3 9zM338 213l13 61q1 4 6 7l272 175q3 2 5 0.5t1 -5.5l-20 -90q-1 -8 -7 -12l-173 -114l124 -115q5 -3 3 -9l-17 -83
q-1 -5 -6 -2l-198 178q-3 2 -3 9z" />
    <glyph glyph-name="logicalnot" unicode="&#xac;" horiz-adv-x="557" 
d="M36 402h484q6 0 6 -7v-280q0 -7 -5 -7h-78q-6 0 -6 7v201h-401q-6 0 -6 7v73q0 6 6 6z" />
    <glyph glyph-name="uni00AD" unicode="&#xad;" horiz-adv-x="352" 
d="M285 201h-236q-6 0 -5 7l19 87q0 6 7 6h235q7 0 5 -6l-18 -87q-1 -7 -7 -7z" />
    <glyph glyph-name="registered" unicode="&#xae;" horiz-adv-x="201" 
d="M172 444q-45 0 -74 29t-29 72q0 42 29 71t74 29q42 0 71 -29t29 -71q0 -43 -28.5 -72t-71.5 -29zM172 465q34 0 55 22t21 57t-22 58t-57 23q-33 0 -54 -22.5t-21 -58.5q0 -33 22 -56t56 -23zM154 497h-20q-3 0 -3 3v93q0 2 3 2q5 1 34 1q45 0 45 -30q0 -19 -22 -27
q2 -3 13.5 -18.5t14.5 -20.5q0 -2 -1 -3h-23q-3 0 -5 2q-5 7 -21 31q-1 3 -4 3h-9v-33q0 -3 -2 -3zM156 551h11q20 0 20 13q0 12 -21 12h-10v-25z" />
    <glyph glyph-name="macron" unicode="&#xaf;" 
d="M126 661h284q7 0 5 -7l-15 -71q-3 -7 -8 -7h-282q-8 0 -5 7l15 73q2 5 6 5z" />
    <glyph glyph-name="degree" unicode="&#xb0;" horiz-adv-x="282" 
d="M146 628q55 0 90 -36.5t35 -91.5q0 -56 -35 -93t-90 -37q-56 0 -92 37.5t-36 92.5q0 54 36 91t92 37zM146 568q-28 0 -46 -19.5t-18 -48.5q0 -30 18 -49.5t46 -19.5q27 0 45 19.5t18 49.5q0 29 -18.5 48.5t-44.5 19.5z" />
    <glyph glyph-name="plusminus" unicode="&#xb1;" horiz-adv-x="557" 
d="M30 79q0 7 8 7h481q8 0 8 -8v-69q0 -9 -9 -9h-478q-10 0 -10 8v71zM241 627h76q7 0 7 -7v-194h196q7 0 7 -8v-71q0 -8 -7 -8h-196v-196q0 -7 -7 -7h-77q-6 0 -6 7v196h-197q-7 0 -7 7v73q0 7 7 7h197v194q0 7 7 7z" />
    <glyph glyph-name="twosuperior" unicode="&#xb2;" horiz-adv-x="324" 
d="M335 453h-258q-3 0 -3 5l14 48q2 5 4 6q12 8 49 32t57 38.5t46 36t38.5 42t12.5 40.5q0 22 -15 35.5t-44 13.5q-48 0 -96 -26q-6 -1 -6 4l13 61q2 6 7 9q50 26 112 26q55 0 85.5 -30.5t30.5 -72.5q0 -39 -22 -73.5t-47 -55t-77 -58.5q-9 -7 -14 -10l143 1q4 0 3 -5
l-25 -62q-3 -5 -8 -5z" />
    <glyph glyph-name="threesuperior" unicode="&#xb3;" horiz-adv-x="321" 
d="M170 611l10 51q1 5 5 5h37q72 3 72 50q0 38 -57 38q-45 0 -94 -25q-6 -2 -6 2l13 60q2 4 6 7q50 25 112 25q52 0 81.5 -25.5t29.5 -60.5q0 -66 -76 -95v-1q25 -8 42 -27.5t17 -47.5q0 -60 -48.5 -90.5t-112.5 -30.5q-72 0 -117 29q-3 1 -3 7l13 62q2 3 5 2
q49 -32 104 -32q37 0 56 14.5t19 36.5q-2 41 -60 41h-46q-3 0 -2 5z" />
    <glyph glyph-name="acute" unicode="&#xb4;" 
d="M180 546l108 147q5 6 13 6h115q7 0 2 -9l-125 -146q-6 -5 -12 -5h-98q-8 0 -3 7z" />
    <glyph glyph-name="mu" unicode="&#xb5;" horiz-adv-x="546" 
d="M519 478l-73 -345q-10 -50 24 -50q18 0 27 4q4 1 5 -1.5t0 -7.5l-15 -68q-1 -5 -6 -8q-25 -12 -64 -12q-82 0 -77 85q0 1 1 6.5t1 7.5q-60 -99 -153 -99q-48 0 -64 33q-12 -76 -43 -221q-1 -8 -9 -9q-10 -1 -36 -3.5t-43 -4.5t-20 -2q-8 0 -7 9l146 687q2 7 10 7h102
q7 0 6 -7l-66 -313q-8 -38 4 -60t44 -22q46 0 85.5 45.5t60.5 144.5l43 204q2 8 9 8h101q8 0 7 -8z" />
    <glyph glyph-name="paragraph" unicode="&#xb6;" horiz-adv-x="493" 
d="M278 -168q-3 -5 -11 -5h-70q-7 0 -2 7q54 69 79 185l4 16q-102 11 -167 72.5t-64 164.5q0 132 92.5 212.5t250.5 90.5q14 50 35 79q4 5 10 5h67q5 0 3 -6q-33 -75 -41 -113q-19 -90 -49.5 -240.5t-48.5 -238.5q-36 -175 -88 -229z" />
    <glyph glyph-name="periodcentered" unicode="&#xb7;" horiz-adv-x="292" 
d="M135 183q-30 0 -47.5 20t-13.5 50t25 49.5t52 19.5q30 0 47 -20.5t14 -49.5q-3 -31 -23.5 -50t-53.5 -19z" />
    <glyph glyph-name="cedilla" unicode="&#xb8;" horiz-adv-x="374" 
d="M106 6h80l-40 -50q60 -21 60 -80q0 -50 -36 -78.5t-95 -28.5q-47 0 -75 14q-4 2 -2 9l12 54q1 5 6 3q28 -14 62 -14q45 0 45 32q0 33 -82 43q-1 2 1 12.5t4 13.5z" />
    <glyph glyph-name="onesuperior" unicode="&#xb9;" horiz-adv-x="229" 
d="M129 459l60 282q-26 -11 -69 -19q-5 0 -4 4l11 54q2 3 5 5q50 9 95 32q4 2 8 2h56q4 0 4 -5l-76 -355q-1 -6 -6 -6h-79q-6 0 -5 6z" />
    <glyph glyph-name="ordmasculine" unicode="&#xba;" horiz-adv-x="393" 
d="M270 612q70 0 107.5 -38t37.5 -96q0 -85 -56 -139t-140 -54q-75 0 -111 39.5t-36 95.5q0 80 54.5 136t143.5 56zM260 546q-40 0 -66.5 -36.5t-26.5 -86.5q0 -33 17 -51.5t47 -18.5q37 0 64 35t27 88q0 70 -62 70z" />
    <glyph glyph-name="guillemotright" unicode="&#xbb;" horiz-adv-x="673" 
d="M607 269l-13 -61q-1 -4 -6 -7l-272 -175q-3 -2 -5 -0.5t-1 5.5l20 90q1 8 7 11l174 115l-125 115q-4 3 -3 9l17 83q2 5 7 2l197 -178q3 -2 3 -9zM343 269l-13 -61q-1 -3 -5 -7l-273 -175q-3 -2 -5 -0.5t-1 5.5l20 90q1 8 7 11l174 115l-125 115q-4 3 -3 9l17 83q2 5 7 2
l197 -178q3 -2 3 -9z" />
    <glyph glyph-name="onequarter" unicode="&#xbc;" horiz-adv-x="743" 
d="M105 298l60 282q-26 -11 -69 -19q-5 0 -5 4l12 54q2 3 5 5q51 10 95 32q2 2 8 2h56q5 0 3 -5l-75 -355q-1 -6 -7 -6h-79q-5 0 -4 6zM161 -11h-87q-7 0 -2 7l497 662q4 5 9 5h87q5 0 1 -6l-495 -662q-5 -6 -10 -6zM396 92l7 38q1 3 5 9q94 104 209 222q4 4 9 4h62
q5 0 4 -5l-46 -216h57q4 0 3 -4l-18 -48q-1 -4 -5 -4h-49l-18 -83q-2 -6 -6 -6h-71q-5 0 -4 6l18 83h-154q-5 0 -3 4zM478 144h87q22 100 31 132h-1q-12 -16 -63.5 -72.5t-53.5 -59.5z" />
    <glyph glyph-name="onehalf" unicode="&#xbd;" horiz-adv-x="781" 
d="M106 298l60 282q-26 -11 -69 -19q-5 0 -5 4l12 54q2 3 5 5q51 10 95 32q2 2 8 2h56q5 0 3 -5l-75 -355q-1 -6 -7 -6h-79q-6 0 -4 6zM153 -11h-86q-7 0 -2 7l497 663q4 4 8 4h87q4 -1 2 -5l-496 -663q-5 -6 -10 -6zM687 0h-258q-3 0 -3 5l14 48q1 5 4 6q12 8 49 32
t57 38.5t46 36t38.5 42t12.5 40.5q0 22 -15 35.5t-44 13.5q-48 0 -96 -26q-6 -1 -6 4l13 61q2 6 7 9q50 26 112 26q55 0 86 -31t30 -72q0 -39 -22 -73.5t-47 -55t-77 -58.5q-9 -7 -14 -10l143 1q4 0 3 -5l-25 -62q-3 -5 -8 -5z" />
    <glyph glyph-name="threequarters" unicode="&#xbe;" horiz-adv-x="791" 
d="M145 450l10 51q1 5 5 5h37q72 3 72 50q0 38 -57 38q-45 0 -94 -25q-6 -2 -6 2l13 60q2 5 6 7q50 25 112 25q52 0 81 -25.5t29 -60.5q0 -66 -75 -95v-1q25 -8 42 -27.5t17 -47.5q0 -60 -48.5 -90.5t-112.5 -30.5q-72 0 -117 29q-3 1 -3 7l13 62q2 3 5 2q49 -32 104 -32
q37 0 56 14.5t19 36.5q-2 41 -60 41h-46q-3 0 -2 5zM229 -11h-86q-7 0 -2 7l496 663q5 4 9 4h87q4 -1 1 -5l-495 -663q-5 -6 -10 -6zM448 92l7 38q1 4 5 8q42 47 209 223q4 4 9 4h62q5 0 4 -5l-46 -216h57q5 0 3 -5l-18 -47q-1 -4 -5 -4h-49l-18 -83q-2 -6 -6 -6h-71
q-5 0 -4 6l18 83h-154q-5 0 -3 4zM530 144h87q22 100 31 132h-1q-15 -19 -117 -132z" />
    <glyph glyph-name="questiondown" unicode="&#xbf;" horiz-adv-x="400" 
d="M247 -176q-79 0 -122 39.5t-42 97.5q0 45 26 79t86 75q55 38 74.5 55t19.5 29q0 20 -26 70q-3 6 3 6h88q4 0 7 -3q36 -50 36 -89q0 -20 -18.5 -42t-78.5 -62q-10 -7 -24 -17l-21 -15l-17.5 -12.5t-15.5 -12t-11.5 -10.5t-9.5 -10t-6 -9.5t-4 -11t-1 -11.5q1 -22 20 -37
t58 -15q80 0 155 46q2 1 3.5 0t0.5 -3l-18 -84q-1 -5 -5 -9q-23 -16 -66 -30t-91 -14zM349 496q31 0 48.5 -19.5t12.5 -48.5q-4 -29 -24.5 -47.5t-52.5 -18.5q-30 0 -47 19.5t-14 47.5q3 30 23.5 48.5t53.5 18.5z" />
    <glyph glyph-name="Agrave" unicode="&#xc0;" horiz-adv-x="626" 
d="M416 183h-219l-96 -178q-3 -5 -9 -5h-105q-8 0 -5 8q35 63 156 280.5t172 310.5q8 16 16 49q1 4 6 4h133q5 0 5 -4q13 -91 41 -310t44 -330q0 -8 -7 -8h-99q-8 0 -9 7zM245 280h164q-26 203 -30 272h-2q-21 -58 -132 -272zM389 814l67 -114q6 -8 -4 -8h-91q-8 0 -14 5
l-85 114q-3 3 -2 6t5 3h114q6 0 10 -6z" />
    <glyph glyph-name="Aacute" unicode="&#xc1;" horiz-adv-x="626" 
d="M416 183h-219l-96 -178q-3 -5 -9 -5h-105q-8 0 -5 8q35 63 156 280.5t172 310.5q8 16 16 49q1 4 6 4h133q5 0 5 -4q13 -91 41 -310t44 -330q0 -8 -7 -8h-99q-8 0 -9 7zM245 280h164q-26 203 -30 272h-2q-21 -58 -132 -272zM339 698l107 116q4 4 12 4h119q4 0 5 -3t-2 -5
l-124 -113q-7 -7 -14 -7h-99q-4 0 -5 3t1 5z" />
    <glyph glyph-name="Acircumflex" unicode="&#xc2;" horiz-adv-x="626" 
d="M416 183h-219l-96 -178q-3 -5 -9 -5h-105q-8 0 -5 8q35 63 156 280.5t172 310.5q8 16 16 49q1 4 6 4h133q5 0 5 -4q13 -91 41 -310t44 -330q0 -8 -7 -8h-99q-8 0 -9 7zM245 280h164q-26 203 -30 272h-2q-21 -58 -132 -272zM473 695l-47 65l-80 -65q-6 -5 -12 -5h-97
q-3 0 -4 3t2 5l147 116q5 4 9 4h93q8 0 9 -5l82 -117q4 -6 -4 -6h-89q-6 0 -9 5z" />
    <glyph glyph-name="Atilde" unicode="&#xc3;" horiz-adv-x="626" 
d="M416 183h-219l-96 -178q-3 -5 -9 -5h-105q-8 0 -5 8q35 63 156 280.5t172 310.5q8 16 16 49q1 4 6 4h133q5 0 5 -4q13 -91 41 -310t44 -330q0 -8 -7 -8h-99q-8 0 -9 7zM245 280h164q-26 203 -30 272h-2q-21 -58 -132 -272zM305 699h-67q-7 0 -7 7q6 61 38 93t75 32
q36 0 74.5 -25t52.5 -25q24 0 33 41q0 7 6 7h67q6 0 6 -7q-17 -124 -109 -124q-34 0 -72 24.5t-54 24.5q-12 0 -22 -10.5t-14 -31.5q-3 -6 -7 -6z" />
    <glyph glyph-name="Adieresis" unicode="&#xc4;" horiz-adv-x="626" 
d="M416 183h-219l-96 -178q-3 -5 -9 -5h-105q-8 0 -5 8q35 63 156 280.5t172 310.5q8 16 16 49q1 4 6 4h133q5 0 5 -4q13 -91 41 -310t44 -330q0 -8 -7 -8h-99q-8 0 -9 7zM245 280h164q-26 203 -30 272h-2q-21 -58 -132 -272zM298 700q-29 0 -45 16t-13 43q3 26 23 43t49 17
t44.5 -17t12.5 -43q-2 -27 -21.5 -43t-49.5 -16zM506 700q-29 0 -45 16t-13 43q3 26 23.5 43t49.5 17q28 0 43.5 -17.5t12.5 -43.5q-3 -27 -22.5 -42.5t-48.5 -15.5z" />
    <glyph glyph-name="Aring" unicode="&#xc5;" horiz-adv-x="626" 
d="M416 183h-219l-96 -178q-3 -5 -9 -5h-105q-8 0 -5 8q35 63 156 280.5t172 310.5q8 16 16 49q1 4 6 4h133q5 0 5 -4q13 -91 41 -310t44 -330q0 -8 -7 -8h-99q-8 0 -9 7zM245 280h164q-26 203 -30 272h-2q-21 -58 -132 -272zM300 763q4 41 37.5 66t80.5 25q48 0 76 -25.5
t24 -66.5q-4 -42 -37.5 -66.5t-81.5 -24.5t-75.5 25t-23.5 67zM364 763q-2 -18 9 -29t31 -11q21 0 34.5 10.5t14.5 28.5q2 19 -9 30.5t-31 11.5t-34 -11.5t-15 -29.5z" />
    <glyph glyph-name="AE" unicode="&#xc6;" horiz-adv-x="846" 
d="M97 0h-111q-8 0 -4 9l374 586q7 11 26 52q2 5 8 5h420q6 0 7 -6v-84q0 -6 -7 -6h-253l-18 -184h234q5 0 4 -6l-18 -85q-1 -5 -7 -5h-219l-17 -179h274q6 0 3 -7l-31 -84q-2 -6 -8 -6h-357q-4 0 -4 4l18 197h-183l-122 -195q-3 -6 -9 -6zM281 297h139q16 175 28 272h-2
q-20 -38 -165 -272z" />
    <glyph glyph-name="Ccedilla" unicode="&#xc7;" horiz-adv-x="578" 
d="M237 -64l49 58q-96 15 -158 82.5t-62 184.5q0 76 26.5 147.5t75 128.5t125 91.5t168.5 34.5q98 0 146 -28q5 -3 3 -10l-22 -87q-2 -8 -8 -4q-54 27 -126 27q-122 0 -194.5 -85t-72.5 -204q0 -91 51.5 -133.5t124.5 -42.5q83 0 151 29q4 2 6 0.5t1 -5.5l-22 -92
q-3 -10 -8 -12q-48 -23 -127 -26l-28 -34q61 -21 61 -80q0 -50 -36 -78.5t-96 -28.5q-46 0 -74 14q-5 2 -3 9l12 54q1 5 6 3q28 -14 63 -14q44 0 44 32q0 33 -81 43q-2 2 0 12.5t5 13.5z" />
    <glyph glyph-name="Egrave" unicode="&#xc8;" horiz-adv-x="519" 
d="M461 89l-32 -84q-1 -5 -7 -5h-390q-6 0 -6 7l135 640q1 5 7 5h353q7 0 7 -5v-85q0 -6 -6 -6h-265l-38 -177h246q5 0 4 -6l-17 -85q-2 -6 -8 -6h-245l-39 -185h298q6 0 3 -8zM348 825l67 -114q5 -8 -4 -8h-91q-8 0 -13 5l-86 114q-3 3 -2 6t5 3h114q6 0 10 -6z" />
    <glyph glyph-name="Eacute" unicode="&#xc9;" horiz-adv-x="519" 
d="M461 89l-32 -84q-1 -5 -7 -5h-390q-6 0 -6 7l135 640q1 5 7 5h353q7 0 7 -5v-85q0 -6 -6 -6h-265l-38 -177h246q5 0 4 -6l-17 -85q-2 -6 -8 -6h-245l-39 -185h298q6 0 3 -8zM288 707l108 116q4 5 11 5h120q7 0 3 -9l-124 -113q-6 -6 -14 -6h-100q-3 0 -4.5 2.5t0.5 4.5z
" />
    <glyph glyph-name="Ecircumflex" unicode="&#xca;" horiz-adv-x="519" 
d="M461 89l-32 -84q-1 -5 -7 -5h-390q-6 0 -6 7l135 640q1 5 7 5h353q7 0 7 -5v-85q0 -6 -6 -6h-265l-38 -177h246q5 0 4 -6l-17 -85q-2 -6 -8 -6h-245l-39 -185h298q6 0 3 -8zM423 707l-46 65l-80 -65q-6 -5 -12 -5h-97q-4 0 -4.5 3t2.5 6l147 116q6 3 9 3h93q8 0 9 -4
l82 -118q4 -6 -5 -6h-88q-5 0 -10 5z" />
    <glyph glyph-name="Edieresis" unicode="&#xcb;" horiz-adv-x="519" 
d="M461 89l-32 -84q-1 -5 -7 -5h-390q-6 0 -6 7l135 640q1 5 7 5h353q7 0 7 -5v-85q0 -6 -6 -6h-265l-38 -177h246q5 0 4 -6l-17 -85q-2 -6 -8 -6h-245l-39 -185h298q6 0 3 -8zM249 715q-29 0 -45 16t-14 42q3 27 23.5 43.5t49.5 16.5t44.5 -16.5t12.5 -43.5t-22.5 -42.5
t-48.5 -15.5zM456 715q-28 0 -44.5 15.5t-13.5 42.5t23.5 43.5t49.5 16.5q28 0 44 -17t13 -43q-3 -27 -22.5 -42.5t-49.5 -15.5z" />
    <glyph glyph-name="Igrave" unicode="&#xcc;" horiz-adv-x="264" 
d="M277 645l-135 -638q-1 -7 -8 -7h-101q-7 0 -7 7l135 640q1 5 7 5h103q7 0 6 -7zM212 825l67 -114q6 -9 -5 -9h-90q-8 0 -14 5l-86 115q-6 8 4 8h114q6 0 10 -5z" />
    <glyph glyph-name="Iacute" unicode="&#xcd;" horiz-adv-x="264" 
d="M277 645l-135 -638q-1 -7 -8 -7h-101q-7 0 -7 7l135 640q1 5 7 5h103q7 0 6 -7zM163 705l107 116q4 5 12 5h119q9 0 4 -8l-125 -114q-8 -6 -14 -6h-99q-4 0 -5 2.5t1 4.5z" />
    <glyph glyph-name="Icircumflex" unicode="&#xce;" horiz-adv-x="264" 
d="M277 645l-135 -638q-1 -7 -8 -7h-101q-7 0 -7 7l135 640q1 5 7 5h103q7 0 6 -7zM295 704l-47 65l-80 -65q-8 -6 -12 -6h-97q-4 0 -4.5 3.5t2.5 5.5l147 116q5 4 9 4h93q7 0 9 -5l82 -118q4 -6 -4 -6h-89q-6 0 -9 6z" />
    <glyph glyph-name="Idieresis" unicode="&#xcf;" horiz-adv-x="264" 
d="M277 645l-135 -638q-1 -7 -8 -7h-101q-7 0 -7 7l135 640q1 5 7 5h103q7 0 6 -7zM123 705q-29 0 -45 16t-14 42q4 27 24 43.5t49 16.5t44.5 -16.5t12.5 -43.5t-22.5 -42.5t-48.5 -15.5zM331 705q-29 0 -45.5 15.5t-13.5 42.5q4 27 24 43.5t49 16.5q28 0 44 -17t13 -43
q-3 -27 -22 -42.5t-49 -15.5z" />
    <glyph glyph-name="Eth" unicode="&#xd0;" horiz-adv-x="665" 
d="M54 376h60l56 270q1 4 6 6q62 2 161 2q143 0 221.5 -75t79.5 -199q0 -198 -134 -306q-99 -77 -281 -77q-131 0 -179 3q-9 1 -6 10l58 281h-59q-6 0 -5 7l15 73q1 5 7 5zM212 291l-42 -197q26 -2 74 -2q116 0 176 49q97 80 97 237q0 89 -49 136t-140 47q-45 0 -59 -1
l-39 -184h137q6 0 5 -6l-15 -73q-2 -6 -8 -6h-137z" />
    <glyph glyph-name="Ntilde" unicode="&#xd1;" horiz-adv-x="652" 
d="M161 647q1 5 8 5h131q6 0 7 -4q123 -373 148 -503h1q11 83 98 502q1 5 8 5h99q5 0 4 -6l-134 -638q-2 -8 -9 -8h-126q-7 0 -10 7q-129 403 -144 524h-1q-11 -86 -104 -525q-1 -6 -7 -6h-97q-8 0 -7 8zM320 713h-67q-4 0 -6 1.5t-1 4.5q6 61 38 93t75 32q36 0 74.5 -25
t51.5 -25q24 0 33 41q2 7 7 7h66q7 0 6 -7q-15 -124 -109 -124q-33 0 -71.5 24.5t-54.5 24.5q-27 0 -36 -42q0 -5 -6 -5z" />
    <glyph glyph-name="Ograve" unicode="&#xd2;" horiz-adv-x="685" 
d="M423 663q103 0 168.5 -67.5t65.5 -186.5q0 -81 -23 -155.5t-66.5 -133.5t-112 -94.5t-151.5 -35.5q-107 0 -173.5 64.5t-66.5 184.5q0 78 24.5 152.5t68.5 135.5t113.5 98.5t152.5 37.5zM406 566q-64 0 -116 -48.5t-78.5 -121.5t-26.5 -150t37.5 -118t97.5 -41
q99 0 158.5 98.5t59.5 220.5q0 79 -36.5 119.5t-95.5 40.5zM416 836l66 -114q6 -9 -4 -9h-90q-9 0 -14 5l-86 115q-6 8 4 8h113q6 0 11 -5z" />
    <glyph glyph-name="Oacute" unicode="&#xd3;" horiz-adv-x="685" 
d="M423 663q103 0 168.5 -67.5t65.5 -186.5q0 -81 -23 -155.5t-66.5 -133.5t-112 -94.5t-151.5 -35.5q-107 0 -173.5 64.5t-66.5 184.5q0 78 24.5 152.5t68.5 135.5t113.5 98.5t152.5 37.5zM406 566q-64 0 -116 -48.5t-78.5 -121.5t-26.5 -150t37.5 -118t97.5 -41
q99 0 158.5 98.5t59.5 220.5q0 79 -36.5 119.5t-95.5 40.5zM361 716l107 116q5 5 12 5h119q4 0 5 -3t-2 -5l-124 -114q-6 -6 -14 -6h-99q-4 0 -5 2.5t1 4.5z" />
    <glyph glyph-name="Ocircumflex" unicode="&#xd4;" horiz-adv-x="685" 
d="M423 663q103 0 168.5 -67.5t65.5 -186.5q0 -81 -23 -155.5t-66.5 -133.5t-112 -94.5t-151.5 -35.5q-107 0 -173.5 64.5t-66.5 184.5q0 78 24.5 152.5t68.5 135.5t113.5 98.5t152.5 37.5zM406 566q-64 0 -116 -48.5t-78.5 -121.5t-26.5 -150t37.5 -118t97.5 -41
q99 0 158.5 98.5t59.5 220.5q0 79 -36.5 119.5t-95.5 40.5zM506 719l-47 65l-80 -65q-6 -5 -12 -5h-97q-3 0 -4 3t2 5l147 116q5 4 9 4h93q8 0 9 -5l82 -117q4 -6 -4 -6h-89q-6 0 -9 5z" />
    <glyph glyph-name="Otilde" unicode="&#xd5;" horiz-adv-x="685" 
d="M423 663q103 0 168.5 -67.5t65.5 -186.5q0 -81 -23 -155.5t-66.5 -133.5t-112 -94.5t-151.5 -35.5q-107 0 -173.5 64.5t-66.5 184.5q0 78 24.5 152.5t68.5 135.5t113.5 98.5t152.5 37.5zM406 566q-64 0 -116 -48.5t-78.5 -121.5t-26.5 -150t37.5 -118t97.5 -41
q99 0 158.5 98.5t59.5 220.5q0 79 -36.5 119.5t-95.5 40.5zM338 724h-67q-4 0 -6 1.5t-1 4.5q6 62 37.5 93.5t75.5 31.5q35 0 74 -25t52 -25q25 0 33 42q2 6 7 6h66q7 0 6 -7q-15 -124 -109 -124q-33 0 -71.5 24.5t-54.5 24.5q-27 0 -36 -42q0 -5 -6 -5z" />
    <glyph glyph-name="Odieresis" unicode="&#xd6;" horiz-adv-x="685" 
d="M423 663q103 0 168.5 -67.5t65.5 -186.5q0 -81 -23 -155.5t-66.5 -133.5t-112 -94.5t-151.5 -35.5q-107 0 -173.5 64.5t-66.5 184.5q0 78 24.5 152.5t68.5 135.5t113.5 98.5t152.5 37.5zM406 566q-64 0 -116 -48.5t-78.5 -121.5t-26.5 -150t37.5 -118t97.5 -41
q99 0 158.5 98.5t59.5 220.5q0 79 -36.5 119.5t-95.5 40.5zM324 720q-29 0 -45 16.5t-13 42.5t23.5 43t49.5 17q28 0 43.5 -17t13.5 -43q-3 -27 -23 -43t-49 -16zM532 721q-28 0 -44.5 15.5t-13.5 42.5q3 26 23.5 43t49.5 17q28 0 43.5 -17t12.5 -43q-2 -27 -21.5 -42.5
t-49.5 -15.5z" />
    <glyph glyph-name="multiply" unicode="&#xd7;" horiz-adv-x="557" 
d="M41 454l46 47q5 5 12 0l180 -188l181 188q7 5 12 0l45 -48q5 -6 0 -11l-182 -185l183 -186q7 -4 0 -11l-47 -47q-6 -4 -12 2l-180 185l-181 -186q-6 -6 -10 -1l-48 49q-5 5 1 11l181 184l-182 186q-4 4 1 11z" />
    <glyph glyph-name="Oslash" unicode="&#xd8;" horiz-adv-x="685" 
d="M124 0h-74q-9 0 -4 7l65 72q-47 65 -47 162q0 109 43.5 204.5t126.5 156.5t188 61q80 0 139 -46l29 31q4 5 9 5h69q8 0 3 -7l-61 -72q48 -63 48 -164q0 -176 -96.5 -298t-255.5 -122q-90 0 -146 46l-28 -32q-3 -4 -8 -4zM199 183l293 349q-31 35 -86 35q-97 0 -160 -93.5
t-63 -219.5q0 -44 16 -71zM527 471l-292 -353q32 -32 86 -32q53 0 96 29t69.5 75t41 99.5t14.5 106.5q0 45 -15 75z" />
    <glyph glyph-name="Ugrave" unicode="&#xd9;" horiz-adv-x="645" 
d="M274 646l-85 -406q-15 -72 14 -111.5t95 -39.5q60 0 101 33t60 121l86 404q1 5 8 5h103q6 0 5 -7l-87 -408q-27 -131 -101 -189t-189 -58t-176 64t-36 184l86 409q1 5 8 5h102q8 0 6 -6zM402 824l66 -114q6 -9 -4 -9h-90q-9 0 -14 5l-86 115q-6 8 4 8h114q5 0 10 -5z" />
    <glyph glyph-name="Uacute" unicode="&#xda;" horiz-adv-x="645" 
d="M274 646l-85 -406q-15 -72 14 -111.5t95 -39.5q60 0 101 33t60 121l86 404q1 5 8 5h103q6 0 5 -7l-87 -408q-27 -131 -101 -189t-189 -58t-176 64t-36 184l86 409q1 5 8 5h102q8 0 6 -6zM339 707l108 116q4 4 12 4h119q4 0 4.5 -3t-1.5 -5l-124 -113q-7 -7 -14 -7h-99
q-9 0 -5 8z" />
    <glyph glyph-name="Ucircumflex" unicode="&#xdb;" horiz-adv-x="645" 
d="M274 646l-85 -406q-15 -72 14 -111.5t95 -39.5q60 0 101 33t60 121l86 404q1 5 8 5h103q6 0 5 -7l-87 -408q-27 -131 -101 -189t-189 -58t-176 64t-36 184l86 409q1 5 8 5h102q8 0 6 -6zM483 710l-47 65l-80 -65q-6 -5 -12 -5h-97q-3 0 -4 3t2 5l147 116q5 4 9 4h93
q7 0 9 -5l82 -118q3 -5 -4 -5h-89q-6 0 -9 5z" />
    <glyph glyph-name="Udieresis" unicode="&#xdc;" horiz-adv-x="645" 
d="M274 646l-85 -406q-15 -72 14 -111.5t95 -39.5q60 0 101 33t60 121l86 404q1 5 8 5h103q6 0 5 -7l-87 -408q-27 -131 -101 -189t-189 -58t-176 64t-36 184l86 409q1 5 8 5h102q8 0 6 -6zM309 711q-29 0 -45 16t-13 43q3 26 23 43t49 17t44.5 -17t12.5 -43
q-3 -28 -22 -43.5t-49 -15.5zM517 711q-29 0 -45 16t-13 43q3 26 23 43t49 17q28 0 44 -17.5t13 -43.5q-3 -27 -22.5 -42.5t-48.5 -15.5z" />
    <glyph glyph-name="Yacute" unicode="&#xdd;" horiz-adv-x="559" 
d="M277 0h-100q-9 0 -7 9l47 219q4 26 0 40l-123 378q-2 6 5 6h109q6 0 7 -4q74 -253 83 -317q52 88 214 316q3 5 10 5h110q8 0 3 -7l-285 -381q-11 -13 -19 -43l-45 -213q-1 -8 -9 -8zM292 703l108 116q3 4 12 4h119q4 0 4.5 -3t-1.5 -5l-124 -113q-7 -7 -14 -7h-99
q-9 0 -5 8z" />
    <glyph glyph-name="Thorn" unicode="&#xde;" horiz-adv-x="571" 
d="M25 7l136 640q1 5 7 5h103q6 0 5 -6l-24 -116h76q95 0 148.5 -49t53.5 -125q0 -61 -23 -107.5t-64.5 -73.5t-93.5 -40t-114 -13q-43 0 -69 2l-25 -116q-2 -8 -8 -8h-102q-6 0 -6 7zM233 439l-48 -222q21 -3 68 -3q77 0 119 34t42 98q0 42 -30 68.5t-89 26.5q-38 0 -62 -2
z" />
    <glyph glyph-name="germandbls" unicode="&#xdf;" horiz-adv-x="580" 
d="M67 486h58q27 113 92.5 172.5t167.5 59.5q94 0 138 -51t45 -118q0 -49 -18 -70q-9 -10 -29 -26t-35.5 -27t-39 -27t-25.5 -18q42 -48 60.5 -72t34.5 -61t16 -74q0 -81 -55.5 -132.5t-144.5 -51.5q-39 0 -78.5 11t-58.5 26q-5 5 -4 12l18 82q3 7 8 4q54 -40 116 -40
q40 0 62 23.5t22 56.5q0 41 -40 92q-18 22 -73 77q-4 4 -3 11l10 54q2 5 6 9q108 75 135 103q5 17 5 38q0 37 -21.5 60t-60.5 23q-52 0 -85.5 -39t-52.5 -122q-5 -26 -40 -194.5t-59.5 -279.5t-39.5 -165q-1 -8 -8 -8l-103 -11q-7 0 -6 7q20 74 125 580l-57 3q-6 1 -4 9
l15 67q1 7 7 7z" />
    <glyph glyph-name="agrave" unicode="&#xe0;" horiz-adv-x="535" 
d="M520 473l-93 -438q-1 -4 -7 -8q-81 -37 -180 -37q-94 0 -147 51t-53 141q-1 121 96.5 217.5t249.5 96.5q78 0 132 -18q2 0 2 -5zM321 91l66 311q-10 2 -29 2q-79 0 -138.5 -63t-59.5 -150q0 -55 28.5 -82t78.5 -27q33 0 54 9zM376 694l52 -147q4 -8 -6 -8h-93q-5 0 -9 6
l-75 145q-4 9 6 9h116q7 0 9 -5z" />
    <glyph glyph-name="aacute" unicode="&#xe1;" horiz-adv-x="535" 
d="M520 473l-93 -438q-1 -4 -7 -8q-81 -37 -180 -37q-94 0 -147 51t-53 141q-1 121 96.5 217.5t249.5 96.5q78 0 132 -18q2 0 2 -5zM321 91l66 311q-10 2 -29 2q-79 0 -138.5 -63t-59.5 -150q0 -55 28.5 -82t78.5 -27q33 0 54 9zM288 547l108 147q5 6 13 6h115q7 0 2 -9
l-125 -146q-6 -5 -12 -5h-98q-8 0 -3 7z" />
    <glyph glyph-name="acircumflex" unicode="&#xe2;" horiz-adv-x="535" 
d="M520 473l-93 -438q-1 -4 -7 -8q-81 -37 -180 -37q-94 0 -147 51t-53 141q-1 121 96.5 217.5t249.5 96.5q78 0 132 -18q2 0 2 -5zM321 91l66 311q-10 2 -29 2q-79 0 -138.5 -63t-59.5 -150q0 -55 28.5 -82t78.5 -27q33 0 54 9zM376 630q-58 -68 -81 -90q-3 -4 -10 -4h-86
q-4 0 -4 3t2 5l140 148q5 4 10 4h88q5 0 8 -4l62 -150q2 -6 -5 -6h-82q-5 0 -9 4q-7 19 -33 90z" />
    <glyph glyph-name="atilde" unicode="&#xe3;" horiz-adv-x="535" 
d="M520 473l-93 -438q-1 -4 -7 -8q-81 -37 -180 -37q-94 0 -147 51t-53 141q-1 121 96.5 217.5t249.5 96.5q78 0 132 -18q2 0 2 -5zM321 91l66 311q-10 2 -29 2q-79 0 -138.5 -63t-59.5 -150q0 -55 28.5 -82t78.5 -27q33 0 54 9zM252 555h-72q-6 0 -6 7q6 64 39 97t78 33
q35 0 78.5 -25t55.5 -25q28 0 33 43q1 6 7 6h70q7 0 5 -6q-6 -69 -36.5 -100.5t-73.5 -31.5q-33 0 -74.5 24.5t-59.5 24.5q-31 0 -38 -42q0 -5 -6 -5z" />
    <glyph glyph-name="adieresis" unicode="&#xe4;" horiz-adv-x="535" 
d="M520 473l-93 -438q-1 -4 -7 -8q-81 -37 -180 -37q-94 0 -147 51t-53 141q-1 121 96.5 217.5t249.5 96.5q78 0 132 -18q2 0 2 -5zM321 91l66 311q-10 2 -29 2q-79 0 -138.5 -63t-59.5 -150q0 -55 28.5 -82t78.5 -27q33 0 54 9zM248 555q-27 0 -42 16.5t-11 42.5
q4 27 23.5 43t47.5 16t42 -16.5t10 -42.5q-4 -27 -23 -43t-47 -16zM450 555q-27 0 -41.5 16.5t-11.5 42.5q4 27 23.5 43t47.5 16t42 -16.5t10 -42.5q-4 -27 -23 -43t-47 -16z" />
    <glyph glyph-name="aring" unicode="&#xe5;" horiz-adv-x="535" 
d="M520 473l-93 -438q-1 -4 -7 -8q-81 -37 -180 -37q-94 0 -147 51t-53 141q-1 121 96.5 217.5t249.5 96.5q78 0 132 -18q2 0 2 -5zM321 91l66 311q-10 2 -29 2q-79 0 -138.5 -63t-59.5 -150q0 -55 28.5 -82t78.5 -27q33 0 54 9zM269 625q4 42 36.5 69t80.5 27t75.5 -27
t23.5 -69q-5 -44 -38 -70.5t-81 -26.5q-49 0 -75.5 26t-21.5 71zM331 625q-2 -20 9 -32t31 -12t34.5 12t16.5 32t-10 32t-32 12t-33.5 -11.5t-15.5 -32.5z" />
    <glyph glyph-name="ae" unicode="&#xe6;" horiz-adv-x="802" 
d="M160 159q0 -38 18 -55.5t46 -17.5q66 0 127 70q-2 22 -1 41q0 51 25 111.5t60 89.5q-103 7 -189 -68t-86 -171zM631 496q77 0 115 -37t38 -94q0 -80 -82 -124.5t-237 -41.5q0 -2 -0.5 -9.5t-0.5 -10.5q0 -41 27 -69t89 -28q68 0 133 33q4 2 4 -2v-2l-18 -80q-2 -7 -8 -11
q-55 -30 -141 -30q-119 0 -173 88q-83 -88 -196 -88q-63 0 -102 37.5t-39 110.5q0 137 122 242.5t295 106.5q58 0 86 -8q37 17 88 17zM616 413q-48 0 -87.5 -39t-54.5 -99q205 -4 205 87q0 19 -14 35t-49 16z" />
    <glyph glyph-name="ccedilla" unicode="&#xe7;" horiz-adv-x="433" 
d="M142 -64l51 59q-75 15 -114 69t-39 131q0 126 87.5 213.5t211.5 87.5q57 0 89 -14q6 -3 3 -11l-18 -77q-1 -6 -8 -5q-27 12 -69 12q-77 0 -126 -57.5t-49 -136.5q0 -60 33 -91.5t82 -31.5q54 0 90 16q4 1 5 -0.5t0 -4.5l-18 -78q-1 -8 -8 -11q-29 -13 -75 -15l-28 -35
q60 -21 60 -80q0 -50 -36 -78.5t-95 -28.5q-47 0 -75 14q-4 2 -2 9l12 54q1 5 6 3q28 -14 62 -14q45 0 45 32q0 33 -82 43q-1 2 1 12.5t4 13.5z" />
    <glyph glyph-name="egrave" unicode="&#xe8;" horiz-adv-x="492" 
d="M407 114l-17 -83q-2 -7 -9 -11q-55 -30 -143 -30q-100 0 -149 53t-49 144q0 120 80 214.5t196 94.5q79 0 119 -39t40 -95q0 -82 -81.5 -124.5t-238.5 -39.5q-1 -9 -1 -21q0 -92 113 -92q74 0 136 33q4 2 4 -2v-2zM166 275q203 -5 203 87q0 19 -13 35t-46 16
q-47 0 -87 -39t-57 -99zM328 694l53 -147q2 -8 -6 -8h-93q-5 0 -9 6l-75 145q-4 9 6 9h116q7 0 8 -5z" />
    <glyph glyph-name="eacute" unicode="&#xe9;" horiz-adv-x="492" 
d="M407 114l-17 -83q-2 -7 -9 -11q-55 -30 -143 -30q-100 0 -149 53t-49 144q0 120 80 214.5t196 94.5q79 0 119 -39t40 -95q0 -82 -81.5 -124.5t-238.5 -39.5q-1 -9 -1 -21q0 -92 113 -92q74 0 136 33q4 2 4 -2v-2zM166 275q203 -5 203 87q0 19 -13 35t-46 16
q-47 0 -87 -39t-57 -99zM233 546l108 147q5 6 13 6h115q7 0 2 -9l-125 -146q-6 -5 -12 -5h-98q-8 0 -3 7z" />
    <glyph glyph-name="ecircumflex" unicode="&#xea;" horiz-adv-x="492" 
d="M407 114l-17 -83q-2 -7 -9 -11q-55 -30 -143 -30q-100 0 -149 53t-49 144q0 120 80 214.5t196 94.5q79 0 119 -39t40 -95q0 -82 -81.5 -124.5t-238.5 -39.5q-1 -9 -1 -21q0 -92 113 -92q74 0 136 33q4 2 4 -2v-2zM166 275q203 -5 203 87q0 19 -13 35t-46 16
q-47 0 -87 -39t-57 -99zM333 630q-58 -68 -81 -90q-4 -4 -10 -4h-86q-4 0 -4 3t2 5l140 148q5 4 10 4h88q5 0 8 -4l62 -150q2 -6 -5 -6h-82q-6 0 -9 4q-7 19 -33 90z" />
    <glyph glyph-name="edieresis" unicode="&#xeb;" horiz-adv-x="492" 
d="M407 114l-17 -83q-2 -7 -9 -11q-55 -30 -143 -30q-100 0 -149 53t-49 144q0 120 80 214.5t196 94.5q79 0 119 -39t40 -95q0 -82 -81.5 -124.5t-238.5 -39.5q-1 -9 -1 -21q0 -92 113 -92q74 0 136 33q4 2 4 -2v-2zM166 275q203 -5 203 87q0 19 -13 35t-46 16
q-47 0 -87 -39t-57 -99zM202 555q-27 0 -42 16.5t-11 42.5q4 27 23.5 43t47.5 16t42 -16.5t10 -42.5q-4 -27 -23 -43t-47 -16zM404 555q-27 0 -41.5 16.5t-11.5 42.5q4 27 23.5 43t47.5 16t42 -16.5t10 -42.5q-4 -27 -23 -43t-47 -16z" />
    <glyph glyph-name="igrave" unicode="&#xec;" horiz-adv-x="246" 
d="M15 7l101 473q1 6 8 6h104q8 0 5 -8l-100 -471q-2 -7 -10 -7h-102q-6 0 -6 7zM187 694l53 -147q4 -8 -6 -8h-93q-5 0 -9 6l-75 145q-4 9 6 9h116q7 0 8 -5z" />
    <glyph glyph-name="iacute" unicode="&#xed;" horiz-adv-x="246" 
d="M15 7l101 473q1 6 8 6h104q8 0 5 -8l-100 -471q-2 -7 -10 -7h-102q-6 0 -6 7zM122 546l108 147q5 6 13 6h115q7 0 2 -9l-125 -146q-6 -5 -12 -5h-98q-8 0 -3 7z" />
    <glyph glyph-name="icircumflex" unicode="&#xee;" horiz-adv-x="246" 
d="M15 7l101 473q1 6 8 6h104q8 0 5 -8l-100 -471q-2 -7 -10 -7h-102q-6 0 -6 7zM204 630q-40 -50 -80 -90q-4 -4 -10 -4h-86q-4 0 -4.5 3t2.5 5l140 148q4 4 9 4h89q6 0 7 -4l62 -150q4 -6 -4 -6h-82q-6 0 -9 4q-23 64 -34 90z" />
    <glyph glyph-name="idieresis" unicode="&#xef;" horiz-adv-x="246" 
d="M15 7l101 473q1 6 8 6h104q8 0 5 -8l-100 -471q-2 -7 -10 -7h-102q-6 0 -6 7zM83 555q-27 0 -42 16.5t-11 42.5q4 27 23.5 43t47.5 16t42 -16.5t10 -42.5q-4 -27 -23 -43t-47 -16zM285 555q-27 0 -41.5 16.5t-11.5 42.5q4 27 23.5 43t47.5 16t42 -16.5t10 -42.5
q-4 -27 -23 -43t-47 -16z" />
    <glyph glyph-name="eth" unicode="&#xf0;" horiz-adv-x="547" 
d="M307 369q-61 0 -103 -57.5t-42 -138.5q0 -42 21 -69.5t64 -27.5q58 0 100.5 74t43.5 172q0 12 -7 17q-24 30 -77 30zM501 632l-77 -40q84 -94 84 -257q-1 -150 -76.5 -247.5t-200.5 -97.5q-93 0 -141.5 52t-48.5 137q0 114 74.5 195t189.5 81q48 0 74 -22q-12 69 -53 105
l-150 -73q-6 -4 -6 3l10 55q1 7 7 8l91 46q-48 35 -124 52q-6 2 -5 9l22 72q1 8 7 8q110 -8 204 -84l130 65q5 1 5 -3l-9 -55q-3 -7 -7 -9z" />
    <glyph glyph-name="ntilde" unicode="&#xf1;" horiz-adv-x="540" 
d="M16 6l77 365q12 49 19 108q1 7 8 7h94q6 0 7 -4q0 -16 -5 -61q85 75 172 75q56 0 90 -44t12 -144l-64 -302q-2 -6 -7 -6h-104q-7 0 -6 7l65 302q17 92 -45 92t-127 -76l-69 -320q-1 -5 -7 -5h-104q-6 0 -6 6zM228 555h-71q-8 0 -6 7q5 64 38 97t79 33q35 0 78 -25t55 -25
q28 0 33 43q1 6 7 6h70q6 0 6 -6q-6 -69 -37 -100.5t-73 -31.5q-34 0 -75.5 24.5t-59.5 24.5q-31 0 -38 -42q0 -5 -6 -5z" />
    <glyph glyph-name="ograve" unicode="&#xf2;" horiz-adv-x="548" 
d="M318 496q88 0 140 -55.5t52 -143.5q0 -132 -77.5 -219.5t-198.5 -87.5q-95 0 -144.5 54.5t-49.5 139.5q0 127 77 219.5t201 92.5zM306 411q-60 0 -103 -71t-43 -159q0 -48 22 -76.5t64 -28.5q59 0 101.5 69t42.5 160q0 44 -19 75t-65 31zM336 694l53 -147q2 -8 -7 -8h-93
q-6 0 -8 6l-76 145q-4 9 6 9h116q7 0 9 -5z" />
    <glyph glyph-name="oacute" unicode="&#xf3;" horiz-adv-x="548" 
d="M318 496q88 0 140 -55.5t52 -143.5q0 -132 -77.5 -219.5t-198.5 -87.5q-95 0 -144.5 54.5t-49.5 139.5q0 127 77 219.5t201 92.5zM306 411q-60 0 -103 -71t-43 -159q0 -48 22 -76.5t64 -28.5q59 0 101.5 69t42.5 160q0 44 -19 75t-65 31zM249 546l108 147q5 6 13 6h115
q7 0 2 -9l-125 -146q-6 -5 -12 -5h-98q-8 0 -3 7z" />
    <glyph glyph-name="ocircumflex" unicode="&#xf4;" horiz-adv-x="548" 
d="M318 496q88 0 140 -55.5t52 -143.5q0 -132 -77.5 -219.5t-198.5 -87.5q-95 0 -144.5 54.5t-49.5 139.5q0 127 77 219.5t201 92.5zM306 411q-60 0 -103 -71t-43 -159q0 -48 22 -76.5t64 -28.5q59 0 101.5 69t42.5 160q0 44 -19 75t-65 31zM354 630q-40 -50 -80 -90
q-4 -4 -10 -4h-86q-4 0 -4.5 3t2.5 5l140 148q4 4 9 4h89q6 0 7 -4l62 -150q4 -6 -4 -6h-82q-6 0 -9 4q-23 64 -34 90z" />
    <glyph glyph-name="otilde" unicode="&#xf5;" horiz-adv-x="548" 
d="M318 496q88 0 140 -55.5t52 -143.5q0 -132 -77.5 -219.5t-198.5 -87.5q-95 0 -144.5 54.5t-49.5 139.5q0 127 77 219.5t201 92.5zM306 411q-60 0 -103 -71t-43 -159q0 -48 22 -76.5t64 -28.5q59 0 101.5 69t42.5 160q0 44 -19 75t-65 31zM226 555h-71q-8 0 -6 7
q5 64 38 97t79 33q35 0 78 -25t55 -25q28 0 33 43q1 6 7 6h70q6 0 6 -6q-6 -69 -37 -100.5t-73 -31.5q-34 0 -75.5 24.5t-59.5 24.5q-31 0 -38 -42q0 -5 -6 -5z" />
    <glyph glyph-name="odieresis" unicode="&#xf6;" horiz-adv-x="548" 
d="M318 496q88 0 140 -55.5t52 -143.5q0 -132 -77.5 -219.5t-198.5 -87.5q-95 0 -144.5 54.5t-49.5 139.5q0 127 77 219.5t201 92.5zM306 411q-60 0 -103 -71t-43 -159q0 -48 22 -76.5t64 -28.5q59 0 101.5 69t42.5 160q0 44 -19 75t-65 31zM222 555q-27 0 -42 16.5
t-11 42.5q4 27 23.5 43t47.5 16t42 -16.5t10 -42.5q-4 -27 -23 -43t-47 -16zM424 555q-27 0 -41.5 16.5t-11.5 42.5q4 27 23.5 43t47.5 16t42 -16.5t10 -42.5q-4 -27 -23 -43t-47 -16z" />
    <glyph glyph-name="divide" unicode="&#xf7;" horiz-adv-x="558" 
d="M278 378q-26 0 -41.5 16.5t-14.5 42.5q0 26 16 42t41 16t41 -16t16 -42q0 -27 -15.5 -43t-42.5 -16zM278 28q-25 0 -41 16.5t-15 41.5q0 27 15.5 43.5t41.5 16.5t41.5 -16.5t15.5 -43.5q0 -25 -16 -41.5t-42 -16.5zM30 297q0 8 7 8h483q7 0 7 -7v-71q0 -8 -7 -8h-482
q-8 0 -8 9v69z" />
    <glyph glyph-name="oslash" unicode="&#xf8;" horiz-adv-x="558" 
d="M164 152l199 232q-22 24 -61 24q-74 0 -116.5 -84t-21.5 -172zM115 25l-25 -27q-4 -4 -13 -4h-57q-9 0 -1 8l57 59q-36 53 -36 122q0 130 77 221.5t200 91.5q72 0 118 -37l23 24q4 4 8 4h59q8 0 2 -8l-54 -56q37 -50 37 -127q0 -132 -77 -219t-196 -87q-74 0 -122 35z
M385 328l-194 -225q22 -22 58 -22q52 0 88.5 41.5t48 98t-0.5 107.5z" />
    <glyph glyph-name="ugrave" unicode="&#xf9;" horiz-adv-x="528" 
d="M515 480l-77 -366q-12 -63 -12 -107q0 -7 -8 -7h-92q-9 0 -10 7q-2 19 3 52q-73 -69 -161 -69q-61 0 -96 42.5t-15 135.5l65 312q3 6 9 6h104q5 0 5 -8l-64 -306q-9 -40 3.5 -63t46.5 -23q58 0 113 66l71 329q2 5 8 5h102q6 0 5 -6zM332 694l53 -147q2 -8 -6 -8h-94
q-6 0 -8 6l-75 145q-4 9 5 9h116q8 0 9 -5z" />
    <glyph glyph-name="uacute" unicode="&#xfa;" horiz-adv-x="528" 
d="M515 480l-77 -366q-12 -63 -12 -107q0 -7 -8 -7h-92q-9 0 -10 7q-2 19 3 52q-73 -69 -161 -69q-61 0 -96 42.5t-15 135.5l65 312q3 6 9 6h104q5 0 5 -8l-64 -306q-9 -40 3.5 -63t46.5 -23q58 0 113 66l71 329q2 5 8 5h102q6 0 5 -6zM251 546l108 147q5 6 13 6h115
q7 0 2 -9l-125 -146q-6 -5 -12 -5h-98q-8 0 -3 7z" />
    <glyph glyph-name="ucircumflex" unicode="&#xfb;" horiz-adv-x="528" 
d="M515 480l-77 -366q-12 -63 -12 -107q0 -7 -8 -7h-92q-9 0 -10 7q-2 19 3 52q-73 -69 -161 -69q-61 0 -96 42.5t-15 135.5l65 312q3 6 9 6h104q5 0 5 -8l-64 -306q-9 -40 3.5 -63t46.5 -23q58 0 113 66l71 329q2 5 8 5h102q6 0 5 -6zM354 630q-58 -68 -81 -90
q-4 -4 -10 -4h-86q-4 0 -4 3t2 5l140 148q5 4 10 4h88q5 0 8 -4l62 -150q2 -6 -5 -6h-82q-6 0 -9 4q-7 19 -33 90z" />
    <glyph glyph-name="udieresis" unicode="&#xfc;" horiz-adv-x="528" 
d="M515 480l-77 -366q-12 -63 -12 -107q0 -7 -8 -7h-92q-9 0 -10 7q-2 19 3 52q-73 -69 -161 -69q-61 0 -96 42.5t-15 135.5l65 312q3 6 9 6h104q5 0 5 -8l-64 -306q-9 -40 3.5 -63t46.5 -23q58 0 113 66l71 329q2 5 8 5h102q6 0 5 -6zM227 555q-27 0 -42 16.5t-11 42.5
q4 27 23.5 43t47.5 16t42 -16.5t10 -42.5q-4 -27 -23 -43t-47 -16zM429 555q-27 0 -41.5 16.5t-11.5 42.5q4 27 23.5 43t47.5 16t42 -16.5t10 -42.5q-4 -27 -23 -43t-47 -16z" />
    <glyph glyph-name="yacute" unicode="&#xfd;" horiz-adv-x="481" 
d="M52 486h114q5 0 6 -4q43 -230 50 -342h1q28 49 90 182t74 157q3 7 9 7h106q8 0 4 -9q-108 -247 -250 -453q-46 -68 -105 -137.5t-89 -97.5q-4 -5 -11 -5h-127q-4 0 -5 3t1 5q122 112 207 235q4 7 4 13q-5 32 -41 217t-43 222q-2 7 5 7zM220 546l108 147q5 6 13 6h115
q7 0 2 -9l-125 -146q-6 -5 -12 -5h-98q-8 0 -3 7z" />
    <glyph glyph-name="thorn" unicode="&#xfe;" horiz-adv-x="542" 
d="M329 496q82 0 129 -52t47 -131q1 -145 -90.5 -234t-223.5 -89q-29 0 -59 11l-42 -200q-2 -7 -8 -8q-19 -2 -57.5 -5t-48.5 -4q-6 0 -5 7l192 913q1 6 8 7q86 4 105 7q7 0 6 -7l-50 -230q54 15 97 15zM292 406q-44 0 -80 -17l-60 -297q25 -13 57 -13q71 0 122.5 63
t51.5 156q0 49 -24 78.5t-67 29.5z" />
    <glyph glyph-name="ydieresis" unicode="&#xff;" horiz-adv-x="481" 
d="M52 486h114q5 0 6 -4q43 -230 50 -342h1q28 49 90 182t74 157q3 7 9 7h106q8 0 4 -9q-108 -247 -250 -453q-46 -68 -105 -137.5t-89 -97.5q-4 -5 -11 -5h-127q-4 0 -5 3t1 5q122 112 207 235q4 7 4 13q-5 32 -41 217t-43 222q-2 7 5 7zM186 555q-27 0 -42 16.5t-11 42.5
q4 27 23.5 43t47.5 16q27 0 41 -16t10 -43q-3 -27 -22 -43t-47 -16zM388 555q-27 0 -42 16.5t-11 42.5q4 27 23.5 43t47.5 16t42 -16.5t9 -42.5q-3 -27 -22 -43t-47 -16z" />
    <glyph glyph-name="Amacron" unicode="&#x100;" horiz-adv-x="626" 
d="M416 183h-219l-96 -178q-3 -5 -9 -5h-105q-8 0 -5 8q35 63 156 280.5t172 310.5q8 16 16 49q1 4 6 4h133q5 0 5 -4q13 -91 41 -310t44 -330q0 -8 -7 -8h-99q-8 0 -9 7zM245 280h164q-26 203 -30 272h-2q-21 -58 -132 -272zM288 807h276q6 0 4 -7l-16 -76q-1 -7 -7 -7
h-274q-5 0 -6.5 1t-0.5 5l16 76q3 8 8 8z" />
    <glyph glyph-name="amacron" unicode="&#x101;" horiz-adv-x="535" 
d="M520 473l-93 -438q-1 -4 -7 -8q-81 -37 -180 -37q-94 0 -147 51t-53 141q-1 121 96.5 217.5t249.5 96.5q78 0 132 -18q2 0 2 -5zM321 91l66 311q-10 2 -29 2q-79 0 -138.5 -63t-59.5 -150q0 -55 28.5 -82t78.5 -27q33 0 54 9zM226 661h284q8 0 4 -7l-15 -71q-1 -7 -7 -7
h-283q-7 0 -5 7l16 73q0 5 6 5z" />
    <glyph glyph-name="Abreve" unicode="&#x102;" horiz-adv-x="626" 
d="M416 183h-219l-96 -178q-3 -5 -9 -5h-105q-8 0 -5 8q35 63 156 280.5t172 310.5q8 16 16 49q1 4 6 4h133q5 0 5 -4q13 -91 41 -310t44 -330q0 -8 -7 -8h-99q-8 0 -9 7zM245 280h164q-26 203 -30 272h-2q-21 -58 -132 -272zM255 839h81q6 0 8 -6q12 -51 64 -51q54 0 79 52
q3 5 9 5h81q8 0 5 -8q-15 -63 -67 -100.5t-117 -37.5q-66 0 -107.5 35.5t-42.5 103.5q-2 7 7 7z" />
    <glyph glyph-name="abreve" unicode="&#x103;" horiz-adv-x="535" 
d="M520 473l-93 -438q-1 -4 -7 -8q-81 -37 -180 -37q-94 0 -147 51t-53 141q-1 121 96.5 217.5t249.5 96.5q78 0 132 -18q2 0 2 -5zM321 91l66 311q-10 2 -29 2q-79 0 -138.5 -63t-59.5 -150q0 -55 28.5 -82t78.5 -27q33 0 54 9zM212 684h82q5 0 5 -5q9 -50 64 -50
q54 0 82 50q1 5 6 5h82q5 0 3 -6q-44 -134 -186 -134q-66 0 -104 35.5t-39 99.5q0 5 5 5z" />
    <glyph glyph-name="Aogonek" unicode="&#x104;" horiz-adv-x="626" 
d="M326 648q1 4 6 4h133q5 0 5 -4q12 -91 40.5 -308.5t44.5 -329.5q0 -7 -5 -9q-97 -48 -97 -98q0 -36 46 -36q23 0 47 8q8 3 6 -6l-13 -67q-3 -9 -9 -12q-32 -15 -82 -15q-44 0 -74.5 23.5t-30.5 66.5q0 73 98 139q-2 6 -25 179h-219l-96 -178q-3 -5 -9 -5h-105q-8 0 -5 8
q35 63 156 280.5t172 310.5q8 16 16 49zM245 279h164q-26 203 -30 273h-2q-19 -52 -132 -273z" />
    <glyph glyph-name="aogonek" unicode="&#x105;" horiz-adv-x="535" 
d="M321 91l66 311q-8 3 -27 3q-79 0 -139.5 -63t-60.5 -152q0 -54 28.5 -81t78.5 -27q33 0 54 9zM40 182q-1 121 96.5 217.5t249.5 96.5q76 -1 131 -17q3 0 3 -5l-93 -439q-1 -5 -6 -7q-118 -64 -118 -123q0 -38 47 -38q26 0 50 8q4 1 5 -0.5t0 -5.5l-14 -68q-2 -7 -10 -10
q-32 -15 -82 -15q-46 0 -77 23.5t-31 67.5q0 66 75 124q-3 0 -12 -0.5t-15 -0.5q-93 0 -146 51t-53 141z" />
    <glyph glyph-name="Cacute" unicode="&#x106;" horiz-adv-x="578" 
d="M461 663q98 0 146 -28q5 -3 3 -10l-22 -87q-2 -8 -8 -4q-54 27 -126 27q-122 0 -194.5 -85t-72.5 -204q0 -91 51.5 -133.5t124.5 -42.5q83 0 151 29q4 2 6 0.5t1 -5.5l-22 -92q-3 -10 -8 -12q-55 -26 -153 -26q-114 0 -193 69t-79 202q0 76 26.5 147.5t75 128.5t125 91.5
t168.5 34.5zM367 708l107 116q4 5 12 5h119q4 0 4.5 -3t-1.5 -5l-124 -114q-6 -6 -14 -6h-99q-4 0 -5 2.5t1 4.5z" />
    <glyph glyph-name="cacute" unicode="&#x107;" horiz-adv-x="433" 
d="M371 95l-18 -78q-1 -8 -8 -11q-37 -16 -98 -16q-100 0 -153.5 57t-53.5 148q0 126 87.5 213.5t211.5 87.5q57 0 89 -14q6 -3 3 -11l-18 -77q-1 -6 -8 -5q-27 12 -69 12q-77 0 -126 -57.5t-49 -136.5q0 -60 33 -91.5t82 -31.5q54 0 90 16q4 1 5 -0.5t0 -4.5zM241 546
l108 147q5 6 13 6h115q7 0 3 -9l-126 -146q-6 -5 -12 -5h-97q-9 0 -4 7z" />
    <glyph glyph-name="Ccircumflex" unicode="&#x108;" horiz-adv-x="578" 
d="M461 663q98 0 146 -28q5 -3 3 -10l-22 -87q-2 -8 -8 -4q-54 27 -126 27q-122 0 -194.5 -85t-72.5 -204q0 -91 51.5 -133.5t124.5 -42.5q83 0 151 29q4 2 6 0.5t1 -5.5l-22 -92q-3 -10 -8 -12q-55 -26 -153 -26q-114 0 -193 69t-79 202q0 76 26.5 147.5t75 128.5t125 91.5
t168.5 34.5zM497 706l-47 65l-80 -65q-6 -5 -11 -5h-98q-3 0 -3.5 3t1.5 5l148 116q4 4 8 4h93q7 0 9 -5l83 -117q2 -6 -5 -6h-88q-7 0 -10 5z" />
    <glyph glyph-name="ccircumflex" unicode="&#x109;" horiz-adv-x="433" 
d="M371 95l-18 -78q-1 -8 -8 -11q-37 -16 -98 -16q-100 0 -153.5 57t-53.5 148q0 126 87.5 213.5t211.5 87.5q57 0 89 -14q6 -3 3 -11l-18 -77q-1 -6 -8 -5q-27 12 -69 12q-77 0 -126 -57.5t-49 -136.5q0 -60 33 -91.5t82 -31.5q54 0 90 16q4 1 5 -0.5t0 -4.5zM338 632
q-57 -67 -80 -90q-4 -4 -10 -4h-87q-4 0 -4 3t2 5l140 148q5 4 10 4h88q5 0 8 -4l62 -150q2 -6 -5 -6h-82q-5 0 -8 4q-11 27 -34 90z" />
    <glyph glyph-name="Cdotaccent" unicode="&#x10a;" horiz-adv-x="578" 
d="M461 663q98 0 146 -28q5 -3 3 -10l-22 -87q-2 -8 -8 -4q-54 27 -126 27q-122 0 -194.5 -85t-72.5 -204q0 -91 51.5 -133.5t124.5 -42.5q83 0 151 29q4 2 6 0.5t1 -5.5l-22 -92q-3 -10 -8 -12q-55 -26 -153 -26q-114 0 -193 69t-79 202q0 76 26.5 147.5t75 128.5t125 91.5
t168.5 34.5zM456 709q-31 0 -47.5 16.5t-13.5 43.5t23.5 43.5t51.5 16.5q30 0 46.5 -17t13.5 -44t-23 -43t-51 -16z" />
    <glyph glyph-name="cdotaccent" unicode="&#x10b;" horiz-adv-x="433" 
d="M371 95l-18 -78q-1 -8 -8 -11q-37 -16 -98 -16q-100 0 -153.5 57t-53.5 148q0 126 87.5 213.5t211.5 87.5q57 0 89 -14q6 -3 3 -11l-18 -77q-1 -6 -8 -5q-27 12 -69 12q-77 0 -126 -57.5t-49 -136.5q0 -60 33 -91.5t82 -31.5q54 0 90 16q4 1 5 -0.5t0 -4.5zM313 555
q-28 0 -43.5 16.5t-11.5 42.5q4 27 24.5 43t49.5 16q28 0 42.5 -16t10.5 -43t-23.5 -43t-48.5 -16z" />
    <glyph glyph-name="Ccaron" unicode="&#x10c;" horiz-adv-x="578" 
d="M461 663q98 0 146 -28q5 -3 3 -10l-22 -87q-2 -8 -8 -4q-54 27 -126 27q-122 0 -194.5 -85t-72.5 -204q0 -91 51.5 -133.5t124.5 -42.5q83 0 151 29q4 2 6 0.5t1 -5.5l-22 -92q-3 -10 -8 -12q-55 -26 -153 -26q-114 0 -193 69t-79 202q0 76 26.5 147.5t75 128.5t125 91.5
t168.5 34.5zM414 821l46 -65l80 65q8 6 12 6h97q4 0 4.5 -3.5t-2.5 -5.5l-147 -116q-5 -4 -9 -4h-92q-7 0 -10 5l-82 118q-4 6 5 6h88q6 0 10 -6z" />
    <glyph glyph-name="ccaron" unicode="&#x10d;" horiz-adv-x="433" 
d="M371 95l-18 -78q-1 -8 -8 -11q-37 -16 -98 -16q-100 0 -153.5 57t-53.5 148q0 126 87.5 213.5t211.5 87.5q57 0 89 -14q6 -3 3 -11l-18 -77q-1 -6 -8 -5q-27 12 -69 12q-77 0 -126 -57.5t-49 -136.5q0 -60 33 -91.5t82 -31.5q54 0 90 16q4 1 5 -0.5t0 -4.5zM321 602
q57 67 81 91q3 3 9 3h87q4 0 4 -3t-2 -5l-140 -147q-5 -5 -10 -5h-88q-5 0 -8 4l-62 150q-2 6 5 6h82q5 0 9 -4q7 -19 33 -90z" />
    <glyph glyph-name="Dcaron" unicode="&#x10e;" horiz-adv-x="655" 
d="M28 10l132 636q1 5 6 5q48 3 161 3q144 0 222 -75t79 -199q0 -198 -134 -306q-99 -77 -280 -77q-78 0 -180 3q-9 0 -6 10zM259 559l-99 -465q26 -2 74 -2q116 0 176 49q97 80 97 237q0 90 -49 136.5t-140 46.5q-41 0 -59 -2zM329 818l46 -65l80 65q7 6 12 6h97
q4 0 4.5 -3.5t-2.5 -5.5l-147 -116q-5 -4 -9 -4h-93q-7 0 -9 5l-82 118q-4 6 5 6h88q5 0 10 -6z" />
    <glyph glyph-name="dcaron" unicode="&#x10f;" horiz-adv-x="623" 
d="M593 487l47 229q2 6 9 6h77q7 0 4 -8l-56 -228q-2 -7 -8 -7h-67q-7 0 -6 8zM577 711l-141 -672q-1 -7 -8 -10q-86 -39 -179 -39q-96 0 -151.5 52.5t-55.5 144.5q0 127 90.5 218t224.5 91q32 0 56 -8l46 215q1 7 7 8q87 7 107 7q5 0 4 -7zM330 93l65 305q-23 10 -55 10
q-72 0 -125 -62t-52 -148q0 -57 29.5 -86.5t78.5 -29.5q33 0 59 11z" />
    <glyph glyph-name="Dcroat" unicode="&#x110;" horiz-adv-x="665" 
d="M54 376h60l56 270q1 4 6 6q62 2 161 2q143 0 221.5 -75t79.5 -199q0 -198 -134 -306q-99 -77 -281 -77q-131 0 -179 3q-9 1 -6 10l58 281h-59q-6 0 -5 7l15 73q1 5 7 5zM212 291l-42 -197q26 -2 74 -2q116 0 176 49q97 80 97 237q0 89 -49 136t-140 47q-45 0 -59 -1
l-39 -184h137q6 0 5 -6l-15 -73q-2 -6 -8 -6h-137z" />
    <glyph glyph-name="dcroat" unicode="&#x111;" horiz-adv-x="541" 
d="M407 462l18 83h-101q-6 0 -6 6l15 71q2 6 8 6h101l15 74q3 7 9 7l103 7q8 0 5 -8l-17 -80h62q6 0 5 -5l-15 -72q-1 -6 -8 -6h-61l-106 -506q-2 -8 -8 -11q-87 -38 -186 -38q-91 0 -145.5 52t-54.5 143q0 123 85.5 203.5t219.5 81.5q43 0 62 -8zM328 93l59 281
q-22 10 -54 10q-72 0 -122.5 -54t-49.5 -132q0 -60 30 -88t76 -28q35 0 61 11z" />
    <glyph glyph-name="Emacron" unicode="&#x112;" horiz-adv-x="519" 
d="M461 89l-32 -84q-1 -5 -7 -5h-390q-6 0 -6 7l135 640q1 5 7 5h353q7 0 7 -5v-85q0 -6 -6 -6h-265l-38 -177h246q5 0 4 -6l-17 -85q-2 -6 -8 -6h-245l-39 -185h298q6 0 3 -8zM237 809h275q7 0 4 -7l-15 -76q-3 -7 -8 -7h-274q-8 0 -7 7l17 76q1 7 8 7z" />
    <glyph glyph-name="emacron" unicode="&#x113;" horiz-adv-x="492" 
d="M407 114l-17 -83q-2 -7 -9 -11q-55 -30 -143 -30q-100 0 -149 53t-49 144q0 120 80 214.5t196 94.5q79 0 119 -39t40 -95q0 -82 -81.5 -124.5t-238.5 -39.5q-1 -9 -1 -21q0 -92 113 -92q74 0 136 33q4 2 4 -2v-2zM166 275q203 -5 203 87q0 19 -13 35t-46 16
q-47 0 -87 -39t-57 -99zM191 661h284q7 0 4 -7l-15 -71q-1 -7 -8 -7h-282q-7 0 -5 7l16 73q0 5 6 5z" />
    <glyph glyph-name="Ebreve" unicode="&#x114;" horiz-adv-x="519" 
d="M461 89l-32 -84q-1 -5 -7 -5h-390q-6 0 -6 7l135 640q1 5 7 5h353q7 0 7 -5v-85q0 -6 -6 -6h-265l-38 -177h246q5 0 4 -6l-17 -85q-2 -6 -8 -6h-245l-39 -185h298q6 0 3 -8zM212 846h81q6 0 7 -6q12 -51 65 -51q54 0 79 51q3 6 8 6h82q5 0 5 -8q-15 -63 -67.5 -100.5
t-116.5 -37.5q-66 0 -108 35.5t-43 103.5q0 7 8 7z" />
    <glyph glyph-name="ebreve" unicode="&#x115;" horiz-adv-x="492" 
d="M407 114l-17 -83q-2 -7 -9 -11q-55 -30 -143 -30q-100 0 -149 53t-49 144q0 120 80 214.5t196 94.5q79 0 119 -39t40 -95q0 -82 -81.5 -124.5t-238.5 -39.5q-1 -9 -1 -21q0 -92 113 -92q74 0 136 33q4 2 4 -2v-2zM166 275q203 -5 203 87q0 19 -13 35t-46 16
q-47 0 -87 -39t-57 -99zM180 685h82q5 0 5 -5q9 -50 64 -50q54 0 82 50q1 5 6 5h82q5 0 3 -6q-44 -134 -186 -134q-66 0 -104 35.5t-39 99.5q0 5 5 5z" />
    <glyph glyph-name="Edotaccent" unicode="&#x116;" horiz-adv-x="519" 
d="M461 89l-32 -84q-1 -5 -7 -5h-390q-6 0 -6 7l135 640q1 5 7 5h353q7 0 7 -5v-85q0 -6 -6 -6h-265l-38 -177h246q5 0 4 -6l-17 -85q-2 -6 -8 -6h-245l-39 -185h298q6 0 3 -8zM356 705q-31 0 -47.5 16.5t-13.5 43.5t23.5 43.5t51.5 16.5q30 0 46.5 -16.5t13.5 -43.5
t-23 -43.5t-51 -16.5z" />
    <glyph glyph-name="edotaccent" unicode="&#x117;" horiz-adv-x="492" 
d="M407 114l-17 -83q-2 -7 -9 -11q-55 -30 -143 -30q-100 0 -149 53t-49 144q0 120 80 214.5t196 94.5q79 0 119 -39t40 -95q0 -82 -81.5 -124.5t-238.5 -39.5q-1 -9 -1 -21q0 -92 113 -92q74 0 136 33q4 2 4 -2v-2zM166 275q203 -5 203 87q0 19 -13 35t-46 16
q-47 0 -87 -39t-57 -99zM321 555q-28 0 -43.5 16.5t-11.5 42.5q4 27 24 43t49 16t43.5 -16t10.5 -43t-23.5 -43t-48.5 -16z" />
    <glyph glyph-name="Eogonek" unicode="&#x118;" horiz-adv-x="519" 
d="M168 652h353q7 0 7 -5v-85q0 -6 -6 -6h-265l-38 -177h246q5 0 4 -6l-17 -85q-2 -6 -8 -6h-245l-39 -185h298q6 0 3 -8l-32 -84q-1 -5 -7 -5h-24q-85 -46 -85 -95q0 -37 50 -37q23 0 53 8q3 1 4.5 -0.5t0.5 -4.5l-15 -70q-3 -8 -8 -10q-28 -15 -87 -15q-47 0 -80 22.5
t-33 69.5q0 72 93 132h-259q-6 0 -6 7l135 640q1 5 7 5z" />
    <glyph glyph-name="eogonek" unicode="&#x119;" horiz-adv-x="492" 
d="M381 20q-113 -57 -113 -115q0 -38 49 -38q22 0 48 8q4 1 6 0t1 -6l-14 -65q-3 -11 -10 -13q-32 -15 -82 -15q-46 0 -77.5 23.5t-31.5 67.5q0 65 76 125q-95 -1 -144 52t-49 143q0 120 80 214.5t196 94.5q78 0 118.5 -39t40.5 -95q0 -83 -81 -125t-239 -39q0 -2 -0.5 -9.5
t-0.5 -10.5q0 -93 116 -93q69 0 133 34q4 2 4 -2v-2l-18 -86q-1 -5 -8 -9zM308 413q-46 0 -86 -41t-56 -97q61 -1 103.5 6.5t63 21.5t29 28t8.5 31q0 19 -13.5 35t-48.5 16z" />
    <glyph glyph-name="Ecaron" unicode="&#x11a;" horiz-adv-x="519" 
d="M461 89l-32 -84q-1 -5 -7 -5h-390q-6 0 -6 7l135 640q1 5 7 5h353q7 0 7 -5v-85q0 -6 -6 -6h-265l-38 -177h246q5 0 4 -6l-17 -85q-2 -6 -8 -6h-245l-39 -185h298q6 0 3 -8zM318 822l46 -65l80 65q6 5 12 5h97q4 0 4.5 -3t-2.5 -5l-147 -116q-5 -4 -9 -4h-93q-8 0 -9 5
l-82 117q-4 6 5 6h88q5 0 10 -5z" />
    <glyph glyph-name="ecaron" unicode="&#x11b;" horiz-adv-x="492" 
d="M407 114l-17 -83q-2 -7 -9 -11q-55 -30 -143 -30q-100 0 -149 53t-49 144q0 120 80 214.5t196 94.5q79 0 119 -39t40 -95q0 -82 -81.5 -124.5t-238.5 -39.5q-1 -9 -1 -21q0 -92 113 -92q74 0 136 33q4 2 4 -2v-2zM166 275q203 -5 203 87q0 19 -13 35t-46 16
q-47 0 -87 -39t-57 -99zM334 602q53 63 80 91q4 3 10 3h87q4 0 4 -3t-2 -5l-141 -147q-4 -5 -9 -5h-89q-6 0 -7 4l-62 150q-4 6 5 6h81q6 0 9 -4q5 -14 18 -48.5t16 -41.5z" />
    <glyph glyph-name="Gcircumflex" unicode="&#x11c;" horiz-adv-x="655" 
d="M479 252l-123 4q-5 1 -5 7l17 74q1 7 8 7h233q5 0 5 -7l-63 -292q-1 -9 -11 -12q-92 -43 -204 -43q-126 0 -197.5 71.5t-71.5 194.5q0 80 27.5 153t77.5 129.5t126.5 90.5t167.5 34q122 0 182 -42q4 -3 2 -11l-21 -85q-2 -11 -9 -5q-66 41 -164 41q-125 0 -196.5 -87.5
t-71.5 -211.5q0 -82 46 -127.5t123 -45.5q52 0 91 18zM512 705l-47 65l-80 -65q-7 -6 -12 -6h-97q-4 0 -4.5 3.5t2.5 5.5l147 116q5 4 9 4h93q7 0 9 -5l82 -118q4 -6 -4 -6h-89q-6 0 -9 6z" />
    <glyph glyph-name="gcircumflex" unicode="&#x11d;" horiz-adv-x="535" 
d="M-21 -185l24 86q2 7 7 4q61 -32 132 -32q72 0 105.5 34.5t53.5 113.5q-41 -18 -93 -18q-75 0 -122 45.5t-47 131.5q0 125 91.5 220.5t237.5 95.5q87 0 146 -21q6 -2 5 -9q-12 -39 -16 -58l-76 -357q-19 -83 -48 -139.5t-67.5 -85.5t-79.5 -40.5t-95 -11.5q-93 0 -154 32
q-6 3 -4 9zM322 110l62 294q-12 4 -44 4q-74 0 -127 -62t-53 -149q0 -104 93 -104q38 0 69 17zM371 630q-58 -68 -81 -90q-3 -4 -9 -4h-87q-4 0 -4 3t2 5l140 148q5 4 10 4h88q5 0 8 -4l62 -150q2 -6 -5 -6h-82q-5 0 -9 4q-7 19 -33 90z" />
    <glyph glyph-name="Gbreve" unicode="&#x11e;" horiz-adv-x="655" 
d="M479 252l-123 4q-5 1 -5 7l17 74q1 7 8 7h233q5 0 5 -7l-63 -292q-1 -9 -11 -12q-92 -43 -204 -43q-126 0 -197.5 71.5t-71.5 194.5q0 80 27.5 153t77.5 129.5t126.5 90.5t167.5 34q122 0 182 -42q4 -3 2 -11l-21 -85q-2 -11 -9 -5q-66 41 -164 41q-125 0 -196.5 -87.5
t-71.5 -211.5q0 -82 46 -127.5t123 -45.5q52 0 91 18zM297 849h81q6 0 7 -7q13 -50 65 -50q55 0 79 51q2 6 8 6h81q6 0 6 -8q-16 -64 -68 -101.5t-117 -37.5t-107 36t-43 103q0 8 8 8z" />
    <glyph glyph-name="gbreve" unicode="&#x11f;" horiz-adv-x="535" 
d="M-21 -185l24 86q2 7 7 4q61 -32 132 -32q72 0 105.5 34.5t53.5 113.5q-41 -18 -93 -18q-75 0 -122 45.5t-47 131.5q0 125 91.5 220.5t237.5 95.5q87 0 146 -21q6 -2 5 -9q-12 -39 -16 -58l-76 -357q-19 -83 -48 -139.5t-67.5 -85.5t-79.5 -40.5t-95 -11.5q-93 0 -154 32
q-6 3 -4 9zM322 110l62 294q-12 4 -44 4q-74 0 -127 -62t-53 -149q0 -104 93 -104q38 0 69 17zM203 684h82q5 0 5 -5q9 -50 64 -50q54 0 82 50q1 5 6 5h82q5 0 3 -6q-44 -134 -186 -134q-66 0 -104 35.5t-39 99.5q0 5 5 5z" />
    <glyph glyph-name="Gdotaccent" unicode="&#x120;" horiz-adv-x="655" 
d="M479 252l-123 4q-5 1 -5 7l17 74q1 7 8 7h233q5 0 5 -7l-63 -292q-1 -9 -11 -12q-92 -43 -204 -43q-126 0 -197.5 71.5t-71.5 194.5q0 80 27.5 153t77.5 129.5t126.5 90.5t167.5 34q122 0 182 -42q4 -3 2 -11l-21 -85q-2 -11 -9 -5q-66 41 -164 41q-125 0 -196.5 -87.5
t-71.5 -211.5q0 -82 46 -127.5t123 -45.5q52 0 91 18zM458 710q-31 0 -47.5 16.5t-13.5 43.5q2 26 23 43t52 17q30 0 46.5 -17t13.5 -44t-23 -43t-51 -16z" />
    <glyph glyph-name="gdotaccent" unicode="&#x121;" horiz-adv-x="535" 
d="M-21 -185l24 86q2 7 7 4q61 -32 132 -32q72 0 105.5 34.5t53.5 113.5q-41 -18 -93 -18q-75 0 -122 45.5t-47 131.5q0 125 91.5 220.5t237.5 95.5q87 0 146 -21q6 -2 5 -9q-12 -39 -16 -58l-76 -357q-19 -83 -48 -139.5t-67.5 -85.5t-79.5 -40.5t-95 -11.5q-93 0 -154 32
q-6 3 -4 9zM322 110l62 294q-12 4 -44 4q-74 0 -127 -62t-53 -149q0 -104 93 -104q38 0 69 17zM360 555q-28 0 -43.5 16.5t-11.5 42.5q4 27 24 43t49 16t43.5 -16t10.5 -43t-23.5 -43t-48.5 -16z" />
    <glyph glyph-name="uni0122" unicode="&#x122;" horiz-adv-x="655" 
d="M479 252l-123 4q-5 1 -5 7l17 74q1 7 8 7h233q5 0 5 -7l-63 -292q-1 -9 -11 -12q-92 -43 -204 -43q-126 0 -197.5 71.5t-71.5 194.5q0 80 27.5 153t77.5 129.5t126.5 90.5t167.5 34q122 0 182 -42q4 -3 2 -11l-21 -85q-2 -11 -9 -5q-66 41 -164 41q-125 0 -196.5 -87.5
t-71.5 -211.5q0 -82 46 -127.5t123 -45.5q52 0 91 18zM304 -227h-97q-4 0 -4.5 2.5t1.5 4.5q55 52 66 106q7 33 -1 67q-1 6 4 6h101q8 0 9 -4q9 -29 1 -66q-13 -68 -67 -113q-3 -3 -13 -3z" />
    <glyph glyph-name="uni0123" unicode="&#x123;" horiz-adv-x="535" 
d="M378 717h98q3 0 3.5 -2.5t-1.5 -4.5q-55 -52 -66 -107q-5 -34 2 -67q1 -5 -5 -5h-101q-8 0 -9 4q-9 28 -1 65q13 70 67 113q6 4 13 4zM-21 -185l24 86q2 7 7 4q61 -32 132 -32q72 0 105.5 34.5t53.5 113.5q-41 -18 -93 -18q-75 0 -122 45.5t-47 131.5q0 125 91.5 220.5
t237.5 95.5q87 0 146 -21q6 -2 5 -9q-12 -39 -16 -58l-76 -357q-19 -83 -48 -139.5t-67.5 -85.5t-79.5 -40.5t-95 -11.5q-93 0 -154 32q-6 3 -4 9zM322 110l62 294q-12 4 -44 4q-74 0 -127 -62t-53 -149q0 -104 93 -104q38 0 69 17z" />
    <glyph glyph-name="Hcircumflex" unicode="&#x124;" horiz-adv-x="652" 
d="M522 0h-103q-9 0 -6 8l58 277h-270l-58 -278q-3 -7 -8 -7h-102q-8 0 -7 7l135 640q1 5 7 5h104q6 0 5 -6l-55 -265h270l56 266q1 5 7 5h104q6 0 5 -6l-134 -639q-3 -7 -8 -7zM489 702l-47 65l-80 -65q-8 -6 -11 -6h-98q-3 0 -4 3.5t2 5.5l147 116q5 4 9 4h93q7 0 9 -5
l82 -118q4 -6 -4 -6h-88q-7 0 -10 6z" />
    <glyph glyph-name="hcircumflex" unicode="&#x125;" horiz-adv-x="540" 
d="M284 726l-53 48l-69 -48q-5 -4 -13 -4h-94q-4 0 -5 2t3 5l136 99q4 4 9 4h85q8 0 11 -6l98 -97q2 -2 0.5 -4.5t-5.5 -2.5h-90q-5 0 -13 4zM16 6l148 698q1 6 7 7q81 4 106 7q6 0 5 -7l-60 -285q83 70 165 70q59 0 92 -43.5t12 -144.5l-65 -301q-1 -7 -8 -7h-104
q-7 0 -5 8l65 297q19 95 -45 95q-61 0 -128 -74l-67 -320q-1 -6 -9 -6h-103q-8 0 -6 6z" />
    <glyph glyph-name="Hbar" unicode="&#x126;" horiz-adv-x="652" 
d="M213 346h271l20 94h-272zM160 646q2 6 8 6h104q5 0 4 -6l-26 -127h271l26 126q1 7 9 7h103q6 0 5 -7l-27 -126h44q5 0 4 -5l-15 -68q-1 -6 -7 -6h-43l-91 -432q-1 -8 -8 -8h-102q-8 0 -7 7l52 242h-271l-52 -242q0 -7 -7 -7h-103q-7 0 -6 8l91 432h-46q-6 0 -5 6l14 68
q2 5 7 5h48z" />
    <glyph glyph-name="hbar" unicode="&#x127;" horiz-adv-x="540" 
d="M125 0h-103q-8 0 -6 6l114 539h-60q-7 0 -6 6l15 70q1 7 7 7h62l15 70q1 9 10 9l100 5q9 0 7 -8l-16 -76h117q7 0 6 -6l-15 -70q-1 -7 -9 -7h-117l-32 -151q83 70 165 70q59 0 92 -43t12 -144l-57 -270q-1 -7 -8 -7h-104q-7 0 -5 8l58 269q19 95 -45 95q-61 0 -128 -75
l-60 -291q-1 -6 -9 -6z" />
    <glyph glyph-name="Itilde" unicode="&#x128;" horiz-adv-x="264" 
d="M277 645l-135 -638q-1 -7 -8 -7h-101q-7 0 -7 7l135 640q1 5 7 5h103q7 0 6 -7zM131 703h-66q-8 0 -8 6q7 62 38.5 93.5t75.5 31.5q35 0 74 -25t52 -25q25 0 33 42q2 6 7 6h66q6 0 6 -7q-17 -124 -109 -124q-34 0 -72 24.5t-54 24.5q-12 0 -22 -10.5t-14 -31.5
q-2 -5 -7 -5z" />
    <glyph glyph-name="itilde" unicode="&#x129;" horiz-adv-x="246" 
d="M15 7l101 473q1 6 8 6h104q8 0 5 -8l-100 -471q-2 -7 -10 -7h-102q-6 0 -6 7zM84 555h-71q-8 0 -6 7q5 64 38 97t79 33q35 0 78 -25t55 -25q28 0 33 43q1 6 7 6h70q6 0 6 -6q-6 -69 -37 -100.5t-73 -31.5q-34 0 -75.5 24.5t-59.5 24.5q-31 0 -38 -42q0 -5 -6 -5z" />
    <glyph glyph-name="Imacron" unicode="&#x12a;" horiz-adv-x="264" 
d="M277 645l-135 -638q-1 -7 -8 -7h-101q-7 0 -7 7l135 640q1 5 7 5h103q7 0 6 -7zM112 809h275q7 0 4 -7l-15 -76q-3 -7 -8 -7h-274q-8 0 -7 7l17 76q1 7 8 7z" />
    <glyph glyph-name="imacron" unicode="&#x12b;" horiz-adv-x="246" 
d="M15 7l101 473q1 6 8 6h104q8 0 5 -8l-100 -471q-2 -7 -10 -7h-102q-6 0 -6 7zM60 661h284q8 0 4 -7l-15 -71q-1 -7 -7 -7h-283q-7 0 -5 7l16 73q0 5 6 5z" />
    <glyph glyph-name="Ibreve" unicode="&#x12c;" horiz-adv-x="264" 
d="M277 645l-135 -638q-1 -7 -8 -7h-101q-7 0 -7 7l135 640q1 5 7 5h103q7 0 6 -7zM85 845h82q4 0 7 -7q12 -50 65 -50q54 0 78 51q4 6 9 6h81q8 0 5 -8q-15 -64 -67 -101t-117 -37q-66 0 -107.5 35.5t-42.5 102.5q-2 8 7 8z" />
    <glyph glyph-name="ibreve" unicode="&#x12d;" horiz-adv-x="246" 
d="M15 7l101 473q1 6 8 6h104q8 0 5 -8l-100 -471q-2 -7 -10 -7h-102q-6 0 -6 7zM41 684h82q5 0 5 -5q9 -50 64 -50q54 0 82 50q1 5 6 5h82q5 0 3 -6q-44 -134 -186 -134q-66 0 -104 35.5t-39 99.5q0 5 5 5z" />
    <glyph glyph-name="Iogonek" unicode="&#x12e;" horiz-adv-x="264" 
d="M28 15l133 631q1 6 8 6h103q6 0 6 -6l-135 -636q-1 -7 -6 -10q-86 -53 -86 -106q0 -18 13.5 -28.5t35.5 -10.5q31 0 52 9q4 1 5 0t0 -5l-15 -70q-2 -8 -8 -11q-30 -15 -86 -15q-47 0 -78.5 26t-31.5 71q0 76 95 143q-8 3 -5 12z" />
    <glyph glyph-name="iogonek" unicode="&#x12f;" horiz-adv-x="246" 
d="M195 555q-28 0 -43.5 16.5t-11.5 42.5q4 27 24 43t49 16t43.5 -16t10.5 -43t-23.5 -43t-48.5 -16zM124 486h104q8 0 5 -8l-100 -468q-2 -8 -5 -10q-85 -54 -85 -105q0 -40 47 -40q30 0 53 9q3 1 4 -0.5t0 -5.5l-14 -71q-1 -6 -8 -10q-30 -14 -87 -14q-49 0 -79.5 25
t-30.5 70q0 73 92 146l96 476q1 6 8 6z" />
    <glyph glyph-name="Idotaccent" unicode="&#x130;" horiz-adv-x="264" 
d="M277 645l-135 -638q-1 -7 -8 -7h-101q-7 0 -7 7l135 640q1 5 7 5h103q7 0 6 -7zM231 704q-31 0 -47.5 16.5t-13.5 43.5q2 26 23 43t52 17q30 0 46.5 -17t13.5 -44t-23 -43t-51 -16z" />
    <glyph glyph-name="dotlessi" unicode="&#x131;" horiz-adv-x="246" 
d="M15 7l101 473q1 6 8 6h104q8 0 5 -8l-100 -471q-2 -7 -10 -7h-102q-6 0 -6 7z" />
    <glyph glyph-name="IJ" unicode="&#x132;" horiz-adv-x="533" 
d="M277 645l-135 -638q-1 -7 -8 -7h-101q-7 0 -7 7l135 640q1 5 7 5h103q7 0 6 -7zM438 652h102q7 0 6 -7l-132 -624q-22 -104 -72.5 -149t-134.5 -45q-48 0 -72 13q-6 3 -5 11l19 85q2 11 10 6q26 -10 50 -10q32 0 55 19t34 70l132 625q1 6 8 6z" />
    <glyph glyph-name="ij" unicode="&#x133;" horiz-adv-x="493" 
d="M195 555q-28 0 -43.5 16.5t-11.5 42.5q4 27 24 43t49 16t43.5 -16t10.5 -43t-23.5 -43t-48.5 -16zM15 7l101 473q1 6 8 6h104q8 0 5 -8l-100 -471q-2 -7 -10 -7h-102q-6 0 -6 7zM362 478q1 7 9 7h101q8 0 7 -7l-100 -472q-19 -86 -38 -127t-48 -66q-44 -38 -123 -38
q-26 0 -38 4q-6 2 -5 9l17 73q2 6 7 6q48 1 69 21.5t34 84.5zM438 555q-28 0 -43.5 16.5t-11.5 42.5q4 27 24.5 43t49.5 16q28 0 43 -16.5t10 -42.5q-3 -27 -23 -43t-49 -16z" />
    <glyph glyph-name="Jcircumflex" unicode="&#x134;" horiz-adv-x="392" 
d="M296 652h102q7 0 6 -7l-98 -467q-24 -119 -80.5 -174.5t-147.5 -55.5q-74 0 -113 28q-5 4 -4 11l20 81q2 5 6 3q41 -23 87 -23q50 0 75 30t40 98l99 470q1 6 8 6zM419 701l-47 65l-80 -65q-6 -5 -11 -5h-98q-3 0 -3.5 3t1.5 5l148 117q4 3 8 3h93q8 0 9 -5l83 -117
q2 -6 -5 -6h-88q-7 0 -10 5z" />
    <glyph glyph-name="jcircumflex" unicode="&#x135;" horiz-adv-x="246" 
d="M115 478q2 7 9 7h102q7 0 6 -7l-99 -472q-19 -85 -38 -126.5t-48 -66.5q-44 -38 -124 -38q-26 0 -38 4q-7 2 -4 9l16 73q1 6 8 6q48 1 68.5 21.5t34.5 84.5zM208 630q-40 -50 -80 -90q-4 -4 -10 -4h-86q-4 0 -4.5 3t2.5 5l140 148q4 4 10 4h88q6 0 7 -4l62 -150
q4 -6 -4 -6h-82q-6 0 -9 4q-23 64 -34 90z" />
    <glyph glyph-name="uni0136" unicode="&#x136;" horiz-adv-x="599" 
d="M135 0h-102q-8 0 -6 8l134 639q2 5 8 5h103q7 0 6 -6l-57 -268h59q12 0 20 11q17 20 97.5 119t118.5 140q3 4 12 4h109q8 0 3 -9q-177 -212 -273 -311q-5 -5 -2 -10q43 -69 174 -314q3 -8 -5 -8h-109q-8 0 -11 5q-15 25 -139 265q-5 12 -16 12h-58l-58 -275q-1 -7 -8 -7z
M246 -225h-97q-4 0 -4.5 2.5t1.5 4.5q55 52 66 106q7 33 -1 67q-1 6 4 6h101q8 0 9 -4q9 -28 1 -66q-13 -68 -67 -113q-3 -3 -13 -3z" />
    <glyph glyph-name="uni0137" unicode="&#x137;" horiz-adv-x="509" 
d="M162 704q1 5 8 7q13 1 57 4t49 3q7 0 5 -7l-88 -419h40q10 0 20 10q20 24 78 94t70 85q5 5 11 5h108q10 0 3 -9q-53 -69 -199 -223q-3 -3 -1 -6q56 -94 132 -240q4 -8 -5 -8h-115q-7 0 -10 7q-16 29 -51.5 99t-43.5 84q-5 10 -14 10h-43l-40 -192q-1 -8 -9 -8h-103
q-7 0 -6 7zM195 -223h-98q-4 0 -4 2.5t2 4.5q55 53 65 106q7 33 -1 67q-1 6 4 6h102q8 0 9 -4q9 -29 1 -66q-12 -67 -68 -113q-3 -3 -12 -3z" />
    <glyph glyph-name="kgreenlandic" unicode="&#x138;" horiz-adv-x="509" 
d="M117 479q1 7 7 7h104q6 0 5 -7l-40 -187h40q10 0 20 10q17 21 74.5 89.5t75.5 89.5q4 5 12 5h105q10 0 3 -9q-21 -28 -90.5 -105t-107.5 -117q-3 -3 -2 -6q44 -72 132 -241q4 -8 -5 -8h-115q-7 0 -10 7q-21 37 -95 183q-5 10 -14 10h-43l-40 -192q-1 -8 -9 -8h-103
q-7 0 -6 7z" />
    <glyph glyph-name="Lacute" unicode="&#x139;" horiz-adv-x="505" 
d="M277 645l-115 -548h283q8 0 5 -8l-32 -83q-2 -6 -9 -6h-377q-6 0 -6 6l135 641q2 5 7 5h105q5 0 4 -7zM172 703l107 116q4 4 12 4h119q4 0 4.5 -3t-1.5 -5l-124 -113q-7 -7 -14 -7h-99q-10 0 -4 8z" />
    <glyph glyph-name="lacute" unicode="&#x13a;" horiz-adv-x="262" 
d="M169 742l93 84q6 6 15 6h111q4 0 5 -3.5t-3 -6.5l-107 -84q-8 -5 -15 -5h-94q-13 0 -5 9zM215 76l-15 -65q-3 -7 -8 -10q-27 -11 -71 -11q-109 0 -83 127l124 587q3 6 8 7q9 1 37 2.5t46.5 3t21.5 1.5q6 0 5 -7l-124 -593q-9 -41 23 -41q14 0 31 5q3 1 4.5 -1t0.5 -5z
" />
    <glyph glyph-name="uni013B" unicode="&#x13b;" horiz-adv-x="505" 
d="M277 645l-115 -548h283q8 0 5 -8l-32 -83q-2 -6 -9 -6h-377q-6 0 -6 6l135 641q2 5 7 5h105q5 0 4 -7zM206 -225h-98q-4 0 -4 2.5t2 4.5q53 51 65 106q7 33 -1 67q-2 6 4 6h102q8 0 9 -4q8 -33 1 -66q-14 -69 -68 -113q-3 -3 -12 -3z" />
    <glyph glyph-name="uni013C" unicode="&#x13c;" horiz-adv-x="262" 
d="M215 76l-15 -65q-3 -7 -8 -10q-27 -11 -71 -11q-109 0 -83 127l124 587q3 6 8 7q9 1 37 2.5t46.5 3t21.5 1.5q6 0 5 -7l-124 -593q-9 -41 23 -41q14 0 31 5q3 1 4.5 -1t0.5 -5zM66 -225h-98q-4 0 -4 2.5t2 4.5q55 53 65 107q7 33 -1 66q-2 6 4 6h102q8 0 9 -4
q9 -28 1 -65q-13 -68 -68 -114q-6 -3 -12 -3z" />
    <glyph glyph-name="Lcaron" unicode="&#x13d;" horiz-adv-x="519" 
d="M278 645l-116 -548h284q7 0 4 -8l-31 -83q-4 -6 -9 -6h-378q-6 0 -5 6l134 641q2 5 8 5h104q6 0 5 -7zM403 448l47 228q2 7 9 7h82q6 0 5 -6l-56 -230q-2 -6 -7 -6h-74q-7 0 -6 7z" />
    <glyph glyph-name="lcaron" unicode="&#x13e;" horiz-adv-x="320" 
d="M300 491l47 228q2 8 9 8h76q8 0 5 -8l-62 -226q-3 -9 -10 -9h-60q-6 0 -5 7zM223 76l-15 -65q-3 -7 -8 -10q-27 -11 -71 -11q-109 0 -83 127l124 587q3 6 8 7l105 7q6 0 5 -7l-124 -593q-9 -41 23 -41q14 0 31 5q3 1 4 -1t1 -5z" />
    <glyph glyph-name="Ldot" unicode="&#x13f;" horiz-adv-x="505" 
d="M277 645l-115 -548h283q8 0 5 -8l-32 -83q-2 -6 -9 -6h-377q-6 0 -6 6l135 641q2 5 7 5h105q5 0 4 -7zM402 295q-30 0 -47 16.5t-14 43.5q3 26 24 43t51 17q31 0 47.5 -17t13.5 -44q-4 -27 -23.5 -43t-51.5 -16z" />
    <glyph glyph-name="ldot" unicode="&#x140;" horiz-adv-x="294" 
d="M294 339q-25 0 -36.5 18t-7.5 50q5 32 22 50t43 18t37.5 -18.5t6.5 -49.5q-11 -68 -65 -68zM215 76l-15 -65q-3 -7 -8 -10q-27 -11 -71 -11q-109 0 -83 127l124 587q3 6 8 7q9 1 37 2.5t46.5 3t21.5 1.5q6 0 5 -7l-124 -593q-9 -41 23 -41q14 0 31 5q3 1 4.5 -1t0.5 -5z
" />
    <glyph glyph-name="Lslash" unicode="&#x141;" horiz-adv-x="515" 
d="M215 299l-44 -202h284q8 0 4 -8l-30 -82q-3 -7 -10 -7h-376q-8 0 -7 7l51 239l-69 -29q-6 -2 -5 2v2l13 64q1 4 7 7l70 30q37 175 68 324q1 6 9 6h102q6 0 5 -7l-57 -271l147 61q3 2 5 0.5t1 -5.5l-12 -60q-3 -8 -9 -10z" />
    <glyph glyph-name="lslash" unicode="&#x142;" horiz-adv-x="272" 
d="M225 75l-15 -64q-3 -7 -8 -10q-27 -11 -71 -11q-110 0 -83 127l49 231l-67 -31q-2 -1 -4 0t-1 4l12 58q1 6 6 8l69 31l60 286q3 6 8 7q9 1 37 2.5t46.5 3t21.5 1.5q6 0 5 -7l-49 -236l76 34q3 2 4.5 1t0.5 -5l-12 -55q-1 -7 -6 -10l-78 -36l-60 -287q-10 -40 23 -40
q14 0 31 5q3 1 4.5 -1t0.5 -6z" />
    <glyph glyph-name="Nacute" unicode="&#x143;" horiz-adv-x="652" 
d="M161 647q1 5 8 5h131q6 0 7 -4q123 -373 148 -503h1q11 83 98 502q1 5 8 5h99q5 0 4 -6l-134 -638q-2 -8 -9 -8h-126q-7 0 -10 7q-129 403 -144 524h-1q-11 -86 -104 -525q-1 -6 -7 -6h-97q-8 0 -7 8zM342 706l108 116q3 4 12 4h119q4 0 4.5 -3t-1.5 -5l-124 -113
q-7 -7 -14 -7h-99q-9 0 -5 8z" />
    <glyph glyph-name="nacute" unicode="&#x144;" horiz-adv-x="540" 
d="M16 6l77 365q12 49 19 108q1 7 8 7h94q6 0 7 -4q0 -16 -5 -61q85 75 172 75q56 0 90 -44t12 -144l-64 -302q-2 -6 -7 -6h-104q-7 0 -6 7l65 302q17 92 -45 92t-127 -76l-69 -320q-1 -5 -7 -5h-104q-6 0 -6 6zM265 546l108 147q5 6 13 6h115q7 0 2 -9l-125 -146
q-6 -5 -12 -5h-98q-8 0 -3 7z" />
    <glyph glyph-name="uni0145" unicode="&#x145;" horiz-adv-x="652" 
d="M161 647q1 5 8 5h131q6 0 7 -4q123 -373 148 -503h1q11 83 98 502q1 5 8 5h99q5 0 4 -6l-134 -638q-2 -8 -9 -8h-126q-7 0 -10 7q-129 403 -144 524h-1q-11 -86 -104 -525q-1 -6 -7 -6h-97q-8 0 -7 8zM265 -221h-97q-4 0 -4.5 2.5t1.5 4.5q55 52 66 107q7 32 -1 67
q-1 5 4 5h101q8 0 9 -4q9 -28 1 -65q-13 -70 -67 -113q-4 -4 -13 -4z" />
    <glyph glyph-name="uni0146" unicode="&#x146;" horiz-adv-x="540" 
d="M16 6l77 365q12 49 19 108q1 7 8 7h94q6 0 7 -4q0 -16 -5 -61q85 75 172 75q56 0 90 -44t12 -144l-64 -302q-2 -6 -7 -6h-104q-7 0 -6 7l65 302q17 92 -45 92t-127 -76l-69 -320q-1 -5 -7 -5h-104q-6 0 -6 6zM195 -222h-97q-4 0 -4.5 2t1.5 4q55 53 66 107q7 32 -1 67
q-2 6 4 6h101q8 0 9 -5q9 -27 1 -65q-13 -68 -67 -113q-3 -3 -13 -3z" />
    <glyph glyph-name="Ncaron" unicode="&#x147;" horiz-adv-x="652" 
d="M161 647q1 5 8 5h131q6 0 7 -4q123 -373 148 -503h1q11 83 98 502q1 5 8 5h99q5 0 4 -6l-134 -638q-2 -8 -9 -8h-126q-7 0 -10 7q-129 403 -144 524h-1q-11 -86 -104 -525q-1 -6 -7 -6h-97q-8 0 -7 8zM377 819l46 -65l80 65q9 6 12 6h98q3 0 3.5 -3.5t-1.5 -5.5
l-148 -116q-5 -4 -9 -4h-92q-7 0 -10 5l-82 118q-4 6 5 6h88q7 0 10 -6z" />
    <glyph glyph-name="ncaron" unicode="&#x148;" horiz-adv-x="540" 
d="M16 6l77 365q12 49 19 108q1 7 8 7h94q6 0 7 -4q0 -16 -5 -61q85 75 172 75q56 0 90 -44t12 -144l-64 -302q-2 -6 -7 -6h-104q-7 0 -6 7l65 302q17 92 -45 92t-127 -76l-69 -320q-1 -5 -7 -5h-104q-6 0 -6 6zM341 601q50 62 81 91q3 4 9 4h87q4 0 4 -3t-2 -5l-140 -148
q-5 -4 -10 -4h-88q-5 0 -8 4l-62 150q-2 6 5 6h82q5 0 9 -5q23 -60 33 -90z" />
    <glyph glyph-name="napostrophe" unicode="&#x149;" horiz-adv-x="540" 
d="M83 521l47 228q1 8 8 8h83q6 0 5 -7l-57 -230q-1 -6 -6 -6h-74q-7 0 -6 7zM16 6l77 365q12 49 19 108q1 7 8 7h94q6 0 7 -4q0 -16 -5 -61q85 75 172 75q56 0 90 -44t12 -144l-64 -302q-2 -6 -7 -6h-104q-7 0 -6 7l65 302q17 92 -45 92t-127 -76l-69 -320q-1 -5 -7 -5
h-104q-6 0 -6 6z" />
    <glyph glyph-name="Eng" unicode="&#x14a;" horiz-adv-x="652" 
d="M130 0h-97q-8 0 -7 8l135 639q1 5 8 5h131q6 0 7 -4q138 -413 151 -491h2q8 80 94 490q1 5 8 5h99q5 0 4 -8l-126 -592q-21 -102 -42 -150t-52 -79q-49 -48 -131 -48q-30 0 -42 4q-4 1 -4 10l19 82q1 7 7 7q51 -3 74.5 19t36.5 83q-52 148 -102.5 319.5t-60.5 231.5h-1
q-11 -86 -104 -525q-1 -6 -7 -6z" />
    <glyph glyph-name="eng" unicode="&#x14b;" horiz-adv-x="540" 
d="M126 0h-104q-6 0 -6 6l77 365q12 50 19 107q2 8 9 8h93q6 0 7 -5q0 -15 -5 -60q85 75 172 75q56 0 90 -44t12 -144l-56 -266q-21 -99 -41 -146.5t-52 -77.5q-47 -47 -123 -47q-25 0 -34 3q-7 1 -6 9l15 68q3 9 9 9q46 2 66 22.5t33 83.5l73 343q17 92 -45 92t-127 -76
l-69 -320q-1 -5 -7 -5z" />
    <glyph glyph-name="Omacron" unicode="&#x14c;" horiz-adv-x="685" 
d="M423 663q103 0 168.5 -67.5t65.5 -186.5q0 -81 -23 -155.5t-66.5 -133.5t-112 -94.5t-151.5 -35.5q-107 0 -173.5 64.5t-66.5 184.5q0 78 24.5 152.5t68.5 135.5t113.5 98.5t152.5 37.5zM406 566q-64 0 -116 -48.5t-78.5 -121.5t-26.5 -150t37.5 -118t97.5 -41
q99 0 158.5 98.5t59.5 220.5q0 79 -36.5 119.5t-95.5 40.5zM320 814h276q5 0 4 -7l-16 -76q-1 -7 -7 -7h-274q-9 0 -7 7l16 75q3 8 8 8z" />
    <glyph glyph-name="omacron" unicode="&#x14d;" horiz-adv-x="548" 
d="M318 496q88 0 140 -55.5t52 -143.5q0 -132 -77.5 -219.5t-198.5 -87.5q-95 0 -144.5 54.5t-49.5 139.5q0 127 77 219.5t201 92.5zM306 411q-60 0 -103 -71t-43 -159q0 -48 22 -76.5t64 -28.5q59 0 101.5 69t42.5 160q0 44 -19 75t-65 31zM205 661h284q7 0 5 -7l-15 -71
q-3 -7 -8 -7h-282q-9 0 -5 7l15 73q2 5 6 5z" />
    <glyph glyph-name="Obreve" unicode="&#x14e;" horiz-adv-x="685" 
d="M423 663q103 0 168.5 -67.5t65.5 -186.5q0 -81 -23 -155.5t-66.5 -133.5t-112 -94.5t-151.5 -35.5q-107 0 -173.5 64.5t-66.5 184.5q0 78 24.5 152.5t68.5 135.5t113.5 98.5t152.5 37.5zM406 566q-64 0 -116 -48.5t-78.5 -121.5t-26.5 -150t37.5 -118t97.5 -41
q99 0 158.5 98.5t59.5 220.5q0 79 -36.5 119.5t-95.5 40.5zM294 851h81q6 0 7 -7q12 -50 65 -50q55 0 79 51q2 6 8 6h81q6 0 6 -8q-16 -64 -68 -101t-117 -37t-107 35.5t-43 103.5q0 7 8 7z" />
    <glyph glyph-name="obreve" unicode="&#x14f;" horiz-adv-x="548" 
d="M318 496q88 0 140 -55.5t52 -143.5q0 -132 -77.5 -219.5t-198.5 -87.5q-95 0 -144.5 54.5t-49.5 139.5q0 127 77 219.5t201 92.5zM306 411q-60 0 -103 -71t-43 -159q0 -48 22 -76.5t64 -28.5q59 0 101.5 69t42.5 160q0 44 -19 75t-65 31zM188 684h82q5 0 5 -5
q9 -50 64 -50q54 0 82 50q1 5 6 5h82q5 0 3 -6q-44 -134 -186 -134q-66 0 -104 35.5t-39 99.5q0 5 5 5z" />
    <glyph glyph-name="Ohungarumlaut" unicode="&#x150;" horiz-adv-x="685" 
d="M423 663q103 0 168.5 -67.5t65.5 -186.5q0 -81 -23 -155.5t-66.5 -133.5t-112 -94.5t-151.5 -35.5q-107 0 -173.5 64.5t-66.5 184.5q0 78 24.5 152.5t68.5 135.5t113.5 98.5t152.5 37.5zM406 566q-64 0 -116 -48.5t-78.5 -121.5t-26.5 -150t37.5 -118t97.5 -41
q99 0 158.5 98.5t59.5 220.5q0 79 -36.5 119.5t-95.5 40.5zM272 710l80 116q4 6 10 6h99q4 0 4.5 -3t-1.5 -6l-95 -115q-5 -5 -10 -5h-83q-7 0 -4 7zM459 711l78 115q5 6 12 6h100q10 0 3 -9l-94 -113q-4 -6 -12 -6h-83q-9 0 -4 7z" />
    <glyph glyph-name="ohungarumlaut" unicode="&#x151;" horiz-adv-x="548" 
d="M318 496q88 0 140 -55.5t52 -143.5q0 -132 -77.5 -219.5t-198.5 -87.5q-95 0 -144.5 54.5t-49.5 139.5q0 127 77 219.5t201 92.5zM306 411q-60 0 -103 -71t-43 -159q0 -48 22 -76.5t64 -28.5q59 0 101.5 69t42.5 160q0 44 -19 75t-65 31zM188 549l97 137q4 5 11 5h94
q4 0 4 -2.5t-2 -4.5l-112 -139q-8 -6 -15 -6h-73q-6 0 -6.5 3.5t2.5 6.5zM369 547l99 139q3 5 10 5h96q7 0 3 -8l-114 -138q-6 -6 -13 -6h-77q-10 0 -4 8z" />
    <glyph glyph-name="OE" unicode="&#x152;" horiz-adv-x="912" 
d="M437 93l98 464q-28 6 -73 6q-120 0 -197.5 -84.5t-77.5 -213.5q0 -83 46.5 -130t129.5 -47q48 0 74 5zM815 0h-352q-89 -7 -131 -7q-127 0 -197.5 76t-68.5 194q4 176 120 286t292 110q56 0 121 -7h317q5 0 5 -5v-84q0 -7 -8 -7h-263l-37 -177h246q5 0 3 -6l-16 -85
q-1 -6 -6 -6h-248l-39 -185h297q7 0 4 -7l-31 -84q-1 -6 -8 -6z" />
    <glyph glyph-name="oe" unicode="&#x153;" horiz-adv-x="832" 
d="M318 496q114 0 154 -94q34 44 83 69t102 25q79 0 118 -39t39 -95q0 -83 -81 -125t-238 -39q0 -2 -0.5 -10t-0.5 -11q0 -39 26.5 -65.5t88.5 -26.5q69 0 133 34q5 3 5 -4l-17 -84q-2 -7 -9 -11q-55 -30 -141 -30q-121 0 -162 85q-68 -85 -184 -85q-95 0 -144.5 54.5
t-49.5 139.5q0 127 77 219.5t201 92.5zM305 411q-59 0 -102 -71t-43 -161q0 -46 22.5 -74t63.5 -28q58 0 100.5 70.5t42.5 157.5q0 45 -20 75.5t-64 30.5zM648 412q-49 0 -89 -41t-54 -96q61 -2 103.5 5.5t63 22t29 29t8.5 30.5q0 19 -13 34.5t-48 15.5z" />
    <glyph glyph-name="Racute" unicode="&#x154;" horiz-adv-x="586" 
d="M195 261l-54 -255q-2 -6 -7 -6h-102q-6 0 -6 7l134 638q1 7 8 7q70 2 163 2q116 0 172 -46.5t56 -125.5q1 -151 -168 -200q2 -4 65 -128t71 -145q5 -9 -5 -9h-113q-9 0 -12 7q-14 28 -104 237q-8 17 -26 17h-72zM259 560l-44 -207h69q80 0 119 31t40 83q0 95 -124 95
q-32 0 -60 -2zM282 707l107 116q4 4 12 4h119q9 0 3 -8l-124 -113q-7 -7 -14 -7h-99q-4 0 -5 3t1 5z" />
    <glyph glyph-name="racute" unicode="&#x155;" horiz-adv-x="355" 
d="M117 486h88q8 0 8 -7q5 -31 -4 -73q33 42 82.5 66t91.5 23q9 0 6 -9l-23 -99q-2 -5 -6 -5q-113 2 -164 -76l-64 -300q-2 -6 -8 -6h-104q-6 0 -5 6l75 356q16 73 20 118q0 6 7 6zM183 546l108 147q5 6 13 6h114q8 0 3 -9l-125 -146q-6 -5 -12 -5h-98q-8 0 -3 7z" />
    <glyph glyph-name="uni0156" unicode="&#x156;" horiz-adv-x="586" 
d="M195 261l-54 -255q-2 -6 -7 -6h-102q-6 0 -6 7l134 638q1 7 8 7q70 2 163 2q116 0 172 -46.5t56 -125.5q1 -151 -168 -200q2 -4 65 -128t71 -145q5 -9 -5 -9h-113q-9 0 -12 7q-14 28 -104 237q-8 17 -26 17h-72zM259 560l-44 -207h69q80 0 119 31t40 83q0 95 -124 95
q-32 0 -60 -2zM240 -227h-97q-4 0 -4.5 2.5t1.5 4.5q55 52 66 107q7 32 -1 67q-2 5 4 5h101q8 0 9 -4q9 -28 1 -65q-13 -70 -67 -113q-4 -4 -13 -4z" />
    <glyph glyph-name="uni0157" unicode="&#x157;" horiz-adv-x="355" 
d="M117 486h88q8 0 8 -7q5 -31 -4 -73q33 42 82.5 66t91.5 23q9 0 6 -9l-23 -99q-2 -5 -6 -5q-113 2 -164 -76l-64 -300q-2 -6 -8 -6h-104q-6 0 -5 6l75 356q16 73 20 118q0 6 7 6zM42 -218h-98q-3 0 -3.5 2.5t1.5 4.5q55 53 65 106q7 33 -1 67q-2 6 5 6h101q8 0 9 -4
q9 -29 1 -66q-12 -67 -67 -113q-5 -3 -13 -3z" />
    <glyph glyph-name="Rcaron" unicode="&#x158;" horiz-adv-x="586" 
d="M195 261l-54 -255q-2 -6 -7 -6h-102q-6 0 -6 7l134 638q1 7 8 7q70 2 163 2q116 0 172 -46.5t56 -125.5q1 -151 -168 -200q2 -4 65 -128t71 -145q5 -9 -5 -9h-113q-9 0 -12 7q-14 28 -104 237q-8 17 -26 17h-72zM259 560l-44 -207h69q80 0 119 31t40 83q0 95 -124 95
q-32 0 -60 -2zM316 827l46 -65l81 65q6 5 11 5h98q3 0 3.5 -3t-1.5 -5l-148 -116q-4 -4 -9 -4h-92q-8 0 -9 5l-83 117q-2 6 5 6h88q7 0 10 -5z" />
    <glyph glyph-name="rcaron" unicode="&#x159;" horiz-adv-x="355" 
d="M117 486h88q8 0 8 -7q5 -31 -4 -73q33 42 82.5 66t91.5 23q9 0 6 -9l-23 -99q-2 -5 -6 -5q-113 2 -164 -76l-64 -300q-2 -6 -8 -6h-104q-6 0 -5 6l75 356q16 73 20 118q0 6 7 6zM245 602q57 67 81 91q4 3 10 3h86q4 0 4 -3t-2 -5l-140 -147q-5 -5 -10 -5h-88q-5 0 -8 4
l-62 150q-2 6 5 6h82q6 0 9 -4q7 -19 33 -90z" />
    <glyph glyph-name="Sacute" unicode="&#x15a;" horiz-adv-x="507" 
d="M215 -10q-60 0 -116 19t-86 46q-6 4 -4 12l21 90q2 7 8 3q86 -72 190 -72q50 0 78.5 23.5t28.5 59.5q0 27 -18.5 49.5t-74.5 56.5q-80 48 -115 89.5t-35 99.5q0 80 60 138t173 58q56 0 100.5 -14.5t66.5 -32.5q5 -3 3 -10l-20 -84q-2 -6 -8 -3q-69 49 -151 49
q-55 0 -82.5 -26t-27.5 -61q0 -28 22 -49.5t78 -55.5q86 -52 117 -92.5t31 -95.5q0 -91 -65 -144t-174 -53zM265 720l108 116q3 5 11 5h120q8 0 3 -8l-125 -114q-5 -6 -14 -6h-99q-3 0 -4.5 2.5t0.5 4.5z" />
    <glyph glyph-name="sacute" unicode="&#x15b;" horiz-adv-x="402" 
d="M356 370q-59 36 -128 36q-32 0 -48.5 -13t-16.5 -34q0 -16 11 -28.5t49 -34.5q75 -39 103.5 -73t28.5 -79q0 -75 -55 -114.5t-138 -39.5q-102 0 -161 50q-5 4 -3 13l19 80q2 8 7 3q78 -55 149 -55q68 0 68 47q0 18 -13 32t-55 38q-64 36 -90 67.5t-26 75.5q0 68 52 111
t141 43q85 0 130 -33q6 -3 3 -10l-19 -79q-1 -6 -8 -3zM185 546l108 147q5 6 13 6h115q7 0 2 -9l-125 -146q-6 -5 -12 -5h-98q-8 0 -3 7z" />
    <glyph glyph-name="Scircumflex" unicode="&#x15c;" horiz-adv-x="507" 
d="M215 -10q-60 0 -116 19t-86 46q-6 4 -4 12l21 90q2 7 8 3q86 -72 190 -72q50 0 78.5 23.5t28.5 59.5q0 27 -18.5 49.5t-74.5 56.5q-80 48 -115 89.5t-35 99.5q0 80 60 138t173 58q56 0 100.5 -14.5t66.5 -32.5q5 -3 3 -10l-20 -84q-2 -6 -8 -3q-69 49 -151 49
q-55 0 -82.5 -26t-27.5 -61q0 -28 22 -49.5t78 -55.5q86 -52 117 -92.5t31 -95.5q0 -91 -65 -144t-174 -53zM409 713l-47 65l-80 -65q-6 -5 -12 -5h-97q-3 0 -4 3t2 5l147 116q5 4 9 4h93q8 0 9 -5l82 -117q4 -6 -4 -6h-89q-6 0 -9 5z" />
    <glyph glyph-name="scircumflex" unicode="&#x15d;" horiz-adv-x="402" 
d="M356 370q-59 36 -128 36q-32 0 -48.5 -13t-16.5 -34q0 -16 11 -28.5t49 -34.5q75 -39 103.5 -73t28.5 -79q0 -75 -55 -114.5t-138 -39.5q-102 0 -161 50q-5 4 -3 13l19 80q2 8 7 3q78 -55 149 -55q68 0 68 47q0 18 -13 32t-55 38q-64 36 -90 67.5t-26 75.5q0 68 52 111
t141 43q85 0 130 -33q6 -3 3 -10l-19 -79q-1 -6 -8 -3zM280 630q-57 -67 -80 -90q-4 -4 -10 -4h-87q-4 0 -4 3t2 5l140 148q5 4 10 4h88q5 0 8 -4l62 -150q2 -6 -5 -6h-82q-5 0 -8 4q-11 27 -34 90z" />
    <glyph glyph-name="uni015E" unicode="&#x15e;" horiz-adv-x="507" 
d="M9 67l21 90q2 7 8 3q86 -72 190 -72q50 0 78.5 23.5t28.5 59.5q0 27 -18.5 49.5t-74.5 56.5q-80 48 -115 89.5t-35 99.5q0 80 60 138t173 58q56 0 100.5 -14.5t66.5 -32.5q5 -3 3 -10l-20 -84q-2 -6 -8 -3q-69 49 -151 49q-55 0 -82.5 -26t-27.5 -61q0 -28 22 -49.5
t78 -55.5q86 -52 117 -92.5t31 -95.5q0 -81 -52.5 -132.5t-143.5 -62.5l-29 -36q60 -21 60 -80q0 -50 -36 -78.5t-95 -28.5q-47 0 -75 14q-4 2 -2 9l12 54q1 5 6 3q28 -14 63 -14q44 0 44 32q0 33 -82 43q-2 2 0.5 12.5t5.5 13.5l47 56q-106 11 -164 63q-6 4 -4 12z" />
    <glyph glyph-name="uni015F" unicode="&#x15f;" horiz-adv-x="402" 
d="M-2 53l19 80q2 8 7 3q78 -55 149 -55q68 0 68 47q0 18 -13 32t-55 38q-64 36 -90 67.5t-26 75.5q0 68 52 111t141 43q85 0 130 -33q6 -3 3 -10l-19 -79q-1 -6 -8 -3q-59 36 -128 36q-32 0 -48.5 -13t-16.5 -34q0 -16 11 -28.5t49 -34.5q75 -39 103.5 -73t28.5 -79
q0 -63 -39 -101t-103 -49l-31 -38q61 -20 61 -80q0 -50 -36 -78.5t-95 -28.5q-47 0 -75 14q-4 2 -2 9l12 54q1 5 6 3q28 -14 62 -14q45 0 45 32q0 33 -82 43q-1 2 1 12.5t4 13.5l48 56q-82 7 -130 48q-5 4 -3 13z" />
    <glyph glyph-name="Scaron" unicode="&#x160;" horiz-adv-x="507" 
d="M215 -10q-60 0 -116 19t-86 46q-6 4 -4 12l21 90q2 7 8 3q86 -72 190 -72q50 0 78.5 23.5t28.5 59.5q0 27 -18.5 49.5t-74.5 56.5q-80 48 -115 89.5t-35 99.5q0 80 60 138t173 58q56 0 100.5 -14.5t66.5 -32.5q5 -3 3 -10l-20 -84q-2 -6 -8 -3q-69 49 -151 49
q-55 0 -82.5 -26t-27.5 -61q0 -28 22 -49.5t78 -55.5q86 -52 117 -92.5t31 -95.5q0 -91 -65 -144t-174 -53zM293 834l47 -65l80 65q6 5 12 5h97q4 0 4.5 -3t-2.5 -6l-147 -116q-6 -3 -9 -3h-93q-8 0 -9 4l-82 118q-4 6 5 6h88q6 0 9 -5z" />
    <glyph glyph-name="scaron" unicode="&#x161;" horiz-adv-x="402" 
d="M356 370q-59 36 -128 36q-32 0 -48.5 -13t-16.5 -34q0 -16 11 -28.5t49 -34.5q75 -39 103.5 -73t28.5 -79q0 -75 -55 -114.5t-138 -39.5q-102 0 -161 50q-5 4 -3 13l19 80q2 8 7 3q78 -55 149 -55q68 0 68 47q0 18 -13 32t-55 38q-64 36 -90 67.5t-26 75.5q0 68 52 111
t141 43q85 0 130 -33q6 -3 3 -10l-19 -79q-1 -6 -8 -3zM256 602q57 67 81 91q3 3 9 3h87q4 0 4 -3t-2 -5l-140 -147q-5 -5 -10 -5h-88q-5 0 -8 4l-62 150q-2 6 5 6h82q5 0 9 -4q7 -19 33 -90z" />
    <glyph glyph-name="uni0162" unicode="&#x162;" horiz-adv-x="544" 
d="M117 652h478q6 0 6 -5l-1 -84q0 -7 -7 -7h-202l-116 -549q-1 -7 -9 -7h-10l-34 -44q61 -20 61 -80q0 -50 -36 -78.5t-95 -28.5q-47 0 -75 14q-4 2 -2 9l12 54q1 5 6 3q28 -14 62 -14q45 0 45 32q0 33 -82 43q-2 2 0 12.5t5 13.5l56 64h-14q-7 0 -6 8l116 548h-191
q-8 0 -4 7l30 85q1 4 7 4z" />
    <glyph glyph-name="uni0163" unicode="&#x163;" horiz-adv-x="312" 
d="M238 486h95q9 0 6 -7l-14 -67q-1 -8 -9 -8l-97 -4l-53 -258q-13 -61 37 -61q30 0 51 8q2 2 4.5 0t1.5 -6l-13 -63q-3 -8 -10 -11q-21 -12 -60 -17l-29 -36q60 -21 60 -80q0 -50 -36 -78.5t-95 -28.5q-47 0 -75 14q-4 2 -2 9l12 54q1 5 6 3q28 -14 62 -14q45 0 45 32
q0 33 -82 43q-1 2 1 12.5t4 13.5l52 61q-77 26 -54 134l57 269l-60 4q-7 0 -5 8l15 68q2 6 9 6h60l24 115q4 7 8 7q60 3 107 20q4 2 6.5 0t1.5 -5q-5 -20 -15 -66t-16 -71z" />
    <glyph glyph-name="Tcaron" unicode="&#x164;" horiz-adv-x="544" 
d="M159 8l116 548h-191q-8 0 -4 7l30 85q1 4 7 4h478q6 0 6 -5l-1 -84q0 -7 -7 -7h-202l-116 -549q-1 -7 -9 -7h-101q-7 0 -6 8zM313 822l47 -65l80 65q6 5 11 5h98q3 0 3.5 -3t-1.5 -5l-148 -116q-4 -4 -9 -4h-92q-8 0 -9 5l-83 117q-2 6 5 6h88q7 0 10 -5z" />
    <glyph glyph-name="tcaron" unicode="&#x165;" horiz-adv-x="333" 
d="M324 556l44 187q3 8 10 8h74q9 0 6 -8l-52 -187q-2 -8 -10 -8h-66q-7 0 -6 8zM261 83l-14 -63q-3 -8 -9 -11q-37 -19 -94 -19q-55 0 -84 34.5t-13 106.5l56 269l-59 4q-7 0 -5 8l14 68q2 6 9 6h60l25 115q2 7 8 7q59 3 106 20q5 2 7 0t1 -5q-5 -21 -14.5 -67t-15.5 -70
h94q8 0 7 -7l-14 -67q-1 -8 -9 -8l-97 -4l-54 -258q-11 -61 38 -61q29 0 50 8q2 2 4.5 0t2.5 -6z" />
    <glyph glyph-name="Tbar" unicode="&#x166;" horiz-adv-x="544" 
d="M117 652h478q6 0 6 -5l-1 -84q0 -7 -7 -7h-202l-42 -200h99q6 0 5 -5l-15 -68q-1 -6 -7 -6h-99l-57 -270q-1 -7 -9 -7h-101q-7 0 -6 8l57 269h-90q-7 0 -5 6l14 67q1 6 8 6h90l42 200h-191q-8 0 -4 7l30 85q1 4 7 4z" />
    <glyph glyph-name="tbar" unicode="&#x167;" horiz-adv-x="312" 
d="M238 486h95q9 0 6 -7l-14 -67q-1 -8 -9 -8l-97 -4l-23 -111h76q6 0 5 -6l-12 -57q-1 -7 -7 -7h-76l-16 -77q-13 -61 37 -61q30 0 51 8q2 2 4.5 0t1.5 -6l-13 -63q-3 -8 -10 -11q-35 -19 -93 -19q-55 0 -84 34.5t-14 106.5l19 88h-55q-6 0 -5 7l12 57q1 6 7 6h55l24 111
l-60 4q-7 0 -5 8l15 68q2 6 9 6h60l24 115q4 7 8 7q60 3 107 20q4 2 6.5 0t1.5 -5q-5 -20 -15 -66t-16 -71z" />
    <glyph glyph-name="Utilde" unicode="&#x168;" horiz-adv-x="645" 
d="M274 646l-85 -406q-15 -72 14 -111.5t95 -39.5q60 0 101 33t60 121l86 404q1 5 8 5h103q6 0 5 -7l-87 -408q-27 -131 -101 -189t-189 -58t-176 64t-36 184l86 409q1 5 8 5h102q8 0 6 -6zM326 710h-67q-7 0 -7 6q7 62 38.5 93.5t75.5 31.5q35 0 74 -25t52 -25q24 0 33 41
q0 7 7 7h66q6 0 6 -7q-17 -124 -109 -124q-33 0 -72 24.5t-54 24.5q-12 0 -22 -10.5t-14 -31.5q-3 -5 -7 -5z" />
    <glyph glyph-name="utilde" unicode="&#x169;" horiz-adv-x="528" 
d="M515 480l-77 -366q-12 -63 -12 -107q0 -7 -8 -7h-92q-9 0 -10 7q-2 19 3 52q-73 -69 -161 -69q-61 0 -96 42.5t-15 135.5l65 312q3 6 9 6h104q5 0 5 -8l-64 -306q-9 -40 3.5 -63t46.5 -23q58 0 113 66l71 329q2 5 8 5h102q6 0 5 -6zM228 555h-71q-8 0 -6 7q5 64 38 97
t79 33q35 0 78 -25t55 -25q28 0 33 43q1 6 7 6h70q6 0 6 -6q-6 -69 -37 -100.5t-73 -31.5q-34 0 -75.5 24.5t-59.5 24.5q-31 0 -38 -42q0 -5 -6 -5z" />
    <glyph glyph-name="Umacron" unicode="&#x16a;" horiz-adv-x="645" 
d="M274 646l-85 -406q-15 -72 14 -111.5t95 -39.5q60 0 101 33t60 121l86 404q1 5 8 5h103q6 0 5 -7l-87 -408q-27 -131 -101 -189t-189 -58t-176 64t-36 184l86 409q1 5 8 5h102q8 0 6 -6zM303 810h275q6 0 5 -7l-16 -76q-3 -7 -8 -7h-274q-8 0 -7 7l17 76q1 7 8 7z" />
    <glyph glyph-name="umacron" unicode="&#x16b;" horiz-adv-x="528" 
d="M515 480l-77 -366q-12 -63 -12 -107q0 -7 -8 -7h-92q-9 0 -10 7q-2 19 3 52q-73 -69 -161 -69q-61 0 -96 42.5t-15 135.5l65 312q3 6 9 6h104q5 0 5 -8l-64 -306q-9 -40 3.5 -63t46.5 -23q58 0 113 66l71 329q2 5 8 5h102q6 0 5 -6zM203 661h284q7 0 5 -7l-15 -71
q-3 -7 -8 -7h-282q-9 0 -5 7l15 73q2 5 6 5z" />
    <glyph glyph-name="Ubreve" unicode="&#x16c;" horiz-adv-x="645" 
d="M274 646l-85 -406q-15 -72 14 -111.5t95 -39.5q60 0 101 33t60 121l86 404q1 5 8 5h103q6 0 5 -7l-87 -408q-27 -131 -101 -189t-189 -58t-176 64t-36 184l86 409q1 5 8 5h102q8 0 6 -6zM272 840h81q6 0 7 -6q12 -51 65 -51q54 0 79 52q3 5 9 5h81q8 0 5 -8
q-15 -63 -67.5 -100.5t-116.5 -37.5q-66 0 -108 35.5t-43 103.5q0 7 8 7z" />
    <glyph glyph-name="ubreve" unicode="&#x16d;" horiz-adv-x="528" 
d="M515 480l-77 -366q-12 -63 -12 -107q0 -7 -8 -7h-92q-9 0 -10 7q-2 19 3 52q-73 -69 -161 -69q-61 0 -96 42.5t-15 135.5l65 312q3 6 9 6h104q5 0 5 -8l-64 -306q-9 -40 3.5 -63t46.5 -23q58 0 113 66l71 329q2 5 8 5h102q6 0 5 -6zM186 684h82q5 0 5 -5q9 -50 64 -50
q54 0 82 50q1 5 6 5h82q5 0 3 -6q-44 -134 -186 -134q-66 0 -104 35.5t-39 99.5q0 5 5 5z" />
    <glyph glyph-name="Uring" unicode="&#x16e;" horiz-adv-x="645" 
d="M274 646l-85 -406q-15 -72 14 -111.5t95 -39.5q60 0 101 33t60 121l86 404q1 5 8 5h103q6 0 5 -7l-87 -408q-27 -131 -101 -189t-189 -58t-176 64t-36 184l86 409q1 5 8 5h102q8 0 6 -6zM312 777q4 41 37.5 66t80.5 25q48 0 76 -25.5t24 -66.5q-4 -42 -37.5 -66.5
t-81.5 -24.5t-75.5 25t-23.5 67zM376 777q-2 -18 9 -29t31 -11q21 0 34.5 10.5t14.5 28.5q2 19 -9 30t-31 11t-34 -11t-15 -29z" />
    <glyph glyph-name="uring" unicode="&#x16f;" horiz-adv-x="528" 
d="M515 480l-77 -366q-12 -63 -12 -107q0 -7 -8 -7h-92q-9 0 -10 7q-2 19 3 52q-73 -69 -161 -69q-61 0 -96 42.5t-15 135.5l65 312q3 6 9 6h104q5 0 5 -8l-64 -306q-9 -40 3.5 -63t46.5 -23q58 0 113 66l71 329q2 5 8 5h102q6 0 5 -6zM226 625q4 42 36.5 69t80.5 27
t75.5 -27t23.5 -69q-5 -44 -38 -70.5t-81 -26.5q-49 0 -75.5 26t-21.5 71zM288 625q-2 -20 9 -32t31 -12t34.5 12t16.5 32t-10 32t-32 12t-34 -12t-15 -32z" />
    <glyph glyph-name="Uhungarumlaut" unicode="&#x170;" horiz-adv-x="645" 
d="M274 646l-85 -406q-15 -72 14 -111.5t95 -39.5q60 0 101 33t60 121l86 404q1 5 8 5h103q6 0 5 -7l-87 -408q-27 -131 -101 -189t-189 -58t-176 64t-36 184l86 409q1 5 8 5h102q8 0 6 -6zM265 703l80 116q4 6 10 6h99q4 0 4.5 -3t-1.5 -6l-95 -115q-5 -5 -10 -5h-83
q-7 0 -4 7zM452 704l78 115q5 6 12 6h100q10 0 3 -9l-94 -113q-4 -6 -12 -6h-83q-9 0 -4 7z" />
    <glyph glyph-name="uhungarumlaut" unicode="&#x171;" horiz-adv-x="528" 
d="M515 480l-77 -366q-12 -63 -12 -107q0 -7 -8 -7h-92q-9 0 -10 7q-2 19 3 52q-73 -69 -161 -69q-61 0 -96 42.5t-15 135.5l65 312q3 6 9 6h104q5 0 5 -8l-64 -306q-9 -40 3.5 -63t46.5 -23q58 0 113 66l71 329q2 5 8 5h102q6 0 5 -6zM184 549l97 137q4 5 11 5h94
q3 0 3.5 -2.5t-1.5 -4.5l-113 -139q-6 -6 -14 -6h-73q-6 0 -6.5 3.5t2.5 6.5zM365 547l99 139q3 5 10 5h96q7 0 3 -8l-114 -138q-6 -6 -13 -6h-77q-10 0 -4 8z" />
    <glyph glyph-name="Uogonek" unicode="&#x172;" horiz-adv-x="645" 
d="M164 652h104q8 0 6 -6l-85 -406q-15 -72 14 -111.5t95 -39.5q60 0 101 33t60 121l86 404q1 5 8 5h103q6 0 5 -7l-87 -408q-20 -95 -64 -150t-113 -82q-47 -19 -74 -46.5t-27 -53.5q-1 -18 13 -28.5t38 -10.5q26 0 53 9q4 1 5 -0.5t0 -4.5l-14 -69q-3 -8 -8 -10
q-32 -15 -89 -15q-47 0 -80 22.5t-32 68.5q0 70 84 125q-100 1 -159.5 64.5t-34.5 181.5l87 410q1 4 5 4z" />
    <glyph glyph-name="uogonek" unicode="&#x173;" horiz-adv-x="528" 
d="M121 486h104q5 0 5 -8l-64 -306q-9 -39 3 -62.5t47 -23.5q58 0 113 66l71 329q2 5 8 5h102q6 0 5 -6l-77 -366q-12 -56 -12 -107q0 -5 -7 -8q-82 -51 -82 -96q0 -36 48 -36q22 0 48 8q7 2 7 -6l-14 -65q-3 -10 -10 -13q-32 -15 -82 -15q-48 0 -78.5 23.5t-30.5 67.5
q0 69 90 142q-2 18 3 50q-70 -69 -160 -69q-61 0 -96 42.5t-15 135.5l65 312q3 6 9 6z" />
    <glyph glyph-name="Wcircumflex" unicode="&#x174;" horiz-adv-x="881" 
d="M594 637q14 -371 8 -507h2q38 104 218 517q1 5 8 5h110q5 0 3 -6l-302 -639q-4 -7 -11 -7h-109q-9 0 -10 9q-13 330 -10 516h-1q-57 -157 -232 -518q-1 -7 -9 -7h-112q-7 0 -8 7l-30 639q0 6 8 6h105q6 0 6 -5q15 -501 14 -518h1q36 106 219 508q2 6 9 6h117q6 0 6 -6z
M607 699l-46 65l-80 -65q-6 -5 -12 -5h-97q-4 0 -4.5 3t2.5 5l147 116q5 4 9 4h92q8 0 10 -5l82 -117q4 -6 -5 -6h-88q-5 0 -10 5z" />
    <glyph glyph-name="wcircumflex" unicode="&#x175;" horiz-adv-x="730" 
d="M506 0h-109q-8 0 -8 6q-12 311 -11 364q-9 -25 -168 -363q-4 -7 -11 -7h-106q-9 0 -10 7l-27 472q0 7 8 7h104q7 0 8 -5q9 -299 5 -370h2q1 3 7.5 17.5t18.5 42t29 67t46.5 103t65.5 138.5q4 7 10 7h97q8 0 8 -8q8 -333 7 -368h1q28 78 167 370q2 6 11 6h101q9 0 5 -9
l-242 -471q-2 -6 -9 -6zM439 630q-57 -67 -80 -90q-4 -4 -10 -4h-87q-4 0 -4 3t2 5l141 148q4 4 9 4h89q6 0 7 -4l62 -150q4 -6 -5 -6h-81q-6 0 -9 4q-5 14 -18 48.5t-16 41.5z" />
    <glyph glyph-name="Ycircumflex" unicode="&#x176;" horiz-adv-x="559" 
d="M277 0h-100q-9 0 -7 9l47 219q4 26 0 40l-123 378q-2 6 5 6h109q6 0 7 -4q74 -253 83 -317q52 88 214 316q3 5 10 5h110q8 0 3 -7l-285 -381q-11 -13 -19 -43l-45 -213q-1 -8 -9 -8zM442 710l-46 65l-80 -65q-6 -5 -12 -5h-97q-4 0 -4.5 3.5t2.5 5.5l147 116q6 3 9 3h92
q7 0 10 -4l82 -118q4 -6 -5 -6h-88q-7 0 -10 5z" />
    <glyph glyph-name="ycircumflex" unicode="&#x177;" horiz-adv-x="481" 
d="M52 486h114q5 0 6 -4q43 -230 50 -342h1q28 49 90 182t74 157q3 7 9 7h106q8 0 4 -9q-108 -247 -250 -453q-46 -68 -105 -137.5t-89 -97.5q-4 -5 -11 -5h-127q-4 0 -5 3t1 5q122 112 207 235q4 7 4 13q-5 32 -41 217t-43 222q-2 7 5 7zM311 630q-57 -67 -80 -90
q-4 -4 -10 -4h-87q-4 0 -4 3t2 5l140 148q5 4 10 4h88q5 0 8 -4l62 -150q2 -6 -5 -6h-82q-5 0 -8 4q-11 27 -34 90z" />
    <glyph glyph-name="Ydieresis" unicode="&#x178;" horiz-adv-x="559" 
d="M277 0h-100q-9 0 -7 9l47 219q4 26 0 40l-123 378q-2 6 5 6h109q6 0 7 -4q74 -253 83 -317q52 88 214 316q3 5 10 5h110q8 0 3 -7l-285 -381q-11 -13 -19 -43l-45 -213q-1 -8 -9 -8zM266 704q-29 0 -45 16t-14 42q3 27 23.5 44t49.5 17t44.5 -17t12.5 -44t-22.5 -42.5
t-48.5 -15.5zM473 704q-28 0 -44.5 15.5t-13.5 42.5t23.5 44t49.5 17q28 0 44 -17.5t13 -43.5q-3 -27 -22.5 -42.5t-49.5 -15.5z" />
    <glyph glyph-name="Zacute" unicode="&#x179;" horiz-adv-x="551" 
d="M463 0h-476q-6 0 -6 7l12 56q7 11 8 13q36 42 187 216t228 264h-313q-7 0 -6 7l31 85q1 4 7 4h445q6 0 5 -6l-14 -59q-2 -7 -9 -15q-156 -186 -408 -476h346q8 0 4 -7l-32 -83q-2 -6 -9 -6zM285 720l107 116q5 5 12 5h119q9 0 4 -8l-125 -114q-5 -6 -14 -6h-99
q-4 0 -5 2.5t1 4.5z" />
    <glyph glyph-name="zacute" unicode="&#x17a;" horiz-adv-x="424" 
d="M350 0h-368q-7 0 -5 5l13 54q1 3 6 10q57 67 166 189.5t120 135.5q-19 -1 -97 -1h-126q-6 0 -5 5l27 84q1 4 7 4h348q5 0 4 -6l-14 -59q-1 -3 -7 -12q-92 -116 -276 -318q28 2 113 2h125q7 0 5 -6l-29 -81q-1 -6 -7 -6zM200 546l108 147q5 6 13 6h115q7 0 2 -9l-125 -146
q-6 -5 -12 -5h-98q-8 0 -3 7z" />
    <glyph glyph-name="Zdotaccent" unicode="&#x17b;" horiz-adv-x="551" 
d="M463 0h-476q-6 0 -6 7l12 56q7 11 8 13q36 42 187 216t228 264h-313q-7 0 -6 7l31 85q1 4 7 4h445q6 0 5 -6l-14 -59q-2 -7 -9 -15q-156 -186 -408 -476h346q8 0 4 -7l-32 -83q-2 -6 -9 -6zM356 715q-30 0 -47 16.5t-14 42.5q3 27 23.5 43.5t51.5 16.5q30 0 46.5 -16.5
t14.5 -43.5q-4 -27 -24 -43t-51 -16z" />
    <glyph glyph-name="zdotaccent" unicode="&#x17c;" horiz-adv-x="424" 
d="M350 0h-368q-7 0 -5 5l13 54q1 3 6 10q57 67 166 189.5t120 135.5q-19 -1 -97 -1h-126q-6 0 -5 5l27 84q1 4 7 4h348q5 0 4 -6l-14 -59q-1 -3 -7 -12q-92 -116 -276 -318q28 2 113 2h125q7 0 5 -6l-29 -81q-1 -6 -7 -6zM258 555q-28 0 -43.5 16.5t-11.5 42.5
q4 27 24.5 43t49.5 16q28 0 43 -16.5t10 -42.5q-3 -27 -23 -43t-49 -16z" />
    <glyph glyph-name="Zcaron" unicode="&#x17d;" horiz-adv-x="551" 
d="M463 0h-476q-6 0 -6 7l12 56q7 11 8 13q36 42 187 216t228 264h-313q-7 0 -6 7l31 85q1 4 7 4h445q6 0 5 -6l-14 -59q-2 -7 -9 -15q-156 -186 -408 -476h346q8 0 4 -7l-32 -83q-2 -6 -9 -6zM320 833l47 -65l80 65q6 5 11 5h98q3 0 4 -3t-2 -5l-147 -116q-5 -4 -9 -4h-93
q-7 0 -9 5l-82 117q-3 6 4 6h88q7 0 10 -5z" />
    <glyph glyph-name="zcaron" unicode="&#x17e;" horiz-adv-x="424" 
d="M350 0h-368q-7 0 -5 5l13 54q1 3 6 10q57 67 166 189.5t120 135.5q-19 -1 -97 -1h-126q-6 0 -5 5l27 84q1 4 7 4h348q5 0 4 -6l-14 -59q-1 -3 -7 -12q-92 -116 -276 -318q28 2 113 2h125q7 0 5 -6l-29 -81q-1 -6 -7 -6zM273 602q57 67 81 91q3 3 9 3h87q4 0 4 -3t-2 -5
l-140 -147q-5 -5 -10 -5h-88q-5 0 -8 4l-62 150q-2 6 5 6h82q5 0 9 -4q7 -19 33 -90z" />
    <glyph glyph-name="longs" unicode="&#x17f;" horiz-adv-x="255" 
d="M67 486h57l6 25q46 207 209 207q39 0 57 -9q6 -3 4 -9l-17 -78q-1 -3 -2.5 -5t-3.5 -1q-15 5 -36 5q-33 0 -56.5 -20.5t-38.5 -84.5q-129 -626 -148 -684q-3 -8 -10 -8q-19 -2 -60 -6l-42 -5q-7 0 -5 8q15 48 61 266t64 314l-56 3q-6 2 -5 8l15 68q2 6 7 6z" />
    <glyph glyph-name="uni018F" unicode="&#x18f;" horiz-adv-x="685" 
d="M73 347q11 6 131 6h323q4 24 4 50q0 61 -40 107t-132 46q-109 0 -211 -56q-4 -2 -6 -0.5t-1 5.5l21 96q2 8 7 10q97 52 217 52q124 0 193.5 -75t69.5 -193q0 -80 -23 -152.5t-66.5 -129t-111 -90t-150.5 -33.5q-122 0 -185.5 65.5t-63.5 172.5q0 36 8.5 75.5t15.5 43.5z
M510 256h-249q-79 0 -82 -2q-5 -18 -5 -41q0 -52 34 -89t102 -37q73 0 125 46.5t75 122.5z" />
    <glyph glyph-name="florin" unicode="&#x192;" horiz-adv-x="540" 
d="M119 307l14 66q1 7 7 7h85l18 73q9 41 25.5 78.5t41.5 71.5t63.5 54.5t84.5 20.5q49 0 75 -13q5 -3 5 -10l-16 -74q-2 -9 -9 -6q-20 11 -50 11q-73 0 -102 -121l-21 -85h106q7 0 7 -6l-16 -66q-1 -7 -6 -7h-108l-53 -228q-24 -104 -69.5 -157t-128.5 -53q-56 1 -86 20
q-5 5 -5 11l18 78q0 9 8 5q30 -17 59 -17q38 0 58 26.5t33 88.5l52 226h-84q-7 0 -6 6z" />
    <glyph glyph-name="uni019F" unicode="&#x19f;" horiz-adv-x="685" 
d="M200 377l341 1q6 85 -27.5 136.5t-106.5 51.5t-127.5 -50t-79.5 -139zM527 289h-345q-11 -86 24.5 -144t111.5 -58t130.5 54t78.5 148zM423 663q103 0 168.5 -67.5t65.5 -186.5q1 -109 -38.5 -203t-122 -155t-192.5 -61q-107 0 -173.5 64.5t-66.5 184.5q0 78 24.5 152.5
t68.5 135.5t113.5 98.5t152.5 37.5z" />
    <glyph glyph-name="Ohorn" unicode="&#x1a0;" horiz-adv-x="685" 
d="M650 724h93q6 0 6 -6q6 -72 -30.5 -118t-93.5 -55q32 -52 32 -136q0 -81 -23.5 -155.5t-66.5 -133.5t-111.5 -94.5t-151.5 -35.5q-106 0 -173 64.5t-67 184.5q0 79 25 155t69 136t111.5 96.5t145.5 36.5q90 0 153 -47q38 -1 58 27.5t18 74.5q0 6 6 6zM406 566
q-96 0 -158.5 -100.5t-62.5 -224.5q0 -74 37.5 -114t97.5 -40q67 0 118 49.5t75.5 121.5t24.5 151q-1 76 -36.5 116.5t-95.5 40.5z" />
    <glyph glyph-name="ohorn" unicode="&#x1a1;" horiz-adv-x="548" 
d="M304 411q-60 0 -102 -70.5t-42 -161.5q0 -48 22.5 -75.5t63.5 -27.5q59 0 101.5 71t42.5 159q0 45 -20.5 75t-65.5 30zM481 566h90q8 0 10 -7q5 -15 5 -43q0 -50 -25 -83.5t-72 -40.5q21 -39 21 -95q0 -133 -77.5 -220t-198.5 -87q-95 0 -144.5 54.5t-49.5 139.5
q0 127 77 219.5t201 92.5q78 0 112 -34q49 1 49 55q0 21 -4 42q-2 7 6 7z" />
    <glyph glyph-name="Uhorn" unicode="&#x1af;" horiz-adv-x="645" 
d="M552 652h35q47 0 64 25.5t12 75.5q-2 7 6 7h91q7 0 8 -7q9 -73 -24 -120.5t-98 -56.5l-72 -339q-28 -131 -101.5 -189t-188.5 -58t-176 64t-36 184l86 409q1 5 8 5h102q8 0 6 -6l-85 -406q-15 -72 14 -111.5t95 -39.5q60 0 101 33t60 121l86 404q2 5 7 5z" />
    <glyph glyph-name="uhorn" unicode="&#x1b0;" horiz-adv-x="528" 
d="M418 0h-92q-9 0 -10 7q-2 19 3 52q-73 -69 -161 -69q-61 0 -96 42.5t-15 135.5l65 312q3 6 9 6h104q5 0 5 -8l-64 -307q-18 -86 50 -86q58 0 115 69l68 324q1 8 9 8h32q27 0 44.5 9t23.5 26t7.5 31t0.5 36q1 5 7 5h92q5 0 5 -5q3 -63 -24 -109.5t-92 -56.5l-66 -308
q-12 -63 -12 -107q0 -7 -8 -7z" />
    <glyph glyph-name="uni01C4" unicode="&#x1c4;" horiz-adv-x="1206" 
d="M28 10l132 636q1 5 6 5q48 3 161 3q144 0 222 -75t79 -199q0 -198 -134 -306q-99 -77 -280 -77q-78 0 -180 3q-9 0 -6 10zM259 559l-99 -465q26 -2 74 -2q116 0 176 49q97 80 97 237q0 90 -49 136.5t-140 46.5q-41 0 -59 -2zM1117 0h-475q-6 0 -6 7l12 56q2 4 8 13
q36 42 187 216t228 264h-314q-6 0 -5 7l31 85q1 4 7 4h445q6 0 5 -6l-14 -59q-2 -7 -9 -15q-102 -122 -408 -476h346q7 0 4 -7l-33 -83q-1 -6 -9 -6zM975 833l47 -65l80 65q6 5 11 5h98q3 0 3.5 -3t-1.5 -5l-148 -116q-4 -4 -8 -4h-93q-7 0 -9 5l-83 117q-2 6 5 6h88
q7 0 10 -5z" />
    <glyph glyph-name="uni01C5" unicode="&#x1c5;" horiz-adv-x="1079" 
d="M28 10l132 636q1 5 6 5q48 3 161 3q144 0 222 -75t79 -199q0 -198 -134 -306q-99 -77 -280 -77q-78 0 -180 3q-9 0 -6 10zM259 559l-99 -465q26 -2 74 -2q116 0 176 49q97 80 97 237q0 90 -49 136.5t-140 46.5q-41 0 -59 -2zM1005 0h-368q-7 0 -5 5l13 54q1 2 6 10
q44 52 107 123t116 131t63 71q-19 -1 -97 -1h-126q-6 0 -5 5l27 84q1 4 7 4h348q5 0 4 -6l-14 -59q-3 -6 -7 -12q-92 -116 -276 -318q28 2 113 2h125q6 0 5 -6l-29 -81q-2 -6 -7 -6zM928 602q54 63 80 91q4 3 10 3h86q4 0 4.5 -3t-2.5 -5l-140 -147q-4 -5 -9 -5h-89
q-6 0 -7 4l-62 150q-4 6 5 6h81q6 0 9 -4q23 -64 34 -90z" />
    <glyph glyph-name="uni01C6" unicode="&#x1c6;" horiz-adv-x="966" 
d="M575 711l-141 -672q-1 -7 -8 -10q-86 -39 -179 -39q-96 0 -151.5 52.5t-55.5 144.5q0 126 90.5 217.5t223.5 91.5q33 0 57 -8l46 215q1 7 7 8q88 7 107 7q5 0 4 -7zM328 93l65 305q-23 10 -55 10q-72 0 -125 -62t-52 -148q0 -57 29.5 -86.5t78.5 -29.5q33 0 59 11zM892 0
h-369q-5 0 -5 5l13 54q2 5 7 10q44 52 107 123t116 131t63 71q-19 -1 -98 -1h-126q-6 0 -4 5l26 84q2 4 7 4h348q5 0 5 -6l-15 -59q-3 -7 -7 -12q-92 -116 -276 -318q29 2 113 2h126q5 0 4 -6l-29 -81q-2 -6 -6 -6zM814 602q57 67 81 91q3 3 9 3h87q4 0 4 -3t-2 -5
l-140 -147q-5 -5 -10 -5h-88q-5 0 -8 4l-62 150q-2 6 5 6h82q5 0 8 -4q11 -27 34 -90z" />
    <glyph glyph-name="uni01C7" unicode="&#x1c7;" horiz-adv-x="897" 
d="M277 645l-115 -548h283q8 0 5 -8l-32 -83q-2 -6 -9 -6h-377q-6 0 -6 6l135 641q2 5 7 5h105q5 0 4 -7zM801 652h102q7 0 6 -7l-99 -467q-24 -119 -80.5 -174.5t-146.5 -55.5q-74 0 -113 28q-5 4 -4 11l19 81q2 6 6 3q41 -23 88 -23q50 0 75 30t40 98l99 470q1 6 8 6z" />
    <glyph glyph-name="uni01C8" unicode="&#x1c8;" horiz-adv-x="751" 
d="M277 645l-115 -548h283q8 0 5 -8l-32 -83q-2 -6 -9 -6h-377q-6 0 -6 6l135 641q2 5 7 5h105q5 0 4 -7zM620 478q1 7 9 7h102q7 0 6 -7l-100 -472q-18 -85 -37 -126.5t-48 -66.5q-44 -38 -124 -38q-26 0 -38 4q-6 2 -5 9l17 73q2 6 8 6q47 1 68 21.5t35 84.5zM697 555
q-29 0 -44.5 16.5t-11.5 42.5q4 27 24.5 43t49.5 16q28 0 43 -16.5t10 -42.5q-3 -27 -22.5 -43t-48.5 -16z" />
    <glyph glyph-name="uni01C9" unicode="&#x1c9;" horiz-adv-x="508" 
d="M215 76l-15 -65q-3 -7 -8 -10q-27 -11 -71 -11q-109 0 -83 127l124 587q3 6 8 7q9 1 37 2.5t46.5 3t21.5 1.5q6 0 5 -7l-124 -593q-9 -41 23 -41q14 0 31 5q3 1 4.5 -1t0.5 -5zM377 478q1 7 9 7h102q7 0 6 -7l-99 -472q-19 -85 -38 -126.5t-48 -66.5q-44 -38 -124 -38
q-26 0 -38 4q-6 2 -5 9l17 73q1 6 8 6q48 1 68.5 21.5t34.5 84.5zM454 555q-28 0 -43.5 16.5t-12.5 42.5q4 27 24.5 43t49.5 16q28 0 43 -16.5t11 -42.5q-4 -27 -23.5 -43t-48.5 -16z" />
    <glyph glyph-name="uni01CA" unicode="&#x1ca;" horiz-adv-x="1044" 
d="M161 647q1 5 8 5h131q6 0 7 -4q123 -373 148 -503h1q11 83 98 502q1 5 8 5h99q5 0 4 -6l-134 -638q-2 -8 -9 -8h-126q-7 0 -10 7q-129 403 -144 524h-1q-11 -86 -104 -525q-1 -6 -7 -6h-97q-8 0 -7 8zM948 652h103q7 0 6 -7l-99 -467q-24 -119 -80.5 -174.5t-146.5 -55.5
q-73 0 -114 28q-5 4 -4 11l20 81q2 6 6 3q41 -23 88 -23q50 0 74.5 30t39.5 98l99 470q1 6 8 6z" />
    <glyph glyph-name="uni01CB" unicode="&#x1cb;" horiz-adv-x="899" 
d="M161 647q1 5 8 5h131q6 0 7 -4q123 -373 148 -503h1q11 83 98 502q1 5 8 5h99q5 0 4 -6l-134 -638q-2 -8 -9 -8h-126q-7 0 -10 7q-129 403 -144 524h-1q-11 -86 -104 -525q-1 -6 -7 -6h-97q-8 0 -7 8zM767 478q2 7 10 7h101q7 0 6 -7l-99 -472q-19 -86 -38 -127t-48 -66
q-44 -38 -124 -38q-25 0 -38 4q-7 2 -4 9l17 73q2 6 7 6q48 1 69 21.5t34 84.5zM844 555q-28 0 -43.5 16.5t-11.5 42.5q4 27 24 43t49 16t43.5 -16t10.5 -43t-23.5 -43t-48.5 -16z" />
    <glyph glyph-name="uni01CC" unicode="&#x1cc;" horiz-adv-x="786" 
d="M16 6l77 365q12 49 19 108q1 7 8 7h94q6 0 7 -4q0 -16 -5 -61q85 75 172 75q56 0 90 -44t12 -144l-64 -302q-2 -6 -7 -6h-104q-7 0 -6 7l65 302q17 92 -45 92t-127 -76l-69 -320q-1 -5 -7 -5h-104q-6 0 -6 6zM655 478q1 7 9 7h102q7 0 6 -7l-100 -472q-18 -85 -37 -126.5
t-48 -66.5q-44 -38 -124 -38q-26 0 -38 4q-6 2 -5 9l17 73q1 6 8 6q48 1 68.5 21.5t34.5 84.5zM732 555q-29 0 -44.5 16.5t-11.5 42.5q4 27 24.5 43t49.5 16q28 0 43 -16.5t10 -42.5q-3 -27 -22.5 -43t-48.5 -16z" />
    <glyph glyph-name="uni01CD" unicode="&#x1cd;" horiz-adv-x="626" 
d="M416 183h-219l-96 -178q-3 -5 -9 -5h-105q-8 0 -5 8q35 63 156 280.5t172 310.5q8 16 16 49q1 4 6 4h133q5 0 5 -4q13 -91 41 -310t44 -330q0 -8 -7 -8h-99q-8 0 -9 7zM245 280h164q-26 203 -30 272h-2q-21 -58 -132 -272zM368 819l46 -66l80 66q8 5 12 5h97
q4 0 4.5 -3.5t-2.5 -5.5l-147 -116q-8 -4 -9 -4h-92q-8 0 -10 5l-82 118q-4 6 5 6h88q5 0 10 -5z" />
    <glyph glyph-name="uni01CE" unicode="&#x1ce;" horiz-adv-x="535" 
d="M520 473l-93 -438q-1 -4 -7 -8q-81 -37 -180 -37q-94 0 -147 51t-53 141q-1 121 96.5 217.5t249.5 96.5q78 0 132 -18q2 0 2 -5zM321 91l66 311q-10 2 -29 2q-79 0 -138.5 -63t-59.5 -150q0 -55 28.5 -82t78.5 -27q33 0 54 9zM351 602q57 67 81 91q3 3 9 3h87q4 0 4 -3
t-2 -5l-140 -147q-5 -5 -10 -5h-88q-5 0 -8 4l-62 150q-2 6 5 6h82q5 0 9 -4q7 -19 33 -90z" />
    <glyph glyph-name="uni01CF" unicode="&#x1cf;" horiz-adv-x="264" 
d="M277 645l-135 -638q-1 -7 -8 -7h-101q-7 0 -7 7l135 640q1 5 7 5h103q7 0 6 -7zM190 819l46 -66l80 66q8 5 12 5h97q4 0 4.5 -3.5t-2.5 -5.5l-147 -116q-8 -4 -9 -4h-92q-7 0 -10 5l-82 118q-4 6 5 6h88q5 0 10 -5z" />
    <glyph glyph-name="uni01D0" unicode="&#x1d0;" horiz-adv-x="246" 
d="M15 7l101 473q1 6 8 6h104q8 0 5 -8l-100 -471q-2 -7 -10 -7h-102q-6 0 -6 7zM196 602q57 67 81 91q3 3 9 3h87q4 0 4 -3t-2 -5l-140 -147q-5 -5 -10 -5h-88q-5 0 -8 4l-62 150q-2 6 5 6h82q5 0 9 -4q7 -19 33 -90z" />
    <glyph glyph-name="uni01D1" unicode="&#x1d1;" horiz-adv-x="685" 
d="M423 663q103 0 168.5 -67.5t65.5 -186.5q0 -81 -23 -155.5t-66.5 -133.5t-112 -94.5t-151.5 -35.5q-107 0 -173.5 64.5t-66.5 184.5q0 78 24.5 152.5t68.5 135.5t113.5 98.5t152.5 37.5zM406 566q-64 0 -116 -48.5t-78.5 -121.5t-26.5 -150t37.5 -118t97.5 -41
q99 0 158.5 98.5t59.5 220.5q0 79 -36.5 119.5t-95.5 40.5zM399 819l46 -66l80 66q8 5 12 5h97q4 0 4.5 -3.5t-2.5 -5.5l-147 -116q-8 -4 -9 -4h-93q-7 0 -9 5l-82 118q-4 6 5 6h88q5 0 10 -5z" />
    <glyph glyph-name="uni01D2" unicode="&#x1d2;" horiz-adv-x="548" 
d="M318 496q88 0 140 -55.5t52 -143.5q0 -132 -77.5 -219.5t-198.5 -87.5q-95 0 -144.5 54.5t-49.5 139.5q0 127 77 219.5t201 92.5zM306 411q-60 0 -103 -71t-43 -159q0 -48 22 -76.5t64 -28.5q59 0 101.5 69t42.5 160q0 44 -19 75t-65 31zM341 602q57 67 81 91q3 3 9 3h87
q4 0 4 -3t-2 -5l-140 -147q-5 -5 -10 -5h-88q-5 0 -8 4l-62 150q-2 6 5 6h82q5 0 9 -4q7 -19 33 -90z" />
    <glyph glyph-name="uni01D3" unicode="&#x1d3;" horiz-adv-x="645" 
d="M274 646l-85 -406q-15 -72 14 -111.5t95 -39.5q60 0 101 33t60 121l86 404q1 5 8 5h103q6 0 5 -7l-87 -408q-27 -131 -101 -189t-189 -58t-176 64t-36 184l86 409q1 5 8 5h102q8 0 6 -6zM379 819l46 -66l80 66q8 5 12 5h97q4 0 4.5 -3.5t-2.5 -5.5l-147 -116q-8 -4 -9 -4
h-93q-7 0 -9 5l-82 118q-4 6 5 6h88q5 0 10 -5z" />
    <glyph glyph-name="uni01D4" unicode="&#x1d4;" horiz-adv-x="528" 
d="M515 480l-77 -366q-12 -63 -12 -107q0 -7 -8 -7h-92q-9 0 -10 7q-2 19 3 52q-73 -69 -161 -69q-61 0 -96 42.5t-15 135.5l65 312q3 6 9 6h104q5 0 5 -8l-64 -306q-9 -40 3.5 -63t46.5 -23q58 0 113 66l71 329q2 5 8 5h102q6 0 5 -6zM334 602q57 67 81 91q3 3 9 3h87
q4 0 4 -3t-2 -5l-140 -147q-5 -5 -10 -5h-88q-5 0 -8 4l-62 150q-2 6 5 6h82q5 0 9 -4q7 -19 33 -90z" />
    <glyph glyph-name="uni01D5" unicode="&#x1d5;" horiz-adv-x="645" 
d="M274 646l-85 -406q-15 -72 14 -111.5t95 -39.5q60 0 101 33t60 121l86 404q1 5 8 5h103q6 0 5 -7l-87 -408q-27 -131 -101 -189t-189 -58t-176 64t-36 184l86 409q1 5 8 5h102q8 0 6 -6zM316 886h278q6 0 5 -7l-13 -61q-1 -7 -8 -7h-278q-7 0 -5 7l13 61q1 7 8 7z
M314 687q-23 0 -35.5 12t-11.5 31q2 19 18 31t39 12q22 0 34 -12t10 -31q-1 -19 -16.5 -31t-37.5 -12zM519 687q-22 0 -34.5 12t-10.5 31t17.5 31t37.5 12t34.5 -12t10.5 -31q-1 -19 -16.5 -31t-38.5 -12z" />
    <glyph glyph-name="uni01D6" unicode="&#x1d6;" horiz-adv-x="528" 
d="M515 480l-77 -366q-12 -63 -12 -107q0 -7 -8 -7h-92q-9 0 -10 7q-2 19 3 52q-73 -69 -161 -69q-61 0 -96 42.5t-15 135.5l65 312q3 6 9 6h104q5 0 5 -8l-64 -306q-9 -40 3.5 -63t46.5 -23q58 0 113 66l71 329q2 5 8 5h102q6 0 5 -6zM232 537q-22 0 -35 12t-11 33t18.5 34
t38.5 13t34 -13t10 -34t-17.5 -33t-37.5 -12zM411 537q-22 0 -34.5 12t-10.5 33t18 34t38 13t34 -13t10 -34q-2 -20 -17 -32.5t-38 -12.5zM231 752h262q7 0 4 -7l-13 -65q-1 -7 -8 -7h-262q-8 0 -6 7l14 65q1 7 9 7z" />
    <glyph glyph-name="uni01D7" unicode="&#x1d7;" horiz-adv-x="645" 
d="M274 646l-85 -406q-15 -72 14 -111.5t95 -39.5q60 0 101 33t60 121l86 404q1 5 8 5h103q6 0 5 -7l-87 -408q-27 -131 -101 -189t-189 -58t-176 64t-36 184l86 409q1 5 8 5h102q8 0 6 -6zM374 799l76 83q4 5 10 5h103q6 0 3 -6l-87 -84q-3 -5 -10 -5h-91q-8 0 -4 7z
M314 687q-23 0 -35.5 12t-11.5 31q2 19 18 31t39 12q22 0 34 -12t10 -31q-1 -19 -16.5 -31t-37.5 -12zM519 687q-22 0 -34.5 12t-10.5 31t17.5 31t37.5 12t34.5 -12t10.5 -31q-1 -19 -16.5 -31t-38.5 -12z" />
    <glyph glyph-name="uni01D8" unicode="&#x1d8;" horiz-adv-x="528" 
d="M515 480l-77 -366q-12 -63 -12 -107q0 -7 -8 -7h-92q-9 0 -10 7q-2 19 3 52q-73 -69 -161 -69q-61 0 -96 42.5t-15 135.5l65 312q3 6 9 6h104q5 0 5 -8l-64 -306q-9 -40 3.5 -63t46.5 -23q58 0 113 66l71 329q2 5 8 5h102q6 0 5 -6zM280 653l76 91q2 5 9 5h101q8 0 4 -6
l-87 -92q-3 -5 -9 -5h-91q-7 0 -3 7zM232 534q-22 0 -35 12.5t-11 32.5q2 21 18.5 34t38.5 13t34 -13t10 -34t-17.5 -33t-37.5 -12zM411 534q-22 0 -34.5 12t-10.5 33t18 34t38 13t34 -13t10 -34q-2 -20 -17 -32.5t-38 -12.5z" />
    <glyph glyph-name="uni01D9" unicode="&#x1d9;" horiz-adv-x="645" 
d="M274 646l-85 -406q-15 -72 14 -111.5t95 -39.5q60 0 101 33t60 121l86 404q1 5 8 5h103q6 0 5 -7l-87 -408q-27 -131 -101 -189t-189 -58t-176 64t-36 184l86 409q1 5 8 5h102q8 0 6 -6zM440 836q4 3 28.5 21t32.5 24q5 3 11 3h95q9 0 1 -8l-105 -75q-5 -4 -12 -4h-114
q-7 0 -10 4l-78 76q-3 7 5 7h93q5 0 9 -4t14 -13.5t18 -17.5t12 -13zM314 687q-23 0 -35.5 12t-11.5 31q2 19 18 31t39 12q22 0 34 -12t10 -31q-1 -19 -16.5 -31t-37.5 -12zM519 687q-22 0 -34.5 12t-10.5 31t17.5 31t37.5 12t34.5 -12t10.5 -31q-1 -19 -16.5 -31t-38.5 -12
z" />
    <glyph glyph-name="uni01DA" unicode="&#x1da;" horiz-adv-x="528" 
d="M515 480l-77 -366q-12 -63 -12 -107q0 -7 -8 -7h-92q-9 0 -10 7q-2 19 3 52q-73 -69 -161 -69q-61 0 -96 42.5t-15 135.5l65 312q3 6 9 6h104q5 0 5 -8l-64 -306q-9 -40 3.5 -63t46.5 -23q58 0 113 66l71 329q2 5 8 5h102q6 0 5 -6zM345 690q3 2 28 23t34 28q3 4 10 4h90
q4 0 4 -3t-2 -5l-110 -87q-4 -4 -11 -4h-97q-8 0 -10 4l-77 88q-2 2 -0.5 4.5t5.5 2.5h84q5 0 10 -5q5 -7 21 -25t21 -25zM232 533q-22 0 -35 12.5t-11 32.5q2 21 18.5 34t38.5 13t34 -13t10 -34t-17.5 -33t-37.5 -12zM411 533q-22 0 -34.5 12.5t-10.5 32.5q2 21 18 34
t38 13t34 -13t10 -34q-2 -20 -17 -32.5t-38 -12.5z" />
    <glyph glyph-name="uni01DB" unicode="&#x1db;" horiz-adv-x="645" 
d="M274 646l-85 -406q-15 -72 14 -111.5t95 -39.5q60 0 101 33t60 121l86 404q1 5 8 5h103q6 0 5 -7l-87 -408q-27 -131 -101 -189t-189 -58t-176 64t-36 184l86 409q1 5 8 5h102q8 0 6 -6zM434 880l46 -84q4 -7 -4 -7h-90q-8 0 -10 5l-56 85q-3 6 4 6h101q7 0 9 -5z
M314 687q-23 0 -35.5 12t-11.5 31q2 19 18 31t39 12q22 0 34 -12t10 -31q-1 -19 -16.5 -31t-37.5 -12zM519 687q-22 0 -34.5 12t-10.5 31t17.5 31t37.5 12t34.5 -12t10.5 -31q-1 -19 -16.5 -31t-38.5 -12z" />
    <glyph glyph-name="uni01DC" unicode="&#x1dc;" horiz-adv-x="528" 
d="M515 480l-77 -366q-12 -63 -12 -107q0 -7 -8 -7h-92q-9 0 -10 7q-2 19 3 52q-73 -69 -161 -69q-61 0 -96 42.5t-15 135.5l65 312q3 6 9 6h104q5 0 5 -8l-64 -306q-9 -40 3.5 -63t46.5 -23q58 0 113 66l71 329q2 5 8 5h102q6 0 5 -6zM338 744l48 -91q4 -7 -5 -7h-87
q-6 0 -10 4l-57 91q-4 8 4 8h98q7 0 9 -5zM232 534q-22 0 -34.5 12t-11.5 33q3 21 19 33.5t38 12.5t34 -12.5t10 -33.5t-17.5 -33t-37.5 -12zM411 534q-22 0 -34.5 12t-10.5 33t18 33.5t38 12.5t34 -13t10 -33t-17.5 -32.5t-37.5 -12.5z" />
    <glyph glyph-name="Gcaron" unicode="&#x1e6;" horiz-adv-x="655" 
d="M479 252l-123 4q-5 1 -5 7l17 74q1 7 8 7h233q5 0 5 -7l-63 -292q-1 -9 -11 -12q-92 -43 -204 -43q-126 0 -197.5 71.5t-71.5 194.5q0 80 27.5 153t77.5 129.5t126.5 90.5t167.5 34q122 0 182 -42q4 -3 2 -11l-21 -85q-2 -11 -9 -5q-66 41 -164 41q-125 0 -196.5 -87.5
t-71.5 -211.5q0 -82 46 -127.5t123 -45.5q52 0 91 18zM409 819l46 -66l80 66q8 5 12 5h97q4 0 4.5 -3.5t-2.5 -5.5l-147 -116q-8 -4 -9 -4h-93q-7 0 -9 5l-82 118q-4 6 5 6h88q5 0 10 -5z" />
    <glyph glyph-name="gcaron" unicode="&#x1e7;" horiz-adv-x="535" 
d="M-21 -185l24 86q2 7 7 4q61 -32 132 -32q72 0 105.5 34.5t53.5 113.5q-41 -18 -93 -18q-75 0 -122 45.5t-47 131.5q0 125 91.5 220.5t237.5 95.5q87 0 146 -21q6 -2 5 -9q-12 -39 -16 -58l-76 -357q-19 -83 -48 -139.5t-67.5 -85.5t-79.5 -40.5t-95 -11.5q-93 0 -154 32
q-6 3 -4 9zM322 110l62 294q-12 4 -44 4q-74 0 -127 -62t-53 -149q0 -104 93 -104q38 0 69 17zM352 602q57 67 81 91q3 3 9 3h87q4 0 4 -3t-2 -5l-140 -147q-5 -5 -10 -5h-88q-5 0 -8 4l-62 150q-2 6 5 6h82q5 0 9 -4q7 -19 33 -90z" />
    <glyph glyph-name="uni01F1" unicode="&#x1f1;" horiz-adv-x="1206" 
d="M28 10l132 636q1 5 6 5q48 3 161 3q144 0 222 -75t79 -199q0 -198 -134 -306q-99 -77 -280 -77q-78 0 -180 3q-9 0 -6 10zM259 559l-99 -465q26 -2 74 -2q116 0 176 49q97 80 97 237q0 90 -49 136.5t-140 46.5q-41 0 -59 -2zM1117 0h-475q-6 0 -6 7l12 56q2 4 8 13
q36 42 187 216t228 264h-314q-6 0 -5 7l31 85q1 4 7 4h445q6 0 5 -6l-14 -59q-2 -7 -9 -15q-102 -122 -408 -476h346q7 0 4 -7l-33 -83q-1 -6 -9 -6z" />
    <glyph glyph-name="uni01F2" unicode="&#x1f2;" horiz-adv-x="1079" 
d="M28 10l132 636q1 5 6 5q48 3 161 3q144 0 222 -75t79 -199q0 -198 -134 -306q-99 -77 -280 -77q-78 0 -180 3q-9 0 -6 10zM259 559l-99 -465q26 -2 74 -2q116 0 176 49q97 80 97 237q0 90 -49 136.5t-140 46.5q-41 0 -59 -2zM1005 0h-368q-7 0 -5 5l13 54q1 2 6 10
q44 52 107 123t116 131t63 71q-19 -1 -97 -1h-126q-6 0 -5 5l27 84q1 4 7 4h348q5 0 4 -6l-14 -59q-3 -6 -7 -12q-92 -116 -276 -318q28 2 113 2h125q6 0 5 -6l-29 -81q-2 -6 -7 -6z" />
    <glyph glyph-name="uni01F3" unicode="&#x1f3;" horiz-adv-x="966" 
d="M575 711l-141 -672q-1 -7 -8 -10q-86 -39 -179 -39q-96 0 -151.5 52.5t-55.5 144.5q0 126 90.5 217.5t223.5 91.5q33 0 57 -8l46 215q1 7 7 8q88 7 107 7q5 0 4 -7zM328 93l65 305q-23 10 -55 10q-72 0 -125 -62t-52 -148q0 -57 29.5 -86.5t78.5 -29.5q33 0 59 11zM892 0
h-369q-5 0 -5 5l13 54q2 5 7 10q44 52 107 123t116 131t63 71q-19 -1 -98 -1h-126q-6 0 -4 5l26 84q2 4 7 4h348q5 0 5 -6l-15 -59q-3 -7 -7 -12q-92 -116 -276 -318q29 2 113 2h126q5 0 4 -6l-29 -81q-2 -6 -6 -6z" />
    <glyph glyph-name="Aringacute" unicode="&#x1fa;" horiz-adv-x="626" 
d="M299 732q0 29 28.5 48.5t80.5 19.5q56 0 82.5 -18.5t26.5 -49.5t-29.5 -51t-79.5 -20q-109 0 -109 71zM367 732q0 -27 41 -27q42 0 42 27q0 12 -12.5 19t-29.5 7q-41 0 -41 -26zM347 822l88 58q10 5 17 5h109q13 0 4 -11l-101 -58q-6 -4 -19 -4h-94q-14 0 -4 10zM416 183
h-219l-96 -178q-3 -5 -9 -5h-105q-8 0 -5 8q35 63 156 280.5t172 310.5q8 16 16 49q1 4 6 4h133q5 0 5 -4q13 -91 41 -310t44 -330q0 -8 -7 -8h-99q-8 0 -9 7zM245 280h164q-26 203 -30 272h-2q-21 -58 -132 -272z" />
    <glyph glyph-name="aringacute" unicode="&#x1fb;" horiz-adv-x="535" 
d="M271 584q4 30 34 50.5t80 20.5t76 -20.5t22 -50.5q-3 -32 -33 -53t-80 -21t-76 21t-23 53zM339 584q-2 -14 7.5 -22.5t27.5 -8.5q39 0 42 31q2 13 -7.5 21.5t-27.5 8.5q-38 0 -42 -30zM343 680l68 90q5 6 13 6h101q4 0 5.5 -3t-2.5 -7l-86 -89q-5 -6 -14 -6h-82
q-4 0 -5 3t2 6zM520 473l-93 -438q-1 -4 -7 -8q-81 -37 -180 -37q-94 0 -147 51t-53 141q-1 121 96.5 217.5t249.5 96.5q78 0 132 -18q2 0 2 -5zM321 91l66 311q-10 2 -29 2q-79 0 -138.5 -63t-59.5 -150q0 -55 28.5 -82t78.5 -27q33 0 54 9z" />
    <glyph glyph-name="AEacute" unicode="&#x1fc;" horiz-adv-x="846" 
d="M97 0h-111q-8 0 -4 9l374 586q7 11 26 52q2 5 8 5h420q6 0 7 -6v-84q0 -6 -7 -6h-253l-18 -184h234q5 0 4 -6l-18 -85q-1 -5 -7 -5h-219l-17 -179h274q6 0 3 -7l-31 -84q-2 -6 -8 -6h-357q-4 0 -4 4l18 197h-183l-122 -195q-3 -6 -9 -6zM281 297h139q16 175 28 272h-2
q-20 -38 -165 -272zM489 715l108 117q3 4 11 4h120q8 0 3 -8l-125 -114q-6 -6 -14 -6h-99q-4 0 -5 2.5t1 4.5z" />
    <glyph glyph-name="aeacute" unicode="&#x1fd;" horiz-adv-x="802" 
d="M160 159q0 -38 18 -55.5t46 -17.5q66 0 127 70q-2 22 -1 41q0 51 25 111.5t60 89.5q-103 7 -189 -68t-86 -171zM631 496q77 0 115 -37t38 -94q0 -80 -82 -124.5t-237 -41.5q0 -2 -0.5 -9.5t-0.5 -10.5q0 -41 27 -69t89 -28q68 0 133 33q4 2 4 -2v-2l-18 -80q-2 -7 -8 -11
q-55 -30 -141 -30q-119 0 -173 88q-83 -88 -196 -88q-63 0 -102 37.5t-39 110.5q0 137 122 242.5t295 106.5q58 0 86 -8q37 17 88 17zM616 413q-48 0 -87.5 -39t-54.5 -99q205 -4 205 87q0 19 -14 35t-49 16zM422 546l108 147q5 6 13 6h115q7 0 2 -9l-125 -146q-6 -5 -12 -5
h-98q-8 0 -3 7z" />
    <glyph glyph-name="Oslashacute" unicode="&#x1fe;" horiz-adv-x="685" 
d="M124 0h-74q-9 0 -4 7l65 72q-47 65 -47 162q0 109 43.5 204.5t126.5 156.5t188 61q80 0 139 -46l29 31q4 5 9 5h69q8 0 3 -7l-61 -72q48 -63 48 -164q0 -176 -96.5 -298t-255.5 -122q-90 0 -146 46l-28 -32q-3 -4 -8 -4zM199 183l293 349q-31 35 -86 35q-97 0 -160 -93.5
t-63 -219.5q0 -44 16 -71zM527 471l-292 -353q32 -32 86 -32q53 0 96 29t69.5 75t41 99.5t14.5 106.5q0 45 -15 75zM357 714l108 116q3 5 12 5h119q4 0 4.5 -3t-1.5 -5l-124 -114q-7 -6 -14 -6h-99q-4 0 -5.5 2.5t0.5 4.5z" />
    <glyph glyph-name="oslashacute" unicode="&#x1ff;" horiz-adv-x="558" 
d="M164 152l199 232q-22 24 -61 24q-74 0 -116.5 -84t-21.5 -172zM115 25l-25 -27q-4 -4 -13 -4h-57q-9 0 -1 8l57 59q-36 53 -36 122q0 130 77 221.5t200 91.5q72 0 118 -37l23 24q4 4 8 4h59q8 0 2 -8l-54 -56q37 -50 37 -127q0 -132 -77 -219t-196 -87q-74 0 -122 35z
M385 328l-194 -225q22 -22 58 -22q52 0 88.5 41.5t48 98t-0.5 107.5zM259 546l108 147q5 6 13 6h115q7 0 2 -9l-125 -146q-6 -5 -12 -5h-98q-8 0 -3 7z" />
    <glyph glyph-name="uni0218" unicode="&#x218;" horiz-adv-x="507" 
d="M215 -10q-60 0 -116 19t-86 46q-6 4 -4 12l21 90q2 7 8 3q86 -72 190 -72q50 0 78.5 23.5t28.5 59.5q0 27 -18.5 49.5t-74.5 56.5q-80 48 -115 89.5t-35 99.5q0 80 60 138t173 58q56 0 100.5 -14.5t66.5 -32.5q5 -3 3 -10l-20 -84q-2 -6 -8 -3q-69 49 -151 49
q-55 0 -82.5 -26t-27.5 -61q0 -28 22 -49.5t78 -55.5q86 -52 117 -92.5t31 -95.5q0 -91 -65 -144t-174 -53zM177 -234h-98q-3 0 -3.5 3t1.5 4q54 52 66 107q7 32 -1 67q-2 6 4 6h101q8 0 9 -5q9 -27 1 -65q-13 -68 -67 -113q-4 -4 -13 -4z" />
    <glyph glyph-name="uni0219" unicode="&#x219;" horiz-adv-x="402" 
d="M356 370q-59 36 -128 36q-32 0 -48.5 -13t-16.5 -34q0 -16 11 -28.5t49 -34.5q75 -39 103.5 -73t28.5 -79q0 -75 -55 -114.5t-138 -39.5q-102 0 -161 50q-5 4 -3 13l19 80q2 8 7 3q78 -55 149 -55q68 0 68 47q0 18 -13 32t-55 38q-64 36 -90 67.5t-26 75.5q0 68 52 111
t141 43q85 0 130 -33q6 -3 3 -10l-19 -79q-1 -6 -8 -3zM126 -227h-98q-3 0 -3.5 2.5t1.5 4.5q55 52 65 107q7 32 -1 67q-2 6 5 6h101q8 0 9 -5q9 -27 1 -65q-12 -67 -67 -113q-6 -4 -13 -4z" />
    <glyph glyph-name="uni021A" unicode="&#x21a;" horiz-adv-x="544" 
d="M159 8l116 548h-191q-8 0 -4 7l30 85q1 4 7 4h478q6 0 6 -5l-1 -84q0 -7 -7 -7h-202l-116 -549q-1 -7 -9 -7h-101q-7 0 -6 8zM185 -226h-98q-4 0 -4 3t2 4q55 53 65 107q7 33 -1 66q-1 6 4 6h102q8 0 9 -4q8 -33 1 -65q-13 -68 -68 -114q-6 -3 -12 -3z" />
    <glyph glyph-name="uni021B" unicode="&#x21b;" horiz-adv-x="312" 
d="M260 83l-13 -63q-3 -8 -10 -11q-35 -19 -93 -19q-55 0 -84 34.5t-14 106.5l57 269l-60 4q-7 0 -5 8l15 68q2 6 9 6h60l24 115q4 7 8 7q60 3 107 20q4 2 6.5 0t1.5 -5q-5 -20 -15 -66t-16 -71h95q9 0 6 -7l-14 -67q-1 -8 -9 -8l-97 -4l-53 -258q-13 -61 37 -61q30 0 51 8
q2 2 4.5 0t1.5 -6zM98 -225h-98q-3 0 -3.5 2.5t1.5 4.5q55 53 65 106q7 33 -1 67q-2 6 5 6h101q8 0 9 -5q9 -27 1 -65q-12 -67 -67 -113q-5 -3 -13 -3z" />
    <glyph glyph-name="uni021C" unicode="&#x21c;" horiz-adv-x="517" 
d="M502 568q-104 -99 -226 -205q82 -4 137 -49.5t55 -121.5q0 -83 -45.5 -141t-112 -83t-146.5 -25q-54 0 -107.5 13.5t-77.5 30.5q-4 4 -3 9l20 91q1 7 8 5q30 -20 76.5 -33.5t90.5 -13.5q84 0 130 35t46 97q0 49 -37.5 76t-97.5 27t-99 -11q-3 -2 -4.5 -1t-0.5 5l12 61
q0 2 5 9l241 215q-38 -2 -106 -2h-160q-6 0 -3 8l36 83q3 5 8 5h377q6 0 5 -5l-15 -69q0 -4 -6 -10z" />
    <glyph glyph-name="uni021D" unicode="&#x21d;" horiz-adv-x="414" 
d="M404 405q-27 -29 -66.5 -67t-81.5 -78t-57 -55q67 -8 115.5 -53.5t48.5 -122.5q0 -122 -84.5 -188.5t-199.5 -66.5q-109 0 -164 36q-5 4 -3 13l19 85q0 3 2.5 4.5t4.5 0.5q26 -18 66.5 -29.5t78.5 -11.5q75 0 117 38.5t42 102.5q0 46 -31.5 74t-92.5 28q-32 0 -64 -4
q-8 -1 -6 6l12 59q3 8 7 12l212 206q-19 -1 -97 -1h-140q-8 0 -5 9l26 77q3 7 10 7h346q6 0 5 -8l-13 -61q-1 -4 -7 -12z" />
    <glyph glyph-name="uni0232" unicode="&#x232;" horiz-adv-x="559" 
d="M277 0h-100q-9 0 -7 9l47 219q4 26 0 40l-123 378q-2 6 5 6h109q6 0 7 -4q74 -253 83 -317q52 88 214 316q3 5 10 5h110q8 0 3 -7l-285 -381q-11 -13 -19 -43l-45 -213q-1 -8 -9 -8zM252 803h275q7 0 4 -6l-15 -76q-2 -7 -8 -7h-274q-7 0 -7 2v4l17 76q1 7 8 7z" />
    <glyph glyph-name="uni0233" unicode="&#x233;" horiz-adv-x="481" 
d="M52 486h114q5 0 6 -4q43 -230 50 -342h1q28 49 90 182t74 157q3 7 9 7h106q8 0 4 -9q-108 -247 -250 -453q-46 -68 -105 -137.5t-89 -97.5q-4 -5 -11 -5h-127q-4 0 -5 3t1 5q122 112 207 235q4 7 4 13q-5 32 -41 217t-43 222q-2 7 5 7zM162 661h284q7 0 5 -7l-15 -71
q-3 -7 -8 -7h-282q-8 0 -5 7l15 73q2 5 6 5z" />
    <glyph glyph-name="uni0237" unicode="&#x237;" horiz-adv-x="246" 
d="M115 478q2 7 9 7h102q7 0 6 -7l-99 -472q-19 -85 -38 -126.5t-48 -66.5q-44 -38 -124 -38q-26 0 -38 4q-7 2 -4 9l16 73q1 6 8 6q48 1 68.5 21.5t34.5 84.5z" />
    <glyph glyph-name="uni0251" unicode="&#x251;" horiz-adv-x="535" 
d="M520 473l-93 -438q-1 -4 -7 -8q-81 -37 -180 -37q-94 0 -147 51t-53 141q-1 121 96.5 217.5t249.5 96.5q78 0 132 -18q2 0 2 -5zM321 91l66 311q-10 2 -29 2q-79 0 -138.5 -63t-59.5 -150q0 -55 28.5 -82t78.5 -27q33 0 54 9z" />
    <glyph glyph-name="uni0259" unicode="&#x259;" horiz-adv-x="510" 
d="M189 -10q-81 0 -120.5 37.5t-39.5 93.5q0 84 82 130t238 44q0 2 0.5 6.5t0.5 7.5q0 94 -113 94q-75 0 -141 -36q-5 -3 -5 4l19 80q2 7 8 11q64 34 148 34q100 0 149 -55.5t49 -147.5q0 -126 -77 -214.5t-198 -88.5zM196 72q50 0 91 40.5t52 103.5q-62 2 -105.5 -6.5
t-63.5 -24t-28 -30.5t-8 -32q0 -20 14.5 -35.5t47.5 -15.5z" />
    <glyph glyph-name="uni0261" unicode="&#x261;" horiz-adv-x="535" 
d="M-21 -185l24 86q2 7 7 4q61 -32 132 -32q72 0 105.5 34.5t53.5 113.5q-41 -18 -93 -18q-75 0 -122 45.5t-47 131.5q0 125 91.5 220.5t237.5 95.5q87 0 146 -21q6 -2 5 -9q-12 -39 -16 -58l-76 -357q-19 -83 -48 -139.5t-67.5 -85.5t-79.5 -40.5t-95 -11.5q-93 0 -154 32
q-6 3 -4 9zM322 110l62 294q-12 4 -44 4q-74 0 -127 -62t-53 -149q0 -104 93 -104q38 0 69 17z" />
    <glyph glyph-name="uni0275" unicode="&#x275;" horiz-adv-x="548" 
d="M318 496q88 0 140 -55.5t52 -143.5q0 -133 -77.5 -220t-198.5 -87q-95 0 -144.5 54.5t-49.5 139.5q0 127 77 219.5t201 92.5zM172 286h222q0 4 0.5 11.5t0.5 10.5q0 44 -21 74.5t-70 30.5q-43 0 -79.5 -32t-52.5 -95zM378 204l-222 1q-1 -4 -1.5 -11t-0.5 -11
q-1 -49 24 -77t68 -28q41 0 78.5 29t53.5 97z" />
    <glyph glyph-name="uni02BB" unicode="&#x2bb;" horiz-adv-x="185" 
d="M160 716h90q6 0 2 -7q-81 -113 -91 -250q-1 -6 -7 -6h-88q-7 0 -7 7q0 59 25.5 131t66.5 121q4 4 9 4z" />
    <glyph glyph-name="uni02BC" unicode="&#x2bc;" horiz-adv-x="185" 
d="M152 453h-90q-8 0 -2 6q79 112 91 251q0 6 6 6h89q7 0 7 -7q0 -59 -25.5 -130.5t-66.5 -121.5q-4 -4 -9 -4z" />
    <glyph glyph-name="uni02BE" unicode="&#x2be;" horiz-adv-x="400" 
d="M232 679l10 51q54 -7 78.5 -39.5t15.5 -75.5q-7 -41 -43.5 -60.5t-87.5 -13.5l10 51q54 2 60 35q8 41 -43 52z" />
    <glyph glyph-name="uni02BF" unicode="&#x2bf;" horiz-adv-x="400" 
d="M320 584l-10 -51q-54 7 -78.5 39.5t-15.5 75.5q7 41 43.5 60.5t87.5 14.5l-10 -52q-53 0 -60 -35q-8 -41 43 -52z" />
    <glyph glyph-name="circumflex" unicode="&#x2c6;" 
d="M285 630q-57 -67 -80 -90q-4 -4 -10 -4h-87q-4 0 -4 3t2 5l140 148q5 4 10 4h88q5 0 8 -4l62 -150q2 -6 -5 -6h-82q-5 0 -8 4q-11 27 -34 90z" />
    <glyph glyph-name="caron" unicode="&#x2c7;" 
d="M257 602q57 67 81 91q3 3 9 3h87q4 0 4 -3t-2 -5l-140 -147q-5 -5 -10 -5h-88q-5 0 -8 4l-62 150q-2 6 5 6h82q5 0 9 -4q7 -19 33 -90z" />
    <glyph glyph-name="uni02C8" unicode="&#x2c8;" horiz-adv-x="400" 
d="M213 546l28 145q1 8 9 8h94q7 0 4 -6l-41 -148q-2 -6 -9 -6h-80q-7 0 -5 7z" />
    <glyph glyph-name="uni02C9" unicode="&#x2c9;" 
d="M126 661h284q7 0 5 -7l-15 -71q-3 -7 -8 -7h-282q-8 0 -5 7l15 73q2 5 6 5z" />
    <glyph glyph-name="uni02CA" unicode="&#x2ca;" 
d="M180 546l108 147q5 6 13 6h115q7 0 2 -9l-125 -146q-6 -5 -12 -5h-98q-8 0 -3 7z" />
    <glyph glyph-name="uni02CB" unicode="&#x2cb;" 
d="M258 694l52 -147q4 -8 -6 -8h-93q-5 0 -9 6l-75 145q-4 9 6 9h116q7 0 9 -5z" />
    <glyph glyph-name="uni02CC" unicode="&#x2cc;" horiz-adv-x="400" 
d="M88 -207l28 145q1 8 8 8h94q6 0 5 -6l-41 -148q-2 -6 -10 -6h-79q-7 0 -5 7z" />
    <glyph glyph-name="breve" unicode="&#x2d8;" 
d="M119 684h82q5 0 5 -5q9 -50 64 -50q54 0 82 50q1 5 6 5h82q5 0 3 -6q-44 -134 -186 -134q-66 0 -104 35.5t-39 99.5q0 5 5 5z" />
    <glyph glyph-name="dotaccent" unicode="&#x2d9;" 
d="M242 555q-28 0 -43.5 16.5t-11.5 42.5q4 27 24 43t49 16t43.5 -16t10.5 -43t-23.5 -43t-48.5 -16z" />
    <glyph glyph-name="ring" unicode="&#x2da;" 
d="M148 625q4 42 36.5 69t80.5 27t75.5 -27t23.5 -69q-5 -44 -38 -70.5t-81 -26.5q-49 0 -75.5 26t-21.5 71zM210 625q-2 -20 9 -32t31 -12t34.5 12t16.5 32t-10 32t-32 12t-33.5 -11.5t-15.5 -32.5z" />
    <glyph glyph-name="ogonek" unicode="&#x2db;" horiz-adv-x="375" 
d="M137 30h104q-136 -67 -136 -125q0 -17 13 -27.5t36 -10.5q24 0 50 8q3 1 4.5 -0.5t0.5 -5.5l-14 -65q-1 -10 -9 -13q-32 -15 -83 -15q-46 0 -77.5 23.5t-31.5 67.5q0 50 41.5 93.5t101.5 69.5z" />
    <glyph glyph-name="tilde" unicode="&#x2dc;" 
d="M148 555h-71q-8 0 -6 7q5 64 38 97t79 33q35 0 78 -25t55 -25q28 0 33 43q1 6 7 6h70q6 0 6 -6q-6 -69 -37 -100.5t-73 -31.5q-34 0 -75.5 24.5t-59.5 24.5q-31 0 -38 -42q0 -5 -6 -5z" />
    <glyph glyph-name="hungarumlaut" unicode="&#x2dd;" 
d="M122 549l98 137q2 5 10 5h94q3 0 4 -2.5t-1 -4.5l-113 -139q-7 -6 -15 -6h-73q-6 0 -6.5 3.5t2.5 6.5zM303 547l99 139q3 5 11 5h95q7 0 3 -8l-114 -138q-6 -6 -13 -6h-77q-10 0 -4 8z" />
    <glyph glyph-name="gravecomb" unicode="&#x300;" horiz-adv-x="0" 
d="M86 694l53 -147q2 -8 -6 -8h-94q-6 0 -8 6l-75 145q-4 9 5 9h116q8 0 9 -5z" />
    <glyph glyph-name="acutecomb" unicode="&#x301;" horiz-adv-x="0" 
d="M-13 546l108 147q5 6 13 6h115q8 0 3 -9l-125 -146q-6 -5 -13 -5h-97q-9 0 -4 7z" />
    <glyph glyph-name="uni0302" unicode="&#x302;" horiz-adv-x="0" 
d="M87 630q-57 -67 -80 -90q-4 -4 -10 -4h-86q-4 0 -4.5 3t2.5 5l140 148q4 4 9 4h89q6 0 7 -4l62 -150q4 -6 -4 -6h-82q-6 0 -9 4q-23 64 -34 90z" />
    <glyph glyph-name="tildecomb" unicode="&#x303;" horiz-adv-x="0" 
d="M-23 555h-71q-8 0 -6 7q5 64 38 97t79 33q35 0 78 -25t55 -25q28 0 33 43q1 6 7 6h70q6 0 6 -6q-6 -69 -37 -100.5t-73 -31.5q-34 0 -75.5 24.5t-59.5 24.5q-31 0 -38 -42q0 -5 -6 -5z" />
    <glyph glyph-name="uni0304" unicode="&#x304;" horiz-adv-x="0" 
d="M-56 661h284q8 0 4 -7l-15 -71q-1 -7 -7 -7h-283q-7 0 -5 7l16 73q0 5 6 5z" />
    <glyph glyph-name="uni0306" unicode="&#x306;" horiz-adv-x="0" 
d="M-68 684h82q3 0 5 -5q9 -50 64 -50q54 0 82 50q1 5 5 5h83q4 0 2 -6q-43 -134 -185 -134q-66 0 -104 35.5t-39 99.5q0 5 5 5z" />
    <glyph glyph-name="uni0307" unicode="&#x307;" horiz-adv-x="0" 
d="M71 555q-28 0 -43.5 16.5t-11.5 42.5q4 27 24 43t49 16t43.5 -16t10.5 -43t-23.5 -43t-48.5 -16z" />
    <glyph glyph-name="uni0308" unicode="&#x308;" horiz-adv-x="0" 
d="M-32 555q-27 0 -42 16.5t-11 42.5q4 27 23.5 43t47.5 16q27 0 41 -16t11 -43q-4 -27 -23 -43t-47 -16zM170 555q-27 0 -42 16.5t-11 42.5q4 27 23.5 43t47.5 16t42 -16.5t9 -42.5q-3 -27 -22 -43t-47 -16z" />
    <glyph glyph-name="hookabovecomb" unicode="&#x309;" horiz-adv-x="0" 
d="M-19 645l12 57q2 7 6 8q38 20 90 20q43 0 67 -23.5t24 -54.5q0 -54 -46.5 -86.5t-109.5 -45.5q-3 -1 -5.5 0t-1.5 5l12 56q1 5 6 7q49 22 49 49q0 21 -26 21q-34 0 -71 -18q-3 -1 -5 0t-1 5z" />
    <glyph glyph-name="uni030A" unicode="&#x30a;" horiz-adv-x="0" 
d="M-29 625q4 42 36.5 69t80.5 27t75.5 -27t23.5 -69q-5 -44 -38 -70.5t-81 -26.5q-49 0 -75.5 26t-21.5 71zM33 625q-2 -20 9.5 -32t30.5 -12q20 0 34.5 12t16.5 32t-10 32t-31 12q-20 0 -34 -11.5t-16 -32.5z" />
    <glyph glyph-name="uni030B" unicode="&#x30b;" horiz-adv-x="0" 
d="M-77 549l98 137q4 5 11 5h94q5 -1 2 -7l-113 -139q-6 -6 -14 -6h-73q-12 0 -5 10zM105 547l99 139q3 5 10 5h96q8 0 2 -8l-114 -138q-4 -6 -12 -6h-77q-4 0 -5.5 2t1.5 6z" />
    <glyph glyph-name="uni030C" unicode="&#x30c;" horiz-adv-x="0" 
d="M74 602q57 67 81 91q5 3 10 3h86q4 0 4 -3t-2 -5l-140 -147q-5 -5 -10 -5h-88q-5 0 -8 4l-62 150q-2 6 5 6h82q6 0 9 -4q7 -19 33 -90z" />
    <glyph glyph-name="uni031B" unicode="&#x31b;" horiz-adv-x="0" 
d="M175 422h-102q-9 0 -10 7l7 49q1 8 9 8h32q27 0 44.5 9t23.5 26t7.5 31t0.5 36q1 5 7 5h92q5 0 5 -5q3 -63 -24 -109.5t-92 -56.5z" />
    <glyph glyph-name="dotbelowcomb" unicode="&#x323;" horiz-adv-x="0" 
d="M-82 -178q-28 0 -43.5 16.5t-11.5 42.5t24 42.5t49 16.5t43.5 -16.5t10.5 -42.5q-4 -27 -23.5 -43t-48.5 -16z" />
    <glyph glyph-name="uni0324" unicode="&#x324;" horiz-adv-x="0" 
d="M-181 -181q-27 0 -42 16.5t-11 42.5q5 26 24 42.5t47 16.5q27 0 41.5 -16.5t10.5 -42.5q-4 -27 -23 -43t-47 -16zM21 -181q-27 0 -41.5 16.5t-11.5 42.5q5 26 24 42.5t47 16.5q27 0 41.5 -16.5t10.5 -42.5q-4 -27 -23 -43t-47 -16z" />
    <glyph glyph-name="uni0326" unicode="&#x326;" horiz-adv-x="0" 
d="M-83 -225h-97q-4 0 -4.5 2.5t1.5 4.5q55 52 66 106q7 33 -1 67q-2 6 4 6h102q7 0 8 -5q9 -27 1 -65q-13 -68 -67 -113q-3 -3 -13 -3z" />
    <glyph glyph-name="uni0327" unicode="&#x327;" horiz-adv-x="0" 
d="M-82 6h80l-40 -50q61 -21 61 -80q0 -50 -36 -78.5t-96 -28.5q-47 0 -75 14q-4 2 -2 9l12 54q1 5 6 3q28 -14 63 -14q44 0 44 32q0 33 -81 43q-2 2 0 12.5t5 13.5z" />
    <glyph glyph-name="uni0328" unicode="&#x328;" horiz-adv-x="0" 
d="M-63 30h104q-135 -68 -135 -125q0 -38 49 -38q24 0 50 8q3 1 4 -0.5t1 -5.5l-14 -65q-3 -10 -9 -13q-32 -15 -83 -15q-46 0 -77.5 23.5t-31.5 67.5q0 50 41 93.5t101 69.5z" />
    <glyph glyph-name="uni032E" unicode="&#x32e;" horiz-adv-x="0" 
d="M-210 -71h81q6 0 7 -7q12 -50 65 -50q55 0 79 51q2 6 8 6h81q6 0 6 -8q-16 -64 -68 -101t-117 -37t-107 35.5t-43 103.5q0 7 8 7z" />
    <glyph glyph-name="uni0331" unicode="&#x331;" horiz-adv-x="0" 
d="M-184 -78h285q5 0 4 -7l-15 -71q-1 -7 -8 -7h-282q-7 0 -5 7l15 73q2 5 6 5z" />
    <glyph glyph-name="uni0374" unicode="&#x374;" horiz-adv-x="210" 
d="M64 401l63 238q3 7 10 7h107q8 0 5 -9l-79 -238q-2 -7 -11 -7h-89q-9 0 -6 9z" />
    <glyph glyph-name="uni0375" unicode="&#x375;" horiz-adv-x="210" 
d="M-34 -107l64 238q1 6 9 6h107q8 0 6 -9l-80 -238q-1 -7 -10 -7h-90q-7 0 -6 10z" />
    <glyph glyph-name="uni037A" unicode="&#x37a;" 
d="M77 -33h92q5 0 3 -5q-9 -20 -15 -44q-9 -50 33 -50q19 0 30 4q3 1 4 -0.5t0 -5.5l-13 -62q0 -8 -6 -11q-24 -12 -70 -12q-54 0 -76.5 33t-15.5 78q6 36 26 70q3 5 8 5z" />
    <glyph glyph-name="uni037E" unicode="&#x37e;" horiz-adv-x="269" 
d="M175 320q-30 0 -47.5 20t-13.5 51q4 30 25.5 49.5t52.5 19.5q30 0 47 -20.5t14 -49.5q-4 -32 -24 -51t-54 -19zM77 -135h-94q-9 0 -4 7q52 71 74 134t28 136q0 7 6 7h98q5 0 7 -6q-3 -72 -30 -145t-76 -128q-3 -5 -9 -5z" />
    <glyph glyph-name="tonos" unicode="&#x384;" 
d="M185 546l109 147q4 6 12 6h115q8 0 3 -9l-125 -146q-6 -5 -13 -5h-97q-9 0 -4 7z" />
    <glyph glyph-name="dieresistonos" unicode="&#x385;" 
d="M187 538l79 177q1 5 7 5h89q7 0 4 -6l-94 -178q-3 -4 -9 -4h-72q-5 0 -4 6zM111 560q-23 0 -35.5 14.5t-10.5 39.5q3 25 19.5 40.5t39.5 15.5q25 0 37.5 -15.5t9.5 -40.5q-2 -24 -18.5 -39t-41.5 -15zM414 560q-24 0 -37 15t-11 40q4 25 20.5 40t39.5 15t36.5 -15.5
t10.5 -40.5q-2 -25 -18.5 -39.5t-40.5 -14.5z" />
    <glyph glyph-name="Alphatonos" unicode="&#x386;" horiz-adv-x="697" 
d="M487 183h-219l-96 -178q-2 -5 -9 -5h-106q-9 0 -4 8q18 33 146 262.5t181 328.5q8 13 17 49q1 4 6 4h133q4 0 5 -4q13 -91 41 -310t44 -330q0 -8 -7 -8h-99q-7 0 -10 7zM316 280h164q-26 203 -30 272h-2q-21 -58 -132 -272zM60 448l97 207q3 5 9 5h103q7 0 4 -7
l-111 -206q-2 -5 -9 -5h-88q-8 0 -5 6z" />
    <glyph glyph-name="anoteleia" unicode="&#x387;" horiz-adv-x="269" 
d="M148 318q-32 0 -50.5 19.5t-14.5 51.5q3 31 25.5 51t54.5 20q33 0 51 -20.5t15 -50.5q-4 -32 -25.5 -51.5t-55.5 -19.5z" />
    <glyph glyph-name="Epsilontonos" unicode="&#x388;" horiz-adv-x="682" 
d="M624 89l-31 -84q-3 -5 -8 -5h-390q-6 0 -6 7l135 640q1 5 7 5h354q6 0 6 -5v-85q0 -6 -6 -6h-265l-38 -177h246q5 0 4 -6l-17 -85q-2 -6 -8 -6h-245l-39 -185h298q6 0 3 -8zM47 460l96 206q3 5 9 5h103q7 0 4 -7l-110 -205q-4 -6 -10 -6h-88q-7 0 -4 7z" />
    <glyph glyph-name="Etatonos" unicode="&#x389;" horiz-adv-x="820" 
d="M690 0h-103q-8 0 -5 8l58 277h-270l-59 -278q-1 -7 -8 -7h-102q-7 0 -6 7l134 640q1 5 7 5h104q6 0 6 -6l-56 -265h270l56 266q1 5 8 5h103q7 0 6 -6l-135 -639q-1 -7 -8 -7zM47 451l96 206q2 6 9 6h103q8 0 4 -7l-110 -206q-3 -5 -10 -5h-88q-6 0 -4 6z" />
    <glyph glyph-name="Iotatonos" unicode="&#x38a;" horiz-adv-x="427" 
d="M440 645l-135 -638q-2 -7 -9 -7h-101q-7 0 -6 7l134 640q1 5 8 5h102q7 0 7 -7zM47 456l96 206q3 5 9 5h103q7 0 4 -7l-110 -205q-4 -6 -10 -6h-88q-7 0 -4 7z" />
    <glyph glyph-name="Omicrontonos" unicode="&#x38c;" horiz-adv-x="833" 
d="M572 663q102 0 167.5 -67.5t65.5 -186.5q1 -109 -38.5 -203t-122 -155t-192.5 -61q-107 0 -173.5 64.5t-66.5 184.5q0 78 24.5 152.5t69 135.5t114 98.5t152.5 37.5zM554 566q-95 0 -158 -99.5t-63 -220.5q0 -77 37.5 -118t97.5 -41q99 0 158.5 98.5t59.5 220.5
q0 79 -36.5 119.5t-95.5 40.5zM47 456l96 206q3 6 9 6h103q8 0 4 -8l-110 -205q-4 -6 -10 -6h-88q-7 0 -4 7z" />
    <glyph glyph-name="Upsilontonos" unicode="&#x38e;" horiz-adv-x="800" 
d="M486 0h-101q-9 0 -6 9l46 219q5 25 0 40l-122 378q-3 6 5 6h109q6 0 7 -4q72 -246 82 -317q68 111 215 316q3 5 9 5h110q8 0 3 -7l-285 -381q-10 -13 -18 -43l-45 -213q-3 -8 -9 -8zM47 457l96 207q3 5 9 5h103q8 0 4 -7l-110 -206q-4 -5 -10 -5h-88q-7 0 -4 6z" />
    <glyph glyph-name="Omegatonos" unicode="&#x38f;" horiz-adv-x="839" 
d="M391 0h-256q-5 0 -5 5l5 86q1 5 6 5h152q-30 32 -51.5 84t-21.5 112q0 152 96 261.5t254 109.5q113 0 179.5 -67t66.5 -176q0 -198 -179 -324h154q5 0 4 -6l-30 -85q-1 -5 -7 -5h-263q-8 0 -7 7l15 69q2 6 8 10q184 127 184 329q0 74 -39 114.5t-103 40.5
q-66 0 -116.5 -42.5t-75 -107.5t-24.5 -140q0 -120 75 -193q5 -3 3 -10l-15 -68q-2 -9 -9 -9zM47 446l96 206q4 6 9 6h103q8 0 5 -7l-111 -206q-4 -6 -10 -6h-88q-7 0 -4 7z" />
    <glyph glyph-name="iotadieresistonos" unicode="&#x390;" horiz-adv-x="262" 
d="M116 478q1 8 9 8h104q6 0 5 -6l-76 -358q-10 -44 23 -44q17 0 28 4q3 1 4 -0.5t0 -5.5l-15 -64q-1 -7 -7 -10q-29 -12 -67 -12q-112 0 -85 124zM136 538l78 177q2 5 7 5h90q7 0 4 -6l-94 -178q-3 -4 -9 -4h-72q-6 0 -4 6zM60 560q-23 0 -35.5 14.5t-10.5 39.5
q3 25 19.5 40.5t39.5 15.5q25 0 37 -15.5t10 -40.5q-2 -24 -18.5 -39t-41.5 -15zM362 560q-23 0 -36 15t-11 40q3 24 20 39.5t40 15.5t36.5 -15.5t10.5 -40.5q-2 -24 -19 -39t-41 -15z" />
    <glyph glyph-name="Alpha" unicode="&#x391;" horiz-adv-x="626" 
d="M416 183h-219l-96 -178q-3 -5 -9 -5h-105q-8 0 -5 8q35 63 156 280.5t172 310.5q8 16 16 49q1 4 6 4h133q5 0 5 -4q13 -91 41 -310t44 -330q0 -8 -7 -8h-99q-8 0 -9 7zM245 280h164q-26 203 -30 272h-2q-21 -58 -132 -272z" />
    <glyph glyph-name="Beta" unicode="&#x392;" horiz-adv-x="574" 
d="M27 10l133 634q1 7 7 8q117 3 179 3q63 0 107.5 -14t66 -38t30 -48t8.5 -52q0 -123 -137 -166v-1q44 -14 73 -49.5t29 -89.5q0 -101 -80.5 -150t-222.5 -50q-119 0 -188 3q-7 0 -5 10zM200 288l-41 -195q26 -2 90 -2q156 0 156 108q0 40 -29.5 64.5t-92.5 24.5h-83z
M258 560l-38 -178h84q66 -1 102 26t35 75q0 79 -110 79q-55 0 -73 -2z" />
    <glyph glyph-name="Gamma" unicode="&#x393;" horiz-adv-x="492" 
d="M167 652h363q7 0 7 -6v-84q0 -6 -7 -6h-273l-114 -549q-2 -7 -9 -7h-103q-7 0 -5 8l134 638q2 6 7 6z" />
    <glyph glyph-name="uni0394" unicode="&#x394;" horiz-adv-x="632" 
d="M530 0h-524q-6 0 -6 6l13 58q1 7 5 14l288 512q7 15 19 57q1 5 7 5h134q6 0 6 -4q1 -7 13 -93.5t30.5 -222.5t34.5 -254q0 -10 -1 -17l-11 -55q-1 -6 -8 -6zM141 96h291q-6 50 -18.5 162.5t-21 190t-10.5 101.5h-1q-32 -82 -240 -454z" />
    <glyph glyph-name="Epsilon" unicode="&#x395;" horiz-adv-x="519" 
d="M461 89l-32 -84q-1 -5 -7 -5h-390q-6 0 -6 7l135 640q1 5 7 5h353q7 0 7 -5v-85q0 -6 -6 -6h-265l-38 -177h246q5 0 4 -6l-17 -85q-2 -6 -8 -6h-245l-39 -185h298q6 0 3 -8z" />
    <glyph glyph-name="Zeta" unicode="&#x396;" horiz-adv-x="551" 
d="M463 0h-476q-6 0 -6 7l12 56q7 11 8 13q36 42 187 216t228 264h-313q-7 0 -6 7l31 85q1 4 7 4h445q6 0 5 -6l-14 -59q-2 -7 -9 -15q-156 -186 -408 -476h346q8 0 4 -7l-32 -83q-2 -6 -9 -6z" />
    <glyph glyph-name="Eta" unicode="&#x397;" horiz-adv-x="652" 
d="M522 0h-103q-9 0 -6 8l58 277h-270l-58 -278q-3 -7 -8 -7h-102q-8 0 -7 7l135 640q1 5 7 5h104q6 0 5 -6l-55 -265h270l56 266q1 5 7 5h104q6 0 5 -6l-134 -639q-3 -7 -8 -7z" />
    <glyph glyph-name="Theta" unicode="&#x398;" horiz-adv-x="685" 
d="M260 381h228q7 0 6 -6l-18 -83q-1 -7 -9 -7h-226q-7 0 -7 8l18 81q2 7 8 7zM423 663q103 0 168.5 -67.5t65.5 -186.5q0 -81 -23 -155.5t-66.5 -133.5t-112 -94.5t-151.5 -35.5q-107 0 -173.5 64.5t-66.5 184.5q0 78 24.5 152.5t68.5 135.5t113.5 98.5t152.5 37.5z
M406 566q-64 0 -116 -48.5t-78.5 -121.5t-26.5 -150t37.5 -118t97.5 -41q99 0 158.5 98.5t59.5 220.5q0 79 -36.5 119.5t-95.5 40.5z" />
    <glyph glyph-name="Iota" unicode="&#x399;" horiz-adv-x="264" 
d="M277 645l-135 -638q-1 -7 -8 -7h-101q-7 0 -7 7l135 640q1 5 7 5h103q7 0 6 -7z" />
    <glyph glyph-name="Kappa" unicode="&#x39a;" horiz-adv-x="599" 
d="M135 0h-102q-8 0 -6 8l134 639q2 5 8 5h103q7 0 6 -6l-57 -268h59q12 0 20 11q17 20 97.5 119t118.5 140q3 4 12 4h109q8 0 3 -9q-177 -212 -273 -311q-5 -5 -2 -10q43 -69 174 -314q3 -8 -5 -8h-109q-8 0 -11 5q-15 25 -139 265q-5 12 -16 12h-58l-58 -275q-1 -7 -8 -7z
" />
    <glyph glyph-name="Lambda" unicode="&#x39b;" horiz-adv-x="626" 
d="M332 652h133q5 0 5 -4q31 -223 85 -640q0 -8 -7 -8h-99q-8 0 -9 7q-55 439 -62 532h-1q-23 -67 -276 -534q-3 -5 -9 -5h-105q-8 0 -5 8q225 403 328 591q8 16 16 49q1 4 6 4z" />
    <glyph glyph-name="Mu" unicode="&#x39c;" horiz-adv-x="837" 
d="M313 8q-20 365 -23 555h-1q-41 -178 -163 -557q-2 -6 -9 -6h-104q-7 0 -4 8l210 640q1 4 7 4h146q5 0 6 -5q29 -379 25 -490h1q59 140 240 489q3 6 9 6h141q8 0 7 -8l-70 -637q0 -7 -7 -7h-105q-7 0 -6 7q51 433 77 554h-2q-54 -137 -270 -555q-2 -6 -9 -6h-88q-8 0 -8 8
z" />
    <glyph glyph-name="Nu" unicode="&#x39d;" horiz-adv-x="652" 
d="M161 647q1 5 8 5h131q6 0 7 -4q123 -373 148 -503h1q11 83 98 502q1 5 8 5h99q5 0 4 -6l-134 -638q-2 -8 -9 -8h-126q-7 0 -10 7q-129 403 -144 524h-1q-11 -86 -104 -525q-1 -6 -7 -6h-97q-8 0 -7 8z" />
    <glyph glyph-name="Xi" unicode="&#x39e;" horiz-adv-x="532" 
d="M9 99h457q6 0 3 -7l-31 -87q-2 -5 -7 -5h-432q-5 0 -5 5l9 88q1 6 6 6zM121 380h352q5 0 4 -6l-17 -87q-2 -6 -7 -6h-353q-6 0 -5 8l19 84q1 7 7 7zM152 652h404q6 0 6 -6l-2 -85q-1 -7 -8 -7h-435q-7 0 -4 6l32 87q3 5 7 5z" />
    <glyph glyph-name="Omicron" unicode="&#x39f;" horiz-adv-x="685" 
d="M423 663q103 0 168.5 -67.5t65.5 -186.5q0 -81 -23 -155.5t-66.5 -133.5t-112 -94.5t-151.5 -35.5q-107 0 -173.5 64.5t-66.5 184.5q0 78 24.5 152.5t68.5 135.5t113.5 98.5t152.5 37.5zM406 566q-64 0 -116 -48.5t-78.5 -121.5t-26.5 -150t37.5 -118t97.5 -41
q99 0 158.5 98.5t59.5 220.5q0 79 -36.5 119.5t-95.5 40.5z" />
    <glyph glyph-name="Pi" unicode="&#x3a0;" horiz-adv-x="652" 
d="M522 0h-103q-7 0 -6 7l116 549h-271l-115 -549q-2 -7 -8 -7h-103q-7 0 -6 7l135 638q1 7 9 7h490q5 0 4 -6l-135 -639q-1 -7 -7 -7z" />
    <glyph glyph-name="Rho" unicode="&#x3a1;" horiz-adv-x="559" 
d="M26 7l134 638q1 7 7 7q78 3 149 3q121 0 182 -55t62 -143q0 -85 -44 -142t-108.5 -80t-145.5 -23q-46 0 -76 2l-43 -207q-2 -7 -8 -7h-104q-5 0 -5 7zM259 558l-53 -251q19 -3 68 -3q75 0 121.5 37t46.5 108q0 55 -34 83t-92 28q-39 0 -57 -2z" />
    <glyph glyph-name="Sigma" unicode="&#x3a3;" horiz-adv-x="557" 
d="M561 652q6 0 6 -4v-86q0 -6 -6 -6h-304l144 -229q3 -5 -2 -10l-233 -221h331q5 0 3 -6l-31 -83q-2 -7 -9 -7h-468q-6 0 -5 6l14 63q1 5 6 12l267 246l-158 244q-3 6 -2 14l13 62q1 5 6 5h428z" />
    <glyph glyph-name="Tau" unicode="&#x3a4;" horiz-adv-x="544" 
d="M159 8l116 548h-191q-8 0 -4 7l30 85q1 4 7 4h478q6 0 6 -5l-1 -84q0 -7 -7 -7h-202l-116 -549q-1 -7 -9 -7h-101q-7 0 -6 8z" />
    <glyph glyph-name="Upsilon" unicode="&#x3a5;" horiz-adv-x="559" 
d="M277 0h-100q-9 0 -7 9l47 219q4 26 0 40l-123 378q-2 6 5 6h109q6 0 7 -4q74 -253 83 -317q52 88 214 316q3 5 10 5h110q8 0 3 -7l-285 -381q-11 -13 -19 -43l-45 -213q-1 -8 -9 -8z" />
    <glyph glyph-name="Phi" unicode="&#x3a6;" horiz-adv-x="745" 
d="M411 680h101q6 0 5 -7l-12 -58q87 -13 146.5 -74.5t59.5 -169.5q0 -145 -94 -236t-235 -97l-12 -59q-1 -7 -9 -7h-99q-8 0 -6 8l13 61q-87 12 -145 72t-58 161q0 143 95.5 239t230.5 106l12 55q1 6 7 6zM290 136l83 391q-81 -11 -134.5 -83t-53.5 -166q0 -62 29.5 -98
t75.5 -44zM486 524l-83 -392q82 8 135.5 76t53.5 168q0 66 -29.5 102.5t-76.5 45.5z" />
    <glyph glyph-name="Chi" unicode="&#x3a7;" horiz-adv-x="584" 
d="M642 646l-254 -313l131 -326q2 -5 -5 -7h-109q-9 0 -10 6q-18 43 -53.5 138t-43.5 116h-1q-146 -193 -196 -254q-6 -6 -11 -6h-119q-11 0 -3 8l269 321l-125 317q-2 6 5 6h110q7 0 8 -4q16 -44 49 -141t40 -116h1q188 252 192 257q3 4 9 4h114q6 0 2 -6z" />
    <glyph glyph-name="Psi" unicode="&#x3a8;" horiz-adv-x="685" 
d="M293 290l80 381q1 5 7 5h104q6 0 5 -6l-80 -380q56 4 96 44.5t66 142.5q31 127 45 149q3 5 10 5h97q6 0 4 -6q-13 -33 -42 -148q-68 -266 -295 -280l-40 -190q-1 -7 -8 -7h-102q-8 0 -6 9l40 189q-220 19 -175 278q19 110 20 149q1 6 7 6h97q6 0 7 -5q4 -19 -18 -148
q-7 -55 -6.5 -90t14.5 -56t31 -30t42 -12z" />
    <glyph glyph-name="uni03A9" unicode="&#x3a9;" horiz-adv-x="694" 
d="M246 0h-256q-5 0 -5 5l5 86q0 5 6 5h152q-30 32 -51.5 84t-21.5 112q0 152 96 261.5t253 109.5q113 0 179.5 -67t67.5 -176q0 -198 -179 -324h154q6 0 4 -6l-30 -85q-1 -5 -8 -5h-263q-7 0 -6 7l15 69q2 7 8 10q183 126 183 329q0 74 -38.5 114.5t-102.5 40.5
q-66 0 -116.5 -42.5t-75 -107.5t-24.5 -140q0 -120 75 -193q5 -3 3 -10l-15 -68q-2 -9 -9 -9z" />
    <glyph glyph-name="Iotadieresis" unicode="&#x3aa;" horiz-adv-x="264" 
d="M277 645l-135 -638q-1 -7 -8 -7h-101q-7 0 -7 7l135 640q1 5 7 5h103q7 0 6 -7zM123 705q-29 0 -45 16t-14 42q4 27 24 43.5t49 16.5t44.5 -16.5t12.5 -43.5t-22.5 -42.5t-48.5 -15.5zM331 705q-29 0 -45.5 15.5t-13.5 42.5q4 27 24 43.5t49 16.5q28 0 44 -17t13 -43
q-3 -27 -22 -42.5t-49 -15.5z" />
    <glyph glyph-name="Upsilondieresis" unicode="&#x3ab;" horiz-adv-x="559" 
d="M277 0h-100q-9 0 -7 9l47 219q4 26 0 40l-123 378q-2 6 5 6h109q6 0 7 -4q74 -253 83 -317q52 88 214 316q3 5 10 5h110q8 0 3 -7l-285 -381q-11 -13 -19 -43l-45 -213q-1 -8 -9 -8zM258 695q-29 0 -45 16t-13 42q3 27 23.5 43.5t49.5 16.5q28 0 43.5 -16.5t13.5 -43.5
q-3 -27 -22.5 -42.5t-49.5 -15.5zM466 695q-28 0 -44.5 15.5t-13.5 42.5t23.5 43.5t49.5 16.5q28 0 43.5 -17t12.5 -43q-2 -27 -21.5 -42.5t-49.5 -15.5z" />
    <glyph glyph-name="alphatonos" unicode="&#x3ac;" horiz-adv-x="555" 
d="M448 486h92q8 0 4 -7q-37 -77 -65 -200l-31 -152q-7 -49 24 -49q10 0 25 5q7 2 4 -7l-13 -64q-2 -5 -8 -8q-26 -14 -64 -14q-32 0 -51 21.5t-16 63.5l4 22q-71 -107 -181 -107q-63 0 -101 46.5t-38 127.5q0 80 33 156.5t93 126t130 49.5q96 0 121 -86q19 58 32 74
q2 2 6 2zM153 178q0 -91 70 -91q49 0 89 54.5t56 129.5q13 61 -4.5 98.5t-62.5 37.5q-62 0 -105 -74t-43 -155zM273 546l109 147q5 7 12 7h115q10 0 3 -9l-125 -146q-6 -6 -13 -6h-97q-9 0 -4 7z" />
    <glyph glyph-name="epsilontonos" unicode="&#x3ad;" horiz-adv-x="451" 
d="M142 248v2q-69 30 -69 99q0 61 56.5 104t154.5 43q101 0 155 -36q4 -3 4 -12l-17 -75q-2 -6 -8 -3q-64 38 -134 38q-42 0 -68 -18t-26 -46q0 -22 19 -36.5t56 -14.5h80q6 0 6 -7l-16 -75q-2 -7 -10 -7h-87q-44 0 -70 -16.5t-26 -44.5q0 -27 27.5 -43.5t69.5 -16.5
q85 0 153 36q4 1 6.5 -1t0.5 -6l-18 -76q-1 -8 -10 -12q-57 -34 -165 -34q-80 0 -133 34t-54 98q0 49 34.5 80.5t88.5 45.5zM228 551l108 147q5 6 13 6h115q10 0 3 -9l-125 -146q-6 -5 -13 -5h-97q-9 0 -4 7z" />
    <glyph glyph-name="etatonos" unicode="&#x3ae;" horiz-adv-x="540" 
d="M16 7l77 362q15 75 16 110q0 7 6 7h89q10 0 11 -6q2 -32 -6 -86q79 102 175 102q65 0 95 -47.5t7 -155.5l-104 -487q-1 -9 -10 -10q-81 -13 -102 -13q-8 0 -7 10l110 512q20 96 -40 96q-49 0 -93.5 -54t-60.5 -125l-45 -213q-3 -9 -10 -9h-102q-7 0 -6 7zM264 547
l108 146q5 7 13 7h114q10 0 3 -9l-125 -146q-6 -5 -13 -5h-97q-8 0 -3 7z" />
    <glyph glyph-name="iotatonos" unicode="&#x3af;" horiz-adv-x="262" 
d="M116 478q1 8 9 8h104q6 0 5 -6l-76 -358q-10 -44 23 -44q17 0 28 4q3 1 4 -0.5t0 -5.5l-15 -64q-1 -7 -7 -10q-29 -12 -67 -12q-112 0 -85 124zM126 546l108 147q5 6 13 6h115q7 0 2 -9l-125 -146q-6 -5 -12 -5h-98q-8 0 -3 7z" />
    <glyph glyph-name="upsilondieresistonos" unicode="&#x3b0;" horiz-adv-x="533" 
d="M385 486h94q7 0 10 -7q9 -27 9 -90q1 -73 -14.5 -141t-47.5 -127.5t-90 -95t-134 -35.5q-86 0 -134 49.5t-29 137.5l33 155q22 105 21 146q0 8 6 8h102q8 0 8 -6q6 -33 -9 -96l-44 -210q-10 -47 11.5 -71t57.5 -24q41 0 71 30t46.5 79t24 100.5t7.5 103.5q0 20 -6 86
q-2 8 7 8zM244 535l78 177q2 6 7 6h90q7 0 4 -7l-95 -177q-3 -5 -8 -5h-73q-7 0 -3 6zM167 558q-23 0 -35.5 14.5t-10.5 39.5q3 24 19.5 39.5t39.5 15.5q25 0 37.5 -15.5t9.5 -39.5q-2 -25 -18.5 -39.5t-41.5 -14.5zM470 558q-24 0 -36.5 14.5t-10.5 39.5q3 25 19.5 40
t40.5 15q23 0 36 -15t11 -40t-18.5 -39.5t-41.5 -14.5z" />
    <glyph glyph-name="alpha" unicode="&#x3b1;" horiz-adv-x="555" 
d="M448 486h92q8 0 4 -7q-37 -77 -65 -200l-31 -152q-7 -49 24 -49q10 0 25 5q7 2 4 -7l-13 -64q-2 -5 -8 -8q-26 -14 -64 -14q-32 0 -51 21.5t-16 63.5l4 22q-71 -107 -181 -107q-63 0 -101 46.5t-38 127.5q0 80 33 156.5t93 126t130 49.5q96 0 121 -86q19 58 32 74
q2 2 6 2zM153 178q0 -91 70 -91q49 0 89 54.5t56 129.5q13 61 -4.5 98.5t-62.5 37.5q-62 0 -105 -74t-43 -155z" />
    <glyph glyph-name="beta" unicode="&#x3b2;" horiz-adv-x="553" 
d="M232 488l-76 -370q39 -41 101 -41q61 0 95 38t34 95q0 47 -27.5 73.5t-75.5 26.5h-18q-7 0 -4 8l16 79q2 7 9 7h18q55 -1 92 40t36 102q0 41 -22 63.5t-57 22.5q-91 0 -121 -144zM-32 -209l141 666q55 261 257 261q82 0 129.5 -46t48.5 -119q0 -69 -36 -117.5t-98 -72.5
v-1q40 -18 67 -55.5t27 -90.5q0 -107 -71.5 -166.5t-170.5 -59.5q-79 0 -126 38l-48 -226q-3 -8 -10 -9q-80 -10 -103 -10q-9 0 -7 8z" />
    <glyph glyph-name="gamma" unicode="&#x3b3;" horiz-adv-x="473" 
d="M169 -208q-77 -9 -108 -9q-8 0 -5 8q50 141 66 213q17 75 -9 213.5t-80 260.5q-3 8 5 8h111q9 0 10 -5q21 -46 38.5 -137.5t17.5 -175.5h2q27 59 85 163t89 150q3 5 8 5h115q7 0 2 -7q-70 -100 -156.5 -241.5t-115.5 -203.5l-12 -27q-10 -31 -29.5 -110.5t-24.5 -95.5
q-2 -6 -9 -9z" />
    <glyph glyph-name="delta" unicode="&#x3b4;" horiz-adv-x="552" 
d="M366 725q62 0 116 -16t78 -36q3 -3 3 -10l-20 -84q-1 -6 -7 -2q-84 55 -185 55q-42 0 -60 -12.5t-18 -27.5t23 -41.5t106 -97.5q103 -92 103 -194q1 -117 -73.5 -193t-193.5 -76q-89 0 -144 52t-55 139q0 95 57.5 165.5t150.5 101.5l-28 29q-35 38 -48 62.5t-13 50.5
q0 54 51 94.5t157 40.5zM254 75q53 0 92.5 51t38.5 116q0 41 -15.5 74.5t-59.5 68.5q-65 -18 -107.5 -74.5t-42.5 -127.5q0 -50 26.5 -79t67.5 -29z" />
    <glyph glyph-name="epsilon" unicode="&#x3b5;" horiz-adv-x="451" 
d="M142 248v2q-69 30 -69 99q0 61 56.5 104t154.5 43q101 0 155 -36q4 -3 4 -12l-17 -75q-2 -6 -8 -3q-64 38 -134 38q-42 0 -68 -18t-26 -46q0 -22 19 -36.5t56 -14.5h80q6 0 6 -7l-16 -75q-2 -7 -10 -7h-87q-44 0 -70 -16.5t-26 -44.5q0 -27 27.5 -43.5t69.5 -16.5
q85 0 153 36q4 1 6.5 -1t0.5 -6l-18 -76q-1 -8 -10 -12q-57 -34 -165 -34q-80 0 -133 34t-54 98q0 49 34.5 80.5t88.5 45.5z" />
    <glyph glyph-name="zeta" unicode="&#x3b6;" horiz-adv-x="401" 
d="M165 610q-6 0 -4 7l29 81q1 6 7 6q18 -3 113 -3h186q8 0 6 -6l-14 -69q-1 -6 -7 -10q-12 -6 -47 -31q-132 -102 -206.5 -206.5t-74.5 -193.5q0 -37 18 -56t57 -31q65 -23 94 -49.5t29 -77.5q1 -69 -50.5 -123.5t-154.5 -70.5q-4 -1 -5 0.5t0 5.5l19 88q0 7 7 7
q33 8 52 25.5t18 42.5q-1 31 -54 44q-78 24 -112.5 58.5t-34.5 100.5q0 218 284 456q-135 0 -155 5z" />
    <glyph glyph-name="eta" unicode="&#x3b7;" horiz-adv-x="540" 
d="M16 7l77 362q15 75 16 110q0 7 6 7h89q10 0 11 -6q2 -32 -6 -86q79 102 175 102q65 0 95 -47.5t7 -155.5l-104 -487q-1 -9 -10 -10q-81 -13 -102 -13q-8 0 -7 10l110 512q20 96 -40 96q-49 0 -93.5 -54t-60.5 -125l-45 -213q-3 -9 -10 -9h-102q-7 0 -6 7z" />
    <glyph glyph-name="theta" unicode="&#x3b8;" horiz-adv-x="569" 
d="M224 -10h-2q-76 0 -122.5 57.5t-46.5 167.5q0 66 12.5 134.5t39 135t63.5 118t90 83.5t114 32q79 0 125 -58t46 -159q0 -86 -18.5 -172.5t-55.5 -164t-100.5 -126t-144.5 -48.5zM195 405h228q10 64 9 115q0 113 -73 113q-53 0 -96.5 -63t-67.5 -165zM404 311h-228
q-9 -44 -9 -108q-1 -61 20 -92t57 -31q54 0 95.5 61.5t64.5 169.5z" />
    <glyph glyph-name="iota" unicode="&#x3b9;" horiz-adv-x="262" 
d="M116 478q1 8 9 8h104q6 0 5 -6l-76 -358q-10 -44 23 -44q17 0 28 4q3 1 4 -0.5t0 -5.5l-15 -64q-1 -7 -7 -10q-29 -12 -67 -12q-112 0 -85 124z" />
    <glyph glyph-name="kappa" unicode="&#x3ba;" horiz-adv-x="503" 
d="M124 486h104q5 0 5 -6l-41 -191h53q21 26 78 101.5t69 91.5q3 4 8 4h121q9 0 3 -8q-82 -94 -203 -223q21 -15 43 -68q69 -167 75 -180q2 -7 -5 -7h-112q-7 0 -8 4q-55 140 -63 159q-9 21 -17 27t-26 7h-34l-40 -189q-1 -8 -9 -8h-102q-8 0 -7 8l100 471q1 7 8 7z" />
    <glyph glyph-name="lambda" unicode="&#x3bb;" horiz-adv-x="516" 
d="M328 7q-15 142 -34 352h-2q-16 -40 -76 -154.5t-107 -198.5q-3 -6 -8 -6h-112q-7 0 -4 7l267 459q13 25 12 33q-8 61 -32 89.5t-70 28.5q-38 0 -64 -9q-2 -1 -3.5 0.5t-0.5 4.5l18 84q2 6 6 8q28 13 77 13q36 0 63 -10t52 -36t43.5 -76.5t29.5 -126.5q43 -304 64 -461
q2 -8 -6 -8h-107q-6 0 -6 7z" />
    <glyph glyph-name="uni03BC" unicode="&#x3bc;" horiz-adv-x="546" 
d="M519 478l-73 -345q-10 -50 24 -50q18 0 27 4q4 1 5 -1.5t0 -7.5l-15 -68q-1 -5 -6 -8q-25 -12 -64 -12q-82 0 -77 85q0 1 1 6.5t1 7.5q-60 -99 -153 -99q-48 0 -64 33q-12 -76 -43 -221q-1 -8 -9 -9q-10 -1 -36 -3.5t-43 -4.5t-20 -2q-8 0 -7 9l146 687q2 7 10 7h102
q7 0 6 -7l-66 -313q-8 -38 4 -60t44 -22q46 0 85.5 45.5t60.5 144.5l43 204q2 8 9 8h101q8 0 7 -8z" />
    <glyph glyph-name="nu" unicode="&#x3bd;" horiz-adv-x="469" 
d="M58 486h115q6 0 8 -5q8 -44 11.5 -160t-1.5 -209h2q50 69 79.5 114.5t59.5 116t37 135.5q2 8 8 8h96q4 0 6 -1t1 -5q-16 -215 -264 -473q-7 -7 -13 -7h-99q-10 0 -11 7q-3 336 -39 471q-3 8 4 8z" />
    <glyph glyph-name="xi" unicode="&#x3be;" horiz-adv-x="436" 
d="M119 504q0 90 66 153.5t178 63.5q73 0 115 -22q4 -3 3 -9l-17 -77q0 -3 -2.5 -5t-5.5 -1q-42 21 -97 21q-59 0 -92.5 -37t-33.5 -86q0 -47 29 -71t79 -24h52q8 0 6 -9l-16 -79q-2 -9 -12 -9h-65q-66 0 -110 -35t-44 -89q0 -37 27 -59t92 -40q63 -20 88.5 -49.5
t25.5 -76.5q0 -72 -51.5 -122.5t-147.5 -64.5q-7 0 -6 7l18 88q1 7 8 8q63 18 63 60q0 18 -13 30t-51 22q-94 24 -135.5 62t-41.5 104q0 72 46.5 127.5t122.5 81.5q-78 40 -78 137z" />
    <glyph glyph-name="omicron" unicode="&#x3bf;" horiz-adv-x="548" 
d="M318 496q88 0 140 -55.5t52 -143.5q0 -132 -77.5 -219.5t-198.5 -87.5q-95 0 -144.5 54.5t-49.5 139.5q0 127 77 219.5t201 92.5zM305 411q-59 0 -102 -71t-43 -159q0 -48 22 -76.5t63 -28.5q58 0 101.5 69.5t43.5 158.5q0 45 -19.5 76t-65.5 31z" />
    <glyph glyph-name="pi" unicode="&#x3c0;" horiz-adv-x="523" 
d="M120 395h-85q-7 0 -3 7l26 75q2 5 8 7q22 2 100 2h399q6 0 5 -7l-26 -76q-1 -8 -8 -8h-68l-53 -247q-19 -87 -8 -141q1 -7 -6 -7h-100q-8 0 -10 7q-12 43 9 142l51 246h-121l-53 -251q-21 -93 -49 -138q-5 -6 -11 -6h-96q-6 0 -4 7q32 59 49 137z" />
    <glyph glyph-name="rho" unicode="&#x3c1;" horiz-adv-x="542" 
d="M318 496q88 0 136 -56.5t49 -139.5q0 -130 -78 -220t-195 -90q-58 0 -94 26l-47 -215q-2 -8 -9 -8l-104 -10q-8 0 -7 8l103 478q24 107 85 167t161 60zM302 407q-85 0 -110 -127l-37 -170q27 -30 79 -30q57 0 104 65.5t46 156.5q-1 48 -22 76.5t-60 28.5z" />
    <glyph glyph-name="uni03C2" unicode="&#x3c2;" horiz-adv-x="434" 
d="M343 496q65 0 94 -17q4 -2 2 -11l-20 -76q-2 -9 -7 -6q-34 15 -80 15q-77 0 -125 -58.5t-47 -134.5q0 -49 20.5 -75.5t76.5 -44.5q62 -20 85 -49t22 -74q0 -63 -51 -115.5t-146 -65.5q-7 0 -6 7l19 88q1 7 8 8q60 18 60 57q0 18 -10.5 28.5t-41.5 17.5q-156 41 -156 197
q0 127 85 218.5t218 90.5z" />
    <glyph glyph-name="sigma" unicode="&#x3c3;" horiz-adv-x="559" 
d="M609 480l-22 -81q-3 -5 -8 -5q-95 0 -118 2q34 -37 34 -112q-1 -126 -76.5 -210t-188.5 -84q-92 0 -141 54t-49 137q0 132 81 220t209 87q33 0 88 -1t83 -1h101q7 0 7 -6zM304 401q-63 0 -103.5 -68t-40.5 -149q0 -47 22 -75t61 -28q58 0 97.5 64.5t39.5 149.5
q-2 106 -76 106z" />
    <glyph glyph-name="tau" unicode="&#x3c4;" horiz-adv-x="412" 
d="M111 126l58 269h-137q-6 0 -3 8l27 75q1 5 7 6q22 2 66 2h322q5 0 4 -6l-25 -78q-1 -7 -8 -7h-136l-58 -274q-9 -42 29 -42q21 0 37 5q3 1 4 -0.5t0 -4.5l-16 -66q-1 -8 -8 -10q-25 -13 -76 -13q-115 0 -87 136z" />
    <glyph glyph-name="upsilon" unicode="&#x3c5;" horiz-adv-x="533" 
d="M385 486h94q7 0 10 -7q9 -27 9 -90q1 -73 -14.5 -141t-47.5 -127.5t-90 -95t-134 -35.5q-86 0 -134 49.5t-29 137.5l33 155q22 105 21 146q0 8 6 8h102q8 0 8 -6q6 -33 -9 -96l-44 -210q-10 -47 11.5 -71t57.5 -24q41 0 71 30t46.5 79t24 100.5t7.5 103.5q0 20 -6 86
q-2 8 7 8z" />
    <glyph glyph-name="phi" unicode="&#x3c6;" horiz-adv-x="687" 
d="M374 632h102q5 0 5 -6l-29 -139q87 -13 140 -68.5t53 -145.5q0 -127 -88 -203.5t-210 -80.5l-40 -189q-2 -8 -9 -9l-51 -3q-51 -4 -52 -4q-3 -1 -5 1t-1 6l44 201q-88 13 -140.5 66t-52.5 142q0 124 86.5 203.5t211.5 88.5l27 135q1 5 9 5zM251 84l70 320
q-71 -6 -116 -64.5t-45 -135.5q0 -49 25 -80.5t66 -39.5zM433 400l-69 -318q68 5 114.5 59t46.5 136q0 53 -26 85t-66 38z" />
    <glyph glyph-name="chi" unicode="&#x3c7;" horiz-adv-x="458" 
d="M62 486h107q7 0 8 -6q29 -129 48 -243h2q23 45 142 243q4 6 9 6h108q10 0 5 -8l-224 -329l89 -341q2 -5 -5 -9q-99 -21 -100 -21q-7 -1 -8 6q-22 95 -58 273h-1q-44 -82 -169 -275q-3 -4 -8 -4l-96 21q-7 3 -2 8l232 344l-85 329q-1 6 6 6z" />
    <glyph glyph-name="psi" unicode="&#x3c8;" horiz-adv-x="673" 
d="M83 486h100q5 0 8 -5q5 -27 -15 -174q-29 -212 68 -225l106 506q2 7 9 7h100q9 0 6 -8l-108 -508q52 4 91 54t73 174q39 146 57 173q4 6 11 6h95q6 0 5 -7q-33 -80 -60 -183q-45 -165 -115.5 -233t-174.5 -74l-39 -189q-4 -8 -9 -9q-1 0 -51 -4l-51 -4q-8 0 -7 8l43 199
q-45 8 -77.5 26.5t-57.5 54.5t-30.5 91.5t2.5 136.5q16 128 14 180q0 7 7 7z" />
    <glyph glyph-name="omega" unicode="&#x3c9;" horiz-adv-x="720" 
d="M446 357l-41 -185q-8 -38 2.5 -61t39.5 -23q34 0 62 36.5t42.5 90t14.5 108.5q1 91 -30 156q-4 7 4 7h97q5 0 9 -5q13 -20 24 -63.5t11 -90.5q0 -139 -71.5 -238t-173.5 -99q-93 0 -119 78h-1q-56 -78 -140 -78q-59 0 -97.5 42.5t-38.5 124.5q0 92 42.5 180.5t96.5 143.5
q5 5 12 5h101q8 0 2 -8q-55 -60 -96 -148.5t-40 -167.5q0 -39 16 -56.5t37 -17.5q28 0 49.5 24t28.5 60l38 185q1 6 8 6h107q6 0 4 -6z" />
    <glyph glyph-name="iotadieresis" unicode="&#x3ca;" horiz-adv-x="262" 
d="M116 478q1 8 9 8h104q6 0 5 -6l-76 -358q-10 -44 23 -44q17 0 28 4q3 1 4 -0.5t0 -5.5l-15 -64q-1 -7 -7 -10q-29 -12 -67 -12q-112 0 -85 124zM86 555q-27 0 -42 16.5t-11 42.5q4 27 23.5 43t47.5 16q27 0 41 -16t10 -43q-3 -27 -22 -43t-47 -16zM288 555
q-28 0 -42.5 16.5t-10.5 42.5q4 27 23.5 43t47.5 16q27 0 41 -16t10 -43t-22.5 -43t-46.5 -16z" />
    <glyph glyph-name="upsilondieresis" unicode="&#x3cb;" horiz-adv-x="533" 
d="M385 486h94q7 0 10 -7q9 -27 9 -90q1 -73 -14.5 -141t-47.5 -127.5t-90 -95t-134 -35.5q-86 0 -134 49.5t-29 137.5l33 155q22 105 21 146q0 8 6 8h102q8 0 8 -6q6 -33 -9 -96l-44 -210q-10 -47 11.5 -71t57.5 -24q41 0 71 30t46.5 79t24 100.5t7.5 103.5q0 20 -6 86
q-2 8 7 8zM215 555q-28 0 -42.5 16.5t-11.5 42.5q4 27 24 43t47 16q28 0 42 -16t10 -43t-22.5 -43t-46.5 -16zM417 555q-28 0 -42.5 16.5t-11.5 42.5q4 27 23.5 43t47.5 16t42 -16.5t10 -42.5q-4 -27 -22.5 -43t-46.5 -16z" />
    <glyph glyph-name="omicrontonos" unicode="&#x3cc;" horiz-adv-x="548" 
d="M318 496q88 0 140 -55.5t52 -143.5q0 -132 -77.5 -219.5t-198.5 -87.5q-95 0 -144.5 54.5t-49.5 139.5q0 127 77 219.5t201 92.5zM305 411q-59 0 -102 -71t-43 -159q0 -48 22 -76.5t63 -28.5q58 0 101.5 69.5t43.5 158.5q0 45 -19.5 76t-65.5 31zM255 546l109 147
q5 6 12 6h115q8 0 3 -9l-125 -146q-6 -5 -13 -5h-97q-9 0 -4 7z" />
    <glyph glyph-name="upsilontonos" unicode="&#x3cd;" horiz-adv-x="533" 
d="M385 486h94q7 0 10 -7q9 -27 9 -90q1 -73 -14.5 -141t-47.5 -127.5t-90 -95t-134 -35.5q-86 0 -134 49.5t-29 137.5l33 155q22 105 21 146q0 8 6 8h102q8 0 8 -6q6 -33 -9 -96l-44 -210q-10 -47 11.5 -71t57.5 -24q41 0 71 30t46.5 79t24 100.5t7.5 103.5q0 20 -6 86
q-2 8 7 8zM244 546l109 147q5 6 12 6h115q8 0 3 -9l-125 -146q-6 -5 -13 -5h-97q-9 0 -4 7z" />
    <glyph glyph-name="omegatonos" unicode="&#x3ce;" horiz-adv-x="720" 
d="M446 357l-41 -185q-8 -38 2.5 -61t39.5 -23q34 0 62 36.5t42.5 90t14.5 108.5q1 91 -30 156q-4 7 4 7h97q5 0 9 -5q13 -20 24 -63.5t11 -90.5q0 -139 -71.5 -238t-173.5 -99q-93 0 -119 78h-1q-56 -78 -140 -78q-59 0 -97.5 42.5t-38.5 124.5q0 92 42.5 180.5t96.5 143.5
q5 5 12 5h101q8 0 2 -8q-55 -60 -96 -148.5t-40 -167.5q0 -39 16 -56.5t37 -17.5q28 0 49.5 24t28.5 60l38 185q1 6 8 6h107q6 0 4 -6zM349 546l109 147q5 6 12 6h115q8 0 3 -9l-125 -146q-6 -5 -13 -5h-97q-9 0 -4 7z" />
    <glyph glyph-name="uni03D1" unicode="&#x3d1;" horiz-adv-x="540" 
d="M31 244h100q7 0 8 -7q5 -12 18 -72q10 -43 26.5 -62t44.5 -20q47 0 85.5 55t58.5 137q-122 -4 -201.5 59t-79.5 163q0 97 62 161t164 64q85 0 141.5 -62t56.5 -181t-35.5 -229.5t-106 -185t-160.5 -74.5q-73 0 -108.5 37t-54.5 114q-18 77 -24 95q-2 8 5 8zM393 367
q12 63 12 116q1 72 -26 112.5t-71 40.5q-49 0 -76.5 -36t-27.5 -91q0 -69 54 -107.5t135 -34.5z" />
    <glyph glyph-name="uni03D7" unicode="&#x3d7;" horiz-adv-x="564" 
d="M346 261q62 -21 101 -69t39 -116q0 -134 -91.5 -210t-243.5 -76q-67 0 -123.5 15t-84.5 36q-3 3 -2 12l21 90q2 7 8 4q92 -54 193 -54q98 0 146.5 48.5t49.5 123.5q0 57 -45 92.5t-128 36.5l-40 -187q-1 -7 -9 -7h-101q-8 0 -5 9l77 364q14 71 13 104q0 8 8 8h100
q8 0 7 -7q4 -26 -13 -107l-18 -85q9 0 48 -3l160 198q3 4 9 4h119q10 0 2 -8z" />
    <glyph glyph-name="uni03D9" unicode="&#x3d9;" horiz-adv-x="549" 
d="M318 496q87 0 139.5 -55.5t52.5 -142.5q0 -113 -59.5 -199t-163.5 -102l-42 -195q-3 -9 -12 -9q-12 -1 -37 -3.5t-42.5 -4.5t-19.5 -2q-10 0 -8 9l45 207q-66 17 -98.5 68t-32.5 117q0 127 77.5 219.5t200.5 92.5zM305 411q-59 0 -102 -71t-43 -158q0 -49 22.5 -77.5
t63.5 -28.5q58 0 101 70.5t43 157.5q0 46 -20 76.5t-65 30.5z" />
    <glyph glyph-name="uni03DB" unicode="&#x3db;" horiz-adv-x="438" 
d="M384 613l85 -1q8 0 9 -8q10 -105 -22 -150.5t-127 -63.5q-89 -15 -129 -67t-40 -124q0 -46 24 -72t85 -41q56 -15 79.5 -41.5t21.5 -72.5q-2 -87 -78 -158q-7 -7 -12 -7h-101q-4 0 -5 3.5t3 6.5q75 83 75 128q2 34 -44 43q-84 20 -125.5 64.5t-41.5 121.5q0 124 64.5 205
t195.5 107q51 10 65 37t11 82q0 8 7 8z" />
    <glyph glyph-name="uni03DD" unicode="&#x3dd;" horiz-adv-x="437" 
d="M149 91l-60 -291q-1 -6 -9 -8q-99 -9 -105 -9t-6 7l146 689q1 7 8 7h320q6 0 6 -6l-5 -80q-1 -6 -8 -6h-223l-44 -211h199q5 0 5 -6l-17 -79q-1 -7 -8 -7h-199z" />
    <glyph glyph-name="uni03E1" unicode="&#x3e1;" horiz-adv-x="539" 
d="M93 548v103q0 6 7 4q127 -54 216 -160t129.5 -233t40.5 -268q0 -58 -5 -101q-1 -6 -7 -6h-85q-5 0 -5 6q8 133 -14 243l-204 -109q-5 -2 -6 3l-39 74q-3 4 3 8l220 113q-22 72 -48 112l-220 -111q-7 -2 -8 2l-39 80q0 5 4 6l212 104q-56 78 -147 121q-5 3 -5 9z" />
    <glyph glyph-name="uni0400" unicode="&#x400;" horiz-adv-x="519" 
d="M461 89l-32 -84q-1 -5 -7 -5h-390q-6 0 -6 7l135 640q1 5 7 5h353q7 0 7 -5v-85q0 -6 -6 -6h-265l-38 -177h246q5 0 4 -6l-17 -85q-2 -6 -8 -6h-245l-39 -185h298q6 0 3 -8zM348 825l67 -114q5 -8 -4 -8h-91q-8 0 -13 5l-86 114q-3 3 -2 6t5 3h114q6 0 10 -6z" />
    <glyph glyph-name="uni0401" unicode="&#x401;" horiz-adv-x="519" 
d="M461 89l-32 -84q-1 -5 -7 -5h-390q-6 0 -6 7l135 640q1 5 7 5h353q7 0 7 -5v-85q0 -6 -6 -6h-265l-38 -177h246q5 0 4 -6l-17 -85q-2 -6 -8 -6h-245l-39 -185h298q6 0 3 -8zM249 715q-29 0 -45 16t-14 42q3 27 23.5 43.5t49.5 16.5t44.5 -16.5t12.5 -43.5t-22.5 -42.5
t-48.5 -15.5zM456 715q-28 0 -44.5 15.5t-13.5 42.5t23.5 43.5t49.5 16.5q28 0 44 -17t13 -43q-3 -27 -22.5 -42.5t-49.5 -15.5z" />
    <glyph glyph-name="uni0402" unicode="&#x402;" horiz-adv-x="658" 
d="M309 302l-62 -294q-1 -7 -9 -8h-101q-8 0 -5 8l115 548h-163q-7 0 -4 7l30 84q1 5 9 5h489h4t2 -1.5t0 -4.5l-7 -83q-1 -7 -8 -7h-236l-33 -160q60 23 115 23q78 0 126.5 -52.5t48.5 -139.5q0 -77 -29 -139t-76.5 -101t-99 -62t-105.5 -32q-4 -1 -6 1t-1 6l21 98q2 5 9 7
q73 18 120 72t47 133q1 53 -27 83t-74 30q-48 0 -90 -21z" />
    <glyph glyph-name="uni0403" unicode="&#x403;" horiz-adv-x="492" 
d="M167 652h363q7 0 7 -6v-84q0 -6 -7 -6h-273l-114 -549q-2 -7 -9 -7h-103q-7 0 -5 8l134 638q2 6 7 6zM290 703l108 116q4 5 11 5h120q7 0 3 -9l-124 -113q-6 -6 -14 -6h-100q-3 0 -4.5 2.5t0.5 4.5z" />
    <glyph glyph-name="uni0404" unicode="&#x404;" horiz-adv-x="579" 
d="M462 663q100 0 146 -31q4 -4 3 -10l-22 -85q-2 -8 -8 -5q-49 29 -132 29q-96 0 -158 -52t-84 -128h289q7 0 5 -7l-19 -83q-2 -7 -7 -7h-284q-2 -22 -2 -34q0 -66 47 -110t126 -44q84 0 152 30q3 2 5.5 0t1.5 -6l-20 -90q-2 -7 -9 -12q-53 -28 -165 -28q-50 0 -95.5 15.5
t-83 46t-60 83.5t-22.5 121q0 108 46.5 200t138.5 149.5t211 57.5z" />
    <glyph glyph-name="uni0405" unicode="&#x405;" horiz-adv-x="507" 
d="M215 -10q-60 0 -116 19t-86 46q-6 4 -4 12l21 90q2 7 8 3q86 -72 190 -72q50 0 78.5 23.5t28.5 59.5q0 27 -18.5 49.5t-74.5 56.5q-80 48 -115 89.5t-35 99.5q0 80 60 138t173 58q56 0 100.5 -14.5t66.5 -32.5q5 -3 3 -10l-20 -84q-2 -6 -8 -3q-69 49 -151 49
q-55 0 -82.5 -26t-27.5 -61q0 -28 22 -49.5t78 -55.5q86 -52 117 -92.5t31 -95.5q0 -91 -65 -144t-174 -53z" />
    <glyph glyph-name="uni0406" unicode="&#x406;" horiz-adv-x="264" 
d="M277 645l-135 -638q-1 -7 -8 -7h-101q-7 0 -7 7l135 640q1 5 7 5h103q7 0 6 -7z" />
    <glyph glyph-name="uni0407" unicode="&#x407;" horiz-adv-x="264" 
d="M277 645l-135 -638q-1 -7 -8 -7h-101q-7 0 -7 7l135 640q1 5 7 5h103q7 0 6 -7zM123 705q-29 0 -45 16t-14 42q4 27 24 43.5t49 16.5t44.5 -16.5t12.5 -43.5t-22.5 -42.5t-48.5 -15.5zM331 705q-29 0 -45.5 15.5t-13.5 42.5q4 27 24 43.5t49 16.5q28 0 44 -17t13 -43
q-3 -27 -22 -42.5t-49 -15.5z" />
    <glyph glyph-name="uni0408" unicode="&#x408;" horiz-adv-x="392" 
d="M296 652h102q7 0 6 -7l-98 -467q-24 -119 -80.5 -174.5t-147.5 -55.5q-74 0 -113 28q-5 4 -4 11l20 81q2 5 6 3q41 -23 87 -23q50 0 75 30t40 98l99 470q1 6 8 6z" />
    <glyph glyph-name="uni0409" unicode="&#x409;" horiz-adv-x="897" 
d="M513 337l33 -245q7 -1 35 -1q62 0 105 33.5t43 100.5q0 52 -35 83t-102 31q-61 0 -79 -2zM470 647l31 -215q38 2 109 2q112 0 173.5 -54.5t62.5 -144.5q0 -62 -24.5 -109.5t-67.5 -74.5t-94.5 -40.5t-110.5 -13.5q-84 0 -102 2q-7 1 -7 8q-55 434 -62 532h-1
q-23 -67 -276 -534q-3 -5 -9 -5h-105q-8 0 -5 8q225 403 328 591q8 16 16 49q1 4 6 4h133q5 0 5 -5z" />
    <glyph glyph-name="uni040A" unicode="&#x40a;" horiz-adv-x="927" 
d="M271 652q6 0 5 -6l-49 -237h243l50 236q1 7 7 7h104q5 0 4 -6l-50 -236h71q102 0 160.5 -47t58.5 -133q0 -118 -82 -175.5t-220 -57.5q-104 0 -185 3q-5 0 -3 7l64 304h-244l-63 -303q-3 -8 -9 -8h-102q-7 0 -5 7l135 640q2 5 7 5h103zM564 311l-46 -217q24 -3 76 -3
q73 0 118 31t45 94q0 44 -30.5 69.5t-88.5 25.5h-74z" />
    <glyph glyph-name="uni040B" unicode="&#x40b;" horiz-adv-x="663" 
d="M308 297l-61 -289q-1 -7 -9 -8h-101q-8 0 -5 8l115 548h-163q-7 0 -4 7l30 84q1 5 9 5h483q6 0 6 -6l-2 -84q0 -6 -7 -6h-236l-35 -167q66 30 140 30q34 0 62.5 -10t51.5 -34t28.5 -64t-4.5 -99l-44 -205q-1 -7 -8 -7h-102q-7 0 -6 8l45 208q23 107 -76 107
q-53 0 -107 -26z" />
    <glyph glyph-name="uni040C" unicode="&#x40c;" horiz-adv-x="601" 
d="M135 0h-103q-6 0 -6 8l135 638q1 6 7 6h104q6 0 5 -6l-56 -269h69q4 6 224 271q4 4 9 4h117q6 0 2 -6q-212 -249 -272 -310q21 -14 54 -82q11 -25 59 -125t56 -121q4 -8 -6 -8h-112q-7 0 -9 5q-15 27 -51 112.5t-42 97.5q-21 43 -32.5 55t-32.5 12h-54l-58 -275
q-1 -7 -7 -7zM327 704l107 116q5 5 12 5h119q4 0 4.5 -3t-1.5 -5l-124 -114q-6 -6 -14 -6h-99q-4 0 -5 2.5t1 4.5z" />
    <glyph glyph-name="uni040D" unicode="&#x40d;" horiz-adv-x="654" 
d="M168 652h98q6 0 5 -5l-46 -218q-39 -189 -66 -289h1q83 122 385 508q3 4 9 4h108q6 0 5 -5l-135 -640q-3 -7 -8 -7h-96q-7 0 -6 7l45 216q37 176 67 279h-1q-68 -111 -371 -496q-4 -6 -12 -6h-117q-7 0 -6 8l134 638q1 6 7 6zM405 809l66 -114q7 -8 -4 -8h-90q-8 0 -14 5
l-86 114q-2 3 -1 6t5 3h114q5 0 10 -6z" />
    <glyph glyph-name="uni040E" unicode="&#x40e;" horiz-adv-x="551" 
d="M92 652h111q6 0 7 -4q78 -318 85 -376q92 147 205 375q4 5 9 5h112q7 0 3 -7q-116 -225 -215 -376q-135 -202 -238 -280q-9 -7 -17 -7h-131q-4 0 -4.5 3t2.5 4q41 31 96 82.5t88 94.5q6 11 5 16l-122 464q-2 6 4 6zM216 843h81q6 0 7 -6q12 -51 65 -51q55 0 78 51
q3 6 9 6h81q6 0 6 -8q-16 -63 -68 -100.5t-117 -37.5q-66 0 -107.5 35.5t-42.5 103.5q0 7 8 7z" />
    <glyph glyph-name="uni040F" unicode="&#x40f;" horiz-adv-x="645" 
d="M219 0h-187q-7 0 -6 7l135 638q1 7 9 7h101q4 0 5.5 -1t0.5 -6l-115 -548h262l117 549q1 6 7 6h104q6 0 5 -6l-136 -638q-2 -8 -9 -8h-181l-39 -170q-2 -6 -8 -6h-92q-7 0 -6 6z" />
    <glyph glyph-name="uni0410" unicode="&#x410;" horiz-adv-x="626" 
d="M416 183h-219l-96 -178q-3 -5 -9 -5h-105q-8 0 -5 8q35 63 156 280.5t172 310.5q8 16 16 49q1 4 6 4h133q5 0 5 -4q13 -91 41 -310t44 -330q0 -8 -7 -8h-99q-8 0 -9 7zM245 280h164q-26 203 -30 272h-2q-21 -58 -132 -272z" />
    <glyph glyph-name="uni0411" unicode="&#x411;" horiz-adv-x="576" 
d="M202 310l-46 -217q42 -3 72 -3q173 0 173 126q0 95 -132 95q-53 0 -67 -1zM255 556l-32 -150h73q106 0 166.5 -47t60.5 -132q0 -230 -333 -230q-120 0 -157 4q-7 0 -6 9l133 636q2 6 8 6h363q5 0 5 -5l-1 -84q0 -7 -8 -7h-272z" />
    <glyph glyph-name="uni0412" unicode="&#x412;" horiz-adv-x="574" 
d="M27 10l133 634q1 7 7 8q117 3 179 3q63 0 107.5 -14t66 -38t30 -48t8.5 -52q0 -123 -137 -166v-1q44 -14 73 -49.5t29 -89.5q0 -101 -80.5 -150t-222.5 -50q-119 0 -188 3q-7 0 -5 10zM200 288l-41 -195q26 -2 90 -2q156 0 156 108q0 40 -29.5 64.5t-92.5 24.5h-83z
M258 560l-38 -178h84q66 -1 102 26t35 75q0 79 -110 79q-55 0 -73 -2z" />
    <glyph glyph-name="uni0413" unicode="&#x413;" horiz-adv-x="492" 
d="M167 652h363q7 0 7 -6v-84q0 -6 -7 -6h-273l-114 -549q-2 -7 -9 -7h-103q-7 0 -5 8l134 638q2 6 7 6z" />
    <glyph glyph-name="uni0414" unicode="&#x414;" horiz-adv-x="645" 
d="M612 85l-57 -255q-2 -6 -9 -6h-90q-6 0 -6 7l27 169h-396l-44 -170q-1 -6 -7 -6h-91q-6 0 -5 7l50 255q2 6 5 6l59 5l271 504q8 14 19 47q1 4 6 4h110q4 0 5 -4l73 -551l76 -4q7 -1 4 -8zM168 97h245q-2 25 -13 125t-19 182t-8 109q-15 -40 -89 -188.5t-116 -227.5z" />
    </font>
</defs>
</svg>
