<?xml version="1.0" standalone="no"?>
<!DOCTYPE svg PUBLIC "-//W3C//DTD SVG 1.1//EN" "http://www.w3.org/Graphics/SVG/1.1/DTD/svg11.dtd" >
<svg xmlns="http://www.w3.org/2000/svg" xmlns:xlink="http://www.w3.org/1999/xlink" version="1.1">
<metadata>
Created by FontForge 20170731 at Wed Mar 18 02:59:09 2009
 By Aleksey,,,
(c) 2008 Adobe Systems Incorporated. All Rights Reserved.
</metadata>
<defs>
<font id="AdobeClean-BoldSemiCn" horiz-adv-x="525" >
  <font-face 
    font-family="Adobe Clean SemiCondensed"
    font-weight="700"
    font-stretch="semi-condensed"
    units-per-em="1000"
    panose-1="2 11 8 3 2 4 4 2 2 4"
    ascent="715"
    descent="-285"
    x-height="486"
    cap-height="645"
    bbox="-172 -241 1152.82 932"
    underline-thickness="50"
    underline-position="-200"
    unicode-range="U+0020-FB05"
  />
<missing-glyph horiz-adv-x="500" 
d="M0 0v700h500v-700h-500zM80 50h340l-170 255zM279 350l171 -255v510zM50 605v-510l170 255zM80 650l170 -255l170 255h-340z" />
    <glyph glyph-name="f_f" unicode="ff" horiz-adv-x="554" 
d="M189 486h168v17q0 101 47 154.5t124 53.5q39 0 57 -8q5 -3 5 -9v-81q0 -4 -1.5 -6t-3.5 -1q-17 7 -41 7q-71 0 -71 -110v-17h85q6 0 6 -8v-71q0 -8 -7 -8l-84 -1v-389q0 -9 -8 -9h-100q-8 0 -8 8v390h-168v-389q0 -9 -9 -9h-99q-8 0 -8 9v389l-59 2q-6 0 -6 7v72q0 7 6 7
h59v21q0 98 47 151t120 53q29 0 48 -7q5 -3 5 -10v-80q0 -6 -6 -5q-16 4 -31 4q-67 0 -67 -107v-20z" />
    <glyph glyph-name="f_f_i" unicode="ffi" horiz-adv-x="813" 
d="M189 486h170v16q0 104 45.5 156.5t117.5 52.5q23 0 38 -5q5 -2 5 -8v-80q0 -7 -5 -7q-9 3 -25 3q-60 0 -60 -106v-22h80q6 0 6 -6v-73q0 -8 -7 -8l-79 -1v-389q0 -9 -8 -9h-99q-9 0 -9 8v390h-170v-389q0 -9 -9 -9h-99q-8 0 -8 9v389l-59 2q-6 0 -6 7v72q0 7 6 7h59v21
q0 98 47 151t120 53q29 0 48 -7q5 -3 5 -10v-78q0 -4 -1 -5.5t-5 -0.5q-11 4 -31 4q-67 0 -67 -104v-24zM691 551q-29 0 -46.5 16.5t-17.5 44.5q0 27 18.5 44t46.5 17q29 0 46.5 -17t17.5 -44q0 -28 -17.5 -44.5t-47.5 -16.5zM634 8v470q0 7 7 7h101q8 0 8 -7v-471
q0 -7 -8 -7h-100q-8 0 -8 8z" />
    <glyph glyph-name="f_f_l" unicode="ffl" horiz-adv-x="835" 
d="M180 0h-99q-8 0 -8 9v389l-59 2q-6 0 -6 7v72q0 7 6 7h59v21q0 98 47 151t120 53q29 0 48 -7q5 -3 5 -10v-78q0 -4 -1 -5.5t-5 -0.5q-11 4 -31 4q-67 0 -67 -104v-24h170v20q0 104 45 154.5t118 50.5q23 0 38 -5q5 -2 5 -8v-80q0 -7 -5 -7q-9 3 -25 3q-60 0 -60 -106v-22
h80q6 0 6 -6v-73q0 -8 -7 -8l-79 -1v-389q0 -9 -8 -9h-99q-9 0 -9 8v390h-170v-389q0 -9 -9 -9zM641 109v586q0 7 8 7h100q8 0 8 -8v-580q0 -20 7 -27.5t21 -7.5q3 0 10 0.5t11 0.5q2 1 3.5 -0.5t1.5 -4.5v-65q0 -8 -6 -10q-20 -10 -60 -10q-50 0 -77 26t-27 93z" />
    <glyph glyph-name="longs_t" unicode="&#x17f;t" horiz-adv-x="588" 
d="M189 516v-507q0 -9 -9 -9h-99q-8 0 -8 9v388l-59 2q-6 0 -6 8v72q0 7 7 7h58v28q0 94 45.5 145.5t116.5 51.5q32 0 50 -8q5 -2 5 -9v-80q0 -7 -7 -6q-13 5 -33 5q-61 0 -61 -97zM565 82v-65q0 -8 -7 -11q-33 -15 -84 -15q-126 0 -126 136v271l-59 1q-7 1 -7 9v70q0 8 7 8
h60q2 83 10 120q1 8 7 9l97 18q7 2 7 -5q-5 -52 -5 -142h97q7 0 7 -7v-73q0 -6 -7 -7l-98 -1v-251q0 -35 12 -50.5t42 -15.5q21 0 40 7q7 2 7 -6z" />
    <glyph glyph-name="T_h" unicode="Th" horiz-adv-x="985" 
d="M310 0h-99q-8 0 -8 9v541h-191q-9 0 -7 10l13 78q2 7 8 7h491v49q0 8 8 8h99q9 0 9 -8v-242q63 43 135 43q66 0 110 -46t44 -144v-297q0 -8 -8 -8h-101q-7 0 -7 8v295q0 97 -80 97q-50 0 -93 -36v-355q0 -9 -10 -9h-98q-8 0 -8 9v541h-198v-541q0 -9 -9 -9z" />
    <glyph glyph-name="Tcaron_h" unicode="&#x164;h" horiz-adv-x="985" 
d="M310 0h-99q-8 0 -8 9v541h-191q-9 0 -7 10l13 78q2 7 8 7h491v49q0 8 8 8h99q9 0 9 -8v-242q63 43 135 43q66 0 110 -46t44 -144v-297q0 -8 -8 -8h-101q-7 0 -7 8v295q0 97 -80 97q-50 0 -93 -36v-355q0 -9 -10 -9h-98q-8 0 -8 9v541h-198v-541q0 -9 -9 -9zM199 811
l61 -62l59 62q5 6 11 6h86q4 0 4.5 -3t-1.5 -6l-108 -112q-4 -4 -10 -4h-87q-8 0 -11 5l-112 113q-2 2 -1 4.5t5 2.5h92q7 0 12 -6z" />
    <glyph glyph-name="uni021A_h" unicode="&#x21a;h" horiz-adv-x="985" 
d="M310 0h-99q-8 0 -8 9v541h-191q-9 0 -7 10l13 78q2 7 8 7h491v49q0 8 8 8h99q9 0 9 -8v-242q63 43 135 43q66 0 110 -46t44 -144v-297q0 -8 -8 -8h-101q-7 0 -7 8v295q0 97 -80 97q-50 0 -93 -36v-355q0 -9 -10 -9h-98q-8 0 -8 9v541h-198v-541q0 -9 -9 -9zM273 -221h-88
q-8 0 -3 7q35 58 35 110q0 21 -14 61q-4 6 4 6h95q6 0 10 -6q14 -24 14 -55q0 -65 -43 -119q-4 -4 -10 -4z" />
    <glyph glyph-name="f_b" unicode="fb" horiz-adv-x="831" 
d="M73 398l-59 1q-6 1 -6 8v72q0 7 7 7h58v26q0 95 46 147t114 52q33 0 52 -7q5 -3 5 -10v-80q0 -7 -7 -6q-16 4 -31 4q-63 0 -63 -98v-28h82q7 0 7 -7v-72q0 -8 -7 -8l-82 -2v-388q0 -9 -9 -9h-99q-8 0 -8 9v389zM364 702h102q8 0 8 -7v-220q48 20 103 20q96 0 153 -64
t57 -164q0 -126 -81 -201t-198 -75q-75 0 -145 21q-5 1 -5 9v674q0 7 6 7zM669 255q0 72 -33.5 109.5t-87.5 37.5q-45 0 -74 -16v-300q21 -6 49 -6q58 0 102 45.5t44 129.5z" />
    <glyph glyph-name="f_h" unicode="fh" horiz-adv-x="822" 
d="M73 398l-59 1q-6 1 -6 8v72q0 7 7 7h58v26q0 95 46 147t114 52q33 0 52 -7q5 -3 5 -10v-79q0 -9 -7 -6q-16 4 -31 4q-63 0 -63 -98v-29h82q7 0 7 -7v-72q0 -8 -7 -8l-82 -2v-388q0 -9 -9 -9h-99q-8 0 -8 9v389zM354 7v688q0 7 7 7h102q7 0 7 -7v-242q60 42 130 42
q67 0 112.5 -45t45.5 -150v-292q0 -8 -7 -8h-101q-8 0 -8 7v295q0 98 -80 98q-48 0 -92 -36v-357q0 -7 -7 -7h-102q-7 0 -7 7z" />
    <glyph glyph-name="f_i" unicode="fi" horiz-adv-x="520" 
d="M180 0h-99q-8 0 -8 9v389l-59 2q-6 2 -6 8v71q0 7 7 7h59q8 113 69 169t160 56q77 0 115 -22q5 -3 5 -10v-84q0 -9 -7 -6q-50 27 -110 27q-111 0 -116 -130h258q8 0 8 -8v-469q0 -9 -8 -9h-99q-9 0 -9 9v389h-151v-389q0 -9 -9 -9z" />
    <glyph glyph-name="f_j" unicode="fj" horiz-adv-x="522" 
d="M343 -24v421h-154v-388q0 -9 -9 -9h-99q-8 0 -8 9v389l-59 2q-6 0 -6 8v71q0 7 7 7h59q9 113 70 169t159 56q77 0 116 -22q6 -3 6 -10v-84q0 -3 -2 -5t-5 0q-54 27 -112 27q-49 0 -80.5 -27.5t-35.5 -103.5h261q8 0 8 -8v-432q0 -96 -10.5 -142.5t-34.5 -76.5
q-40 -47 -114 -47q-30 0 -40 3q-7 3 -7 10l1 73q0 8 7 8q47 -2 64.5 19t17.5 83z" />
    <glyph glyph-name="f_k" unicode="fk" horiz-adv-x="791" 
d="M73 398l-59 1q-6 1 -6 8v72q0 7 7 7h58v26q0 95 46 147t114 52q33 0 52 -7q5 -3 5 -10v-79q0 -9 -7 -6q-16 4 -31 4q-63 0 -63 -98v-29h82q7 0 7 -7v-72q0 -8 -7 -8l-82 -2v-388q0 -9 -9 -9h-99q-8 0 -8 9v389zM354 695q0 7 8 7h100q8 0 8 -7v-402h37q11 0 15 6
q15 24 60 94t56 87q2 6 10 6h104q10 0 5 -9q-35 -61 -152 -215q-5 -5 0 -9q33 -41 98.5 -127.5t88.5 -116.5q4 -9 -5 -9h-127q-8 0 -12 6q-13 19 -58.5 84t-70.5 102q-6 9 -16 9h-33v-193q0 -8 -8 -8h-100q-8 0 -8 8v687z" />
    <glyph glyph-name="f_l" unicode="fl" horiz-adv-x="549" 
d="M73 398l-59 1q-6 1 -6 8v72q0 7 7 7h58v26q0 95 46 147t114 52q33 0 52 -7q5 -3 5 -10v-78q0 -7 -7 -6q-16 4 -31 4q-63 0 -63 -98v-30h82q7 0 7 -7v-72q0 -8 -7 -8l-82 -2v-388q0 -9 -9 -9h-99q-8 0 -8 9v389zM354 109v586q0 7 8 7h100q8 0 8 -8v-580q0 -20 7 -27.5
t21 -7.5q4 0 11 0.5t10 0.5q3 1 4 -0.5t1 -4.5v-65q0 -8 -6 -10q-18 -10 -60 -10q-49 0 -76.5 26.5t-27.5 92.5z" />
    <glyph glyph-name="f_t" unicode="ft" horiz-adv-x="594" 
d="M355 127v271h-166v-389q0 -9 -9 -9h-99q-8 0 -8 8v390l-58 2q-7 0 -7 8v71q0 7 7 7h58v20q0 100 47.5 152.5t122.5 52.5q37 0 55 -9q5 -2 5 -9v-81q0 -6 -6 -5q-15 5 -36 5q-72 0 -72 -104v-22h166q9 108 11 120q1 8 7 9l95 18q9 1 9 -5q-5 -53 -5 -142h96q7 0 7 -7v-73
q0 -7 -6 -8l-98 -2v-244q0 -34 12.5 -50t42.5 -16q14 0 40 6q5 0 5 -6v-69q0 -9 -6 -11q-29 -15 -85 -15q-125 0 -125 136z" />
    <glyph glyph-name="f_f_b" unicode="ffb" horiz-adv-x="1119" 
d="M189 486h170v16q0 104 45.5 156.5t117.5 52.5q23 0 38 -5q5 -2 5 -8v-81q0 -4 -1 -6t-4 -1q-9 3 -25 3q-60 0 -60 -106v-21h80q6 0 6 -6v-73q0 -8 -7 -8l-79 -1v-389q0 -9 -8 -9h-99q-9 0 -9 8v390h-170v-389q0 -9 -9 -9h-99q-8 0 -8 9v389l-59 2q-6 0 -6 7v72q0 7 6 7
h59v21q0 98 47 151t120 53q29 0 48 -7q5 -3 5 -10v-79q0 -4 -1 -5.5t-5 -0.5q-11 4 -31 4q-67 0 -67 -104v-23zM652 702h102q7 0 7 -7v-220q49 20 104 20q96 0 153 -64t57 -164q0 -126 -81 -201t-198 -75q-75 0 -145 21q-6 2 -6 9v674q0 7 7 7zM956 255q0 72 -33 109.5
t-88 37.5q-45 0 -74 -16v-300q23 -6 50 -6q57 0 101 45.5t44 129.5z" />
    <glyph glyph-name="f_f_h" unicode="ffh" horiz-adv-x="1110" 
d="M189 486h170v20q0 104 45 154.5t118 50.5q23 0 38 -5q5 -2 5 -8v-80q0 -7 -5 -7q-9 3 -25 3q-60 0 -60 -106v-22h80q6 0 6 -6v-73q0 -8 -7 -8l-79 -1v-389q0 -9 -8 -9h-99q-9 0 -9 8v390h-170v-389q0 -9 -9 -9h-99q-8 0 -8 9v389l-59 2q-6 0 -6 7v72q0 7 6 7h59v21
q0 98 47 151t120 53q29 0 48 -7q5 -3 5 -10v-78q0 -4 -1 -5.5t-5 -0.5q-11 4 -31 4q-67 0 -67 -104v-24zM642 7v688q0 7 7 7h103q6 0 6 -7v-242q62 42 131 42q66 0 112 -45t46 -150v-292q0 -8 -7 -8h-101q-8 0 -8 7v295q0 98 -80 98q-49 0 -93 -36v-357q0 -7 -6 -7h-102
q-8 0 -8 7z" />
    <glyph glyph-name="f_f_j" unicode="ffj" horiz-adv-x="814" 
d="M189 486h170v16q0 104 45.5 156.5t117.5 52.5q23 0 38 -5q5 -2 5 -8v-81q0 -3 -1 -5t-4 -1q-12 2 -25 2q-60 0 -60 -109v-18h80q6 0 6 -6v-73q0 -8 -7 -8l-79 -1v-389q0 -9 -8 -9h-99q-9 0 -9 8v390h-170v-389q0 -9 -9 -9h-99q-8 0 -8 9v389l-59 2q-6 0 -6 7v72q0 7 6 7
h59v21q0 98 47 151t120 53q29 0 48 -7q5 -3 5 -10v-79q0 -6 -4 -6h-2q-11 4 -31 4q-67 0 -67 -108v-19zM635 -23v501q0 8 8 8h100q8 0 8 -7v-433q0 -96 -10.5 -142.5t-34.5 -76.5q-40 -47 -114 -47q-30 0 -40 3q-7 3 -7 10v74q0 8 7 8q47 -2 65 19t18 83zM693 552
q-29 0 -46.5 16.5t-17.5 44.5q0 27 18 43.5t47 16.5t46.5 -16.5t17.5 -44.5t-18 -44t-47 -16z" />
    <glyph glyph-name="f_f_k" unicode="ffk" horiz-adv-x="1073" 
d="M189 486h170v18q0 104 45.5 155.5t117.5 51.5q23 0 38 -5q5 -2 5 -8v-80q0 -7 -5 -7q-9 3 -25 3q-60 0 -60 -106v-22h80q6 0 6 -6v-73q0 -8 -7 -8l-79 -1v-389q0 -9 -8 -9h-99q-9 0 -9 8v390h-170v-389q0 -9 -9 -9h-99q-8 0 -8 9v389l-59 2q-6 0 -6 7v72q0 7 6 7h59v21
q0 98 47 151t120 53q29 0 48 -7q5 -3 5 -10v-78q0 -4 -1 -5.5t-5 -0.5q-11 4 -31 4q-67 0 -67 -104v-24zM636 695q0 7 8 7h101q7 0 7 -7v-402h38q10 0 14 6q15 24 60 94t56 87q4 6 10 6h105q9 0 4 -9q-30 -54 -152 -215q-5 -4 0 -9q34 -42 100.5 -130t86.5 -114q4 -9 -5 -9
h-127q-6 0 -11 6q-86 122 -130 186q-6 9 -15 9h-34v-193q0 -8 -7 -8h-101q-8 0 -8 8v687z" />
    <glyph glyph-name="f_f_t" unicode="fft" horiz-adv-x="874" 
d="M527 711q39 0 57 -8q5 -3 5 -9v-80q0 -4 -1.5 -5.5t-3.5 -0.5q-20 6 -40 6q-72 0 -72 -108v-20h163q4 88 11 121q2 7 7 8l96 18q8 2 8 -5q-5 -53 -5 -142h97q8 0 8 -8v-72q0 -7 -8 -8l-98 -2v-249q0 -36 13 -51t44 -15q10 0 38 6q5 0 5 -6v-64q0 -9 -6 -11
q-29 -15 -85 -15q-125 0 -125 136v271h-163v-389q0 -9 -8 -9h-100q-8 0 -8 8v390h-167v-389q0 -9 -9 -9h-99q-8 0 -8 9v389l-59 2q-6 0 -6 7v72q0 7 6 7h59v21q0 98 47 151t120 53q29 0 48 -7q5 -3 5 -10v-78q0 -4 -1 -5.5t-5 -0.5q-11 4 -31 4q-67 0 -67 -104v-24h167v16
q0 101 47.5 155t123.5 54z" />
    <glyph glyph-name="longs_b" unicode="&#x17f;b" horiz-adv-x="825" 
d="M189 516v-507q0 -9 -9 -9h-99q-8 0 -8 9v388l-59 2q-6 0 -6 8v72q0 7 7 7h58v28q0 94 45.5 145.5t116.5 51.5q32 0 50 -8q5 -2 5 -9v-80q0 -7 -7 -6q-13 5 -33 5q-61 0 -61 -97zM358 702h101q8 0 8 -7v-220q48 20 104 20q96 0 152.5 -64t56.5 -164q0 -126 -81 -201
t-198 -75q-74 0 -145 21q-5 1 -5 9v674q0 7 7 7zM662 255q0 72 -33.5 109.5t-87.5 37.5q-45 0 -74 -16v-300q23 -6 49 -6q58 0 102 45.5t44 129.5z" />
    <glyph glyph-name="longs_h" unicode="&#x17f;h" horiz-adv-x="811" 
d="M189 516v-507q0 -9 -9 -9h-99q-8 0 -8 9v388l-59 1q-6 2 -6 8v73q0 7 7 7h58v28q0 94 45.5 145.5t116.5 51.5q32 0 50 -8q5 -2 5 -9v-80q0 -7 -7 -6q-13 5 -33 5q-61 0 -61 -97zM343 7v688q0 7 7 7h102q7 0 7 -7v-242q60 42 130 42q66 0 112 -45t46 -150v-292q0 -8 -7 -8
h-101q-8 0 -8 7v295q0 98 -80 98q-48 0 -92 -36v-357q0 -7 -7 -7h-102q-7 0 -7 7z" />
    <glyph glyph-name="longs_i" unicode="&#x17f;i" horiz-adv-x="515" 
d="M189 516v-507q0 -9 -9 -9h-99q-8 0 -8 9v388l-59 1q-6 2 -6 8v73q0 7 7 7h58v28q0 94 45.5 145.5t116.5 51.5q32 0 50 -8q5 -2 5 -9v-80q0 -7 -7 -6q-13 5 -33 5q-61 0 -61 -97zM393 552q-29 0 -46.5 16.5t-17.5 44.5q0 27 18 43.5t47 16.5t46.5 -16.5t17.5 -44.5
t-18 -44t-47 -16zM335 8v470q0 8 8 8h101q7 0 7 -7v-471q0 -8 -7 -8h-100q-9 0 -9 8z" />
    <glyph glyph-name="longs_k" unicode="&#x17f;k" horiz-adv-x="783" 
d="M189 516v-507q0 -9 -9 -9h-99q-8 0 -8 9v388l-59 1q-6 2 -6 8v73q0 7 7 7h58v28q0 94 45.5 145.5t116.5 51.5q32 0 50 -8q5 -2 5 -9v-80q0 -7 -7 -6q-13 5 -33 5q-61 0 -61 -97zM345 695q0 7 8 7h101q7 0 7 -7v-402h38q11 0 15 6q13 21 57 89.5t58 91.5q4 6 10 6h105
q9 0 4 -9q-30 -54 -152 -215q-4 -5 0 -9q34 -42 100.5 -130t86.5 -114q1 -2 1 -4t-1.5 -3.5t-4.5 -1.5h-126q-8 0 -12 6q-86 122 -130 186q-6 9 -15 9h-34v-193q0 -8 -7 -8h-100q-9 0 -9 8v687z" />
    <glyph glyph-name="longs_l" unicode="&#x17f;l" horiz-adv-x="540" 
d="M189 516v-507q0 -9 -9 -9h-99q-8 0 -8 9v388l-59 1q-6 2 -6 8v73q0 7 7 7h58v28q0 94 45.5 145.5t116.5 51.5q32 0 50 -8q5 -2 5 -9v-80q0 -7 -7 -6q-13 5 -33 5q-61 0 -61 -97zM345 109v586q0 7 9 7h99q8 0 8 -8v-580q0 -35 29 -35q3 0 10 0.5t11 0.5q2 1 3.5 -0.5
t1.5 -4.5v-65q0 -7 -6 -10q-20 -10 -61 -10q-49 0 -76.5 26.5t-27.5 92.5z" />
    <glyph glyph-name="longs_longs_b" unicode="&#x17f;&#x17f;b" horiz-adv-x="1103" 
d="M471 512v-503q0 -9 -8 -9h-100q-8 0 -8 9v384l-58 2q-6 0 -6 8v76q0 7 6 7h58v28q0 93 46 145t116 52q32 0 50 -8q6 -2 6 -9v-85q0 -6 -7 -5q-16 4 -34 4q-61 0 -61 -96zM189 512v-503q0 -9 -9 -9h-99q-8 0 -8 9v384l-59 2q-6 0 -6 8v76q0 7 7 7h58v28q0 94 45.5 145.5
t116.5 51.5q32 0 50 -8q5 -2 5 -9v-85q0 -6 -7 -5q-16 4 -33 4q-61 0 -61 -96zM636 702h101q8 0 8 -7v-220q48 20 104 20q96 0 152.5 -64t56.5 -164q0 -126 -81 -201t-198 -75q-75 0 -145 21q-5 1 -5 9v674q0 7 7 7zM940 255q0 72 -33.5 109.5t-87.5 37.5q-45 0 -74 -16
v-300q22 -6 49 -6q58 0 102 45.5t44 129.5z" />
    <glyph glyph-name="longs_longs_i" unicode="&#x17f;&#x17f;i" horiz-adv-x="803" 
d="M471 516v-507q0 -9 -8 -9h-100q-8 0 -8 9v388l-58 1q-6 1 -6 8v73q0 7 6 7h58v28q0 93 46 145t116 52q32 0 50 -8q6 -2 6 -9v-80q0 -7 -7 -6q-13 5 -34 5q-61 0 -61 -97zM189 516v-507q0 -9 -9 -9h-99q-8 0 -8 9v388l-59 1q-6 2 -6 8v73q0 7 7 7h58v28q0 94 45.5 145.5
t116.5 51.5q32 0 50 -8q5 -2 5 -9v-80q0 -7 -7 -6q-13 5 -33 5q-61 0 -61 -97zM682 552q-29 0 -47 16.5t-18 44.5q0 27 18.5 43.5t47.5 16.5t46.5 -16.5t17.5 -44.5q0 -27 -18 -43.5t-47 -16.5zM624 8v470q0 8 7 8h102q7 0 7 -7v-471q0 -8 -8 -8h-99q-9 0 -9 8z" />
    <glyph glyph-name="longs_longs_l" unicode="&#x17f;&#x17f;l" horiz-adv-x="823" 
d="M471 516v-507q0 -9 -8 -9h-100q-8 0 -8 9v388l-58 1q-6 1 -6 8v73q0 7 6 7h58v28q0 93 46 145t116 52q32 0 50 -8q6 -2 6 -9v-80q0 -7 -7 -6q-13 5 -34 5q-61 0 -61 -97zM189 516v-507q0 -9 -9 -9h-99q-8 0 -8 9v388l-59 1q-6 2 -6 8v73q0 7 7 7h58v28q0 94 45.5 145.5
t116.5 51.5q32 0 50 -8q5 -2 5 -9v-80q0 -7 -7 -6q-13 5 -33 5q-61 0 -61 -97zM628 109v586q0 7 8 7h100q8 0 8 -8v-580q0 -20 7 -27.5t21 -7.5q4 0 11 0.5t10 0.5q3 1 4 -0.5t1 -4.5v-65q0 -8 -6 -10q-20 -10 -60 -10q-49 0 -76.5 26.5t-27.5 92.5z" />
    <glyph glyph-name="t_t" unicode="tt" horiz-adv-x="616" 
d="M492 394v-242q0 -33 12 -49.5t42 -16.5q16 0 41 7q6 0 6 -7v-69q0 -8 -7 -11q-29 -15 -85 -15q-125 0 -125 136v268h-187v-243q0 -33 11.5 -49.5t40.5 -16.5q17 0 41 7q6 0 6 -7v-70q0 -8 -7 -11q-28 -14 -83 -14q-125 0 -125 136v268l-60 2q-7 0 -7 8v74q0 7 7 7h60
q3 88 10 119q2 8 8 9l93 19q10 1 10 -7q-2 -23 -5 -140h188q2 83 10 120q1 8 8 9l95 18q8 2 8 -5q-5 -80 -5 -142h98q7 0 7 -7v-75q0 -7 -7 -7z" />
    <glyph glyph-name=".notdef" horiz-adv-x="500" 
d="M0 0v700h500v-700h-500zM80 50h340l-170 255zM279 350l171 -255v510zM50 605v-510l170 255zM80 650l170 -255l170 255h-340z" />
    <glyph glyph-name=".null" horiz-adv-x="0" 
 />
    <glyph glyph-name="nonmarkingreturn" horiz-adv-x="333" 
 />
    <glyph glyph-name="space" unicode=" " horiz-adv-x="217" 
 />
    <glyph glyph-name="exclam" unicode="!" horiz-adv-x="299" 
d="M175 655q43 0 59 -9q6 -4 6 -10v-73q0 -54 -8 -177.5t-12 -162.5q-2 -6 -8 -6h-76q-6 0 -6 6q-3 32 -11 157t-8 179v74q0 8 5 10q21 12 59 12zM174 -8q-31 0 -50.5 18.5t-19.5 48.5q0 29 20 48t50 19q31 0 50.5 -19t19.5 -48q0 -31 -19.5 -49t-50.5 -18z" />
    <glyph glyph-name="quotedbl" unicode="&#x22;" horiz-adv-x="384" 
d="M54 456l-2 244q0 8 9 8h94q8 0 7 -8l-17 -244q0 -8 -7 -8h-75q-9 0 -9 8zM228 456l-1 242q-1 10 8 10h93q8 0 8 -10l-17 -243q-1 -7 -8 -7h-75q-8 0 -8 8z" />
    <glyph glyph-name="numbersign" unicode="#" horiz-adv-x="521" 
d="M132 47h-60q-7 0 -5 6l42 151h-68q-5 0 -5 7v70q0 5 5 5h90l27 100h-71q-5 0 -5 5v72q2 5 5 5h94l38 135q1 6 7 6h61q5 0 4 -6l-37 -135h86l37 136q1 5 5 5h62q6 0 4 -6l-37 -135h66q5 0 5 -6v-71q0 -5 -5 -5h-88l-27 -100h66q6 0 6 -5v-72q0 -5 -6 -5h-87l-42 -151
q-1 -6 -7 -6h-60q-8 0 -5 7l41 150h-86l-43 -152q-2 -5 -7 -5zM230 386l-27 -100h87l27 100h-87z" />
    <glyph glyph-name="dollar" unicode="$" horiz-adv-x="521" 
d="M307 28v-77q0 -6 -6 -6h-80q-7 0 -7 7v71q-94 7 -154 47q-6 5 -6 15v90q0 8 8 4q89 -61 189 -61q50 0 74.5 18t24.5 47q0 30 -25.5 52t-92.5 51q-100 41 -139 83t-39 108q0 63 44 109t120 59v73q0 6 5 6h83q5 0 5 -6v-71q81 -5 123 -35q5 -5 5 -11v-87q0 -4 -3 -5t-5 1
q-76 47 -163 47q-53 0 -77.5 -21t-24.5 -47q0 -28 26.5 -49.5t96.5 -51.5q106 -44 143 -88t37 -105q0 -73 -48 -115t-114 -52z" />
    <glyph glyph-name="percent" unicode="%" horiz-adv-x="802" 
d="M651 639l-414 -634q-4 -5 -9 -5h-76q-9 0 -3 8l417 633q4 4 9 4h73q3 0 4 -2.5t-1 -3.5zM201 655q75 0 114.5 -49.5t39.5 -128.5q0 -72 -40.5 -125.5t-114.5 -53.5q-77 0 -116.5 49.5t-39.5 125.5q0 84 45.5 133t111.5 49zM133 477q0 -50 18 -80t51 -30q65 0 65 109
q0 111 -66 111q-31 0 -49.5 -28t-18.5 -82zM604 348q75 0 114.5 -49t39.5 -129q0 -73 -40 -126t-116 -53t-115.5 49.5t-39.5 126.5q0 83 45.5 132t111.5 49zM536 170q0 -47 18 -78.5t51 -31.5q31 0 48 28.5t17 80.5q0 111 -67 111q-29 0 -48 -29t-19 -81z" />
    <glyph glyph-name="ampersand" unicode="&#x26;" horiz-adv-x="684" 
d="M600 284h-192q48 -41 103 -125q50 -75 102 -75q6 0 24 2q7 2 7 -7v-69q0 -8 -7 -12q-17 -7 -55 -7q-53 0 -93 27t-88 104q-36 62 -84 110t-64 48q-29 0 -55.5 -24.5t-26.5 -65.5q0 -43 31.5 -73.5t85.5 -30.5q47 0 80 15q4 1 5 -0.5t1 -5.5v-76q0 -7 -7 -10
q-38 -18 -106 -18q-90 0 -148.5 50.5t-58.5 136.5q0 63 37.5 107.5t97.5 64.5q-66 60 -66 132q0 71 54 115.5t135 44.5q77 0 115 -25q6 -5 6 -11v-77q0 -9 -8 -5q-48 27 -103 27q-39 0 -60.5 -19.5t-21.5 -52.5q0 -51 80 -104h297q8 0 6 -8l-14 -76q-1 -7 -9 -7z" />
    <glyph glyph-name="quotesingle" unicode="'" horiz-adv-x="217" 
d="M56 455l-1 245q0 8 7 8h96q8 0 6 -6l-17 -247q-1 -7 -8 -7h-76q-7 0 -7 7z" />
    <glyph glyph-name="parenleft" unicode="(" horiz-adv-x="341" 
d="M50 287q0 142 45.5 257.5t107.5 194.5q7 7 12 7h89q4 0 5.5 -3t-1.5 -7q-153 -209 -153 -443q0 -259 151 -453q6 -8 -4 -8h-89q-9 0 -14 5q-65 75 -107 191.5t-42 258.5z" />
    <glyph glyph-name="parenright" unicode=")" horiz-adv-x="346" 
d="M291 290q0 -258 -151 -452q-6 -6 -13 -6h-89q-12 0 -6 8q153 205 153 444q0 260 -150 454q-7 7 4 7h90q7 0 13 -7q65 -75 107 -189t42 -259z" />
    <glyph glyph-name="asterisk" unicode="*" horiz-adv-x="325" 
d="M204 474l77 -100q3 -3 0 -8l-52 -34q-5 -3 -8 3l-63 112l-82 -93q-4 -4 -8 0l-39 43q-5 3 -1 7l94 80l-106 39q-6 0 -2 7l28 58q2 5 8 2l93 -61l5 121q0 5 6 5l69 -8q5 -1 4 -6l-32 -120l109 34q5 2 6 -4l10 -63q2 -6 -3 -6z" />
    <glyph glyph-name="plus" unicode="+" horiz-adv-x="547" 
d="M237 510h74q6 0 6 -7v-201h194q6 0 6 -8v-69q0 -7 -7 -7h-193v-204q0 -6 -7 -6h-73q-7 0 -7 7v203h-192q-8 0 -8 8v69q0 7 7 7h193v202q2 6 7 6z" />
    <glyph glyph-name="comma" unicode="," horiz-adv-x="227" 
d="M92 -135h-80q-10 0 -6 8q70 120 62 264q0 6 5 6h94q5 0 8 -8q10 -160 -72 -264q-2 -6 -11 -6z" />
    <glyph glyph-name="hyphen" unicode="-" horiz-adv-x="335" 
d="M279 202h-223q-6 0 -6 7v84q0 6 6 6h222q7 0 7 -6v-85q0 -6 -6 -6z" />
    <glyph glyph-name="period" unicode="." horiz-adv-x="225" 
d="M112 -9q-31 0 -50 19t-19 51q0 31 19.5 50.5t49.5 19.5q31 0 50.5 -20t19.5 -50q0 -32 -19 -51t-51 -19z" />
    <glyph glyph-name="slash" unicode="/" horiz-adv-x="360" 
d="M322 692l-191 -730q-1 -5 -7 -5h-80q-6 0 -5 7l191 729q1 4 6 4h81q6 0 5 -5z" />
    <glyph glyph-name="zero" unicode="0" horiz-adv-x="521" 
d="M261 567q-49 0 -78 -61t-29 -182q0 -114 27.5 -178.5t81.5 -64.5q103 0 103 242q0 244 -105 244zM262 -10q-114 0 -170 91.5t-56 242.5q0 146 59.5 239t166.5 92q50 0 89 -19t63.5 -50.5t40.5 -75.5t22.5 -89.5t6.5 -96.5q0 -70 -11.5 -127.5t-36.5 -105.5t-69.5 -74.5
t-104.5 -26.5z" />
    <glyph glyph-name="one" unicode="1" horiz-adv-x="521" 
d="M214 94v442q-57 -20 -106 -29q-8 -2 -8 6v71q0 6 6 8q88 22 141 50q12 4 15 4h63q6 0 6 -6v-546h110q8 0 9 -7v-78q2 -9 -7 -9h-348q-7 0 -6 9v78q1 7 9 7h116z" />
    <glyph glyph-name="two" unicode="2" horiz-adv-x="521" 
d="M457 0h-405q-7 0 -7 8v59q0 7 4 11q92 80 185 178q56 59 78 100t22 88q0 51 -32 82t-88 31q-77 0 -152 -45q-9 -3 -9 6v78q0 8 5 10q79 49 182 49q98 0 153 -56t55 -141q0 -58 -22.5 -107.5t-71.5 -103.5q-76 -86 -149 -154q69 3 164 3h110q8 0 7 -7l-20 -82q-1 -7 -9 -7
z" />
    <glyph glyph-name="three" unicode="3" horiz-adv-x="521" 
d="M221 283h-65q-8 0 -8 7v78q0 9 7 9h61q111 0 111 90q0 41 -29.5 67t-85.5 26q-72 0 -143 -42q-9 -4 -9 4v78q0 7 5 11q79 44 172 44q94 0 149 -47t55 -121q0 -104 -98 -144v-2q52 -14 88.5 -53t36.5 -103q0 -91 -67 -142.5t-171 -51.5q-103 0 -171 41q-6 4 -6 11v87
q0 9 8 5q82 -47 164 -47q65 0 94.5 29t29.5 71q0 47 -34 71t-94 24z" />
    <glyph glyph-name="four" unicode="4" horiz-adv-x="521" 
d="M293 168h-257q-8 0 -8 8v54q1 10 4 14q34 55 130 197t137 198q6 7 13 7h84q9 0 9 -8v-384h92q7 0 5 -7l-12 -73q-1 -6 -8 -6h-77v-160q0 -8 -8 -8h-97q-7 0 -7 8v160zM293 253v93q0 101 3 155h-1q-13 -22 -78.5 -124.5t-77.5 -123.5h154z" />
    <glyph glyph-name="five" unicode="5" horiz-adv-x="521" 
d="M418 551h-193q-4 -13 -11.5 -43t-16 -63t-10.5 -41q138 -19 209.5 -67t71.5 -143q0 -92 -66 -147.5t-173 -55.5q-98 0 -165 39q-6 3 -6 11v88q0 9 9 4q76 -46 163 -46q58 0 88.5 28.5t30.5 71.5q0 59 -63 88t-197 42q-7 0 -7 8l-1 41q3 15 40.5 143.5t37.5 129.5q1 6 9 6
h275q6 0 5 -7l-21 -81q-1 -6 -9 -6z" />
    <glyph glyph-name="six" unicode="6" horiz-adv-x="521" 
d="M261 330q-57 0 -100 -35q-6 -26 -6 -58q0 -79 30.5 -118t79.5 -39q47 0 76 34t29 92q0 57 -29 90.5t-80 33.5zM428 665v-87q0 -7 -6 -8q-96 -32 -155 -82.5t-85 -104.5q56 32 117 32q82 0 136 -55.5t54 -147.5t-60 -157t-165 -65q-106 0 -166.5 68t-60.5 179
q0 85 35.5 160.5t93.5 128.5t123.5 89.5t132.5 54.5q6 1 6 -5z" />
    <glyph glyph-name="seven" unicode="7" horiz-adv-x="521" 
d="M59 645h408q7 0 7 -6v-58q0 -6 -4 -14q-216 -512 -238 -561q-3 -6 -10 -6h-110q-9 0 -5 9q75 156 127.5 274t80.5 184.5t35 82.5h-295q-7 0 -7 8l5 81q0 6 6 6z" />
    <glyph glyph-name="eight" unicode="8" horiz-adv-x="521" 
d="M259 569q-44 0 -69 -28t-25 -71q0 -60 41 -90q10 -9 25 -9h58q16 0 26 9q38 32 38 88q0 48 -26.5 74.5t-67.5 26.5zM262 79q48 0 73.5 28.5t25.5 69.5q0 65 -48 95q-12 7 -24 7h-58q-15 0 -22 -6q-50 -33 -50 -92q0 -45 29 -73.5t74 -28.5zM262 655q97 0 148.5 -53.5
t51.5 -125.5q0 -96 -82 -148q95 -48 95 -150q0 -87 -62 -137.5t-157 -50.5t-153 52t-58 131q0 96 95 150q-85 51 -85 153q0 75 56 127t151 52z" />
    <glyph glyph-name="nine" unicode="9" horiz-adv-x="521" 
d="M111 -15l-1 87q0 7 6 8q166 53 229 180q-49 -33 -113 -33q-85 0 -141 55t-56 151q0 94 63 158t164 64q99 0 161 -69.5t62 -191.5q0 -86 -32 -160t-85.5 -124.5t-117 -83.5t-131.5 -47q-8 -1 -8 6zM266 317q61 0 98 35q5 17 5 56q0 76 -29 118t-81 42q-47 0 -77 -36
t-30 -92q0 -61 33 -92t81 -31z" />
    <glyph glyph-name="colon" unicode=":" horiz-adv-x="298" 
d="M149 -9q-30 0 -49.5 18.5t-19.5 49.5t19.5 50t49.5 19q31 0 50.5 -19.5t19.5 -49.5t-19 -49t-51 -19zM149 316q-30 0 -49.5 18.5t-19.5 49.5t19.5 50t49.5 19q31 0 50.5 -19.5t19.5 -49.5t-19 -49t-51 -19z" />
    <glyph glyph-name="semicolon" unicode=";" horiz-adv-x="298" 
d="M149 316q-30 0 -49.5 18.5t-19.5 49.5t19.5 50t49.5 19q31 0 50.5 -19.5t19.5 -49.5t-19 -49t-51 -19zM125 -135h-80q-10 0 -6 8q70 120 62 264q0 6 6 6h93q5 0 8 -8q10 -160 -72 -264q-2 -6 -11 -6z" />
    <glyph glyph-name="less" unicode="&#x3c;" horiz-adv-x="547" 
d="M63 227v66q0 7 5 9l409 209q7 5 7 -3v-78q0 -6 -7 -9l-317 -160v-2l318 -160q6 -2 6 -9v-76q0 -7 -7 -6l-409 210q-5 4 -5 9z" />
    <glyph glyph-name="equal" unicode="=" horiz-adv-x="547" 
d="M32 391q0 7 8 7h467q7 0 7 -7v-69q0 -8 -8 -8h-465q-9 0 -9 8v69zM32 198q0 7 8 7h466q8 0 8 -8v-67q0 -8 -9 -8h-465q-8 0 -8 7v69z" />
    <glyph glyph-name="greater" unicode="&#x3e;" horiz-adv-x="547" 
d="M484 293v-64q0 -7 -5 -9l-410 -212q-6 -2 -6 5v76q0 7 6 9l318 161v2l-318 160q-6 2 -6 9v77q0 7 7 5l409 -210q5 -2 5 -9z" />
    <glyph glyph-name="question" unicode="?" horiz-adv-x="428" 
d="M207 655q82 0 132 -44t50 -114q0 -37 -21 -73.5t-46.5 -60t-46.5 -50t-21 -45.5q0 -24 18 -53q3 -8 -5 -8h-84q-7 0 -12 5q-25 28 -25 67q0 27 19.5 55.5t43 49.5t43 49t19.5 54q0 31 -23.5 51.5t-65.5 20.5q-56 0 -113 -24q-8 -3 -8 4v77q0 7 4 9q58 30 142 30zM219 -9
q-30 0 -48.5 18t-18.5 49q0 30 19 48.5t48 18.5q30 0 48.5 -19t18.5 -48q0 -31 -18 -49t-49 -18z" />
    <glyph glyph-name="at" unicode="@" horiz-adv-x="798" 
d="M427 89l56 284q-12 3 -28 3q-62 0 -100.5 -51t-38.5 -118q0 -108 100 -117q3 -1 11 -1zM443 618q134 0 224.5 -80.5t90.5 -220.5q0 -142 -93 -225t-227 -83q-98 0 -157.5 47t-59.5 146q0 107 74.5 176.5t181.5 69.5q69 0 101 -16q4 -2 4 -8l-65 -335q56 11 105.5 67.5
t49.5 157.5q0 113 -64.5 173t-173.5 60q-129 0 -216 -94t-87 -242q0 -191 157 -275q6 -4 6 -10v-79q0 -7 -7 -4q-117 47 -182 143t-65 220q0 178 114 295t289 117z" />
    <glyph glyph-name="A" unicode="A" horiz-adv-x="620" 
d="M410 181h-212l-57 -173q-1 -8 -9 -8h-97q-10 0 -7 9q171 508 194 577q6 20 7 53q0 6 6 6h133q6 0 8 -5q32 -92 105.5 -309.5t109.5 -321.5q3 -9 -5 -9h-107q-7 0 -9 6zM222 277h164q-5 18 -39 124t-44 147h-1q-11 -49 -80 -271z" />
    <glyph glyph-name="B" unicode="B" horiz-adv-x="564" 
d="M73 8v628q0 8 5 9q76 2 187 2q70 0 119 -15.5t72.5 -42t33 -53t9.5 -57.5q0 -52 -26.5 -88t-68.5 -53v-2q50 -14 85 -52t35 -101q0 -92 -72 -138.5t-199 -46.5q-69 -1 -174 2q-6 1 -6 8zM186 285v-193q20 -2 74 -2q144 0 144 98q0 97 -131 97h-87zM186 553v-174h86
q113 0 113 88q0 46 -30.5 67t-91.5 21q-55 0 -77 -2z" />
    <glyph glyph-name="C" unicode="C" horiz-adv-x="561" 
d="M50 321q0 144 91.5 239.5t240.5 95.5q84 0 128 -21q5 -3 5 -10v-87q0 -11 -7 -6q-55 23 -122 23q-98 0 -157.5 -62t-59.5 -169q0 -65 20 -112.5t53.5 -71.5t68.5 -34.5t72 -10.5q78 0 131 24q7 3 7 -5v-85q0 -8 -6 -12q-54 -26 -152 -26q-62 0 -116.5 18.5t-99.5 56.5
t-71 103.5t-26 151.5z" />
    <glyph glyph-name="D" unicode="D" horiz-adv-x="638" 
d="M72 8v630q0 6 7 7q102 2 186 2q156 0 238.5 -84.5t82.5 -231.5q0 -82 -23.5 -144t-59 -97t-83.5 -56.5t-89 -28.5t-85 -7q-70 0 -168 2q-6 0 -6 8zM188 553v-462q7 0 28.5 -0.5t35.5 -0.5q100 0 157.5 58t57.5 180q0 114 -53 170.5t-149 56.5q-59 0 -77 -2z" />
    <glyph glyph-name="E" unicode="E" horiz-adv-x="509" 
d="M479 87l-14 -79q-1 -8 -10 -8h-374q-8 0 -8 8v629q0 8 8 8h362q8 0 9 -6l10 -80q2 -9 -6 -9h-267v-173h240q7 0 7 -7v-81q0 -7 -8 -7h-239v-187h283q8 0 7 -8z" />
    <glyph glyph-name="F" unicode="F" horiz-adv-x="484" 
d="M189 266v-258q0 -8 -8 -8h-102q-6 0 -6 8v630q0 7 7 7h363q8 0 9 -7l9 -80q1 -8 -7 -8h-265v-189h238q7 0 7 -8v-80q0 -7 -8 -7h-237z" />
    <glyph glyph-name="G" unicode="G" horiz-adv-x="640" 
d="M463 250l-104 3q-8 0 -8 9v76q0 7 7 7h213q8 0 8 -8v-294q0 -7 -7 -11q-88 -41 -200 -41q-160 0 -241 92t-81 234q0 157 94 247.5t242 90.5q110 0 166 -33q6 -2 6 -12v-87q0 -10 -8 -6q-71 38 -162 38q-103 0 -161 -60.5t-58 -174.5q0 -101 55.5 -166.5t158.5 -65.5
q50 0 80 14v148z" />
    <glyph glyph-name="H" unicode="H" horiz-adv-x="641" 
d="M560 0h-100q-9 0 -9 8v274h-262v-273q0 -9 -8 -9h-100q-8 0 -8 9v628q0 8 8 8h100q8 0 8 -7v-261h262v261q0 7 8 7h102q6 0 6 -7v-630q0 -8 -7 -8z" />
    <glyph glyph-name="I" unicode="I" horiz-adv-x="262" 
d="M189 638v-629q0 -9 -8 -9h-100q-8 0 -8 9v629q0 7 8 7h101q7 0 7 -7z" />
    <glyph glyph-name="J" unicode="J" horiz-adv-x="368" 
d="M179 153v485q0 7 7 7h102q7 0 7 -6v-486q0 -211 -190 -211q-65 0 -100 19q-7 2 -7 11v84q0 9 8 6q42 -19 87 -19q46 0 66 23.5t20 86.5z" />
    <glyph glyph-name="K" unicode="K" horiz-adv-x="594" 
d="M180 0h-99q-8 0 -8 9v629q0 7 7 7h102q7 0 7 -7v-264h58q9 0 16 10q25 37 81.5 127t82.5 128q4 6 12 6h108q11 0 5 -10q-130 -199 -206 -296q-3 -4 0 -9q36 -44 73.5 -94.5t91.5 -126.5t70 -99q3 -4 1.5 -7t-5.5 -3h-117q-10 0 -16 7q-29 39 -93.5 131.5t-91.5 129.5
q-7 10 -17 10h-53v-269q0 -9 -9 -9z" />
    <glyph glyph-name="L" unicode="L" horiz-adv-x="490" 
d="M446 0h-364q-9 0 -9 10v627q0 8 8 8h101q7 0 7 -7v-543h275q9 0 7 -8l-16 -80q-1 -7 -9 -7z" />
    <glyph glyph-name="M" unicode="M" horiz-adv-x="827" 
d="M123 640q1 5 8 5h148q8 0 9 -6q120 -433 128 -470h1q8 35 33.5 125.5t57 200t41.5 144.5q1 6 8 6h142q6 0 7 -5l63 -632q0 -8 -8 -8h-110q-7 0 -8 7q-31 486 -32 546h-1q-8 -39 -32.5 -131t-59.5 -218.5t-53 -196.5q-1 -7 -9 -7h-91q-9 0 -10 7q-115 429 -142 547h-1
q-3 -86 -43 -547q-1 -7 -8 -7h-95q-8 0 -8 7z" />
    <glyph glyph-name="N" unicode="N" horiz-adv-x="646" 
d="M73 638q0 7 7 7h129q9 0 11 -6q223 -429 246 -487h1q-3 78 -3 166v320q0 7 8 7h93q8 0 8 -8v-628q0 -9 -10 -9h-123q-7 0 -13 7q-24 56 -127 261t-122 252h-1q3 -39 5 -197l-1 -315q0 -8 -7 -8h-93q-8 0 -8 9v629z" />
    <glyph glyph-name="O" unicode="O" horiz-adv-x="676" 
d="M340 655q130 0 208 -92t78 -235q1 -159 -78 -248t-210 -89q-134 0 -211 89t-77 245q0 151 80 240.5t210 89.5zM169 325q0 -107 45.5 -172.5t127.5 -65.5q78 0 121.5 63t43.5 175q0 107 -45.5 170.5t-124.5 63.5q-75 0 -121.5 -61t-46.5 -173z" />
    <glyph glyph-name="P" unicode="P" horiz-adv-x="546" 
d="M73 7v631q0 7 6 7q64 2 176 2q131 0 192.5 -59t62.5 -155q0 -111 -76 -168t-191 -57q-47 0 -55 1v-202q0 -7 -7 -7h-101q-7 0 -7 7zM188 553v-251h18q18 -1 40 -1q64 0 106.5 30t42.5 100q0 60 -36 92t-103 32q-54 0 -68 -2z" />
    <glyph glyph-name="Q" unicode="Q" horiz-adv-x="677" 
d="M337 558q-79 0 -123.5 -63t-44.5 -170q0 -110 46.5 -173.5t126.5 -63.5q76 -1 120.5 60.5t44.5 175.5q0 106 -45 170t-125 64zM341 655q127 0 206 -90t79 -236q0 -115 -38 -187.5t-92 -104.5q87 -74 189 -144q2 -1 1.5 -7.5t-2.5 -6.5l-124 -11q-8 -2 -13 2
q-55 34 -161 127q-12 -6 -45 -6q-132 0 -211.5 89.5t-79.5 241.5q0 154 80.5 243.5t210.5 89.5z" />
    <glyph glyph-name="R" unicode="R" horiz-adv-x="582" 
d="M179 0h-99q-7 0 -7 8v629q0 8 6 8q45 2 185 2q114 0 177.5 -47t63.5 -137q0 -128 -131 -175q28 -36 103 -140t95 -138q8 -10 -3 -10h-119q-8 0 -13 6q-47 68 -152 231q-11 19 -33 19h-66v-249q0 -7 -7 -7zM186 350h73q65 0 97.5 28.5t32.5 76.5q0 49 -34 74.5t-96 25.5
q-64 0 -73 -1v-204z" />
    <glyph glyph-name="S" unicode="S" horiz-adv-x="483" 
d="M224 -9q-120 0 -186 49q-7 4 -7 14v92q0 9 8 5q88 -63 190 -63q51 0 76.5 21t25.5 53t-23.5 54.5t-97.5 56.5q-97 44 -135 88t-38 113q0 77 58 129t161 52q95 0 154 -35q6 -2 6 -11v-88q0 -3 -2.5 -5t-6.5 0q-72 44 -152 44q-57 0 -80.5 -23.5t-23.5 -51.5
q0 -29 22.5 -52t88.5 -52q110 -49 148 -95t38 -112q0 -85 -60.5 -134t-163.5 -49z" />
    <glyph glyph-name="T" unicode="T" 
d="M200 9v541h-188q-8 0 -7 9l13 79q1 7 9 7h474q8 0 9 -7l9 -79q1 -9 -7 -9h-196v-541q0 -9 -8 -9h-99q-9 0 -9 9z" />
    <glyph glyph-name="U" unicode="U" horiz-adv-x="640" 
d="M189 638v-407q0 -70 34 -107t99 -37q129 0 129 147v403q0 8 8 8h100q8 0 8 -8v-405q0 -125 -68.5 -183t-178.5 -58q-114 0 -180.5 58.5t-66.5 177.5v410q0 8 8 8h101q7 0 7 -7z" />
    <glyph glyph-name="V" unicode="V" horiz-adv-x="604" 
d="M310 118h2q22 86 157 520q2 7 10 7h104q9 0 6 -9l-216 -630q-2 -6 -10 -6h-113q-8 0 -10 6l-223 630q-1 9 6 9h110q7 0 8 -6q151 -442 169 -521z" />
    <glyph glyph-name="W" unicode="W" horiz-adv-x="854" 
d="M498 638l112 -509h1q17 97 108 509q1 7 9 7h100q8 0 7 -8l-161 -630q-1 -7 -9 -7h-108q-9 0 -10 7q-79 337 -116 520h-1q-8 -44 -125 -518q-1 -9 -10 -9h-106q-7 0 -10 8l-160 629q-3 8 6 8h107q8 0 10 -6q102 -436 113 -511h1q18 96 117 510q1 7 10 7h106q7 0 9 -7z" />
    <glyph glyph-name="X" unicode="X" horiz-adv-x="575" 
d="M545 635l-182 -303l196 -322q6 -10 -4 -10h-117q-10 0 -14 8l-142 247h-1l-137 -247q-3 -8 -13 -8h-111q-10 0 -4 10l193 314l-185 313q-5 8 5 8h116q9 0 12 -6l133 -244h1l132 243q3 7 12 7h106q9 0 4 -10z" />
    <glyph glyph-name="Y" unicode="Y" horiz-adv-x="565" 
d="M216 262l-201 374q-6 9 5 9h115q7 0 9 -5q119 -242 144 -304q37 83 141 304q1 5 8 5h109q9 0 4 -8l-203 -379q-8 -13 -8 -31v-218q0 -9 -8 -9h-99q-9 0 -9 9v223q0 16 -7 30z" />
    <glyph glyph-name="Z" unicode="Z" 
d="M490 0h-464q-8 0 -8 8v53q0 5 3 12l324 477h-313q-9 0 -8 8l14 80q2 7 9 7h436q5 0 5 -6v-58q0 -7 -4 -15l-315 -471h340q8 0 6 -8l-16 -80q-1 -7 -9 -7z" />
    <glyph glyph-name="bracketleft" unicode="[" horiz-adv-x="309" 
d="M151 678v-774l124 -3q4 0 4 -6v-58q-1 -5 -6 -5h-203q-9 0 -9 9v898q0 9 9 9h203q5 0 5 -5v-58q0 -5 -5 -5z" />
    <glyph glyph-name="backslash" unicode="\" horiz-adv-x="360" 
d="M225 -36l-186 726q-3 7 4 7h79q6 0 8 -6l191 -726q1 -8 -6 -8h-81q-6 0 -9 7z" />
    <glyph glyph-name="bracketright" unicode="]" horiz-adv-x="317" 
d="M168 -98v773l-123 3q-4 0 -4 6v58q0 6 6 6h203q8 0 8 -9v-899q0 -8 -8 -8h-204q-4 0 -4 4v58q0 6 5 6z" />
    <glyph glyph-name="asciicircum" unicode="^" horiz-adv-x="498" 
d="M461 236h-78q-7 0 -10 6l-124 289h-1l-123 -288q-3 -7 -8 -7h-77q-8 0 -5 8l162 362q3 5 7 5h88q6 0 8 -5l165 -361q3 -9 -4 -9z" />
    <glyph glyph-name="underscore" unicode="_" horiz-adv-x="513" 
d="M0 -74h513v-49h-513v49z" />
    <glyph glyph-name="grave" unicode="`" horiz-adv-x="388" 
d="M185 689l78 -144q4 -8 -4 -8h-87q-7 0 -10 5l-101 144q-2 3 -1 6t4 3h111q5 0 10 -6z" />
    <glyph glyph-name="a" unicode="a" horiz-adv-x="481" 
d="M306 87v141q-88 4 -125 -15.5t-37 -61.5q0 -31 23.5 -52t72.5 -21q40 0 66 9zM419 306v-205q0 -41 2 -61q0 -3 -2 -4q-95 -45 -196 -45q-87 0 -140 40t-53 118q0 168 275 159v19q0 15 -5.5 29.5t-28 29t-59.5 14.5q-64 0 -129 -31q-7 -2 -7 5v77q0 7 5 10q68 34 153 34
q91 0 138 -51.5t47 -137.5z" />
    <glyph glyph-name="b" unicode="b" horiz-adv-x="537" 
d="M70 702h101q8 0 8 -7v-220q48 20 104 20q96 0 152.5 -64t56.5 -164q0 -126 -81 -201t-198 -75q-74 0 -145 21q-5 1 -5 9v674q0 7 7 7zM374 255q0 72 -33.5 109.5t-87.5 37.5q-45 0 -74 -16v-300q23 -6 49 -6q58 0 102 45.5t44 129.5z" />
    <glyph glyph-name="c" unicode="c" horiz-adv-x="420" 
d="M387 98v-79q0 -7 -5 -9q-41 -19 -109 -19q-112 0 -171.5 69t-59.5 181q0 111 69 182.5t180 71.5q61 0 93 -16q5 -3 5 -9l-1 -79q0 -10 -7 -5q-37 16 -83 16q-63 0 -100.5 -43t-37.5 -115q0 -81 39 -119t98 -38q47 0 84 15q6 2 6 -4z" />
    <glyph glyph-name="d" unicode="d" horiz-adv-x="535" 
d="M282 -9q-109 0 -174.5 63t-65.5 185q0 111 72.5 183.5t191.5 72.5q32 0 50 -6v207q0 6 6 6h104q6 0 6 -6v-587q0 -36 3 -63q0 -5 -6 -9q-87 -46 -187 -46zM356 92v305q-21 8 -53 8q-64 0 -103.5 -42.5t-39.5 -118.5q0 -81 38 -120.5t97 -39.5q35 0 61 8z" />
    <glyph glyph-name="e" unicode="e" horiz-adv-x="494" 
d="M344 220h-186q2 -62 37 -98t105 -36q62 0 115 23q7 2 7 -5v-76q0 -9 -6 -12q-51 -25 -139 -25q-121 -1 -178.5 70t-57.5 179q0 112 59 183.5t163 71.5q66 0 111.5 -32t64 -76t18.5 -93q0 -62 -9 -67q-17 -7 -104 -7zM159 297h148q40 0 40 7q1 2 1 12q0 32 -21.5 63.5
t-68.5 31.5q-44 0 -68.5 -31t-30.5 -83z" />
    <glyph glyph-name="f" unicode="f" horiz-adv-x="270" 
d="M73 398l-59 1q-6 1 -6 8v73q0 6 6 6h59v16q0 97 45 153t125 56q35 0 57 -9q6 -2 6 -10v-80q0 -7 -7 -6q-17 7 -37 7q-73 0 -73 -104v-23h85q6 0 6 -6v-74q0 -7 -6 -7l-85 -2v-389q0 -8 -8 -8h-101q-7 0 -7 8v390z" />
    <glyph glyph-name="g" unicode="g" horiz-adv-x="495" 
d="M312 329q0 42 -20 65.5t-59 23.5q-36 0 -58.5 -23.5t-22.5 -63.5t21.5 -64t59.5 -24q37 0 58 23t21 63zM377 -64q0 69 -137 69q-39 0 -61 -4q-17 -10 -32 -28t-15 -37q0 -32 32 -55t90 -23q62 0 92.5 22.5t30.5 55.5zM235 495q40 0 77 -7q11 -2 27 -2h132q6 0 6 -7v-72
q0 -6 -6 -6l-74 3q22 -27 22 -78q0 -77 -51.5 -118.5t-131.5 -41.5q-21 0 -35 4q-9 -14 -9 -36q0 -25 15 -40q8 1 47 1q113 0 174 -33t61 -112q0 -75 -65.5 -125.5t-174.5 -50.5q-102 0 -162.5 44.5t-60.5 114.5q0 55 87 123q-22 31 -22 72q0 35 19 65q-67 41 -67 135
q0 74 52.5 120.5t139.5 46.5z" />
    <glyph glyph-name="h" unicode="h" horiz-adv-x="531" 
d="M63 7v688q0 7 7 7h102q7 0 7 -7v-242q60 42 130 42q66 0 112 -45t46 -150v-292q0 -8 -7 -8h-101q-8 0 -8 7v295q0 98 -80 98q-48 0 -92 -36v-357q0 -7 -7 -7h-102q-7 0 -7 7z" />
    <glyph glyph-name="i" unicode="i" horiz-adv-x="242" 
d="M120 552q-28 0 -46 16.5t-18 44.5q0 27 18.5 43.5t47.5 16.5t46.5 -16.5t17.5 -44.5q0 -27 -18 -43.5t-48 -16.5zM63 8v470q0 8 7 8h102q7 0 7 -7v-471q0 -8 -8 -8h-99q-9 0 -9 8z" />
    <glyph glyph-name="j" unicode="j" horiz-adv-x="243" 
d="M64 -23v501q0 8 8 8h100q8 0 8 -7v-433q0 -96 -10.5 -142.5t-34.5 -76.5q-40 -47 -114 -47q-30 0 -40 3q-7 3 -7 10v74q0 8 7 8q47 -2 65 19t18 83zM122 552q-29 0 -47 16.5t-18 44.5q0 27 18.5 43.5t47.5 16.5t46.5 -16.5t17.5 -44.5q0 -27 -18 -43.5t-47 -16.5z" />
    <glyph glyph-name="k" unicode="k" horiz-adv-x="500" 
d="M63 695q0 7 8 7h100q8 0 8 -7v-402h37q10 0 15 6q13 21 57 89.5t58 91.5q4 6 11 6h104q9 0 5 -9q-32 -55 -153 -215q-4 -5 0 -9q17 -21 187 -244q2 -3 1 -6t-5 -3h-127q-7 0 -12 6q-20 30 -63.5 91.5t-66.5 94.5q-6 9 -15 9h-33v-193q0 -8 -8 -8h-100q-8 0 -8 8v687z" />
    <glyph glyph-name="l" unicode="l" horiz-adv-x="257" 
d="M63 109v586q0 7 8 7h100q8 0 8 -8v-580q0 -20 7 -27.5t21 -7.5q3 0 10 0.5t11 0.5q2 1 3.5 -0.5t1.5 -4.5v-65q0 -8 -6 -10q-20 -10 -60 -10q-50 0 -77 26t-27 93z" />
    <glyph glyph-name="m" unicode="m" horiz-adv-x="812" 
d="M594 495q28 0 53 -9t49 -29t38.5 -58.5t14.5 -90.5v-300q0 -8 -9 -8h-99q-8 0 -8 9v295q0 96 -77 96q-49 0 -97 -41q5 -22 5 -53v-298q0 -8 -8 -8h-100q-8 0 -8 8v296q0 96 -77 96q-45 0 -92 -39v-353q0 -8 -8 -8h-101q-7 0 -7 8v372q0 65 -5 98q0 8 7 8h88q6 0 10 -6
q1 -4 2.5 -11t3 -16.5t2.5 -12.5q66 55 140 55q83 0 121 -64q78 64 162 64z" />
    <glyph glyph-name="n" unicode="n" horiz-adv-x="530" 
d="M63 8v364q0 72 -5 107q0 7 7 7h86q8 0 12 -7q5 -14 7 -38q62 54 142 54q66 0 110.5 -44t44.5 -150v-293q0 -8 -8 -8h-99q-9 0 -9 8v293q0 99 -80 99q-51 0 -92 -41v-352q0 -7 -8 -7h-101q-7 0 -7 8z" />
    <glyph glyph-name="o" unicode="o" horiz-adv-x="541" 
d="M273 495q107 0 166.5 -69.5t59.5 -180.5q0 -118 -62 -186t-166 -68q-78 0 -131.5 37.5t-75.5 92.5t-22 122q0 112 62.5 182t168.5 70zM268 409q-49 0 -79 -43.5t-30 -120.5t29.5 -122.5t84.5 -45.5q48 0 78.5 40.5t30.5 124.5q0 76 -28 121.5t-86 45.5z" />
    <glyph glyph-name="p" unicode="p" horiz-adv-x="534" 
d="M261 495q112 0 171.5 -65.5t59.5 -169.5q0 -124 -82 -196.5t-193 -72.5q-24 0 -38 3v-188q0 -7 -8 -8l-101 -9q-7 -1 -7 6v599q0 17 -3 56q0 5 3 6q120 39 198 39zM249 402q-30 0 -70 -10v-306q18 -6 42 -6q65 0 109 46t44 128q0 72 -34.5 110t-90.5 38z" />
    <glyph glyph-name="q" unicode="q" horiz-adv-x="535" 
d="M270 -9q-101 0 -164.5 64t-63.5 179q0 113 75 187t201 74q81 0 155 -28q3 -1 3 -6q-4 -27 -4 -61v-594q0 -7 -6 -8q-88 -8 -104 -9q-6 0 -6 7v209q-35 -14 -86 -14zM356 95v303q-18 7 -51 7q-65 0 -105 -43.5t-40 -120.5q0 -80 39.5 -118.5t94.5 -38.5q39 0 62 11z" />
    <glyph glyph-name="r" unicode="r" horiz-adv-x="343" 
d="M64 486h89q8 0 11 -8q6 -20 10 -58q26 35 66 55t76 20q8 0 12 -1q5 0 5 -8v-91q0 -7 -7 -7q-42 2 -82.5 -13.5t-64.5 -41.5v-326q0 -7 -7 -7h-101q-8 0 -8 8v338q0 81 -5 134q-2 6 6 6z" />
    <glyph glyph-name="s" unicode="s" horiz-adv-x="386" 
d="M327 370q-63 35 -129 35q-60 0 -60 -43q0 -19 16 -32.5t69 -37.5q75 -33 106 -66t31 -84q0 -73 -49.5 -112t-130.5 -39q-88 0 -144 36q-7 4 -7 10v89q0 9 8 5q78 -50 150 -50q31 0 46 13.5t15 32.5t-17.5 34t-68.5 38q-72 32 -101.5 66t-29.5 88q0 63 46.5 102.5
t128.5 39.5q77 0 124 -27q6 -4 6 -12l-1 -80q0 -12 -8 -6z" />
    <glyph glyph-name="t" unicode="t" horiz-adv-x="312" 
d="M289 82v-65q0 -9 -6 -11q-33 -15 -85 -15q-125 0 -125 136v271l-60 1q-7 1 -7 9v70q0 8 8 8h59q6 99 10 120q1 8 8 9l96 18q7 1 7 -5q-3 -49 -5 -142h97q7 0 7 -7v-73q0 -6 -6 -7l-98 -1v-251q0 -35 12 -50.5t41 -15.5q22 0 41 7q2 1 4 -0.5t2 -5.5z" />
    <glyph glyph-name="u" unicode="u" 
d="M462 479v-373q0 -46 5 -99q1 -7 -7 -7h-88q-9 0 -11 6q-4 18 -4 34q-58 -49 -138 -49q-68 0 -112 40.5t-44 135.5v312q0 7 7 7h102q7 0 7 -7v-295q0 -99 77 -99q53 0 90 38v355q0 8 8 8h101q7 0 7 -7z" />
    <glyph glyph-name="v" unicode="v" horiz-adv-x="472" 
d="M294 0h-116q-7 0 -10 6q-10 29 -75 222.5t-83 249.5q-2 8 6 8h108q6 0 9 -7q97 -331 109 -386h1q14 55 112 387q2 6 8 6h97q8 0 5 -8q-93 -277 -161 -471q-3 -7 -10 -7z" />
    <glyph glyph-name="w" unicode="w" horiz-adv-x="712" 
d="M555 0h-106q-8 0 -11 8q-61 254 -81 355h-1q-12 -62 -94 -355q-2 -8 -10 -8h-105q-10 0 -13 8l-125 470q-3 8 6 8h103q8 0 9 -6q58 -233 84 -369h2q13 63 90 368q1 7 9 7h102q6 0 7 -6q60 -240 85 -371h1q46 210 89 371q2 6 8 6h94q7 0 6 -7l-139 -471q-3 -8 -10 -8z" />
    <glyph glyph-name="x" unicode="x" horiz-adv-x="461" 
d="M152 240l-141 237q-5 9 6 9h114q8 0 11 -7l90 -174h2l93 176q3 5 9 5h101q8 0 5 -8q-81 -139 -141 -230q23 -38 81.5 -129.5t70.5 -110.5q6 -8 -5 -8h-118q-8 0 -11 7l-97 176h-1l-94 -178q-3 -5 -10 -5h-104q-9 0 -4 9q12 19 43 69.5t56.5 92t43.5 69.5z" />
    <glyph glyph-name="y" unicode="y" horiz-adv-x="463" 
d="M12 486h111q7 0 9 -6q102 -302 112 -340h2q50 144 99 339q3 7 10 7h95q9 0 7 -9q-21 -93 -65 -218t-92 -230q-80 -168 -135 -236q-6 -7 -15 -7h-108q-5 0 -6.5 3t2.5 7q33 42 77.5 111t63.5 111q4 10 2 15q-81 192 -175 445q-2 8 6 8z" />
    <glyph glyph-name="z" unicode="z" horiz-adv-x="409" 
d="M377 0h-355q-5 0 -5 6v51q0 5 3 10q12 17 226 327q-19 -1 -92 -1h-131q-7 0 -6 9l13 76q2 8 8 8h336q5 0 6 -6v-52q0 -7 -5 -14q-136 -208 -219 -323q34 1 109 1h129q7 0 6 -8l-15 -77q-1 -7 -8 -7z" />
    <glyph glyph-name="braceleft" unicode="{" horiz-adv-x="374" 
d="M32 249q-5 0 -5 7v74q0 4 5 6q65 -1 89.5 19.5t26.5 68.5q0 22 -3.5 78t-3.5 77q0 26 9 51.5t29 53t60.5 48t96.5 29.5q7 1 7 -5v-73q0 -5 -5 -6q-99 -22 -99 -105q-1 -24 2.5 -77t3.5 -73q0 -103 -102 -127v-3q104 -21 104 -130q1 -24 -3.5 -79.5t-4.5 -78.5
q0 -40 22 -65t79 -36q5 -1 5 -7v-73q0 -6 -5 -6q-97 10 -147.5 56.5t-50.5 120.5q0 27 4.5 79.5t4.5 77.5q0 50 -26.5 74.5t-92.5 23.5z" />
    <glyph glyph-name="bar" unicode="|" horiz-adv-x="230" 
d="M164 -196h-98v980h98v-980z" />
    <glyph glyph-name="braceright" unicode="}" horiz-adv-x="374" 
d="M341 335q5 0 5 -7v-74q0 -5 -6 -5q-64 0 -89 -20.5t-27 -68.5q0 -22 3.5 -81t3.5 -80q0 -26 -9 -51.5t-29 -52.5t-60.5 -47.5t-96.5 -29.5q-7 -2 -7 4v73q0 5 5 7q100 21 100 105q0 22 -3 77.5t-3 77.5q-2 102 101 127v3q-102 21 -104 131q0 23 4.5 76t4.5 76
q0 40 -22.5 64.5t-79.5 35.5q-5 3 -5 7v74q0 3 1.5 4.5t3.5 0.5q98 -10 148.5 -56.5t50.5 -120.5q0 -27 -5 -76.5t-5 -74.5q0 -49 27 -73.5t93 -24.5z" />
    <glyph glyph-name="asciitilde" unicode="~" horiz-adv-x="558" 
d="M119 190h-68q-6 0 -6 8q-4 89 31.5 131t93.5 42q32 0 58 -12t69 -44q38 -27 56.5 -37t36.5 -10q24 0 34 19.5t9 70.5q0 7 7 7h67q7 0 7 -7q6 -94 -29 -134.5t-92 -40.5t-127 53q-10 7 -24.5 18t-21 15.5t-15.5 10t-15.5 7.5t-14.5 2q-51 0 -49 -92q0 -7 -7 -7z" />
    <glyph glyph-name="uni00A0" unicode="&#xa0;" horiz-adv-x="217" 
 />
    <glyph glyph-name="exclamdown" unicode="&#xa1;" horiz-adv-x="279" 
d="M116 -201q-44 0 -59 9q-6 4 -6 10v73q0 54 8 177.5t12 162.5q0 6 7 6h76q6 0 7 -6q19 -266 19 -336v-74q0 -8 -6 -10q-21 -12 -58 -12zM117 462q30 0 49.5 -18.5t19.5 -48.5q0 -29 -19.5 -48t-49.5 -19q-31 0 -51 19t-20 48q0 31 19.5 49t51.5 18z" />
    <glyph glyph-name="cent" unicode="&#xa2;" horiz-adv-x="521" 
d="M355 98v-85q0 -6 -6 -6h-79q-6 0 -6 6v86q-83 11 -135 71t-52 153q0 92 53.5 153.5t134.5 76.5v84q0 6 6 6h78q6 0 6 -6v-79q47 0 79 -18q5 -2 5 -9v-80q0 -9 -9 -6q-45 20 -99 20q-62 0 -100 -37t-38 -99q0 -71 42 -104.5t100 -33.5q56 0 101 21q6 2 6 -5v-79
q0 -6 -6 -9q-32 -19 -81 -21z" />
    <glyph glyph-name="sterling" unicode="&#xa3;" horiz-adv-x="521" 
d="M456 0h-413q-6 0 -6 5v68q0 5 5 7q51 16 75.5 63t24.5 109v26h-82q-5 0 -5 7v70q0 6 6 6h75v64q0 106 56 168t152 62q64 0 97 -18q8 -4 8 -12v-77q0 -9 -7 -6q-37 17 -85 17q-105 0 -105 -135v-63h137q6 0 6 -6v-71q0 -6 -6 -6h-135q-3 -124 -71 -182h289q9 0 6 -7
l-15 -83q-1 -6 -7 -6z" />
    <glyph glyph-name="currency" unicode="&#xa4;" horiz-adv-x="521" 
d="M160 324q0 -58 29.5 -86t69.5 -28q42 0 70.5 26.5t28.5 87.5q0 48 -26.5 81t-74.5 33q-44 0 -70.5 -31t-26.5 -83zM73 323q0 57 31 103l-71 69q-4 4 0 8l46 48q5 5 9 0l70 -69q42 31 100 31t102 -31l70 67q5 5 9 0l45 -46q4 -4 -1 -9l-69 -68q30 -43 30 -103
q0 -61 -30 -103l68 -67q5 -5 0 -9l-45 -45q-5 -5 -10 1l-64 67q-39 -32 -104 -32q-63 0 -105 31l-62 -67q-6 -4 -10 0l-45 43q-5 6 -1 10l67 67q-30 42 -30 104z" />
    <glyph glyph-name="yen" unicode="&#xa5;" horiz-adv-x="521" 
d="M306 0h-99q-8 1 -8 8v145h-124q-7 0 -7 7v58q0 6 7 6h124v61h-124q-7 0 -7 7v56q0 6 8 6h106l-162 285q-4 6 4 6h113q7 0 8 -4q102 -209 116 -255h2q16 48 111 253q3 6 9 6h109q7 0 4 -7l-160 -284h105q5 0 5 -5v-58q0 -6 -6 -6h-127v-61h127q6 0 6 -5v-59q0 -7 -7 -7
h-126v-146q-1 -7 -7 -7z" />
    <glyph glyph-name="brokenbar" unicode="&#xa6;" horiz-adv-x="230" 
d="M164 392h-98v392h98v-392zM164 196v-392h-98v392h98z" />
    <glyph glyph-name="section" unicode="&#xa7;" horiz-adv-x="485" 
d="M346 -9q47 47 47 118q0 51 -24 98t-91 117q-77 81 -99 119t-24 80q-36 -46 -36 -113q1 -49 25.5 -94t97.5 -126q63 -71 86.5 -114t17.5 -85zM72 -83v78q0 7 7 4q73 -54 147 -54q49 0 49 33q0 25 -18.5 53.5t-85.5 101.5q-72 81 -100.5 135.5t-28.5 119.5
q0 104 72.5 185.5t176.5 81.5q84 0 125 -32q3 -3 5 -9v-75q0 -3 -3.5 -4.5t-5.5 0.5q-57 42 -123 42q-28 0 -44.5 -12t-16.5 -29q0 -20 17 -44t84 -93q74 -76 109 -133.5t35 -134.5q0 -109 -72 -189.5t-176 -80.5q-49 0 -89.5 14.5t-58.5 30.5q-5 5 -5 11z" />
    <glyph glyph-name="dieresis" unicode="&#xa8;" horiz-adv-x="388" 
d="M99 553q-26 0 -42 16t-16 44q0 27 17 43.5t42 16.5q26 0 42 -16.5t16 -44.5q0 -27 -17 -43t-42 -16zM286 553q-25 0 -41.5 16t-16.5 44q0 27 17 43.5t42 16.5q26 0 42 -16.5t16 -44.5q0 -27 -16.5 -43t-42.5 -16z" />
    <glyph glyph-name="copyright" unicode="&#xa9;" horiz-adv-x="747" 
d="M49 325q0 138 93.5 231.5t231.5 93.5q137 0 230 -93.5t93 -232.5q0 -142 -92.5 -235t-230.5 -93q-139 0 -232 93.5t-93 235.5zM112 325q0 -118 75.5 -195t186.5 -77q118 0 189 75.5t71 195.5q0 117 -75 193.5t-186 76.5q-115 0 -188 -76.5t-73 -192.5zM501 234v-58
q0 -4 -6 -7q-36 -22 -100 -22q-84 0 -134.5 51t-50.5 125q0 78 54 130t139 52q58 0 90 -17q4 -3 4 -9v-59q0 -6 -7 -4q-34 17 -78 17q-50 0 -81 -29.5t-31 -76.5q0 -52 32.5 -80t77.5 -28q46 0 85 18q6 4 6 -3z" />
    <glyph glyph-name="ordfeminine" unicode="&#xaa;" horiz-adv-x="341" 
d="M164 607q64 0 100 -34.5t35 -90.5v-171q0 -5 -5 -8q-68 -22 -130 -22q-63 0 -102 25t-39 78q0 92 192 102v9q0 44 -64 44q-48 0 -90 -18q-6 -1 -6 5v54q0 4 3 6q47 21 106 21zM106 386q0 -42 64 -42q29 0 45 6v81q-109 -5 -109 -45z" />
    <glyph glyph-name="guillemotleft" unicode="&#xab;" horiz-adv-x="649" 
d="M76 215v57q0 6 5 8l221 175q9 5 9 -5v-82q0 -8 -6 -12l-135 -113l136 -114q5 -4 5 -11v-84q0 -12 -10 -5l-221 177q-4 3 -4 9zM329 215v57q0 4 5 6l221 177q9 5 9 -5v-82q0 -8 -6 -12l-135 -113l135 -113q6 -5 6 -12v-84q0 -12 -10 -5l-220 177q-5 3 -5 9z" />
    <glyph glyph-name="logicalnot" unicode="&#xac;" horiz-adv-x="547" 
d="M36 399h473q6 0 6 -6v-278q0 -6 -5 -6h-75q-6 0 -6 6v200h-392q-6 0 -6 7v71q0 6 5 6z" />
    <glyph glyph-name="uni00AD" unicode="&#xad;" horiz-adv-x="335" 
d="M279 202h-223q-6 0 -6 7v84q0 6 6 6h222q7 0 7 -6v-85q0 -6 -6 -6z" />
    <glyph glyph-name="registered" unicode="&#xae;" horiz-adv-x="195" 
d="M113 442q-43 0 -71 28.5t-28 70.5q0 41 28 69.5t72 28.5q42 0 69.5 -28.5t27.5 -69.5q0 -43 -28 -71t-70 -28zM113 463q33 -1 53.5 21t20.5 56t-21.5 56.5t-54.5 22.5q-32 0 -52.5 -22t-20.5 -57q0 -33 21 -55t54 -22zM99 529v-33q0 -2 -2 -2h-20q-3 0 -3 2v92q0 2 3 2
h34q42 0 42 -29q0 -19 -21 -27q2 -2 13.5 -17t14.5 -20q2 -3 -2 -3h-22q-4 0 -5 2l-20 30q-1 3 -4 3h-8zM99 571v-25h10q19 0 19 13q0 12 -19 12h-10z" />
    <glyph glyph-name="macron" unicode="&#xaf;" horiz-adv-x="388" 
d="M61 657h267q6 0 6 -6v-70q0 -7 -6 -7h-268q-6 0 -6 7v69q0 7 7 7z" />
    <glyph glyph-name="degree" unicode="&#xb0;" horiz-adv-x="283" 
d="M143 621q53 0 88 -35.5t35 -90.5q0 -54 -34.5 -90t-88.5 -36q-55 0 -90 36t-35 90t35.5 90t89.5 36zM143 563q-27 0 -45 -19.5t-18 -48.5t18 -48t45 -19t44.5 19t17.5 48t-18 48.5t-44 19.5z" />
    <glyph glyph-name="plusminus" unicode="&#xb1;" horiz-adv-x="547" 
d="M30 77q0 7 8 7h471q8 0 8 -8v-67q0 -9 -9 -9h-468q-10 0 -10 8v69zM237 616h73q7 0 7 -7v-192h192q8 0 8 -7v-68q0 -8 -7 -8h-193v-193q0 -8 -7 -8h-73q-7 0 -7 8v193h-193q-7 0 -7 7v69q0 7 7 7h193v193q0 6 7 6z" />
    <glyph glyph-name="twosuperior" unicode="&#xb2;" horiz-adv-x="325" 
d="M285 448h-255q-4 0 -4 5v42q0 4 2 6q8 6 30.5 22.5t33.5 25t30.5 24t30 27.5t22 26.5t16.5 28.5t5 28q0 27 -17.5 43.5t-51.5 16.5q-42 0 -91 -26q-7 -5 -7 3v57q0 5 5 8q52 31 115 31t97.5 -33t34.5 -85q0 -49 -32 -89t-94 -90h145q4 0 4 -5l-12 -61q-2 -5 -7 -5z" />
    <glyph glyph-name="threesuperior" unicode="&#xb3;" horiz-adv-x="321" 
d="M129 601h-33q-5 0 -5 4v51q0 5 5 5h33q63 0 63 43q0 20 -16 32.5t-48 12.5q-44 0 -87 -23q-6 -2 -6 3v54q0 5 3 6q49 27 109 27t92.5 -27t32.5 -68q0 -57 -60 -80v-1q77 -19 77 -87q0 -54 -41.5 -82.5t-105.5 -28.5q-63 0 -106 24q-5 1 -5 8v59q0 5 5 3q48 -27 102 -27
q33 0 50 13t17 33q0 46 -76 46z" />
    <glyph glyph-name="acute" unicode="&#xb4;" horiz-adv-x="388" 
d="M137 544l74 143q5 8 11 8h109q10 0 5 -9l-96 -144q-4 -5 -13 -5h-86q-7 0 -4 7z" />
    <glyph glyph-name="mu" unicode="&#xb5;" horiz-adv-x="544" 
d="M464 480v-357q1 -47 36 -47q12 0 22 2q3 1 4 -0.5t1 -4.5v-63q0 -6 -4 -8q-22 -11 -60 -11q-83 0 -96 79q0 1 -0.5 6t-0.5 6q-39 -92 -125 -92q-49 0 -70 28q6 -71 4 -209q0 -7 -7 -8q-65 -9 -98 -9q-7 0 -7 8v679q0 7 8 7h101q7 0 7 -7v-322q0 -33 17 -53.5t49 -20.5
q44 0 73.5 42t29.5 126v229q0 6 6 6h105q5 0 5 -6z" />
    <glyph glyph-name="paragraph" unicode="&#xb6;" horiz-adv-x="479" 
d="M350 -165q-4 -4 -10 -4h-64q-6 0 -4 7q40 72 40 185v18q-42 3 -80 13t-74 30.5t-62 49t-41.5 73t-15.5 98.5q0 104 69.5 175.5t200.5 88.5q4 48 18 77q3 5 9 5h64q6 0 5 -6q-16 -64 -16 -110q0 -94 2 -244t2 -229q0 -165 -43 -227z" />
    <glyph glyph-name="periodcentered" unicode="&#xb7;" horiz-adv-x="281" 
d="M141 183q-31 0 -50.5 19.5t-19.5 51.5q0 31 20 50.5t50 19.5t49.5 -20t19.5 -50q0 -32 -18.5 -51.5t-50.5 -19.5z" />
    <glyph glyph-name="cedilla" unicode="&#xb8;" horiz-adv-x="388" 
d="M170 8h71l-34 -47q81 -24 81 -91q0 -41 -32 -67t-83 -26q-46 0 -69 13q-6 2 -6 10v47q0 9 7 5q31 -12 61 -12q40 0 40 28q0 34 -89 47q-2 2 -2 11.5t2 11.5z" />
    <glyph glyph-name="onesuperior" unicode="&#xb9;" horiz-adv-x="260" 
d="M105 455v281q-30 -12 -65 -18q-5 -2 -5 4v52q0 3 4 5q45 10 88 30q4 2 9 2h55q4 0 4 -5v-352q0 -6 -5 -6h-79q-6 0 -6 7z" />
    <glyph glyph-name="ordmasculine" unicode="&#xba;" horiz-adv-x="384" 
d="M195 607q76 0 118.5 -45t42.5 -116q0 -78 -44 -121.5t-119 -43.5q-85 0 -125 46.5t-40 116.5q0 72 44.5 117.5t122.5 45.5zM193 542q-34 0 -53.5 -25t-19.5 -71q0 -44 19 -71t55 -27q32 0 52 24t20 72q0 42 -17.5 70t-55.5 28z" />
    <glyph glyph-name="guillemotright" unicode="&#xbb;" horiz-adv-x="649" 
d="M574 268v-56q0 -5 -5 -8l-222 -175q-9 -5 -9 5v81q0 9 6 12l135 114l-135 113q-6 4 -6 12v83q0 11 10 6l221 -178q5 -3 5 -9zM320 268v-56q0 -4 -5 -7l-221 -176q-9 -6 -9 5v81q0 8 6 13l135 113l-135 113q-6 4 -6 12v83q0 11 10 6l220 -178q5 -3 5 -9z" />
    <glyph glyph-name="onequarter" unicode="&#xbc;" horiz-adv-x="706" 
d="M107 294v281q-30 -12 -65 -18q-5 -1 -5 4v52q0 3 4 5q45 10 88 30q4 2 9 2h55q4 0 4 -5v-352q0 -6 -5 -6h-79q-6 0 -6 7zM207 -10h-69q-7 0 -4 6l340 655q2 4 7 4h70q5 0 3 -5l-339 -655q-3 -5 -8 -5zM379 92v37q0 5 3 8q103 142 161 220q4 5 9 5h60q6 0 6 -6v-212h57
q3 0 3 -4l-7 -48q-1 -4 -5 -4h-48v-83q0 -6 -6 -6h-70q-5 0 -5 6v83h-154q-4 0 -4 4zM448 144h89q0 52 1 91t1 41h-1q-18 -30 -90 -132z" />
    <glyph glyph-name="onehalf" unicode="&#xbd;" horiz-adv-x="725" 
d="M102 294v281q-28 -11 -65 -18q-5 -1 -5 4v52q0 3 3 5q41 9 89 30q4 2 8 2h56q4 0 4 -5v-352q0 -6 -6 -6h-78q-6 0 -6 7zM188 -10h-69q-7 0 -4 6l340 655q2 4 7 4h70q6 0 3 -5l-339 -655q-2 -5 -8 -5zM681 0h-255q-5 0 -5 5v41q0 3 3 6q9 7 30.5 23t33.5 25t30.5 24.5
t29 27.5t22 26.5t16.5 28.5t5 28q0 27 -17 43.5t-51 16.5q-42 0 -91 -27q-7 -4 -7 4v57q0 5 5 8q48 30 115 31q63 0 97.5 -33t34.5 -85q0 -50 -32 -90t-94 -89h145q4 0 4 -5l-12 -61q-2 -5 -7 -5z" />
    <glyph glyph-name="threequarters" unicode="&#xbe;" horiz-adv-x="738" 
d="M137 440h-33q-5 0 -5 4v51q0 5 5 5h33q62 0 62 43q0 20 -16 32.5t-47 12.5q-44 0 -87 -23q-6 -2 -6 3v54q0 5 3 6q49 27 109 27t92.5 -27t32.5 -68q0 -57 -60 -80v-1q77 -19 77 -87q0 -54 -41.5 -82.5t-105.5 -28.5q-63 0 -106 24q-5 1 -5 8v59q0 6 5 3q47 -27 102 -27
q33 0 49.5 13t16.5 33q0 46 -75 46zM251 -10h-69q-7 0 -4 6l340 655q3 4 7 4h70q6 0 3 -5l-339 -655q-3 -5 -8 -5zM414 92v36q0 4 3 9q17 22 83.5 113.5t77.5 106.5q4 5 9 5h60q6 0 6 -6v-212h57q4 0 4 -4l-8 -48q-1 -4 -5 -4h-48v-83q0 -6 -5 -6h-70q-6 0 -6 6v83h-153
q-5 0 -5 4zM484 144h88q0 69 3 132h-2q-16 -27 -89 -132z" />
    <glyph glyph-name="questiondown" unicode="&#xbf;" horiz-adv-x="400" 
d="M217 -201q-82 0 -132 44t-50 114q0 37 21 73.5t46.5 60t46.5 50t21 45.5q0 26 -18 53q-3 8 5 8h84q7 0 12 -5q25 -28 25 -67q0 -27 -19.5 -55.5t-42.5 -49.5t-42.5 -49t-19.5 -54q0 -31 23 -51.5t65 -20.5q56 0 114 24q7 3 7 -4v-77q0 -7 -4 -9q-57 -30 -142 -30z
M205 463q30 0 48.5 -18t18.5 -49q0 -30 -19 -48.5t-48 -18.5q-30 0 -48.5 19t-18.5 48q0 31 18 49t49 18z" />
    <glyph glyph-name="Agrave" unicode="&#xc0;" horiz-adv-x="620" 
d="M410 181h-212l-57 -173q-1 -8 -9 -8h-97q-10 0 -7 9q171 508 194 577q6 20 7 53q0 6 6 6h133q6 0 8 -5q32 -92 105.5 -309.5t109.5 -321.5q3 -9 -5 -9h-107q-7 0 -9 6zM222 277h164q-5 18 -39 124t-44 147h-1q-11 -49 -80 -271zM264 805l103 -111q6 -8 -4 -8h-95
q-8 0 -14 5l-123 111q-6 8 4 8h117q8 0 12 -5z" />
    <glyph glyph-name="Aacute" unicode="&#xc1;" horiz-adv-x="620" 
d="M410 181h-212l-57 -173q-1 -8 -9 -8h-97q-10 0 -7 9q171 508 194 577q6 20 7 53q0 6 6 6h133q6 0 8 -5q32 -92 105.5 -309.5t109.5 -321.5q3 -9 -5 -9h-107q-7 0 -9 6zM222 277h164q-5 18 -39 124t-44 147h-1q-11 -49 -80 -271zM236 694l103 112q3 4 11 4h115q4 0 4.5 -3
t-1.5 -5l-118 -110q-8 -6 -14 -6h-95q-9 0 -5 8z" />
    <glyph glyph-name="Acircumflex" unicode="&#xc2;" horiz-adv-x="620" 
d="M410 181h-212l-57 -173q-1 -8 -9 -8h-97q-10 0 -7 9q171 508 194 577q6 20 7 53q0 6 6 6h133q6 0 8 -5q32 -92 105.5 -309.5t109.5 -321.5q3 -9 -5 -9h-107q-7 0 -9 6zM222 277h164q-5 18 -39 124t-44 147h-1q-11 -49 -80 -271zM363 689l-60 62l-60 -62q-5 -6 -11 -6h-85
q-4 0 -5 3t2 6l108 112q4 4 9 4h87q8 0 11 -5l113 -113q5 -7 -4 -7h-93q-7 0 -12 6z" />
    <glyph glyph-name="Atilde" unicode="&#xc3;" horiz-adv-x="620" 
d="M410 181h-212l-57 -173q-1 -8 -9 -8h-97q-10 0 -7 9q171 508 194 577q6 20 7 53q0 6 6 6h133q6 0 8 -5q32 -92 105.5 -309.5t109.5 -321.5q3 -9 -5 -9h-107q-7 0 -9 6zM222 277h164q-5 18 -39 124t-44 147h-1q-11 -49 -80 -271zM214 691h-63q-8 0 -8 7q0 60 27.5 90.5
t69.5 30.5q34 0 73 -24t51 -24q23 0 28 40q0 6 6 6h63q7 0 7 -7q-3 -120 -93 -120q-31 0 -70 23.5t-54 23.5q-27 0 -30 -40q-2 -6 -7 -6z" />
    <glyph glyph-name="Adieresis" unicode="&#xc4;" horiz-adv-x="620" 
d="M410 181h-212l-57 -173q-1 -8 -9 -8h-97q-10 0 -7 9q171 508 194 577q6 20 7 53q0 6 6 6h133q6 0 8 -5q32 -92 105.5 -309.5t109.5 -321.5q3 -9 -5 -9h-107q-7 0 -9 6zM222 277h164q-5 18 -39 124t-44 147h-1q-11 -49 -80 -271zM203 691q-27 0 -44.5 16t-17.5 42t18 42.5
t46 16.5q27 0 44.5 -17t17.5 -42q0 -27 -18 -42.5t-46 -15.5zM404 692q-27 0 -44 15t-17 42q0 25 18 42t45 17t44.5 -16.5t17.5 -42.5q0 -27 -17.5 -42t-46.5 -15z" />
    <glyph glyph-name="Aring" unicode="&#xc5;" horiz-adv-x="620" 
d="M410 181h-212l-57 -173q-1 -8 -9 -8h-97q-10 0 -7 9q171 508 194 577q6 20 7 53q0 6 6 6h133q6 0 8 -5q32 -92 105.5 -309.5t109.5 -321.5q3 -9 -5 -9h-107q-7 0 -9 6zM222 277h164q-5 18 -39 124t-44 147h-1q-11 -49 -80 -271zM198 751q0 40 29.5 64t75.5 24
q47 0 76 -24t29 -64t-29.5 -64.5t-75.5 -24.5t-75.5 24t-29.5 65zM260 751q0 -17 12 -28t31 -11q20 0 31.5 10.5t11.5 28.5t-12 28.5t-31 10.5q-20 0 -31.5 -10.5t-11.5 -28.5z" />
    <glyph glyph-name="AE" unicode="&#xc6;" horiz-adv-x="814" 
d="M141 0h-108q-8 0 -5 8l244 582q6 18 13 50q1 5 7 5h427q6 0 7 -6l10 -83q1 -6 -6 -6h-251l20 -184h225q5 0 5 -6v-83q0 -5 -6 -5h-211l19 -177h247q7 0 6 -7l-14 -82q-1 -6 -8 -6h-330q-4 0 -5 4l-22 197h-177l-79 -195q-2 -6 -8 -6zM262 297h132l-18 154q-1 14 -5 54
t-6 59h-2q-17 -55 -38 -110z" />
    <glyph glyph-name="Ccedilla" unicode="&#xc7;" horiz-adv-x="561" 
d="M515 625v-87q0 -11 -7 -6q-55 23 -122 23q-98 0 -157.5 -62t-59.5 -169q0 -65 20 -112.5t53.5 -71.5t68.5 -34.5t72 -10.5q78 0 131 24q7 3 7 -5v-85q0 -8 -6 -12q-44 -21 -129 -26l-22 -30q81 -25 81 -91q0 -42 -32 -67.5t-83 -25.5q-44 0 -70 13q-5 1 -5 8v51q0 6 6 3
q31 -12 62 -12q40 0 40 28q0 36 -89 47q-2 2 -2 11.5t2 11.5l42 55q-55 7 -101.5 29t-84 60.5t-59 99.5t-21.5 139q0 144 91.5 239.5t240.5 95.5q84 0 128 -21q5 -3 5 -10z" />
    <glyph glyph-name="Egrave" unicode="&#xc8;" horiz-adv-x="509" 
d="M479 87l-14 -79q-1 -8 -10 -8h-374q-8 0 -8 8v629q0 8 8 8h362q8 0 9 -6l10 -80q2 -9 -6 -9h-267v-173h240q7 0 7 -7v-81q0 -7 -8 -7h-239v-187h283q8 0 7 -8zM233 813l102 -111q6 -8 -4 -8h-94q-8 0 -14 5l-123 111q-6 8 4 8h117q7 0 12 -5z" />
    <glyph glyph-name="Eacute" unicode="&#xc9;" horiz-adv-x="509" 
d="M479 87l-14 -79q-1 -8 -10 -8h-374q-8 0 -8 8v629q0 8 8 8h362q8 0 9 -6l10 -80q2 -9 -6 -9h-267v-173h240q7 0 7 -7v-81q0 -7 -8 -7h-239v-187h283q8 0 7 -8zM199 699l103 112q4 5 11 5h115q4 0 4.5 -3t-1.5 -6l-119 -109q-5 -6 -13 -6h-96q-3 0 -4.5 2.5t0.5 4.5z" />
    <glyph glyph-name="Ecircumflex" unicode="&#xca;" horiz-adv-x="509" 
d="M479 87l-14 -79q-1 -8 -10 -8h-374q-8 0 -8 8v629q0 8 8 8h362q8 0 9 -6l10 -80q2 -9 -6 -9h-267v-173h240q7 0 7 -7v-81q0 -7 -8 -7h-239v-187h283q8 0 7 -8zM320 698l-61 62l-59 -62q-6 -6 -11 -6h-86q-4 0 -4.5 3t1.5 6l108 112q4 4 10 4h87q8 0 11 -5l112 -113
q2 -2 1 -4.5t-5 -2.5h-92q-6 0 -12 6z" />
    <glyph glyph-name="Edieresis" unicode="&#xcb;" horiz-adv-x="509" 
d="M479 87l-14 -79q-1 -8 -10 -8h-374q-8 0 -8 8v629q0 8 8 8h362q8 0 9 -6l10 -80q2 -9 -6 -9h-267v-173h240q7 0 7 -7v-81q0 -7 -8 -7h-239v-187h283q8 0 7 -8zM161 696q-28 0 -45 15.5t-17 42.5q0 25 18 41.5t46 16.5q27 0 44 -16.5t17 -42.5t-17.5 -41.5t-45.5 -15.5z
M362 696q-27 0 -44.5 15.5t-17.5 41.5t18 42.5t46 16.5q27 0 44.5 -16.5t17.5 -42.5t-17.5 -41.5t-46.5 -15.5z" />
    <glyph glyph-name="Igrave" unicode="&#xcc;" horiz-adv-x="262" 
d="M189 638v-629q0 -9 -8 -9h-100q-8 0 -8 9v629q0 7 8 7h101q7 0 7 -7zM91 812l102 -111q6 -8 -4 -8h-94q-8 0 -14 5l-123 111q-2 2 -1 5t5 3h117q7 0 12 -5z" />
    <glyph glyph-name="Iacute" unicode="&#xcd;" horiz-adv-x="262" 
d="M189 638v-629q0 -9 -8 -9h-100q-8 0 -8 9v629q0 7 8 7h101q7 0 7 -7zM68 696l102 112q3 4 11 4h115q4 0 4.5 -3t-1.5 -5l-118 -110q-8 -6 -14 -6h-95q-10 0 -4 8z" />
    <glyph glyph-name="Icircumflex" unicode="&#xce;" horiz-adv-x="262" 
d="M189 638v-629q0 -9 -8 -9h-100q-8 0 -8 9v629q0 7 8 7h101q7 0 7 -7zM187 692l-61 63l-59 -63q-6 -6 -11 -6h-86q-4 0 -4.5 3t1.5 6l108 112q5 4 10 4h87q8 0 11 -5l112 -113q2 -2 1 -4.5t-5 -2.5h-92q-6 0 -12 6z" />
    <glyph glyph-name="Idieresis" unicode="&#xcf;" horiz-adv-x="262" 
d="M189 638v-629q0 -9 -8 -9h-100q-8 0 -8 9v629q0 7 8 7h101q7 0 7 -7zM29 695q-27 0 -44 15.5t-17 41.5t18 42.5t45 16.5q28 0 45 -16.5t17 -42.5t-17.5 -41.5t-46.5 -15.5zM231 695q-27 0 -44.5 15.5t-17.5 41.5t18 42.5t45 16.5q28 0 45 -16.5t17 -42.5q0 -27 -17.5 -42
t-45.5 -15z" />
    <glyph glyph-name="Eth" unicode="&#xd0;" horiz-adv-x="648" 
d="M83 9v279h-58q-5 0 -5 7v71q0 5 5 5h58v267q0 7 5 7q42 2 180 2q157 0 243 -83t86 -232q0 -83 -24.5 -146t-60.5 -98t-85 -56.5t-90 -28t-84 -6.5q-87 0 -163 3q-7 0 -7 9zM199 553v-182h126q6 0 6 -6v-71q0 -6 -7 -6h-125v-196q3 0 22.5 -0.5t36.5 -0.5q101 0 160.5 57
t59.5 181q0 115 -56.5 170.5t-153.5 55.5q-45 0 -69 -2z" />
    <glyph glyph-name="Ntilde" unicode="&#xd1;" horiz-adv-x="646" 
d="M73 638q0 7 7 7h129q9 0 11 -6q223 -429 246 -487h1q-3 78 -3 166v320q0 7 8 7h93q8 0 8 -8v-628q0 -9 -10 -9h-123q-7 0 -13 7q-24 56 -127 261t-122 252h-1q3 -39 5 -197l-1 -315q0 -8 -7 -8h-93q-8 0 -8 9v629zM237 700h-63q-8 0 -8 6q0 60 28 91t69 31q34 0 73 -24
t51 -24q23 0 28 39q0 6 6 6h63q7 0 7 -6q-3 -121 -93 -121q-31 0 -70 24t-54 24q-27 0 -31 -41q0 -5 -6 -5z" />
    <glyph glyph-name="Ograve" unicode="&#xd2;" horiz-adv-x="676" 
d="M340 655q130 0 208 -92t78 -235q1 -159 -78 -248t-210 -89q-134 0 -211 89t-77 245q0 151 80 240.5t210 89.5zM169 325q0 -107 45.5 -172.5t127.5 -65.5q78 0 121.5 63t43.5 175q0 107 -45.5 170.5t-124.5 63.5q-75 0 -121.5 -61t-46.5 -173zM302 817l103 -110
q5 -8 -4 -8h-95q-9 0 -14 5l-123 110q-6 8 4 8h117q8 0 12 -5z" />
    <glyph glyph-name="Oacute" unicode="&#xd3;" horiz-adv-x="676" 
d="M340 655q130 0 208 -92t78 -235q1 -159 -78 -248t-210 -89q-134 0 -211 89t-77 245q0 151 80 240.5t210 89.5zM169 325q0 -107 45.5 -172.5t127.5 -65.5q78 0 121.5 63t43.5 175q0 107 -45.5 170.5t-124.5 63.5q-75 0 -121.5 -61t-46.5 -173zM268 703l102 113q3 4 11 4
h115q4 0 5 -3t-2 -5l-118 -110q-7 -6 -14 -6h-95q-4 0 -5 2.5t1 4.5z" />
    <glyph glyph-name="Ocircumflex" unicode="&#xd4;" horiz-adv-x="676" 
d="M340 655q130 0 208 -92t78 -235q1 -159 -78 -248t-210 -89q-134 0 -211 89t-77 245q0 151 80 240.5t210 89.5zM169 325q0 -107 45.5 -172.5t127.5 -65.5q78 0 121.5 63t43.5 175q0 107 -45.5 170.5t-124.5 63.5q-75 0 -121.5 -61t-46.5 -173zM393 700l-60 63l-60 -63
q-5 -5 -11 -5h-85q-9 0 -3 8l108 113q4 3 10 3h86q8 0 12 -5l112 -113q4 -6 -4 -6h-93q-7 0 -12 5z" />
    <glyph glyph-name="Otilde" unicode="&#xd5;" horiz-adv-x="676" 
d="M340 655q130 0 208 -92t78 -235q1 -159 -78 -248t-210 -89q-134 0 -211 89t-77 245q0 151 80 240.5t210 89.5zM169 325q0 -107 45.5 -172.5t127.5 -65.5q78 0 121.5 63t43.5 175q0 107 -45.5 170.5t-124.5 63.5q-75 0 -121.5 -61t-46.5 -173zM247 700h-63q-8 0 -8 6
q0 60 28 91t69 31q33 0 72 -24t52 -24q24 0 27 39q0 6 7 6h63q6 0 6 -6q-1 -121 -92 -121q-32 0 -70.5 24t-53.5 24q-27 0 -31 -41q0 -5 -6 -5z" />
    <glyph glyph-name="Odieresis" unicode="&#xd6;" horiz-adv-x="676" 
d="M340 655q130 0 208 -92t78 -235q1 -159 -78 -248t-210 -89q-134 0 -211 89t-77 245q0 151 80 240.5t210 89.5zM169 325q0 -107 45.5 -172.5t127.5 -65.5q78 0 121.5 63t43.5 175q0 107 -45.5 170.5t-124.5 63.5q-75 0 -121.5 -61t-46.5 -173zM236 698q-27 0 -44.5 15.5
t-17.5 41.5t18 42.5t46 16.5q27 0 44 -16.5t17 -42.5t-17.5 -41.5t-45.5 -15.5zM437 698q-27 0 -44 15.5t-17 41.5t18 42.5t45 16.5t44.5 -16.5t17.5 -42.5q0 -27 -17.5 -42t-46.5 -15z" />
    <glyph glyph-name="multiply" unicode="&#xd7;" horiz-adv-x="547" 
d="M41 449l45 46q4 5 12 0l176 -184l177 184q6 5 12 0l43 -47q6 -6 0 -11l-178 -180l179 -181q5 -5 0 -11l-46 -46q-5 -5 -11 1l-177 181l-176 -182q-5 -5 -10 -1l-47 48q-4 4 2 11l177 179l-178 182q-4 4 0 11z" />
    <glyph glyph-name="Oslash" unicode="&#xd8;" horiz-adv-x="676" 
d="M186 33l-20 -29q-3 -4 -8 -4h-67q-9 0 -4 7l46 67q-83 93 -83 250q0 152 80.5 241.5t210.5 89.5q81 0 140 -38l16 24q3 4 7 4h68q8 0 4 -6l-40 -63q90 -88 91 -248q0 -157 -78 -247t-208 -90q-93 0 -155 42zM204 179l221 351q-34 30 -89 30q-74 0 -121 -59.5t-47 -175.5
q0 -90 36 -146zM469 474l-221 -355q38 -34 95 -34q80 1 123 64.5t43 176.5q0 96 -40 148z" />
    <glyph glyph-name="Ugrave" unicode="&#xd9;" horiz-adv-x="640" 
d="M189 638v-407q0 -70 34 -107t99 -37q129 0 129 147v403q0 8 8 8h100q8 0 8 -8v-405q0 -125 -68.5 -183t-178.5 -58q-114 0 -180.5 58.5t-66.5 177.5v410q0 8 8 8h101q7 0 7 -7zM291 805l103 -111q6 -8 -4 -8h-95q-8 0 -14 5l-123 111q-6 8 4 8h117q8 0 12 -5z" />
    <glyph glyph-name="Uacute" unicode="&#xda;" horiz-adv-x="640" 
d="M189 638v-407q0 -70 34 -107t99 -37q129 0 129 147v403q0 8 8 8h100q8 0 8 -8v-405q0 -125 -68.5 -183t-178.5 -58q-114 0 -180.5 58.5t-66.5 177.5v410q0 8 8 8h101q7 0 7 -7zM257 693l102 113q4 4 12 4h114q4 0 5 -3t-2 -5l-118 -110q-8 -6 -14 -6h-95q-4 0 -5 2.5
t1 4.5z" />
    <glyph glyph-name="Ucircumflex" unicode="&#xdb;" horiz-adv-x="640" 
d="M189 638v-407q0 -70 34 -107t99 -37q129 0 129 147v403q0 8 8 8h100q8 0 8 -8v-405q0 -125 -68.5 -183t-178.5 -58q-114 0 -180.5 58.5t-66.5 177.5v410q0 8 8 8h101q7 0 7 -7zM378 693l-60 62l-60 -62q-6 -6 -11 -6h-85q-4 0 -5 3t2 6l108 112q4 4 9 4h87q9 0 11 -5
l113 -113q5 -7 -4 -7h-93q-6 0 -12 6z" />
    <glyph glyph-name="Udieresis" unicode="&#xdc;" horiz-adv-x="640" 
d="M189 638v-407q0 -70 34 -107t99 -37q129 0 129 147v403q0 8 8 8h100q8 0 8 -8v-405q0 -125 -68.5 -183t-178.5 -58q-114 0 -180.5 58.5t-66.5 177.5v410q0 8 8 8h101q7 0 7 -7zM218 694q-27 0 -44.5 16t-17.5 42t18 42.5t46 16.5q27 0 44 -17t17 -42q0 -26 -17.5 -42
t-45.5 -16zM419 695q-28 0 -45 15.5t-17 41.5q0 25 18.5 42t45.5 17t44.5 -16.5t17.5 -42.5q0 -27 -17.5 -42t-46.5 -15z" />
    <glyph glyph-name="Yacute" unicode="&#xdd;" horiz-adv-x="565" 
d="M216 262l-201 374q-6 9 5 9h115q7 0 9 -5q119 -242 144 -304q37 83 141 304q1 5 8 5h109q9 0 4 -8l-203 -379q-8 -13 -8 -31v-218q0 -9 -8 -9h-99q-9 0 -9 9v223q0 16 -7 30zM219 693l103 113q3 4 11 4h115q8 0 3 -8l-119 -110q-6 -6 -13 -6h-96q-3 0 -4.5 2.5t0.5 4.5z
" />
    <glyph glyph-name="Thorn" unicode="&#xde;" horiz-adv-x="540" 
d="M72 7v632q0 6 6 6h102q8 0 8 -6v-116q14 1 74 1q107 0 170 -50t63 -147q0 -106 -70.5 -156t-180.5 -50q-10 0 -31 0.5t-25 0.5v-114q0 -8 -7 -8h-102q-7 0 -7 7zM188 432v-216q24 -2 58 -2q134 0 134 110q0 109 -130 109q-17 0 -38 -0.5t-24 -0.5z" />
    <glyph glyph-name="germandbls" unicode="&#xdf;" horiz-adv-x="572" 
d="M182 0h-103q-7 0 -7 7v391l-58 2q-6 0 -6 8v71q0 7 6 7h59q4 105 67 164.5t167 59.5q56 0 98 -18t64.5 -46.5t33 -58.5t10.5 -60q0 -38 -8 -51q-32 -38 -120 -98q39 -30 73 -58q52 -42 70.5 -78t18.5 -83q0 -74 -51 -121.5t-135 -47.5q-81 0 -120 26q-7 4 -7 14v85
q0 9 7 4q55 -33 118 -33q34 0 54.5 19t20.5 46q0 24 -12 43t-47 47q-36 31 -98 72q-3 3 -3 7v78q0 4 2 6q89 63 123 101q2 10 2 24q0 38 -25.5 67t-72.5 29q-114 0 -114 -153v-464q0 -8 -7 -8z" />
    <glyph glyph-name="agrave" unicode="&#xe0;" horiz-adv-x="481" 
d="M306 87v141q-88 4 -125 -15.5t-37 -61.5q0 -31 23.5 -52t72.5 -21q40 0 66 9zM419 306v-205q0 -41 2 -61q0 -3 -2 -4q-95 -45 -196 -45q-87 0 -140 40t-53 118q0 168 275 159v19q0 15 -5.5 29.5t-28 29t-59.5 14.5q-64 0 -129 -31q-7 -2 -7 5v77q0 7 5 10q68 34 153 34
q91 0 138 -51.5t47 -137.5zM232 689l79 -144q4 -8 -5 -8h-87q-5 0 -10 5l-101 144q-4 9 4 9h110q7 0 10 -6z" />
    <glyph glyph-name="aacute" unicode="&#xe1;" horiz-adv-x="481" 
d="M306 87v141q-88 4 -125 -15.5t-37 -61.5q0 -31 23.5 -52t72.5 -21q40 0 66 9zM419 306v-205q0 -41 2 -61q0 -3 -2 -4q-95 -45 -196 -45q-87 0 -140 40t-53 118q0 168 275 159v19q0 15 -5.5 29.5t-28 29t-59.5 14.5q-64 0 -129 -31q-7 -2 -7 5v77q0 7 5 10q68 34 153 34
q91 0 138 -51.5t47 -137.5zM182 544l74 143q5 8 11 8h109q10 0 5 -9l-96 -144q-4 -5 -13 -5h-86q-8 0 -4 7z" />
    <glyph glyph-name="acircumflex" unicode="&#xe2;" horiz-adv-x="481" 
d="M306 87v141q-88 4 -125 -15.5t-37 -61.5q0 -31 23.5 -52t72.5 -21q40 0 66 9zM419 306v-205q0 -41 2 -61q0 -3 -2 -4q-95 -45 -196 -45q-87 0 -140 40t-53 118q0 168 275 159v19q0 15 -5.5 29.5t-28 29t-59.5 14.5q-64 0 -129 -31q-7 -2 -7 5v77q0 7 5 10q68 34 153 34
q91 0 138 -51.5t47 -137.5zM237 633q-38 -63 -59 -95q-4 -4 -9 -4h-73q-4 0 -4.5 3t1.5 6l96 144q3 5 8 5h84q7 0 9 -5l100 -145q4 -8 -4 -8h-80q-6 0 -9 5q-9 13 -60 94z" />
    <glyph glyph-name="atilde" unicode="&#xe3;" horiz-adv-x="481" 
d="M306 87v141q-88 4 -125 -15.5t-37 -61.5q0 -31 23.5 -52t72.5 -21q40 0 66 9zM419 306v-205q0 -41 2 -61q0 -3 -2 -4q-95 -45 -196 -45q-87 0 -140 40t-53 118q0 168 275 159v19q0 15 -5.5 29.5t-28 29t-59.5 14.5q-64 0 -129 -31q-7 -2 -7 5v77q0 7 5 10q68 34 153 34
q91 0 138 -51.5t47 -137.5zM146 554h-63q-7 0 -7 7q-1 62 26.5 94.5t70.5 32.5q35 0 77.5 -24t52.5 -24q26 0 29 40q0 6 6 6h64q6 0 6 -6q-1 -128 -94 -128q-29 0 -71 24t-58 24q-30 0 -34 -40q0 -6 -5 -6z" />
    <glyph glyph-name="adieresis" unicode="&#xe4;" horiz-adv-x="481" 
d="M306 87v141q-88 4 -125 -15.5t-37 -61.5q0 -31 23.5 -52t72.5 -21q40 0 66 9zM419 306v-205q0 -41 2 -61q0 -3 -2 -4q-95 -45 -196 -45q-87 0 -140 40t-53 118q0 168 275 159v19q0 15 -5.5 29.5t-28 29t-59.5 14.5q-64 0 -129 -31q-7 -2 -7 5v77q0 7 5 10q68 34 153 34
q91 0 138 -51.5t47 -137.5zM146 553q-26 0 -42 16t-16 44q0 27 17 43.5t42 16.5q26 0 42 -16.5t16 -44.5q0 -27 -17 -43t-42 -16zM333 553q-25 0 -41.5 16t-16.5 44q0 27 17 43.5t42 16.5q26 0 42 -16.5t16 -44.5q0 -27 -16.5 -43t-42.5 -16z" />
    <glyph glyph-name="aring" unicode="&#xe5;" horiz-adv-x="481" 
d="M306 87v141q-88 4 -125 -15.5t-37 -61.5q0 -31 23.5 -52t72.5 -21q40 0 66 9zM419 306v-205q0 -41 2 -61q0 -3 -2 -4q-95 -45 -196 -45q-87 0 -140 40t-53 118q0 168 275 159v19q0 15 -5.5 29.5t-28 29t-59.5 14.5q-64 0 -129 -31q-7 -2 -7 5v77q0 7 5 10q68 34 153 34
q91 0 138 -51.5t47 -137.5zM136 622q0 42 28.5 68t75.5 26q46 0 75.5 -26.5t29.5 -67.5q0 -43 -29 -69t-76 -26t-75.5 25.5t-28.5 69.5zM196 622q0 -19 12.5 -31t31.5 -12t32 11.5t13 31.5q0 19 -13 31t-32 12q-20 0 -32 -11.5t-12 -31.5z" />
    <glyph glyph-name="ae" unicode="&#xe6;" horiz-adv-x="754" 
d="M142 148q0 -32 23 -50.5t64 -18.5q54 0 99 36q-21 43 -22 105h-53q-51 0 -81 -18t-30 -54zM28 148q0 73 62 110t162 37h54l1 27q0 31 -21.5 55.5t-78.5 24.5q-61 0 -125 -29q-8 -3 -8 6v75q0 6 5 8q69 33 149 33q108 0 144 -70q56 70 153 70q52 0 91 -19t60.5 -50.5
t32 -65.5t10.5 -70q0 -64 -10 -67q-22 -7 -102 -7h-193q2 -57 39 -93.5t109 -36.5q58 0 117 24q6 3 6 -5v-76q0 -7 -5 -11q-53 -27 -146 -27q-102 0 -157 57q-72 -57 -170 -57q-73 0 -126 39t-53 118zM519 411q-43 0 -72 -32t-33 -86h163q29 0 31 6q2 5 2 21q0 31 -22 61
t-69 30z" />
    <glyph glyph-name="ccedilla" unicode="&#xe7;" horiz-adv-x="420" 
d="M389 470l-1 -79q0 -10 -7 -5q-37 16 -83 16q-63 0 -100.5 -43t-37.5 -115q0 -81 39 -119t98 -38q47 0 84 15q6 2 6 -4v-79q0 -7 -5 -9q-33 -16 -87 -19l-22 -30q81 -24 81 -91q0 -41 -32 -67t-83 -26q-46 0 -69 13q-6 2 -6 10v47q0 9 7 5q31 -12 61 -12q40 0 40 28
q0 34 -89 47q-2 2 -2 11.5t2 11.5l43 57q-90 14 -137 80.5t-47 165.5q0 111 69 182.5t180 71.5q61 0 93 -16q5 -3 5 -9z" />
    <glyph glyph-name="egrave" unicode="&#xe8;" horiz-adv-x="494" 
d="M344 220h-186q2 -62 37 -98t105 -36q62 0 115 23q7 2 7 -5v-76q0 -9 -6 -12q-51 -25 -139 -25q-121 -1 -178.5 70t-57.5 179q0 112 59 183.5t163 71.5q66 0 111.5 -32t64 -76t18.5 -93q0 -62 -9 -67q-17 -7 -104 -7zM159 297h148q40 0 40 7q1 2 1 12q0 32 -21.5 63.5
t-68.5 31.5q-44 0 -68.5 -31t-30.5 -83zM242 689l78 -144q4 -8 -4 -8h-87q-7 0 -10 5l-101 144q-2 3 -1 6t4 3h111q5 0 10 -6z" />
    <glyph glyph-name="eacute" unicode="&#xe9;" horiz-adv-x="494" 
d="M344 220h-186q2 -62 37 -98t105 -36q62 0 115 23q7 2 7 -5v-76q0 -9 -6 -12q-51 -25 -139 -25q-121 -1 -178.5 70t-57.5 179q0 112 59 183.5t163 71.5q66 0 111.5 -32t64 -76t18.5 -93q0 -62 -9 -67q-17 -7 -104 -7zM159 297h148q40 0 40 7q1 2 1 12q0 32 -21.5 63.5
t-68.5 31.5q-44 0 -68.5 -31t-30.5 -83zM199 544l74 143q5 8 11 8h109q10 0 5 -9l-96 -144q-4 -5 -13 -5h-86q-7 0 -4 7z" />
    <glyph glyph-name="ecircumflex" unicode="&#xea;" horiz-adv-x="494" 
d="M344 220h-186q2 -62 37 -98t105 -36q62 0 115 23q7 2 7 -5v-76q0 -9 -6 -12q-51 -25 -139 -25q-121 -1 -178.5 70t-57.5 179q0 112 59 183.5t163 71.5q66 0 111.5 -32t64 -76t18.5 -93q0 -62 -9 -67q-17 -7 -104 -7zM159 297h148q40 0 40 7q1 2 1 12q0 32 -21.5 63.5
t-68.5 31.5q-44 0 -68.5 -31t-30.5 -83zM252 633q-23 -42 -59 -95q-4 -4 -9 -4h-73q-3 0 -4 3t1 6l96 144q4 5 9 5h84q5 0 9 -5l99 -145q6 -8 -4 -8h-80q-6 0 -9 5q-9 13 -60 94z" />
    <glyph glyph-name="edieresis" unicode="&#xeb;" horiz-adv-x="494" 
d="M344 220h-186q2 -62 37 -98t105 -36q62 0 115 23q7 2 7 -5v-76q0 -9 -6 -12q-51 -25 -139 -25q-121 -1 -178.5 70t-57.5 179q0 112 59 183.5t163 71.5q66 0 111.5 -32t64 -76t18.5 -93q0 -62 -9 -67q-17 -7 -104 -7zM159 297h148q40 0 40 7q1 2 1 12q0 32 -21.5 63.5
t-68.5 31.5q-44 0 -68.5 -31t-30.5 -83zM159 553q-26 0 -42 16t-16 44q0 27 17 43.5t42 16.5q26 0 42 -16.5t16 -44.5q0 -27 -17 -43t-42 -16zM346 553q-25 0 -41.5 16t-16.5 44q0 27 17 43.5t42 16.5q26 0 42 -16.5t16 -44.5q0 -27 -16.5 -43t-42.5 -16z" />
    <glyph glyph-name="igrave" unicode="&#xec;" horiz-adv-x="242" 
d="M63 8v470q0 8 7 8h102q7 0 7 -7v-471q0 -8 -8 -8h-99q-9 0 -9 8zM96 689l79 -144q4 -8 -5 -8h-87q-5 0 -10 5l-101 144q-4 9 4 9h110q7 0 10 -6z" />
    <glyph glyph-name="iacute" unicode="&#xed;" horiz-adv-x="242" 
d="M63 8v470q0 8 7 8h102q7 0 7 -7v-471q0 -8 -8 -8h-99q-9 0 -9 8zM66 544l74 143q5 8 11 8h109q10 0 5 -9l-96 -144q-4 -5 -13 -5h-86q-8 0 -4 7z" />
    <glyph glyph-name="icircumflex" unicode="&#xee;" horiz-adv-x="242" 
d="M63 8v470q0 8 7 8h102q7 0 7 -7v-471q0 -8 -8 -8h-99q-9 0 -9 8zM118 633q-19 -32 -59 -95q-4 -4 -9 -4h-73q-9 0 -4 9l97 144q2 5 8 5h84q6 0 9 -5l100 -145q4 -8 -4 -8h-80q-5 0 -10 5q-9 15 -32.5 52t-26.5 42z" />
    <glyph glyph-name="idieresis" unicode="&#xef;" horiz-adv-x="242" 
d="M63 8v470q0 8 7 8h102q7 0 7 -7v-471q0 -8 -8 -8h-99q-9 0 -9 8zM27 553q-26 0 -42 16t-16 44q0 27 17 43.5t42 16.5q26 0 42 -16.5t16 -44.5q0 -27 -17 -43t-42 -16zM214 553q-25 0 -41.5 16t-16.5 44q0 27 17 43.5t42 16.5q26 0 42 -16.5t16 -44.5q0 -27 -16.5 -43
t-42.5 -16z" />
    <glyph glyph-name="eth" unicode="&#xf0;" horiz-adv-x="544" 
d="M279 376q-51 0 -85.5 -35t-34.5 -112q0 -66 31.5 -107.5t83.5 -41.5q48 0 78 42.5t30 133.5q0 41 -8 71q-3 9 -9 15q-32 34 -86 34zM436 630l-68 -37q131 -118 131 -321q0 -134 -63.5 -207.5t-170.5 -73.5q-110 0 -166.5 68.5t-56.5 168.5q0 107 63.5 171t166.5 64
q48 0 75 -20q-25 61 -74 97l-131 -69q-2 -2 -4.5 -0.5t-2.5 4.5v48q0 5 5 8l79 41q-45 29 -122 44q-7 2 -7 9v78q0 8 6 8q16 0 27 -3q114 -20 200 -77l113 62q5 1 5 -3v-51q0 -7 -5 -9z" />
    <glyph glyph-name="ntilde" unicode="&#xf1;" horiz-adv-x="530" 
d="M63 8v364q0 72 -5 107q0 7 7 7h86q8 0 12 -7q5 -14 7 -38q62 54 142 54q66 0 110.5 -44t44.5 -150v-293q0 -8 -8 -8h-99q-9 0 -9 8v293q0 99 -80 99q-51 0 -92 -41v-352q0 -7 -8 -7h-101q-7 0 -7 8zM168 554h-64q-7 0 -7 7q0 62 27.5 94.5t70.5 32.5q34 0 76.5 -24
t53.5 -24q26 0 29 40q0 6 6 6h63q7 0 7 -6q-1 -128 -94 -128q-30 0 -71.5 24t-58.5 24q-29 0 -33 -40q0 -6 -5 -6z" />
    <glyph glyph-name="ograve" unicode="&#xf2;" horiz-adv-x="541" 
d="M273 495q107 0 166.5 -69.5t59.5 -180.5q0 -118 -62 -186t-166 -68q-78 0 -131.5 37.5t-75.5 92.5t-22 122q0 112 62.5 182t168.5 70zM268 409q-49 0 -79 -43.5t-30 -120.5t29.5 -122.5t84.5 -45.5q48 0 78.5 40.5t30.5 124.5q0 76 -28 121.5t-86 45.5zM255 689l79 -144
q4 -8 -5 -8h-87q-6 0 -9 5l-101 144q-2 3 -1 6t4 3h111q6 0 9 -6z" />
    <glyph glyph-name="oacute" unicode="&#xf3;" horiz-adv-x="541" 
d="M273 495q107 0 166.5 -69.5t59.5 -180.5q0 -118 -62 -186t-166 -68q-78 0 -131.5 37.5t-75.5 92.5t-22 122q0 112 62.5 182t168.5 70zM268 409q-49 0 -79 -43.5t-30 -120.5t29.5 -122.5t84.5 -45.5q48 0 78.5 40.5t30.5 124.5q0 76 -28 121.5t-86 45.5zM209 544l74 143
q5 8 11 8h109q10 0 5 -9l-96 -144q-4 -5 -13 -5h-86q-7 0 -4 7z" />
    <glyph glyph-name="ocircumflex" unicode="&#xf4;" horiz-adv-x="541" 
d="M273 495q107 0 166.5 -69.5t59.5 -180.5q0 -118 -62 -186t-166 -68q-78 0 -131.5 37.5t-75.5 92.5t-22 122q0 112 62.5 182t168.5 70zM268 409q-49 0 -79 -43.5t-30 -120.5t29.5 -122.5t84.5 -45.5q48 0 78.5 40.5t30.5 124.5q0 76 -28 121.5t-86 45.5zM267 633
q-19 -32 -59 -95q-4 -4 -9 -4h-73q-8 0 -4 9l97 144q3 5 8 5h84q7 0 9 -5l100 -145q4 -8 -4 -8h-80q-5 0 -10 5q-9 15 -32.5 52t-26.5 42z" />
    <glyph glyph-name="otilde" unicode="&#xf5;" horiz-adv-x="541" 
d="M273 495q107 0 166.5 -69.5t59.5 -180.5q0 -118 -62 -186t-166 -68q-78 0 -131.5 37.5t-75.5 92.5t-22 122q0 112 62.5 182t168.5 70zM268 409q-49 0 -79 -43.5t-30 -120.5t29.5 -122.5t84.5 -45.5q48 0 78.5 40.5t30.5 124.5q0 76 -28 121.5t-86 45.5zM176 554h-64
q-7 0 -7 7q0 62 27.5 94.5t70.5 32.5q34 0 76.5 -24t53.5 -24q26 0 29 40q0 6 6 6h63q7 0 7 -6q-1 -128 -94 -128q-30 0 -71.5 24t-58.5 24q-29 0 -33 -40q0 -6 -5 -6z" />
    <glyph glyph-name="odieresis" unicode="&#xf6;" horiz-adv-x="541" 
d="M273 495q107 0 166.5 -69.5t59.5 -180.5q0 -118 -62 -186t-166 -68q-78 0 -131.5 37.5t-75.5 92.5t-22 122q0 112 62.5 182t168.5 70zM268 409q-49 0 -79 -43.5t-30 -120.5t29.5 -122.5t84.5 -45.5q48 0 78.5 40.5t30.5 124.5q0 76 -28 121.5t-86 45.5zM176 553
q-26 0 -42 16t-16 44q0 27 17 43.5t42 16.5q26 0 42 -16.5t16 -44.5q0 -27 -17 -43t-42 -16zM363 553q-25 0 -41.5 16t-16.5 44q0 27 17 43.5t42 16.5q26 0 42 -16.5t16 -44.5q0 -27 -16.5 -43t-42.5 -16z" />
    <glyph glyph-name="divide" unicode="&#xf7;" horiz-adv-x="548" 
d="M272 376q-24 0 -39 16t-15 41t15.5 41t40.5 16t40 -16t15 -41t-15.5 -41t-41.5 -16zM272 34q-24 0 -39 16t-15 40q0 26 15.5 42t40.5 16t40 -16t15 -42q0 -25 -15.5 -40.5t-41.5 -15.5zM30 296q0 8 8 8h472q7 0 7 -8v-68q0 -8 -7 -8h-472q-8 0 -8 8v68z" />
    <glyph glyph-name="oslash" unicode="&#xf8;" horiz-adv-x="545" 
d="M176 155l164 233q-27 24 -69 24q-51 0 -83.5 -43t-32.5 -125q0 -54 21 -89zM152 23l-19 -25q-4 -5 -10 -5h-59q-4 0 -4.5 3t1.5 5l43 59q-62 72 -62 181q0 113 63 183.5t169 70.5q72 0 120 -33l16 21q2 4 7 4h59q9 0 4 -7l-40 -55q63 -66 63 -181q0 -118 -62.5 -185.5
t-166.5 -67.5q-73 0 -122 32zM370 331l-163 -233q27 -24 69 -24q49 0 82 40t33 126q0 57 -21 91z" />
    <glyph glyph-name="ugrave" unicode="&#xf9;" 
d="M462 479v-373q0 -46 5 -99q1 -7 -7 -7h-88q-9 0 -11 6q-4 18 -4 34q-58 -49 -138 -49q-68 0 -112 40.5t-44 135.5v312q0 7 7 7h102q7 0 7 -7v-295q0 -99 77 -99q53 0 90 38v355q0 8 8 8h101q7 0 7 -7zM252 689l78 -144q6 -8 -4 -8h-87q-7 0 -10 5l-101 144q-2 3 -1 6t4 3
h111q6 0 10 -6z" />
    <glyph glyph-name="uacute" unicode="&#xfa;" 
d="M462 479v-373q0 -46 5 -99q1 -7 -7 -7h-88q-9 0 -11 6q-4 18 -4 34q-58 -49 -138 -49q-68 0 -112 40.5t-44 135.5v312q0 7 7 7h102q7 0 7 -7v-295q0 -99 77 -99q53 0 90 38v355q0 8 8 8h101q7 0 7 -7zM205 544l74 143q5 8 11 8h109q10 0 5 -9l-96 -144q-4 -5 -13 -5h-86
q-7 0 -4 7z" />
    <glyph glyph-name="ucircumflex" unicode="&#xfb;" 
d="M462 479v-373q0 -46 5 -99q1 -7 -7 -7h-88q-9 0 -11 6q-4 18 -4 34q-58 -49 -138 -49q-68 0 -112 40.5t-44 135.5v312q0 7 7 7h102q7 0 7 -7v-295q0 -99 77 -99q53 0 90 38v355q0 8 8 8h101q7 0 7 -7zM260 633q-23 -42 -59 -95q-4 -4 -9 -4h-73q-3 0 -4 3t1 6l96 144
q4 5 9 5h84q5 0 9 -5l99 -145q6 -8 -3 -8h-80q-5 0 -10 5q-48 75 -60 94z" />
    <glyph glyph-name="udieresis" unicode="&#xfc;" 
d="M462 479v-373q0 -46 5 -99q1 -7 -7 -7h-88q-9 0 -11 6q-4 18 -4 34q-58 -49 -138 -49q-68 0 -112 40.5t-44 135.5v312q0 7 7 7h102q7 0 7 -7v-295q0 -99 77 -99q53 0 90 38v355q0 8 8 8h101q7 0 7 -7zM171 553q-26 0 -42 16t-16 44q0 27 17 43.5t42 16.5q26 0 42 -16.5
t16 -44.5q0 -27 -17 -43t-42 -16zM358 553q-25 0 -41.5 16t-16.5 44q0 27 17 43.5t42 16.5q26 0 42 -16.5t16 -44.5q0 -27 -16.5 -43t-42.5 -16z" />
    <glyph glyph-name="yacute" unicode="&#xfd;" horiz-adv-x="463" 
d="M12 486h111q7 0 9 -6q102 -302 112 -340h2q50 144 99 339q3 7 10 7h95q9 0 7 -9q-21 -93 -65 -218t-92 -230q-80 -168 -135 -236q-6 -7 -15 -7h-108q-5 0 -6.5 3t2.5 7q33 42 77.5 111t63.5 111q4 10 2 15q-81 192 -175 445q-2 8 6 8zM174 544l74 143q5 8 11 8h109
q10 0 5 -9l-96 -144q-4 -5 -13 -5h-86q-8 0 -4 7z" />
    <glyph glyph-name="thorn" unicode="&#xfe;" horiz-adv-x="532" 
d="M270 495q104 0 162 -70t58 -173q0 -118 -69 -190t-173 -72q-44 0 -69 12v-196q0 -8 -7 -8l-101 -10q-8 0 -8 9v897q0 8 7 8h100q9 0 9 -8v-217q34 18 91 18zM244 404q-33 0 -65 -16v-295q24 -14 65 -14q51 0 89.5 43t38.5 126q0 77 -35.5 116.5t-92.5 39.5z" />
    <glyph glyph-name="ydieresis" unicode="&#xff;" horiz-adv-x="463" 
d="M12 486h111q7 0 9 -6q102 -302 112 -340h2q50 144 99 339q3 7 10 7h95q9 0 7 -9q-21 -93 -65 -218t-92 -230q-80 -168 -135 -236q-6 -7 -15 -7h-108q-5 0 -6.5 3t2.5 7q33 42 77.5 111t63.5 111q4 10 2 15q-81 192 -175 445q-2 8 6 8zM138 553q-25 0 -41.5 16t-16.5 44
q0 27 17 43.5t43 16.5q25 0 41 -17t16 -44t-16.5 -43t-42.5 -16zM325 553q-25 0 -41 16t-16 44q0 27 17 43.5t42 16.5q26 0 41.5 -16.5t15.5 -44.5q0 -27 -16.5 -43t-42.5 -16z" />
    <glyph glyph-name="Amacron" unicode="&#x100;" horiz-adv-x="620" 
d="M410 181h-212l-57 -173q-1 -8 -9 -8h-97q-10 0 -7 9q171 508 194 577q6 20 7 53q0 6 6 6h133q6 0 8 -5q32 -92 105.5 -309.5t109.5 -321.5q3 -9 -5 -9h-107q-7 0 -9 6zM222 277h164q-5 18 -39 124t-44 147h-1q-11 -49 -80 -271zM175 799h263q6 0 6 -7v-72q0 -8 -7 -8
h-259q-9 0 -9 7v73q0 7 6 7z" />
    <glyph glyph-name="amacron" unicode="&#x101;" horiz-adv-x="481" 
d="M306 87v141q-88 4 -125 -15.5t-37 -61.5q0 -31 23.5 -52t72.5 -21q40 0 66 9zM419 306v-205q0 -41 2 -61q0 -3 -2 -4q-95 -45 -196 -45q-87 0 -140 40t-53 118q0 168 275 159v19q0 15 -5.5 29.5t-28 29t-59.5 14.5q-64 0 -129 -31q-7 -2 -7 5v77q0 7 5 10q68 34 153 34
q91 0 138 -51.5t47 -137.5zM105 657h268q6 0 6 -6v-70q0 -7 -7 -7h-268q-6 0 -6 7v69q0 7 7 7z" />
    <glyph glyph-name="Abreve" unicode="&#x102;" horiz-adv-x="620" 
d="M410 181h-212l-57 -173q-1 -8 -9 -8h-97q-10 0 -7 9q171 508 194 577q6 20 7 53q0 6 6 6h133q6 0 8 -5q32 -92 105.5 -309.5t109.5 -321.5q3 -9 -5 -9h-107q-7 0 -9 6zM222 277h164q-5 18 -39 124t-44 147h-1q-11 -49 -80 -271zM151 832h79q6 0 7 -7q18 -47 67 -47
q51 0 68 48q4 6 8 6h79q6 0 6 -8q-8 -61 -53.5 -97t-107.5 -36q-65 0 -109.5 34t-50.5 100q0 7 7 7z" />
    <glyph glyph-name="abreve" unicode="&#x103;" horiz-adv-x="481" 
d="M306 87v141q-88 4 -125 -15.5t-37 -61.5q0 -31 23.5 -52t72.5 -21q40 0 66 9zM419 306v-205q0 -41 2 -61q0 -3 -2 -4q-95 -45 -196 -45q-87 0 -140 40t-53 118q0 168 275 159v19q0 15 -5.5 29.5t-28 29t-59.5 14.5q-64 0 -129 -31q-7 -2 -7 5v77q0 7 5 10q68 34 153 34
q91 0 138 -51.5t47 -137.5zM81 679h78q5 0 5 -4q18 -50 69 -50q56 0 70 49q1 5 6 5h78q5 0 5 -5q-10 -64 -51.5 -98.5t-107.5 -34.5q-65 0 -106.5 33.5t-50.5 98.5q-1 6 5 6z" />
    <glyph glyph-name="Aogonek" unicode="&#x104;" horiz-adv-x="620" 
d="M222 277h164q-5 18 -39 124t-44 147h-1q-11 -49 -80 -271zM410 181h-212l-57 -173q-1 -8 -9 -8h-97q-10 0 -7 9q171 508 194 577q6 20 7 53q0 6 6 6h133q6 0 8 -5q18 -53 95.5 -282.5t118.5 -343.5q2 -10 -5 -14q-70 -41 -70 -85q0 -20 14 -32t40 -12q22 0 43 7q8 1 8 -6
v-62q0 -10 -7 -13q-27 -15 -80 -15t-90.5 24.5t-37.5 77.5q0 63 73 118q-8 1 -11 10z" />
    <glyph glyph-name="aogonek" unicode="&#x105;" horiz-adv-x="481" 
d="M306 87v141q-88 4 -125 -15.5t-37 -61.5q0 -31 23.5 -52t72.5 -21q40 0 66 9zM419 306v-205q0 -45 2 -66q1 -6 -5 -8q-107 -57 -107 -108q0 -22 15 -34t41 -12q27 0 48 7q8 1 8 -6v-62q0 -10 -7 -13q-27 -16 -84 -16q-51 0 -88.5 24.5t-37.5 76.5q0 32 21.5 61t56.5 49
q-25 -3 -59 -3q-87 0 -140 40t-53 118q0 168 275 159v17q0 12 -3.5 23t-12 23.5t-28.5 20t-49 7.5q-62 0 -129 -30q-7 -3 -7 5v77q0 7 5 10q68 34 153 34q91 0 138 -51.5t47 -137.5z" />
    <glyph glyph-name="Cacute" unicode="&#x106;" horiz-adv-x="561" 
d="M50 321q0 144 91.5 239.5t240.5 95.5q84 0 128 -21q5 -3 5 -10v-87q0 -11 -7 -6q-55 23 -122 23q-98 0 -157.5 -62t-59.5 -169q0 -65 20 -112.5t53.5 -71.5t68.5 -34.5t72 -10.5q78 0 131 24q7 3 7 -5v-85q0 -8 -6 -12q-54 -26 -152 -26q-62 0 -116.5 18.5t-99.5 56.5
t-71 103.5t-26 151.5zM258 700l102 112q3 4 11 4h115q4 0 4.5 -3t-1.5 -5l-118 -110q-7 -6 -14 -6h-95q-4 0 -5 3t1 5z" />
    <glyph glyph-name="cacute" unicode="&#x107;" horiz-adv-x="420" 
d="M387 98v-79q0 -7 -5 -9q-41 -19 -109 -19q-112 0 -171.5 69t-59.5 181q0 111 69 182.5t180 71.5q61 0 93 -16q5 -3 5 -9l-1 -79q0 -10 -7 -5q-37 16 -83 16q-63 0 -100.5 -43t-37.5 -115q0 -81 39 -119t98 -38q47 0 84 15q6 2 6 -4zM221 544l75 143q5 8 10 8h110
q10 0 5 -9l-97 -144q-4 -5 -12 -5h-87q-7 0 -4 7z" />
    <glyph glyph-name="Ccircumflex" unicode="&#x108;" horiz-adv-x="561" 
d="M50 321q0 144 91.5 239.5t240.5 95.5q84 0 128 -21q5 -3 5 -10v-87q0 -11 -7 -6q-55 23 -122 23q-98 0 -157.5 -62t-59.5 -169q0 -65 20 -112.5t53.5 -71.5t68.5 -34.5t72 -10.5q78 0 131 24q7 3 7 -5v-85q0 -8 -6 -12q-54 -26 -152 -26q-62 0 -116.5 18.5t-99.5 56.5
t-71 103.5t-26 151.5zM378 698l-61 63l-59 -63q-6 -6 -11 -6h-86q-4 0 -4.5 3t1.5 6l108 112q4 4 10 4h87q9 0 11 -5l112 -113q2 -2 1 -4.5t-5 -2.5h-92q-6 0 -12 6z" />
    <glyph glyph-name="ccircumflex" unicode="&#x109;" horiz-adv-x="420" 
d="M387 98v-79q0 -7 -5 -9q-41 -19 -109 -19q-112 0 -171.5 69t-59.5 181q0 111 69 182.5t180 71.5q61 0 93 -16q5 -3 5 -9l-1 -79q0 -10 -7 -5q-37 16 -83 16q-63 0 -100.5 -43t-37.5 -115q0 -81 39 -119t98 -38q47 0 84 15q6 2 6 -4zM252 635q-19 -32 -59 -95q-4 -4 -9 -4
h-73q-9 0 -4 9l97 144q2 5 8 5h84q6 0 9 -5l100 -145q4 -8 -4 -8h-80q-5 0 -10 5q-9 15 -32.5 52t-26.5 42z" />
    <glyph glyph-name="Cdotaccent" unicode="&#x10a;" horiz-adv-x="561" 
d="M50 321q0 144 91.5 239.5t240.5 95.5q84 0 128 -21q5 -3 5 -10v-87q0 -11 -7 -6q-55 23 -122 23q-98 0 -157.5 -62t-59.5 -169q0 -65 20 -112.5t53.5 -71.5t68.5 -34.5t72 -10.5q78 0 131 24q7 3 7 -5v-85q0 -8 -6 -12q-54 -26 -152 -26q-62 0 -116.5 18.5t-99.5 56.5
t-71 103.5t-26 151.5zM333 700q-29 0 -46.5 16t-17.5 42t18 42.5t48 16.5t47.5 -16.5t17.5 -42.5q0 -27 -18 -42.5t-49 -15.5z" />
    <glyph glyph-name="cdotaccent" unicode="&#x10b;" horiz-adv-x="420" 
d="M387 98v-79q0 -7 -5 -9q-41 -19 -109 -19q-112 0 -171.5 69t-59.5 181q0 111 69 182.5t180 71.5q61 0 93 -16q5 -3 5 -9l-1 -79q0 -10 -7 -5q-37 16 -83 16q-63 0 -100.5 -43t-37.5 -115q0 -81 39 -119t98 -38q47 0 84 15q6 2 6 -4zM262 552q-29 0 -47 16.5t-18 44.5
q0 27 18.5 43.5t47.5 16.5t46.5 -16.5t17.5 -44.5q0 -27 -18 -43.5t-47 -16.5z" />
    <glyph glyph-name="Ccaron" unicode="&#x10c;" horiz-adv-x="561" 
d="M50 321q0 144 91.5 239.5t240.5 95.5q84 0 128 -21q5 -3 5 -10v-87q0 -11 -7 -6q-55 23 -122 23q-98 0 -157.5 -62t-59.5 -169q0 -65 20 -112.5t53.5 -71.5t68.5 -34.5t72 -10.5q78 0 131 24q7 3 7 -5v-85q0 -8 -6 -12q-54 -26 -152 -26q-62 0 -116.5 18.5t-99.5 56.5
t-71 103.5t-26 151.5zM275 809l60 -62l60 62q5 6 11 6h86q3 0 4 -3t-2 -5l-108 -113q-4 -4 -9 -4h-87q-8 0 -11 5l-113 114q-2 1 -1 3.5t5 2.5h93q7 0 12 -6z" />
    <glyph glyph-name="ccaron" unicode="&#x10d;" horiz-adv-x="420" 
d="M387 98v-79q0 -7 -5 -9q-41 -19 -109 -19q-112 0 -171.5 69t-59.5 181q0 111 69 182.5t180 71.5q61 0 93 -16q5 -3 5 -9l-1 -79q0 -10 -7 -5q-37 16 -83 16q-63 0 -100.5 -43t-37.5 -115q0 -81 39 -119t98 -38q47 0 84 15q6 2 6 -4zM270 593q23 42 59 95q3 4 9 4h73
q3 0 4 -3t-1 -5l-96 -145q-4 -5 -8 -5h-84q-6 0 -10 6l-99 145q-2 2 -1 4.5t5 2.5h80q7 0 9 -5q31 -45 60 -94z" />
    <glyph glyph-name="Dcaron" unicode="&#x10e;" horiz-adv-x="638" 
d="M72 8v630q0 6 7 7q102 2 186 2q156 0 238.5 -84.5t82.5 -231.5q0 -82 -23.5 -144t-59 -97t-83.5 -56.5t-89 -28.5t-85 -7q-70 0 -168 2q-6 0 -6 8zM188 553v-462q7 0 28.5 -0.5t35.5 -0.5q100 0 157.5 58t57.5 180q0 114 -53 170.5t-149 56.5q-59 0 -77 -2zM227 806
l60 -62l60 62q6 6 11 6h86q3 0 4 -3t-2 -6l-108 -112q-4 -4 -9 -4h-87q-8 0 -11 5l-113 113q-5 7 4 7h93q6 0 12 -6z" />
    <glyph glyph-name="dcaron" unicode="&#x10f;" horiz-adv-x="600" 
d="M530 487l-1 221q0 7 7 7h74q7 0 6 -7l-13 -220q-2 -8 -7 -8h-59q-7 0 -7 7zM281 -9q-109 0 -174.5 63t-65.5 185q0 111 73 183.5t192 72.5q32 0 49 -6v207q0 6 7 6h104q6 0 6 -6v-587q0 -45 2 -63q1 -5 -5 -9q-89 -46 -188 -46zM355 92v305q-19 8 -53 8q-64 0 -103 -42.5
t-39 -118.5q0 -81 38 -120.5t97 -39.5q36 0 60 8z" />
    <glyph glyph-name="Dcroat" unicode="&#x110;" horiz-adv-x="648" 
d="M83 9v279h-58q-5 0 -5 7v71q0 5 5 5h58v267q0 7 5 7q42 2 180 2q157 0 243 -83t86 -232q0 -83 -24.5 -146t-60.5 -98t-85 -56.5t-90 -28t-84 -6.5q-87 0 -163 3q-7 0 -7 9zM199 553v-182h126q6 0 6 -6v-71q0 -6 -7 -6h-125v-196q3 0 22.5 -0.5t36.5 -0.5q101 0 160.5 57
t59.5 181q0 115 -56.5 170.5t-153.5 55.5q-45 0 -69 -2z" />
    <glyph glyph-name="dcroat" unicode="&#x111;" horiz-adv-x="532" 
d="M469 617h60q5 0 5 -5v-56q0 -5 -6 -5h-59v-450q0 -30 3 -66q0 -5 -6 -8q-89 -36 -176 -36q-115 0 -181.5 62.5t-66.5 179.5q0 106 70.5 175t186.5 69q33 0 54 -7v81h-100q-7 0 -7 6v54q0 6 6 6h101v77q0 8 8 8h101q7 0 7 -8v-77zM353 88v295q-22 9 -52 9q-63 0 -102 -42
t-39 -114q0 -78 39 -117.5t98 -39.5q34 0 56 9z" />
    <glyph glyph-name="Emacron" unicode="&#x112;" horiz-adv-x="509" 
d="M479 87l-14 -79q-1 -8 -10 -8h-374q-8 0 -8 8v629q0 8 8 8h362q8 0 9 -6l10 -80q2 -9 -6 -9h-267v-173h240q7 0 7 -7v-81q0 -7 -8 -7h-239v-187h283q8 0 7 -8zM133 797h263q6 0 6 -7v-73q0 -7 -7 -7h-259q-9 0 -9 7v73q0 7 6 7z" />
    <glyph glyph-name="emacron" unicode="&#x113;" horiz-adv-x="494" 
d="M344 220h-186q2 -62 37 -98t105 -36q62 0 115 23q7 2 7 -5v-76q0 -9 -6 -12q-51 -25 -139 -25q-121 -1 -178.5 70t-57.5 179q0 112 59 183.5t163 71.5q66 0 111.5 -32t64 -76t18.5 -93q0 -62 -9 -67q-17 -7 -104 -7zM159 297h148q40 0 40 7q1 2 1 12q0 32 -21.5 63.5
t-68.5 31.5q-44 0 -68.5 -31t-30.5 -83zM124 657h268q6 0 6 -6v-70q0 -7 -6 -7h-268q-7 0 -7 7v69q0 7 7 7z" />
    <glyph glyph-name="Ebreve" unicode="&#x114;" horiz-adv-x="509" 
d="M479 87l-14 -79q-1 -8 -10 -8h-374q-8 0 -8 8v629q0 8 8 8h362q8 0 9 -6l10 -80q2 -9 -6 -9h-267v-173h240q7 0 7 -7v-81q0 -7 -8 -7h-239v-187h283q8 0 7 -8zM110 833h79q6 0 7 -6q19 -48 67 -48q52 0 69 48q2 6 7 6h79q6 0 6 -8q-7 -61 -53 -97t-108 -36
q-65 0 -109.5 34.5t-49.5 99.5q-2 7 6 7z" />
    <glyph glyph-name="ebreve" unicode="&#x115;" horiz-adv-x="494" 
d="M344 220h-186q2 -62 37 -98t105 -36q62 0 115 23q7 2 7 -5v-76q0 -9 -6 -12q-51 -25 -139 -25q-121 -1 -178.5 70t-57.5 179q0 112 59 183.5t163 71.5q66 0 111.5 -32t64 -76t18.5 -93q0 -62 -9 -67q-17 -7 -104 -7zM159 297h148q40 0 40 7q1 2 1 12q0 32 -21.5 63.5
t-68.5 31.5q-44 0 -68.5 -31t-30.5 -83zM102 680h78q5 0 5 -4q18 -50 69 -50q56 0 70 49q1 5 6 5h78q5 0 5 -5q-10 -64 -51.5 -98.5t-107.5 -34.5q-65 0 -106.5 33.5t-50.5 98.5q-1 6 5 6z" />
    <glyph glyph-name="Edotaccent" unicode="&#x116;" horiz-adv-x="509" 
d="M479 87l-14 -79q-1 -8 -10 -8h-374q-8 0 -8 8v629q0 8 8 8h362q8 0 9 -6l10 -80q2 -9 -6 -9h-267v-173h240q7 0 7 -7v-81q0 -7 -8 -7h-239v-187h283q8 0 7 -8zM266 697q-29 0 -46.5 16t-17.5 42t18 42.5t48 16.5t47.5 -16.5t17.5 -42.5q0 -27 -18 -42.5t-49 -15.5z" />
    <glyph glyph-name="edotaccent" unicode="&#x117;" horiz-adv-x="494" 
d="M344 220h-186q2 -62 37 -98t105 -36q62 0 115 23q7 2 7 -5v-76q0 -9 -6 -12q-51 -25 -139 -25q-121 -1 -178.5 70t-57.5 179q0 112 59 183.5t163 71.5q66 0 111.5 -32t64 -76t18.5 -93q0 -62 -9 -67q-17 -7 -104 -7zM159 297h148q40 0 40 7q1 2 1 12q0 32 -21.5 63.5
t-68.5 31.5q-44 0 -68.5 -31t-30.5 -83zM256 552q-29 0 -46.5 16.5t-17.5 44.5q0 27 18 43.5t47 16.5t46.5 -16.5t17.5 -44.5t-18 -44t-47 -16z" />
    <glyph glyph-name="Eogonek" unicode="&#x118;" horiz-adv-x="509" 
d="M455 0h-24q-59 -43 -59 -83q0 -21 13.5 -33t37.5 -12q27 0 48 7q5 0 5 -5v-67q0 -7 -4 -10q-30 -15 -85 -15q-52 0 -89 25t-37 78q0 59 74 115h-254q-8 0 -8 8v629q0 8 8 8h362q8 0 9 -6l10 -80q2 -9 -6 -9h-267v-173h240q7 0 7 -7v-81q0 -7 -8 -7h-239v-187h283
q8 0 7 -8l-14 -79q-1 -8 -10 -8z" />
    <glyph glyph-name="eogonek" unicode="&#x119;" horiz-adv-x="494" 
d="M344 220h-186q-2 -59 34 -96.5t108 -37.5q64 0 122 26q8 3 8 -7v-70q0 -9 -7 -13q-109 -48 -109 -106q0 -19 15 -31.5t40 -12.5q24 0 45 7q8 3 8 -6v-61q0 -10 -7 -14q-30 -15 -80 -15q-51 0 -87.5 24.5t-36.5 75.5q0 59 66 109q-119 -3 -177.5 68.5t-58.5 179.5
q0 112 59 183.5t163 71.5q66 0 111.5 -32t64 -76t18.5 -93q0 -62 -9 -67q-17 -7 -104 -7zM159 297h148q40 0 40 7q1 2 1 13q0 31 -21.5 62.5t-68.5 31.5q-43 0 -68 -31.5t-31 -82.5z" />
    <glyph glyph-name="Ecaron" unicode="&#x11a;" horiz-adv-x="509" 
d="M479 87l-14 -79q-1 -8 -10 -8h-374q-8 0 -8 8v629q0 8 8 8h362q8 0 9 -6l10 -80q2 -9 -6 -9h-267v-173h240q7 0 7 -7v-81q0 -7 -8 -7h-239v-187h283q8 0 7 -8zM206 809l60 -63l60 63q5 5 11 5h86q3 0 4 -2.5t-2 -5.5l-108 -113q-5 -3 -9 -3h-87q-9 0 -11 5l-113 113
q-4 6 4 6h93q7 0 12 -5z" />
    <glyph glyph-name="ecaron" unicode="&#x11b;" horiz-adv-x="494" 
d="M344 220h-186q2 -62 37 -98t105 -36q62 0 115 23q7 2 7 -5v-76q0 -9 -6 -12q-51 -25 -139 -25q-121 -1 -178.5 70t-57.5 179q0 112 59 183.5t163 71.5q66 0 111.5 -32t64 -76t18.5 -93q0 -62 -9 -67q-17 -7 -104 -7zM159 297h148q40 0 40 7q1 2 1 12q0 32 -21.5 63.5
t-68.5 31.5q-44 0 -68.5 -31t-30.5 -83zM252 593q19 32 59 95q3 4 9 4h73q9 0 4 -8l-97 -145q-2 -5 -8 -5h-84q-6 0 -9 6l-100 145q-2 2 -0.5 4.5t4.5 2.5h80q6 0 10 -5q42 -65 59 -94z" />
    <glyph glyph-name="Gcircumflex" unicode="&#x11c;" horiz-adv-x="640" 
d="M463 250l-104 3q-8 0 -8 9v76q0 7 7 7h213q8 0 8 -8v-294q0 -7 -7 -11q-88 -41 -200 -41q-160 0 -241 92t-81 234q0 157 94 247.5t242 90.5q110 0 166 -33q6 -2 6 -12v-87q0 -10 -8 -6q-71 38 -162 38q-103 0 -161 -60.5t-58 -174.5q0 -101 55.5 -166.5t158.5 -65.5
q50 0 80 14v148zM397 697l-60 62l-60 -62q-5 -6 -11 -6h-85q-4 0 -4.5 3t1.5 6l108 112q4 4 10 4h86q7 0 12 -5l112 -113q2 -2 1 -4.5t-5 -2.5h-93q-7 0 -12 6z" />
    <glyph glyph-name="gcircumflex" unicode="&#x11d;" horiz-adv-x="495" 
d="M312 329q0 42 -20 65.5t-59 23.5q-36 0 -58.5 -23.5t-22.5 -63.5t21.5 -64t59.5 -24q37 0 58 23t21 63zM377 -64q0 69 -137 69q-39 0 -61 -4q-17 -10 -32 -28t-15 -37q0 -32 32 -55t90 -23q62 0 92.5 22.5t30.5 55.5zM235 495q40 0 77 -7q11 -2 27 -2h132q6 0 6 -7v-72
q0 -6 -6 -6l-74 3q22 -27 22 -78q0 -77 -51.5 -118.5t-131.5 -41.5q-21 0 -35 4q-9 -14 -9 -36q0 -25 15 -40q8 1 47 1q113 0 174 -33t61 -112q0 -75 -65.5 -125.5t-174.5 -50.5q-102 0 -162.5 44.5t-60.5 114.5q0 55 87 123q-22 31 -22 72q0 35 19 65q-67 41 -67 135
q0 74 52.5 120.5t139.5 46.5zM245 633q-23 -42 -59 -95q-4 -4 -9 -4h-73q-3 0 -4 3t1 6l96 144q4 5 8 5h84q6 0 10 -5l99 -145q6 -8 -4 -8h-80q-6 0 -9 5q-9 13 -60 94z" />
    <glyph glyph-name="Gbreve" unicode="&#x11e;" horiz-adv-x="640" 
d="M463 250l-104 3q-8 0 -8 9v76q0 7 7 7h213q8 0 8 -8v-294q0 -7 -7 -11q-88 -41 -200 -41q-160 0 -241 92t-81 234q0 157 94 247.5t242 90.5q110 0 166 -33q6 -2 6 -12v-87q0 -10 -8 -6q-71 38 -162 38q-103 0 -161 -60.5t-58 -174.5q0 -101 55.5 -166.5t158.5 -65.5
q50 0 80 14v148zM193 836h78q7 0 8 -7q18 -47 67 -47q51 0 68 48q4 6 8 6h79q6 0 6 -8q-8 -61 -53.5 -97.5t-107.5 -36.5q-65 0 -109.5 34.5t-50.5 99.5q0 8 7 8z" />
    <glyph glyph-name="gbreve" unicode="&#x11f;" horiz-adv-x="495" 
d="M312 329q0 42 -20 65.5t-59 23.5q-36 0 -58.5 -23.5t-22.5 -63.5t21.5 -64t59.5 -24q37 0 58 23t21 63zM377 -64q0 69 -137 69q-39 0 -61 -4q-17 -10 -32 -28t-15 -37q0 -32 32 -55t90 -23q62 0 92.5 22.5t30.5 55.5zM235 495q40 0 77 -7q11 -2 27 -2h132q6 0 6 -7v-72
q0 -6 -6 -6l-74 3q22 -27 22 -78q0 -77 -51.5 -118.5t-131.5 -41.5q-21 0 -35 4q-9 -14 -9 -36q0 -25 15 -40q8 1 47 1q113 0 174 -33t61 -112q0 -75 -65.5 -125.5t-174.5 -50.5q-102 0 -162.5 44.5t-60.5 114.5q0 55 87 123q-22 31 -22 72q0 35 19 65q-67 41 -67 135
q0 74 52.5 120.5t139.5 46.5zM94 680h78q5 0 5 -4q18 -50 69 -50q56 0 70 49q1 5 6 5h78q5 0 5 -5q-10 -64 -51.5 -98.5t-107.5 -34.5q-65 0 -106.5 33.5t-50.5 98.5q-1 6 5 6z" />
    <glyph glyph-name="Gdotaccent" unicode="&#x120;" horiz-adv-x="640" 
d="M463 250l-104 3q-8 0 -8 9v76q0 7 7 7h213q8 0 8 -8v-294q0 -7 -7 -11q-88 -41 -200 -41q-160 0 -241 92t-81 234q0 157 94 247.5t242 90.5q110 0 166 -33q6 -2 6 -12v-87q0 -10 -8 -6q-71 38 -162 38q-103 0 -161 -60.5t-58 -174.5q0 -101 55.5 -166.5t158.5 -65.5
q50 0 80 14v148zM355 700q-29 0 -47 16t-18 43q0 26 18.5 42t48.5 16t47.5 -16t17.5 -42q0 -27 -18 -43t-49 -16z" />
    <glyph glyph-name="gdotaccent" unicode="&#x121;" horiz-adv-x="495" 
d="M312 329q0 42 -20 65.5t-59 23.5q-36 0 -58.5 -23.5t-22.5 -63.5t21.5 -64t59.5 -24q37 0 58 23t21 63zM377 -64q0 69 -137 69q-39 0 -61 -4q-17 -10 -32 -28t-15 -37q0 -32 32 -55t90 -23q62 0 92.5 22.5t30.5 55.5zM235 495q40 0 77 -7q11 -2 27 -2h132q6 0 6 -7v-72
q0 -6 -6 -6l-74 3q22 -27 22 -78q0 -77 -51.5 -118.5t-131.5 -41.5q-21 0 -35 4q-9 -14 -9 -36q0 -25 15 -40q8 1 47 1q113 0 174 -33t61 -112q0 -75 -65.5 -125.5t-174.5 -50.5q-102 0 -162.5 44.5t-60.5 114.5q0 55 87 123q-22 31 -22 72q0 35 19 65q-67 41 -67 135
q0 74 52.5 120.5t139.5 46.5zM238 552q-29 0 -46.5 16.5t-17.5 44.5q0 27 18 43.5t47 16.5t46.5 -16.5t17.5 -44.5t-18 -44t-47 -16z" />
    <glyph glyph-name="uni0122" unicode="&#x122;" horiz-adv-x="640" 
d="M463 250l-104 3q-8 0 -8 9v76q0 7 7 7h213q8 0 8 -8v-294q0 -7 -7 -11q-88 -41 -200 -41q-160 0 -241 92t-81 234q0 157 94 247.5t242 90.5q110 0 166 -33q6 -2 6 -12v-87q0 -10 -8 -6q-71 38 -162 38q-103 0 -161 -60.5t-58 -174.5q0 -101 55.5 -166.5t158.5 -65.5
q50 0 80 14v148zM368 -224h-87q-9 0 -4 7q35 56 35 110q0 25 -14 61q-2 6 4 6h96q5 0 9 -6q15 -23 15 -55q0 -67 -44 -120q-2 -3 -10 -3z" />
    <glyph glyph-name="uni0123" unicode="&#x123;" horiz-adv-x="495" 
d="M224 714h87q9 0 4 -7q-35 -56 -35 -109q0 -25 14 -61q2 -6 -4 -6h-96q-6 0 -9 6q-15 21 -15 55q0 66 44 119q2 3 10 3zM312 329q0 42 -20 65.5t-59 23.5q-36 0 -58.5 -23.5t-22.5 -63.5t21.5 -64t59.5 -24q37 0 58 23t21 63zM377 -64q0 69 -137 69q-39 0 -61 -4
q-17 -10 -32 -28t-15 -37q0 -32 32 -55t90 -23q62 0 92.5 22.5t30.5 55.5zM235 495q40 0 77 -7q11 -2 27 -2h132q6 0 6 -7v-72q0 -6 -6 -6l-74 3q22 -27 22 -78q0 -77 -51.5 -118.5t-131.5 -41.5q-21 0 -35 4q-9 -14 -9 -36q0 -25 15 -40q8 1 47 1q113 0 174 -33t61 -112
q0 -75 -65.5 -125.5t-174.5 -50.5q-102 0 -162.5 44.5t-60.5 114.5q0 55 87 123q-22 31 -22 72q0 35 19 65q-67 41 -67 135q0 74 52.5 120.5t139.5 46.5z" />
    <glyph glyph-name="Hcircumflex" unicode="&#x124;" horiz-adv-x="641" 
d="M560 0h-100q-9 0 -9 8v274h-262v-273q0 -9 -8 -9h-100q-8 0 -8 9v628q0 8 8 8h100q8 0 8 -7v-261h262v261q0 7 8 7h102q6 0 6 -7v-630q0 -8 -7 -8zM376 694l-61 63l-59 -62q-6 -6 -12 -6h-85q-4 0 -4.5 3t1.5 5l108 113q4 4 10 4h86q9 0 12 -5l112 -114q6 -6 -4 -6h-92
q-7 0 -12 5z" />
    <glyph glyph-name="hcircumflex" unicode="&#x125;" horiz-adv-x="531" 
d="M179 720l-60 46l-56 -46q-5 -5 -13 -5h-87q-3 0 -4.5 2t1.5 5l111 96q5 4 10 4h81q8 0 12 -6l114 -94q2 -2 1.5 -4.5t-4.5 -2.5h-92q-7 0 -14 5zM63 7v688q0 7 7 7h102q7 0 7 -7v-242q60 42 130 42q66 0 112 -45t46 -150v-292q0 -8 -7 -8h-101q-8 0 -8 7v295q0 98 -80 98
q-48 0 -92 -36v-357q0 -7 -7 -7h-102q-7 0 -7 7z" />
    <glyph glyph-name="Hbar" unicode="&#x126;" horiz-adv-x="641" 
d="M189 342h262v94h-262v-94zM73 639q0 6 7 6h103q6 0 6 -6v-125h262v124q0 7 7 7h103q6 0 6 -7v-124h44q6 0 6 -5v-67q0 -6 -6 -6h-44v-428q0 -8 -6 -8h-102q-8 0 -8 7v240h-262v-240q0 -7 -7 -7h-102q-7 0 -7 7v429h-48q-6 0 -6 6v67q0 5 5 5h49v125z" />
    <glyph glyph-name="hbar" unicode="&#x127;" horiz-adv-x="534" 
d="M171 0h-98q-9 0 -9 8v533h-59q-7 0 -7 7v68q0 6 6 6h60v72q0 8 9 8h99q7 0 8 -8v-72h118q7 0 7 -6v-67q0 -8 -7 -8h-118v-122q63 45 132 45q65 0 112 -46t47 -143v-268q0 -7 -8 -7h-100q-8 0 -8 7v264q0 98 -83 98q-50 0 -92 -35v-326q0 -8 -9 -8z" />
    <glyph glyph-name="Itilde" unicode="&#x128;" horiz-adv-x="262" 
d="M189 638v-629q0 -9 -8 -9h-100q-8 0 -8 9v629q0 7 8 7h101q7 0 7 -7zM40 696h-63q-8 0 -8 6q0 60 28 91t69 31q34 0 73 -24t51 -24q25 0 28 39q0 6 6 6h63q7 0 7 -6q-3 -121 -93 -121q-31 0 -70 23.5t-54 23.5q-26 0 -30 -40q0 -5 -7 -5z" />
    <glyph glyph-name="itilde" unicode="&#x129;" horiz-adv-x="242" 
d="M63 8v470q0 8 7 8h102q7 0 7 -7v-471q0 -8 -8 -8h-99q-9 0 -9 8zM27 554h-64q-7 0 -7 7q0 62 27.5 94.5t70.5 32.5q34 0 76.5 -24t53.5 -24q26 0 29 40q0 6 6 6h63q7 0 7 -6q-1 -128 -94 -128q-30 0 -71.5 24t-58.5 24q-29 0 -33 -40q0 -6 -5 -6z" />
    <glyph glyph-name="Imacron" unicode="&#x12a;" horiz-adv-x="262" 
d="M189 638v-629q0 -9 -8 -9h-100q-8 0 -8 9v629q0 7 8 7h101q7 0 7 -7zM0 797h263q6 0 6 -7v-73q0 -7 -7 -7h-259q-9 0 -9 7v73q0 7 6 7z" />
    <glyph glyph-name="imacron" unicode="&#x12b;" horiz-adv-x="242" 
d="M63 8v470q0 8 7 8h102q7 0 7 -7v-471q0 -8 -8 -8h-99q-9 0 -9 8zM-11 657h268q6 0 6 -6v-70q0 -7 -7 -7h-268q-6 0 -6 7v69q0 7 7 7z" />
    <glyph glyph-name="Ibreve" unicode="&#x12c;" horiz-adv-x="262" 
d="M189 638v-629q0 -9 -8 -9h-100q-8 0 -8 9v629q0 7 8 7h101q7 0 7 -7zM-23 832h79q6 0 7 -7q18 -47 67 -47q52 0 69 48q2 6 8 6h78q6 0 6 -8q-7 -61 -52.5 -97.5t-108.5 -36.5q-64 0 -108.5 34.5t-50.5 99.5q0 8 6 8z" />
    <glyph glyph-name="ibreve" unicode="&#x12d;" horiz-adv-x="242" 
d="M63 8v470q0 8 7 8h102q7 0 7 -7v-471q0 -8 -8 -8h-99q-9 0 -9 8zM-31 680h78q5 0 5 -4q18 -50 69 -50q56 0 70 49q1 5 6 5h78q5 0 5 -5q-10 -64 -51.5 -98.5t-107.5 -34.5q-65 0 -106.5 33.5t-50.5 98.5q-1 6 5 6z" />
    <glyph glyph-name="Iogonek" unicode="&#x12e;" horiz-adv-x="262" 
d="M73 14v625q0 6 6 6h104q6 0 6 -5v-630q0 -7 -4 -10q-65 -47 -65 -91q0 -23 16 -35.5t41 -12.5q24 0 48 6q3 1 4 0t1 -5v-64q0 -10 -5 -12q-28 -15 -85 -15q-54 0 -90.5 26.5t-36.5 80.5q0 57 67 124q-7 1 -7 12z" />
    <glyph glyph-name="iogonek" unicode="&#x12f;" horiz-adv-x="242" 
d="M71 0q-8 1 -8 11v467q0 8 8 8h101q7 0 7 -8v-468q0 -6 -6 -10q-51 -38 -51 -79q0 -22 14.5 -35t40.5 -13q25 0 45 6q8 2 8 -6v-65q0 -6 -6 -11q-28 -15 -84 -15q-52 0 -89 25.5t-37 78.5q0 57 57 114zM121 552q-28 0 -46 16.5t-18 44.5q0 27 18.5 43.5t46.5 16.5
q29 0 46.5 -16.5t17.5 -43.5q0 -28 -18 -44.5t-47 -16.5z" />
    <glyph glyph-name="Idotaccent" unicode="&#x130;" horiz-adv-x="262" 
d="M189 638v-629q0 -9 -8 -9h-100q-8 0 -8 9v629q0 7 8 7h101q7 0 7 -7zM130 695q-29 0 -47 16t-18 43q0 26 18 42t48 16t47.5 -16.5t17.5 -42.5t-18 -42t-48 -16z" />
    <glyph glyph-name="dotlessi" unicode="&#x131;" horiz-adv-x="242" 
d="M63 8v470q0 8 7 8h102q7 0 7 -7v-471q0 -8 -8 -8h-99q-9 0 -9 8z" />
    <glyph glyph-name="IJ" unicode="&#x132;" horiz-adv-x="526" 
d="M189 638v-629q0 -9 -8 -9h-100q-8 0 -8 9v629q0 7 8 7h101q7 0 7 -7zM344 645h102q7 0 7 -6v-611q0 -97 -46 -146t-125 -49q-42 0 -64 10q-7 3 -7 11v84q0 9 8 6q23 -9 51 -9q66 0 66 92v611q0 7 8 7z" />
    <glyph glyph-name="ij" unicode="&#x133;" horiz-adv-x="484" 
d="M120 552q-28 0 -46 16.5t-18 44.5q0 27 18.5 43.5t47.5 16.5t46.5 -16.5t17.5 -44.5q0 -27 -18 -43.5t-48 -16.5zM63 8v470q0 8 7 8h102q7 0 7 -7v-471q0 -8 -8 -8h-99q-9 0 -9 8zM305 -23v501q0 8 8 8h100q8 0 8 -7v-433q0 -96 -10.5 -142.5t-34.5 -76.5
q-40 -47 -114 -47q-30 0 -40 3q-7 3 -7 10v74q0 8 7 8q47 -2 65 19t18 83zM363 552q-29 0 -47 16.5t-18 44.5q0 27 18.5 43.5t47.5 16.5t46.5 -16.5t17.5 -44.5q0 -27 -18 -43.5t-47 -16.5z" />
    <glyph glyph-name="Jcircumflex" unicode="&#x134;" horiz-adv-x="368" 
d="M179 153v485q0 7 7 7h102q7 0 7 -6v-486q0 -211 -190 -211q-65 0 -100 19q-7 2 -7 11v84q0 9 8 6q42 -19 87 -19q46 0 66 23.5t20 86.5zM289 693l-60 63l-60 -63q-5 -5 -11 -5h-85q-4 0 -5 3t2 5l108 113q4 3 10 3h86q8 0 12 -4l112 -114q4 -6 -4 -6h-93q-7 0 -12 5z" />
    <glyph glyph-name="jcircumflex" unicode="&#x135;" horiz-adv-x="243" 
d="M64 -23v501q0 8 8 8h100q8 0 8 -7v-433q0 -96 -10.5 -142.5t-34.5 -76.5q-40 -47 -114 -47q-30 0 -40 3q-7 3 -7 10v74q0 8 7 8q47 -2 65 19t18 83zM118 633q-38 -63 -59 -95q-4 -4 -9 -4h-73q-4 0 -4.5 3t1.5 6l96 144q4 5 8 5h84q6 0 10 -5l99 -145q4 -8 -4 -8h-80
q-6 0 -9 5q-9 13 -60 94z" />
    <glyph glyph-name="uni0136" unicode="&#x136;" horiz-adv-x="594" 
d="M180 0h-99q-8 0 -8 9v629q0 7 7 7h102q7 0 7 -7v-264h58q9 0 16 10q25 37 81.5 127t82.5 128q4 6 12 6h108q11 0 5 -10q-130 -199 -206 -296q-3 -4 0 -9q36 -44 73.5 -94.5t91.5 -126.5t70 -99q3 -4 1.5 -7t-5.5 -3h-117q-10 0 -16 7q-29 39 -93.5 131.5t-91.5 129.5
q-7 10 -17 10h-53v-269q0 -9 -9 -9zM320 -222h-87q-9 0 -4 7q35 56 35 110q0 21 -14 61q-2 6 4 6h96q5 0 9 -6q14 -24 14 -55q0 -68 -43 -120q-3 -3 -10 -3z" />
    <glyph glyph-name="uni0137" unicode="&#x137;" horiz-adv-x="500" 
d="M63 695q0 7 8 7h100q8 0 8 -7v-402h37q10 0 15 6q13 21 57 89.5t58 91.5q4 6 11 6h104q9 0 5 -9q-32 -55 -153 -215q-4 -5 0 -9q17 -21 187 -244q2 -3 1 -6t-5 -3h-127q-7 0 -12 6q-20 30 -63.5 91.5t-66.5 94.5q-6 9 -15 9h-33v-193q0 -8 -8 -8h-100q-8 0 -8 8v687z
M263 -220h-87q-9 0 -4 7q35 56 35 110q0 21 -14 61q-2 6 4 6h96q5 0 9 -6q14 -24 14 -55q0 -67 -43 -119q-4 -4 -10 -4z" />
    <glyph glyph-name="kgreenlandic" unicode="&#x138;" horiz-adv-x="503" 
d="M63 476q0 6 6 6h103q7 0 7 -6v-192h46q9 0 14 8q12 20 56.5 91.5t57.5 93.5q3 5 10 5h107q8 0 4 -8q-45 -72 -155 -219q61 -72 186 -246q5 -9 -5 -9h-125q-9 0 -13 6q-4 3 -64 94t-63 94q-7 8 -15 8h-41v-195q0 -7 -8 -7h-101q-7 0 -7 7v469z" />
    <glyph glyph-name="Lacute" unicode="&#x139;" horiz-adv-x="490" 
d="M446 0h-364q-9 0 -9 10v627q0 8 8 8h101q7 0 7 -7v-543h275q9 0 7 -8l-16 -80q-1 -7 -9 -7zM84 693l102 112q4 5 11 5h115q4 0 4.5 -3t-1.5 -5l-118 -110q-6 -6 -14 -6h-95q-4 0 -5 2.5t1 4.5z" />
    <glyph glyph-name="lacute" unicode="&#x13a;" horiz-adv-x="257" 
d="M67 731l89 82q6 5 15 5h108q4 0 4.5 -3.5t-2.5 -5.5l-104 -82q-7 -5 -15 -5h-91q-12 0 -4 9zM63 109v586q0 7 8 7h100q8 0 8 -8v-580q0 -20 7 -27.5t21 -7.5q3 0 10 0.5t11 0.5q2 1 3.5 -0.5t1.5 -4.5v-65q0 -8 -6 -10q-20 -10 -60 -10q-50 0 -77 26t-27 93z" />
    <glyph glyph-name="uni013B" unicode="&#x13b;" horiz-adv-x="490" 
d="M446 0h-364q-9 0 -9 10v627q0 8 8 8h101q7 0 7 -7v-543h275q9 0 7 -8l-16 -80q-1 -7 -9 -7zM282 -222h-88q-6 0 -4 7q36 57 36 110q0 23 -15 61q-2 6 5 6h95q5 0 9 -6q15 -22 15 -55q0 -66 -43 -120q-3 -3 -10 -3z" />
    <glyph glyph-name="uni013C" unicode="&#x13c;" horiz-adv-x="257" 
d="M63 109v586q0 7 8 7h100q8 0 8 -8v-580q0 -20 7 -27.5t21 -7.5q3 0 10 0.5t11 0.5q2 1 3.5 -0.5t1.5 -4.5v-65q0 -8 -6 -10q-20 -10 -60 -10q-50 0 -77 26t-27 93zM156 -221h-88q-6 0 -4 7q36 57 36 109q0 24 -15 62q-2 5 5 5h95q6 0 9 -5q15 -22 15 -55q0 -66 -43 -120
q-3 -3 -10 -3z" />
    <glyph glyph-name="Lcaron" unicode="&#x13d;" horiz-adv-x="490" 
d="M446 0h-364q-9 0 -9 10v627q0 8 8 8h101q7 0 7 -7v-543h275q9 0 7 -8l-16 -80q-1 -7 -9 -7zM351 442l-1 221q0 7 7 7h86q7 0 7 -6l-18 -223q-2 -6 -7 -6h-67q-7 0 -7 7z" />
    <glyph glyph-name="lcaron" unicode="&#x13e;" horiz-adv-x="306" 
d="M238 487l-2 221q0 7 7 7h75q6 0 6 -7l-13 -220q-2 -8 -7 -8h-59q-7 0 -7 7zM63 109v586q0 7 8 7h100q8 0 8 -8v-580q0 -20 7 -27.5t21 -7.5q3 0 10 0.5t11 0.5q2 1 3.5 -0.5t1.5 -4.5v-65q0 -8 -6 -10q-20 -10 -60 -10q-50 0 -77 26t-27 93z" />
    <glyph glyph-name="Ldot" unicode="&#x13f;" horiz-adv-x="490" 
d="M446 0h-364q-9 0 -9 10v627q0 8 8 8h101q7 0 7 -7v-543h275q9 0 7 -8l-16 -80q-1 -7 -9 -7zM386 290q-29 0 -47 16t-18 43q0 26 18.5 42t48.5 16t47.5 -16.5t17.5 -42.5t-18 -42t-49 -16z" />
    <glyph glyph-name="ldot" unicode="&#x140;" horiz-adv-x="283" 
d="M263 344q-24 0 -38 17.5t-14 48.5t13.5 48.5t38.5 17.5t38.5 -17.5t13.5 -48.5q0 -66 -52 -66zM63 109v586q0 7 8 7h100q8 0 8 -8v-580q0 -20 7 -27.5t21 -7.5q3 0 10 0.5t11 0.5q2 1 3.5 -0.5t1.5 -4.5v-65q0 -8 -6 -10q-20 -10 -60 -10q-50 0 -77 26t-27 93z" />
    <glyph glyph-name="Lslash" unicode="&#x141;" horiz-adv-x="502" 
d="M457 0h-366q-8 0 -8 7v234l-63 -29q-6 -2 -6 4v71q0 4 5 7l64 30v315q0 6 7 6h102q7 0 7 -7v-263l133 60q8 3 8 -5v-64q0 -10 -7 -12l-134 -62v-197h278q7 0 5 -7l-15 -80q-3 -8 -10 -8z" />
    <glyph glyph-name="lslash" unicode="&#x142;" horiz-adv-x="267" 
d="M189 394v-282q0 -35 29 -35h16q4 1 5 -0.5t1 -6.5v-61q0 -7 -5 -10q-23 -9 -59 -9q-49 0 -76 26t-27 93v230l-60 -30q-6 -2 -6 4v66q0 6 4 7l62 31v278q0 7 6 7h103q7 0 7 -6v-225l71 36q6 3 6 -4v-55q0 -16 -5 -18z" />
    <glyph glyph-name="Nacute" unicode="&#x143;" horiz-adv-x="646" 
d="M73 638q0 7 7 7h129q9 0 11 -6q223 -429 246 -487h1q-3 78 -3 166v320q0 7 8 7h93q8 0 8 -8v-628q0 -9 -10 -9h-123q-7 0 -13 7q-24 56 -127 261t-122 252h-1q3 -39 5 -197l-1 -315q0 -8 -7 -8h-93q-8 0 -8 9v629zM243 698l103 113q3 4 11 4h115q4 0 4.5 -3t-1.5 -5
l-118 -110q-7 -6 -14 -6h-95q-4 0 -5.5 2.5t0.5 4.5z" />
    <glyph glyph-name="nacute" unicode="&#x144;" horiz-adv-x="530" 
d="M63 8v364q0 72 -5 107q0 7 7 7h86q8 0 12 -7q5 -14 7 -38q62 54 142 54q66 0 110.5 -44t44.5 -150v-293q0 -8 -8 -8h-99q-9 0 -9 8v293q0 99 -80 99q-51 0 -92 -41v-352q0 -7 -8 -7h-101q-7 0 -7 8zM214 544l74 143q5 8 11 8h109q10 0 5 -9l-96 -144q-4 -5 -13 -5h-86
q-8 0 -4 7z" />
    <glyph glyph-name="uni0145" unicode="&#x145;" horiz-adv-x="646" 
d="M73 638q0 7 7 7h129q9 0 11 -6q223 -429 246 -487h1q-3 78 -3 166v320q0 7 8 7h93q8 0 8 -8v-628q0 -9 -10 -9h-123q-7 0 -13 7q-24 56 -127 261t-122 252h-1q3 -39 5 -197l-1 -315q0 -8 -7 -8h-93q-8 0 -8 9v629zM336 -220h-88q-6 0 -4 7q36 57 36 110q0 23 -15 61
q-2 6 5 6h95q5 0 9 -6q15 -22 15 -55q0 -66 -43 -120q-3 -3 -10 -3z" />
    <glyph glyph-name="uni0146" unicode="&#x146;" horiz-adv-x="530" 
d="M63 8v364q0 72 -5 107q0 7 7 7h86q8 0 12 -7q5 -14 7 -38q62 54 142 54q66 0 110.5 -44t44.5 -150v-293q0 -8 -8 -8h-99q-9 0 -9 8v293q0 99 -80 99q-51 0 -92 -41v-352q0 -7 -8 -7h-101q-7 0 -7 8zM279 -220h-87q-9 0 -4 7q35 56 35 110q0 21 -14 61q-4 6 4 6h96
q5 0 9 -6q14 -24 14 -55q0 -68 -43 -120q-3 -3 -10 -3z" />
    <glyph glyph-name="Ncaron" unicode="&#x147;" horiz-adv-x="646" 
d="M73 638q0 7 7 7h129q9 0 11 -6q223 -429 246 -487h1q-3 78 -3 166v320q0 7 8 7h93q8 0 8 -8v-628q0 -9 -10 -9h-123q-7 0 -13 7q-24 56 -127 261t-122 252h-1q3 -39 5 -197l-1 -315q0 -8 -7 -8h-93q-8 0 -8 9v629zM267 808l60 -62l60 62q5 6 11 6h86q3 0 4 -3t-2 -6
l-108 -112q-4 -4 -9 -4h-87q-7 0 -12 5l-112 113q-5 7 4 7h93q7 0 12 -6z" />
    <glyph glyph-name="ncaron" unicode="&#x148;" horiz-adv-x="530" 
d="M63 8v364q0 72 -5 107q0 7 7 7h86q8 0 12 -7q5 -14 7 -38q62 54 142 54q66 0 110.5 -44t44.5 -150v-293q0 -8 -8 -8h-99q-9 0 -9 8v293q0 99 -80 99q-51 0 -92 -41v-352q0 -7 -8 -7h-101q-7 0 -7 8zM263 593q23 42 59 95q3 4 9 4h73q3 0 4 -3t-1 -5l-96 -145q-4 -5 -9 -5
h-84q-5 0 -9 6l-99 145q-2 2 -1 4.5t4 2.5h80q6 0 10 -5q31 -45 60 -94z" />
    <glyph glyph-name="napostrophe" unicode="&#x149;" horiz-adv-x="530" 
d="M63 522l-1 222q0 7 7 7h86q7 0 7 -7l-18 -223q-1 -5 -6 -5h-68q-7 0 -7 6zM63 8v364q0 72 -5 107q0 7 7 7h86q8 0 12 -7q5 -14 7 -38q62 54 142 54q66 0 110.5 -44t44.5 -150v-293q0 -8 -8 -8h-99q-9 0 -9 8v293q0 99 -80 99q-51 0 -92 -41v-352q0 -7 -8 -7h-101
q-7 0 -7 8z" />
    <glyph glyph-name="Eng" unicode="&#x14a;" horiz-adv-x="646" 
d="M175 0h-95q-7 0 -7 7v632q0 6 6 6h132q7 0 9 -6l172 -319q59 -116 74 -153h1q-3 75 -3 171v301q0 6 7 6h96q6 0 6 -5v-595q0 -96 -10.5 -140.5t-34.5 -74.5q-39 -46 -115 -46q-27 0 -40 4q-5 1 -5 9l1 76q0 9 6 9q48 -1 66 19.5t17 80.5l-206 379q-52 97 -73 157h-1
q3 -48 3 -204v-307q0 -7 -6 -7z" />
    <glyph glyph-name="eng" unicode="&#x14b;" horiz-adv-x="531" 
d="M169 0h-98q-8 0 -8 9v362q0 71 -5 108q0 7 7 7h87q5 0 11 -6q3 -7 8 -37q71 52 144 52q27 0 51.5 -8.5t48.5 -28t38 -60t14 -97.5v-261q1 -94 -9.5 -139.5t-35.5 -74.5q-38 -47 -114 -47q-19 0 -34 3q-7 3 -7 9v65q0 9 7 9q45 1 61 20.5t16 79.5v339q0 96 -79 96
q-52 0 -93 -40v-351q0 -9 -10 -9z" />
    <glyph glyph-name="Omacron" unicode="&#x14c;" horiz-adv-x="676" 
d="M340 655q130 0 208 -92t78 -235q1 -159 -78 -248t-210 -89q-134 0 -211 89t-77 245q0 151 80 240.5t210 89.5zM169 325q0 -107 45.5 -172.5t127.5 -65.5q78 0 121.5 63t43.5 175q0 107 -45.5 170.5t-124.5 63.5q-75 0 -121.5 -61t-46.5 -173zM206 798h263q6 0 6 -7v-73
q0 -8 -7 -8h-259q-9 0 -9 8v72q0 8 6 8z" />
    <glyph glyph-name="omacron" unicode="&#x14d;" horiz-adv-x="541" 
d="M273 495q107 0 166.5 -69.5t59.5 -180.5q0 -118 -62 -186t-166 -68q-78 0 -131.5 37.5t-75.5 92.5t-22 122q0 112 62.5 182t168.5 70zM268 409q-49 0 -79 -43.5t-30 -120.5t29.5 -122.5t84.5 -45.5q48 0 78.5 40.5t30.5 124.5q0 76 -28 121.5t-86 45.5zM138 657h267
q6 0 6 -6v-70q0 -7 -6 -7h-268q-6 0 -6 7v69q0 7 7 7z" />
    <glyph glyph-name="Obreve" unicode="&#x14e;" horiz-adv-x="676" 
d="M340 655q130 0 208 -92t78 -235q1 -159 -78 -248t-210 -89q-134 0 -211 89t-77 245q0 151 80 240.5t210 89.5zM169 325q0 -107 45.5 -172.5t127.5 -65.5q78 0 121.5 63t43.5 175q0 107 -45.5 170.5t-124.5 63.5q-75 0 -121.5 -61t-46.5 -173zM184 837h79q6 0 7 -6
q19 -48 67 -48q52 0 69 49q2 5 7 5h79q6 0 6 -7q-8 -61 -53.5 -97.5t-107.5 -36.5q-65 0 -109.5 34.5t-49.5 99.5q-2 7 6 7z" />
    <glyph glyph-name="obreve" unicode="&#x14f;" horiz-adv-x="541" 
d="M273 495q107 0 166.5 -69.5t59.5 -180.5q0 -118 -62 -186t-166 -68q-78 0 -131.5 37.5t-75.5 92.5t-22 122q0 112 62.5 182t168.5 70zM268 409q-49 0 -79 -43.5t-30 -120.5t29.5 -122.5t84.5 -45.5q48 0 78.5 40.5t30.5 124.5q0 76 -28 121.5t-86 45.5zM118 680h78
q5 0 5 -4q18 -50 69 -50q56 0 70 49q1 5 6 5h78q5 0 5 -5q-10 -64 -51.5 -98.5t-107.5 -34.5q-65 0 -106.5 33.5t-50.5 98.5q-1 6 5 6z" />
    <glyph glyph-name="Ohungarumlaut" unicode="&#x150;" horiz-adv-x="676" 
d="M340 655q130 0 208 -92t78 -235q1 -159 -78 -248t-210 -89q-134 0 -211 89t-77 245q0 151 80 240.5t210 89.5zM169 325q0 -107 45.5 -172.5t127.5 -65.5q78 0 121.5 63t43.5 175q0 107 -45.5 170.5t-124.5 63.5q-75 0 -121.5 -61t-46.5 -173zM194 698l68 111q2 6 10 6h95
q8 0 4 -9l-84 -111q-4 -5 -10 -5h-79q-9 0 -4 8zM372 698l68 111q4 6 11 6h95q11 0 4 -9l-82 -109q-5 -6 -12 -6h-80q-7 0 -4 7z" />
    <glyph glyph-name="ohungarumlaut" unicode="&#x151;" horiz-adv-x="541" 
d="M273 495q107 0 166.5 -69.5t59.5 -180.5q0 -118 -62 -186t-166 -68q-78 0 -131.5 37.5t-75.5 92.5t-22 122q0 112 62.5 182t168.5 70zM268 409q-49 0 -79 -43.5t-30 -120.5t29.5 -122.5t84.5 -45.5q48 0 78.5 40.5t30.5 124.5q0 76 -28 121.5t-86 45.5zM133 549l63 132
q4 7 13 7h84q11 0 5 -10l-79 -133q-3 -8 -12 -8h-68q-6 0 -7.5 4t1.5 8zM307 550l63 131q4 7 12 7h85q12 0 6 -10l-80 -133q-3 -7 -14 -7h-66q-12 0 -6 12z" />
    <glyph glyph-name="OE" unicode="&#x152;" horiz-adv-x="887" 
d="M450 92v459q-19 5 -74 5q-92 0 -150 -59.5t-58 -173.5q0 -119 56.5 -177t153.5 -58q51 0 72 4zM835 0h-340q-66 -6 -128 -6q-151 0 -234 86.5t-83 240.5q0 155 89.5 242t235.5 87q49 0 122 -5h327q5 0 7 -5l10 -83q1 -7 -6 -7h-269v-173h242q6 0 6 -7v-82q0 -6 -6 -6
h-242v-187h286q6 0 5 -6l-14 -83q-1 -6 -8 -6z" />
    <glyph glyph-name="oe" unicode="&#x153;" horiz-adv-x="837" 
d="M42 240q0 115 63 185t166 70q120 0 170 -95q52 95 166 95q50 0 88.5 -18.5t60 -49t32.5 -65t11 -69.5q0 -61 -11 -66q-14 -7 -104 -7h-185q1 -60 35.5 -97t106.5 -37q61 0 115 22q7 3 7 -6v-72q0 -11 -5 -13q-48 -26 -139 -26q-131 0 -180 92q-56 -92 -170 -92
q-112 0 -169.5 73.5t-57.5 175.5zM270 405q-50 0 -80.5 -41.5t-30.5 -118.5q0 -73 30 -117t84 -44q47 0 78 38.5t31 116.5q0 77 -27.5 121.5t-84.5 44.5zM501 297h147q41 0 41 6q1 3 1 12q0 33 -21.5 64.5t-69.5 31.5q-42 0 -67 -31.5t-31 -82.5z" />
    <glyph glyph-name="Racute" unicode="&#x154;" horiz-adv-x="582" 
d="M179 0h-99q-7 0 -7 8v629q0 8 6 8q45 2 185 2q114 0 177.5 -47t63.5 -137q0 -128 -131 -175q28 -36 103 -140t95 -138q8 -10 -3 -10h-119q-8 0 -13 6q-47 68 -152 231q-11 19 -33 19h-66v-249q0 -7 -7 -7zM186 350h73q65 0 97.5 28.5t32.5 76.5q0 49 -34 74.5t-96 25.5
q-64 0 -73 -1v-204zM192 696l102 113q4 4 12 4h114q4 0 5 -3t-2 -5l-118 -110q-7 -6 -14 -6h-95q-4 0 -5 2.5t1 4.5z" />
    <glyph glyph-name="racute" unicode="&#x155;" horiz-adv-x="343" 
d="M64 486h89q8 0 11 -8q6 -20 10 -58q26 35 66 55t76 20q8 0 12 -1q5 0 5 -8v-91q0 -7 -7 -7q-42 2 -82.5 -13.5t-64.5 -41.5v-326q0 -7 -7 -7h-101q-8 0 -8 8v338q0 81 -5 134q-2 6 6 6zM116 544l75 143q5 8 10 8h110q10 0 5 -9l-97 -144q-4 -5 -12 -5h-87q-8 0 -4 7z" />
    <glyph glyph-name="uni0156" unicode="&#x156;" horiz-adv-x="582" 
d="M179 0h-99q-7 0 -7 8v629q0 8 6 8q45 2 185 2q114 0 177.5 -47t63.5 -137q0 -128 -131 -175q28 -36 103 -140t95 -138q8 -10 -3 -10h-119q-8 0 -13 6q-47 68 -152 231q-11 19 -33 19h-66v-249q0 -7 -7 -7zM186 350h73q65 0 97.5 28.5t32.5 76.5q0 49 -34 74.5t-96 25.5
q-64 0 -73 -1v-204zM306 -217h-87q-6 0 -4 7q36 57 36 110q0 23 -15 61q-2 6 4 6h96q5 0 9 -6q15 -23 15 -55q0 -66 -44 -119q-2 -4 -10 -4z" />
    <glyph glyph-name="uni0157" unicode="&#x157;" horiz-adv-x="343" 
d="M64 486h89q8 0 11 -8q6 -20 10 -58q26 35 66 55t76 20q8 0 12 -1q5 0 5 -8v-91q0 -7 -7 -7q-42 2 -82.5 -13.5t-64.5 -41.5v-326q0 -7 -7 -7h-101q-8 0 -8 8v338q0 81 -5 134q-2 6 6 6zM137 -215h-88q-8 0 -3 7q35 58 35 109q0 21 -14 61q-3 6 4 6h95q7 0 10 -5
q14 -24 14 -56q0 -65 -43 -119q-3 -3 -10 -3z" />
    <glyph glyph-name="Rcaron" unicode="&#x158;" horiz-adv-x="582" 
d="M179 0h-99q-7 0 -7 8v629q0 8 6 8q45 2 185 2q114 0 177.5 -47t63.5 -137q0 -128 -131 -175q28 -36 103 -140t95 -138q8 -10 -3 -10h-119q-8 0 -13 6q-47 68 -152 231q-11 19 -33 19h-66v-249q0 -7 -7 -7zM186 350h73q65 0 97.5 28.5t32.5 76.5q0 49 -34 74.5t-96 25.5
q-64 0 -73 -1v-204zM208 808l61 -62l59 62q5 6 11 6h86q4 0 4.5 -3t-1.5 -6l-108 -112q-5 -4 -10 -4h-87q-8 0 -11 5l-112 113q-2 2 -1 4.5t5 2.5h92q8 0 12 -6z" />
    <glyph glyph-name="rcaron" unicode="&#x159;" horiz-adv-x="343" 
d="M64 486h89q8 0 11 -8q6 -20 10 -58q26 35 66 55t76 20q8 0 12 -1q5 0 5 -8v-91q0 -7 -7 -7q-42 2 -82.5 -13.5t-64.5 -41.5v-326q0 -7 -7 -7h-101q-8 0 -8 8v338q0 81 -5 134q-2 6 6 6zM185 593q19 32 59 95q3 4 9 4h73q9 0 4 -8l-96 -145q-4 -5 -9 -5h-84q-6 0 -9 6
l-100 145q-2 2 -0.5 4.5t4.5 2.5h80q6 0 10 -5q42 -65 59 -94z" />
    <glyph glyph-name="Sacute" unicode="&#x15a;" horiz-adv-x="483" 
d="M224 -9q-120 0 -186 49q-7 4 -7 14v92q0 9 8 5q88 -63 190 -63q51 0 76.5 21t25.5 53t-23.5 54.5t-97.5 56.5q-97 44 -135 88t-38 113q0 77 58 129t161 52q95 0 154 -35q6 -2 6 -11v-88q0 -3 -2.5 -5t-6.5 0q-72 44 -152 44q-57 0 -80.5 -23.5t-23.5 -51.5
q0 -29 22.5 -52t88.5 -52q110 -49 148 -95t38 -112q0 -85 -60.5 -134t-163.5 -49zM174 704l102 113q4 4 12 4h114q4 0 5 -3t-2 -5l-118 -110q-7 -6 -14 -6h-95q-4 0 -5 2.5t1 4.5z" />
    <glyph glyph-name="sacute" unicode="&#x15b;" horiz-adv-x="386" 
d="M327 370q-63 35 -129 35q-60 0 -60 -43q0 -19 16 -32.5t69 -37.5q75 -33 106 -66t31 -84q0 -73 -49.5 -112t-130.5 -39q-88 0 -144 36q-7 4 -7 10v89q0 9 8 5q78 -50 150 -50q31 0 46 13.5t15 32.5t-17.5 34t-68.5 38q-72 32 -101.5 66t-29.5 88q0 63 46.5 102.5
t128.5 39.5q77 0 124 -27q6 -4 6 -12l-1 -80q0 -12 -8 -6zM125 544l74 143q5 8 11 8h109q10 0 5 -9l-96 -144q-4 -5 -13 -5h-86q-7 0 -4 7z" />
    <glyph glyph-name="Scircumflex" unicode="&#x15c;" horiz-adv-x="483" 
d="M224 -9q-120 0 -186 49q-7 4 -7 14v92q0 9 8 5q88 -63 190 -63q51 0 76.5 21t25.5 53t-23.5 54.5t-97.5 56.5q-97 44 -135 88t-38 113q0 77 58 129t161 52q95 0 154 -35q6 -2 6 -11v-88q0 -3 -2.5 -5t-6.5 0q-72 44 -152 44q-57 0 -80.5 -23.5t-23.5 -51.5
q0 -29 22.5 -52t88.5 -52q110 -49 148 -95t38 -112q0 -85 -60.5 -134t-163.5 -49zM300 703l-60 62l-60 -62q-5 -6 -11 -6h-85q-4 0 -5 3t2 6l108 112q4 4 9 4h87q8 0 11 -5l113 -113q5 -7 -4 -7h-93q-8 0 -12 6z" />
    <glyph glyph-name="scircumflex" unicode="&#x15d;" horiz-adv-x="386" 
d="M327 370q-63 35 -129 35q-60 0 -60 -43q0 -19 16 -32.5t69 -37.5q75 -33 106 -66t31 -84q0 -73 -49.5 -112t-130.5 -39q-88 0 -144 36q-7 4 -7 10v89q0 9 8 5q78 -50 150 -50q31 0 46 13.5t15 32.5t-17.5 34t-68.5 38q-72 32 -101.5 66t-29.5 88q0 63 46.5 102.5
t128.5 39.5q77 0 124 -27q6 -4 6 -12l-1 -80q0 -12 -8 -6zM189 633q-19 -32 -59 -95q-4 -4 -9 -4h-73q-8 0 -4 9l97 144q3 5 8 5h84q7 0 9 -5l100 -145q4 -8 -4 -8h-80q-5 0 -10 5q-9 15 -32.5 52t-26.5 42z" />
    <glyph glyph-name="uni015E" unicode="&#x15e;" horiz-adv-x="483" 
d="M416 609v-88q0 -3 -2.5 -5t-6.5 0q-72 44 -152 44q-57 0 -80.5 -23.5t-23.5 -51.5q0 -29 22.5 -52t88.5 -52q110 -49 148 -95t38 -112q0 -74 -46.5 -121.5t-127.5 -58.5l-25 -33q82 -24 82 -91q0 -41 -32 -67t-83 -26q-46 0 -69 13q-6 2 -6 10v47q0 8 7 5q31 -12 61 -12
q40 0 40 28q0 34 -89 47q-2 2 -2 11.5t2 11.5l41 54q-104 5 -163 48q-7 4 -7 14v92q0 9 8 5q88 -63 190 -63q51 0 76.5 21t25.5 53t-23.5 54.5t-97.5 56.5q-97 44 -135 88t-38 113q0 77 58 129t161 52q95 0 154 -35q6 -2 6 -11z" />
    <glyph glyph-name="uni015F" unicode="&#x15f;" horiz-adv-x="386" 
d="M336 456l-1 -80q0 -12 -8 -6q-63 35 -129 35q-60 0 -60 -43q0 -19 16 -32.5t69 -37.5q75 -33 106 -66t31 -84q0 -60 -35 -97.5t-95 -49.5l-25 -34q81 -24 81 -91q0 -41 -32 -67t-82 -26q-46 0 -70 13q-5 2 -5 10v47q0 8 7 5q29 -12 60 -12q40 0 40 28q0 34 -88 47
q-2 2 -2.5 11.5t1.5 11.5l41 54q-73 5 -120 35q-7 4 -7 10v89q0 9 8 5q78 -50 150 -50q31 0 46 13.5t15 32.5t-17.5 34t-68.5 38q-72 32 -101.5 66t-29.5 88q0 63 46.5 102.5t128.5 39.5q77 0 124 -27q6 -4 6 -12z" />
    <glyph glyph-name="Scaron" unicode="&#x160;" horiz-adv-x="483" 
d="M224 -9q-120 0 -186 49q-7 4 -7 14v92q0 9 8 5q88 -63 190 -63q51 0 76.5 21t25.5 53t-23.5 54.5t-97.5 56.5q-97 44 -135 88t-38 113q0 77 58 129t161 52q95 0 154 -35q6 -2 6 -11v-88q0 -3 -2.5 -5t-6.5 0q-72 44 -152 44q-57 0 -80.5 -23.5t-23.5 -51.5
q0 -29 22.5 -52t88.5 -52q110 -49 148 -95t38 -112q0 -85 -60.5 -134t-163.5 -49zM188 814l61 -62l59 62q6 6 11 6h86q4 0 4.5 -3t-1.5 -6l-108 -112q-4 -4 -10 -4h-87q-8 0 -11 5l-112 113q-2 2 -1 4.5t5 2.5h92q6 0 12 -6z" />
    <glyph glyph-name="scaron" unicode="&#x161;" horiz-adv-x="386" 
d="M327 370q-63 35 -129 35q-60 0 -60 -43q0 -19 16 -32.5t69 -37.5q75 -33 106 -66t31 -84q0 -73 -49.5 -112t-130.5 -39q-88 0 -144 36q-7 4 -7 10v89q0 9 8 5q78 -50 150 -50q31 0 46 13.5t15 32.5t-17.5 34t-68.5 38q-72 32 -101.5 66t-29.5 88q0 63 46.5 102.5
t128.5 39.5q77 0 124 -27q6 -4 6 -12l-1 -80q0 -12 -8 -6zM198 593q19 32 59 95q3 4 9 4h73q9 0 4 -8l-97 -145q-2 -5 -8 -5h-84q-6 0 -9 6l-100 145q-2 2 -0.5 4.5t4.5 2.5h80q6 0 10 -5q42 -65 59 -94z" />
    <glyph glyph-name="uni0162" unicode="&#x162;" 
d="M179 -62l48 62h-19q-8 0 -8 8v542h-188q-8 0 -7 9l13 79q1 7 9 7h474q8 0 9 -7l9 -79q1 -9 -7 -9h-196v-542q0 -8 -7 -8h-11l-29 -39q81 -24 81 -93q0 -41 -31 -66t-82 -25q-47 0 -71 13q-5 2 -5 10v47q0 8 7 5q31 -12 60 -12q40 0 40 28q0 35 -88 46q-2 3 -2.5 12
t1.5 12z" />
    <glyph glyph-name="uni0163" unicode="&#x163;" horiz-adv-x="312" 
d="M189 486h97q7 0 7 -7v-77q0 -7 -6 -7l-98 -2v-241q0 -34 12 -50t41 -16q19 0 41 7q3 1 4.5 -0.5t1.5 -5.5v-70q0 -9 -6 -11q-24 -11 -67 -15l-23 -30q82 -24 82 -91q0 -41 -32 -67t-83 -26q-46 0 -70 13q-5 2 -5 10v47q0 8 7 5q31 -12 60 -12q41 0 41 28q0 34 -89 47
q-2 2 -2.5 11.5t1.5 11.5l46 60q-76 23 -76 129v266l-60 2q-7 0 -7 8v75q0 8 8 8h59q6 99 10 120q1 8 8 9l96 18q7 1 7 -5q-3 -49 -5 -142z" />
    <glyph glyph-name="Tcaron" unicode="&#x164;" 
d="M200 9v541h-188q-8 0 -7 9l13 79q1 7 9 7h474q8 0 9 -7l9 -79q1 -9 -7 -9h-196v-541q0 -9 -8 -9h-99q-9 0 -9 9zM206 811l61 -63l59 63q5 5 11 5h86q9 0 3 -8l-108 -113q-4 -3 -10 -3h-87q-8 0 -11 4l-112 114q-6 6 4 6h92q7 0 12 -5z" />
    <glyph glyph-name="tcaron" unicode="&#x165;" horiz-adv-x="331" 
d="M264 555l-2 175q0 7 8 7h74q8 0 8 -8l-18 -173q-2 -9 -8 -9h-55q-7 0 -7 8zM289 82v-65q0 -9 -6 -11q-33 -15 -85 -15q-125 0 -125 136v271l-60 1q-7 1 -7 9v70q0 8 8 8h59q6 99 10 120q1 8 8 9l96 18q7 1 7 -5q-3 -49 -5 -142h97q7 0 7 -7v-73q0 -6 -6 -7l-98 -1v-251
q0 -35 12 -50.5t41 -15.5q22 0 41 7q2 1 4 -0.5t2 -5.5z" />
    <glyph glyph-name="Tbar" unicode="&#x166;" 
d="M510 638l9 -79q1 -9 -7 -9h-196v-197h99q5 0 5 -5v-66q0 -6 -6 -6h-98v-267q0 -9 -8 -9h-99q-9 0 -9 9v267h-90q-7 0 -7 6v65q0 6 6 6h91v197h-188q-8 0 -7 9l13 79q1 7 9 7h474q8 0 9 -7z" />
    <glyph glyph-name="tbar" unicode="&#x167;" horiz-adv-x="312" 
d="M189 486h97q7 0 7 -7v-73q0 -6 -6 -7l-98 -1v-110h75q6 0 6 -6v-57q0 -7 -6 -7h-75v-71q0 -35 12 -50.5t41 -15.5q22 0 41 7q2 1 4 -0.5t2 -5.5v-65q0 -9 -6 -11q-33 -15 -85 -15q-125 0 -125 136v91h-56q-6 0 -6 7v58q0 5 6 5h56v110l-60 1q-7 1 -7 9v70q0 8 8 8h59
q6 99 10 120q1 8 8 9l96 18q7 1 7 -5q-3 -49 -5 -142z" />
    <glyph glyph-name="Utilde" unicode="&#x168;" horiz-adv-x="640" 
d="M189 638v-407q0 -70 34 -107t99 -37q129 0 129 147v403q0 8 8 8h100q8 0 8 -8v-405q0 -125 -68.5 -183t-178.5 -58q-114 0 -180.5 58.5t-66.5 177.5v410q0 8 8 8h101q7 0 7 -7zM230 702h-64q-8 0 -8 6q0 60 28 91t69 31q34 0 73 -24t51 -24q25 0 28 39q0 6 6 6h64
q6 0 6 -6q-3 -121 -93 -121q-31 0 -70 24t-54 24q-26 0 -30 -41q0 -5 -6 -5z" />
    <glyph glyph-name="utilde" unicode="&#x169;" 
d="M462 479v-373q0 -46 5 -99q1 -7 -7 -7h-88q-9 0 -11 6q-4 18 -4 34q-58 -49 -138 -49q-68 0 -112 40.5t-44 135.5v312q0 7 7 7h102q7 0 7 -7v-295q0 -99 77 -99q53 0 90 38v355q0 8 8 8h101q7 0 7 -7zM170 554h-64q-7 0 -7 7q0 62 27.5 94.5t70.5 32.5q34 0 76.5 -24
t53.5 -24q26 0 29 40q0 6 6 6h63q7 0 7 -6q-1 -128 -94 -128q-30 0 -71.5 24t-58.5 24q-29 0 -33 -40q0 -6 -5 -6z" />
    <glyph glyph-name="Umacron" unicode="&#x16a;" horiz-adv-x="640" 
d="M189 638v-407q0 -70 34 -107t99 -37q129 0 129 147v403q0 8 8 8h100q8 0 8 -8v-405q0 -125 -68.5 -183t-178.5 -58q-114 0 -180.5 58.5t-66.5 177.5v410q0 8 8 8h101q7 0 7 -7zM190 799h262q6 0 6 -8v-72q0 -8 -7 -8h-259q-9 0 -9 8v72q0 8 7 8z" />
    <glyph glyph-name="umacron" unicode="&#x16b;" 
d="M462 479v-373q0 -46 5 -99q1 -7 -7 -7h-88q-9 0 -11 6q-4 18 -4 34q-58 -49 -138 -49q-68 0 -112 40.5t-44 135.5v312q0 7 7 7h102q7 0 7 -7v-295q0 -99 77 -99q53 0 90 38v355q0 8 8 8h101q7 0 7 -7zM131 657h267q6 0 6 -6v-70q0 -7 -6 -7h-268q-6 0 -6 7v69q0 7 7 7z
" />
    <glyph glyph-name="Ubreve" unicode="&#x16c;" horiz-adv-x="640" 
d="M189 638v-407q0 -70 34 -107t99 -37q129 0 129 147v403q0 8 8 8h100q8 0 8 -8v-405q0 -125 -68.5 -183t-178.5 -58q-114 0 -180.5 58.5t-66.5 177.5v410q0 8 8 8h101q7 0 7 -7zM167 828h79q6 0 7 -6q19 -48 67 -48q51 0 68 48q4 6 8 6h79q6 0 6 -8q-8 -61 -53.5 -97
t-107.5 -36q-65 0 -109.5 34t-50.5 100q0 7 7 7z" />
    <glyph glyph-name="ubreve" unicode="&#x16d;" 
d="M462 479v-373q0 -46 5 -99q1 -7 -7 -7h-88q-9 0 -11 6q-4 18 -4 34q-58 -49 -138 -49q-68 0 -112 40.5t-44 135.5v312q0 7 7 7h102q7 0 7 -7v-295q0 -99 77 -99q53 0 90 38v355q0 8 8 8h101q7 0 7 -7zM111 680h78q5 0 5 -4q18 -50 69 -50q56 0 70 49q1 5 6 5h78q5 0 5 -5
q-10 -64 -51.5 -98.5t-107.5 -34.5q-65 0 -106.5 33.5t-50.5 98.5q-1 6 5 6z" />
    <glyph glyph-name="Uring" unicode="&#x16e;" horiz-adv-x="640" 
d="M189 638v-407q0 -70 34 -107t99 -37q129 0 129 147v403q0 8 8 8h100q8 0 8 -8v-405q0 -125 -68.5 -183t-178.5 -58q-114 0 -180.5 58.5t-66.5 177.5v410q0 8 8 8h101q7 0 7 -7zM214 767q0 40 29.5 64t75.5 24q47 0 76 -24.5t29 -63.5q0 -41 -29.5 -65t-75.5 -24t-75.5 24
t-29.5 65zM276 767q0 -18 12 -28.5t31 -10.5q20 0 31.5 10.5t11.5 28.5t-12 28.5t-31 10.5t-31 -11t-12 -28z" />
    <glyph glyph-name="uring" unicode="&#x16f;" 
d="M462 479v-373q0 -46 5 -99q1 -7 -7 -7h-88q-9 0 -11 6q-4 18 -4 34q-58 -49 -138 -49q-68 0 -112 40.5t-44 135.5v312q0 7 7 7h102q7 0 7 -7v-295q0 -99 77 -99q53 0 90 38v355q0 8 8 8h101q7 0 7 -7zM160 622q0 42 28.5 68t75.5 26q46 0 75 -26.5t29 -67.5
q0 -43 -28.5 -69t-75.5 -26q-48 0 -76 25.5t-28 69.5zM219 622q0 -19 12.5 -31t32.5 -12q19 0 31.5 11.5t12.5 31.5q0 19 -12.5 31t-31.5 12q-20 0 -32.5 -11.5t-12.5 -31.5z" />
    <glyph glyph-name="Uhungarumlaut" unicode="&#x170;" horiz-adv-x="640" 
d="M189 638v-407q0 -70 34 -107t99 -37q129 0 129 147v403q0 8 8 8h100q8 0 8 -8v-405q0 -125 -68.5 -183t-178.5 -58q-114 0 -180.5 58.5t-66.5 177.5v410q0 8 8 8h101q7 0 7 -7zM172 697l68 111q4 6 11 6h95q9 0 3 -8l-83 -111q-5 -5 -10 -5h-80q-8 0 -4 7zM351 698
l67 110q4 7 12 7h95q9 0 4 -10l-83 -109q-5 -6 -12 -6h-79q-9 0 -4 8z" />
    <glyph glyph-name="uhungarumlaut" unicode="&#x171;" 
d="M462 479v-373q0 -46 5 -99q1 -7 -7 -7h-88q-9 0 -11 6q-4 18 -4 34q-58 -49 -138 -49q-68 0 -112 40.5t-44 135.5v312q0 7 7 7h102q7 0 7 -7v-295q0 -99 77 -99q53 0 90 38v355q0 8 8 8h101q7 0 7 -7zM129 549l63 132q4 7 13 7h84q11 0 5 -10l-79 -133q-3 -8 -12 -8h-68
q-6 0 -7.5 4t1.5 8zM303 550l63 131q4 7 12 7h85q12 0 6 -10l-80 -133q-3 -7 -14 -7h-66q-12 0 -6 12z" />
    <glyph glyph-name="Uogonek" unicode="&#x172;" horiz-adv-x="640" 
d="M480 -127v-62q0 -9 -7 -13q-30 -16 -81 -16q-49 0 -85.5 25.5t-36.5 77.5q0 56 63 107q-6 -1 -21 -1q-109 1 -174 59.5t-65 176.5v410q0 8 8 8h101q7 0 7 -7v-407q0 -70 34 -107t99 -37q129 0 129 147v403q0 8 8 8h100q8 0 8 -8v-407q0 -151 -111 -211q-85 -52 -85 -102
q0 -20 15 -32.5t41 -12.5q24 0 45 7q8 1 8 -6z" />
    <glyph glyph-name="uogonek" unicode="&#x173;" 
d="M356 41q-56 -50 -135 -50q-69 0 -113.5 40.5t-44.5 135.5v312q0 7 7 7h102q7 0 7 -7v-295q0 -98 77 -98q53 0 90 37v355q0 8 8 8h101q7 0 7 -7v-373q0 -57 5 -95q2 -8 -4 -10q-76 -42 -76 -87q0 -41 48 -41q23 0 42 7q9 3 9 -6v-62q0 -10 -7 -13q-29 -16 -79 -16
q-49 0 -84 25.5t-35 76.5q0 62 78 129q-3 15 -3 27z" />
    <glyph glyph-name="Wcircumflex" unicode="&#x174;" horiz-adv-x="854" 
d="M498 638l112 -509h1q17 97 108 509q1 7 9 7h100q8 0 7 -8l-161 -630q-1 -7 -9 -7h-108q-9 0 -10 7q-79 337 -116 520h-1q-8 -44 -125 -518q-1 -9 -10 -9h-106q-7 0 -10 8l-160 629q-3 8 6 8h107q8 0 10 -6q102 -436 113 -511h1q18 96 117 510q1 7 10 7h106q7 0 9 -7z
M491 700l-60 63l-60 -62q-5 -6 -11 -6h-85q-4 0 -5 3t2 5l108 113q4 4 10 4h86q7 0 12 -5l112 -114q4 -6 -4 -6h-93q-7 0 -12 5z" />
    <glyph glyph-name="wcircumflex" unicode="&#x175;" horiz-adv-x="712" 
d="M555 0h-106q-8 0 -11 8q-61 254 -81 355h-1q-12 -62 -94 -355q-2 -8 -10 -8h-105q-10 0 -13 8l-125 470q-3 8 6 8h103q8 0 9 -6q58 -233 84 -369h2q13 63 90 368q1 7 9 7h102q6 0 7 -6q60 -240 85 -371h1q46 210 89 371q2 6 8 6h94q7 0 6 -7l-139 -471q-3 -8 -10 -8z
M357 633q-31 -52 -60 -95q-4 -4 -9 -4h-73q-3 0 -4 3t1 6l96 144q4 5 9 5h84q5 0 9 -5l100 -145q4 -8 -4 -8h-80q-5 0 -10 5q-48 75 -59 94z" />
    <glyph glyph-name="Ycircumflex" unicode="&#x176;" horiz-adv-x="565" 
d="M216 262l-201 374q-6 9 5 9h115q7 0 9 -5q119 -242 144 -304q37 83 141 304q1 5 8 5h109q9 0 4 -8l-203 -379q-8 -13 -8 -31v-218q0 -9 -8 -9h-99q-9 0 -9 9v223q0 16 -7 30zM339 702l-61 62l-59 -62q-5 -6 -11 -6h-86q-3 0 -4 3t1 6l108 112q5 4 10 4h87q8 0 11 -5
l112 -114q6 -6 -4 -6h-92q-7 0 -12 6z" />
    <glyph glyph-name="ycircumflex" unicode="&#x177;" horiz-adv-x="463" 
d="M12 486h111q7 0 9 -6q102 -302 112 -340h2q50 144 99 339q3 7 10 7h95q9 0 7 -9q-21 -93 -65 -218t-92 -230q-80 -168 -135 -236q-6 -7 -15 -7h-108q-5 0 -6.5 3t2.5 7q33 42 77.5 111t63.5 111q4 10 2 15q-81 192 -175 445q-2 8 6 8zM230 633q-19 -32 -59 -95
q-4 -4 -9 -4h-73q-9 0 -4 9l97 144q2 5 8 5h84q6 0 9 -5l100 -145q4 -8 -4 -8h-80q-5 0 -10 5q-9 15 -32.5 52t-26.5 42z" />
    <glyph glyph-name="Ydieresis" unicode="&#x178;" horiz-adv-x="565" 
d="M216 262l-201 374q-6 9 5 9h115q7 0 9 -5q119 -242 144 -304q37 83 141 304q1 5 8 5h109q9 0 4 -8l-203 -379q-8 -13 -8 -31v-218q0 -9 -8 -9h-99q-9 0 -9 9v223q0 16 -7 30zM180 692q-27 0 -44 15.5t-17 41.5t18 42.5t45 16.5q28 0 45 -16.5t17 -42.5t-17.5 -41.5
t-46.5 -15.5zM382 692q-28 0 -45 15.5t-17 41.5t18 42.5t46 16.5q27 0 44 -16.5t17 -42.5q0 -27 -17.5 -42t-45.5 -15z" />
    <glyph glyph-name="Zacute" unicode="&#x179;" 
d="M490 0h-464q-8 0 -8 8v53q0 5 3 12l324 477h-313q-9 0 -8 8l14 80q2 7 9 7h436q5 0 5 -6v-58q0 -7 -4 -15l-315 -471h340q8 0 6 -8l-16 -80q-1 -7 -9 -7zM192 706l102 112q3 4 11 4h115q4 0 5 -3t-2 -5l-118 -110q-7 -6 -14 -6h-95q-10 0 -4 8z" />
    <glyph glyph-name="zacute" unicode="&#x17a;" horiz-adv-x="409" 
d="M377 0h-355q-5 0 -5 6v51q0 5 3 10q12 17 226 327q-19 -1 -92 -1h-131q-7 0 -6 9l13 76q2 8 8 8h336q5 0 6 -6v-52q0 -7 -5 -14q-136 -208 -219 -323q34 1 109 1h129q7 0 6 -8l-15 -77q-1 -7 -8 -7zM145 544l74 143q5 8 11 8h109q10 0 5 -9l-96 -144q-4 -5 -13 -5h-86
q-7 0 -4 7z" />
    <glyph glyph-name="Zdotaccent" unicode="&#x17b;" 
d="M490 0h-464q-8 0 -8 8v53q0 5 3 12l324 477h-313q-9 0 -8 8l14 80q2 7 9 7h436q5 0 5 -6v-58q0 -7 -4 -15l-315 -471h340q8 0 6 -8l-16 -80q-1 -7 -9 -7zM262 705q-29 0 -46.5 16t-17.5 43q0 26 18 42t48 16t47.5 -16.5t17.5 -42.5t-18 -42t-49 -16z" />
    <glyph glyph-name="zdotaccent" unicode="&#x17c;" horiz-adv-x="409" 
d="M377 0h-355q-5 0 -5 6v51q0 5 3 10q12 17 226 327q-19 -1 -92 -1h-131q-7 0 -6 9l13 76q2 8 8 8h336q5 0 6 -6v-52q0 -7 -5 -14q-136 -208 -219 -323q34 1 109 1h129q7 0 6 -8l-15 -77q-1 -7 -8 -7zM205 552q-29 0 -46.5 16.5t-17.5 44.5q0 27 18 43.5t47 16.5
t46.5 -16.5t17.5 -44.5t-18 -44t-47 -16z" />
    <glyph glyph-name="Zcaron" unicode="&#x17d;" 
d="M490 0h-464q-8 0 -8 8v53q0 5 3 12l324 477h-313q-9 0 -8 8l14 80q2 7 9 7h436q5 0 5 -6v-58q0 -7 -4 -15l-315 -471h340q8 0 6 -8l-16 -80q-1 -7 -9 -7zM207 814l61 -62l59 62q5 6 11 6h86q4 0 4.5 -3t-1.5 -6l-108 -112q-5 -4 -10 -4h-87q-8 0 -11 5l-112 114q-3 4 4 6
h92q7 0 12 -6z" />
    <glyph glyph-name="zcaron" unicode="&#x17e;" horiz-adv-x="409" 
d="M377 0h-355q-5 0 -5 6v51q0 5 3 10q12 17 226 327q-19 -1 -92 -1h-131q-7 0 -6 9l13 76q2 8 8 8h336q5 0 6 -6v-52q0 -7 -5 -14q-136 -208 -219 -323q34 1 109 1h129q7 0 6 -8l-15 -77q-1 -7 -8 -7zM209 593q19 32 59 95q3 4 9 4h73q9 0 4 -8l-97 -145q-3 -5 -8 -5h-84
q-6 0 -9 6l-100 145q-2 2 -0.5 4.5t4.5 2.5h80q6 0 10 -5q42 -65 59 -94z" />
    <glyph glyph-name="longs" unicode="&#x17f;" horiz-adv-x="250" 
d="M14 486h59v16q0 97 45 153t125 56q35 0 57 -9q6 -2 6 -10v-80q0 -9 -7 -6q-17 7 -38 7q-72 0 -72 -103v-502q0 -8 -8 -8h-101q-7 0 -7 8v389l-59 1q-6 2 -6 8v74q0 6 6 6z" />
    <glyph glyph-name="uni018F" unicode="&#x18f;" horiz-adv-x="643" 
d="M56 343q12 5 147 5h271v11q-2 78 -50 135t-141 57q-104 0 -193 -50q-7 -3 -7 6v87q0 8 5 10q86 51 209 51q75 0 133 -27.5t93 -75t52.5 -105.5t17.5 -123q0 -152 -76 -243t-210 -91q-128 0 -195 80t-67 191q0 76 11 82zM471 253h-233q-66 0 -69 -3q-1 -7 -1 -20
q0 -54 37.5 -98t110.5 -44q68 0 107.5 44t47.5 121z" />
    <glyph glyph-name="florin" unicode="&#x192;" horiz-adv-x="521" 
d="M113 315v65q0 7 6 7h88l10 66q7 56 26 102t62 81t103 35q48 0 73 -12q5 -4 5 -10v-77q0 -8 -7 -5q-22 11 -55 11q-74 0 -92 -122l-8 -69h100q7 0 7 -6v-66q0 -7 -6 -7h-111l-30 -223q-13 -101 -53.5 -154t-124.5 -53q-59 2 -86 18q-5 4 -5 12v78q0 8 7 5q33 -17 69 -17
t52.5 25t24.5 85l30 224h-79q-6 0 -6 7z" />
    <glyph glyph-name="uni019F" unicode="&#x19f;" horiz-adv-x="675" 
d="M341 655q128 0 206 -92t78 -235q0 -158 -78.5 -247.5t-207.5 -89.5q-134 0 -211.5 88t-77.5 245q-1 152 79.5 241.5t211.5 89.5zM170 377h335q-5 80 -49.5 131t-119.5 51q-71 0 -116 -48.5t-50 -133.5zM506 281h-337q5 -85 50 -140t123 -55q74 0 117 53t47 142z" />
    <glyph glyph-name="Ohorn" unicode="&#x1a0;" horiz-adv-x="675" 
d="M649 663q0 -49 -26.5 -76.5t-67.5 -35.5q70 -85 70 -223q0 -158 -77.5 -247.5t-208.5 -89.5q-134 0 -211.5 87.5t-77.5 245.5q-1 152 80 241.5t210 89.5q80 0 148 -40q58 -6 58 51q0 26 -4 45q0 6 6 6h88q6 0 8 -5q5 -22 5 -49zM169 325q0 -111 45 -178t128 -67
q78 0 121 64.5t43 180.5q0 111 -45 176t-125 65q-75 0 -121 -62.5t-46 -178.5z" />
    <glyph glyph-name="ohorn" unicode="&#x1a1;" horiz-adv-x="541" 
d="M274 495q72 0 124 -35q43 4 43 54q0 17 -5 42q-2 7 6 7h85q9 0 10 -8q6 -20 6 -46q1 -44 -22.5 -72.5t-62.5 -36.5q41 -60 41 -156q0 -116 -61 -184.5t-167 -68.5q-59 0 -104.5 21.5t-72 58t-39.5 80t-13 91.5q0 112 62 182.5t170 70.5zM269 409q-50 0 -80 -43t-30 -121
q0 -77 29.5 -122.5t84.5 -45.5q47 0 78 41t31 124q0 76 -27.5 121.5t-85.5 45.5z" />
    <glyph glyph-name="Uhorn" unicode="&#x1af;" horiz-adv-x="641" 
d="M460 645h42q24 1 36 13t12 39q0 23 -4 43q-2 8 6 8h85q8 0 10 -7q6 -19 6 -46q0 -91 -86 -109v-354q0 -125 -70 -183t-177 -58q-114 0 -180.5 59t-66.5 177v410q0 8 8 8h101q7 0 7 -7v-414q0 -69 33.5 -106t99.5 -37q129 0 129 146v410q0 8 9 8z" />
    <glyph glyph-name="uhorn" unicode="&#x1b0;" horiz-adv-x="528" 
d="M442 589h85q9 0 10 -8q6 -19 6 -45q0 -85 -79 -109v-321q0 -63 5 -96q0 -9 -8 -10h-85q-12 0 -13 7q-4 13 -6 35q-55 -51 -137 -51q-63 0 -110.5 39.5t-47.5 135.5v311q0 9 10 9h98q8 0 8 -8v-295q0 -98 83 -98q47 0 87 37v356q0 8 8 8h31q30 0 41.5 13.5t11.5 38.5
q0 16 -4 44q0 7 6 7z" />
    <glyph glyph-name="uni01C4" unicode="&#x1c4;" horiz-adv-x="1163" 
d="M72 8v630q0 6 7 7q102 2 186 2q156 0 238.5 -84.5t82.5 -231.5q0 -82 -23.5 -144t-59 -97t-83.5 -56.5t-89 -28.5t-85 -7q-70 0 -168 2q-6 0 -6 8zM188 553v-462q7 0 28.5 -0.5t35.5 -0.5q100 0 157.5 58t57.5 180q0 114 -53 170.5t-149 56.5q-59 0 -77 -2zM1128 0h-464
q-8 0 -8 8v53q0 5 3 12l323 477h-313q-8 0 -7 8l14 80q1 7 9 7h435q6 0 6 -6v-58q0 -7 -5 -15l-315 -471h341q8 0 5 -8l-15 -80q-1 -7 -9 -7zM845 814l60 -62l60 62q5 6 11 6h86q3 0 4 -3t-2 -6l-108 -112q-4 -4 -9 -4h-87q-8 0 -11 5l-113 114q-2 2 -1 4t5 2h93q7 0 12 -6z
" />
    <glyph glyph-name="uni01C5" unicode="&#x1c5;" horiz-adv-x="1046" 
d="M72 8v630q0 6 7 7q102 2 186 2q156 0 238.5 -84.5t82.5 -231.5q0 -82 -23.5 -144t-59 -97t-83.5 -56.5t-89 -28.5t-85 -7q-70 0 -168 2q-6 0 -6 8zM188 553v-462q7 0 28.5 -0.5t35.5 -0.5q100 0 157.5 58t57.5 180q0 114 -53 170.5t-149 56.5q-59 0 -77 -2zM1014 0h-354
q-6 0 -6 6v51q0 4 4 10q123 183 226 327q-19 -1 -92 -1h-131q-9 0 -6 9l13 76q2 8 8 8h335q6 0 6 -6l1 -52q0 -7 -5 -14q-136 -208 -219 -323q34 1 109 1h129q7 0 6 -8l-15 -77q-1 -7 -9 -7zM847 593q38 63 59 95q3 4 9 4h73q4 0 4.5 -3t-1.5 -5l-96 -145q-3 -5 -8 -5h-84
q-6 0 -9 6l-100 145q-5 7 4 7h80q6 0 9 -5q31 -45 60 -94z" />
    <glyph glyph-name="uni01C6" unicode="&#x1c6;" horiz-adv-x="944" 
d="M282 -9q-109 0 -174.5 63t-65.5 185q0 111 72.5 183.5t191.5 72.5q32 0 50 -6v207q0 6 6 6h104q6 0 6 -6v-587q0 -36 3 -63q0 -5 -6 -9q-87 -46 -187 -46zM356 92v305q-21 8 -53 8q-64 0 -103.5 -42.5t-39.5 -118.5q0 -81 38 -120.5t97 -39.5q35 0 61 8zM912 0h-355
q-5 0 -5 6v51q0 5 3 10q123 183 226 327q-19 -1 -92 -1h-131q-9 0 -6 9l13 76q2 8 8 8h335q6 0 7 -6v-52q0 -7 -5 -14q-136 -208 -219 -323q34 1 109 1h129q7 0 6 -8l-15 -77q-1 -7 -8 -7zM744 593q19 32 59 95q3 4 9 4h73q9 0 4 -8l-97 -145q-2 -5 -8 -5h-84q-6 0 -9 6
l-100 145q-2 2 -0.5 4.5t4.5 2.5h80q6 0 10 -5q42 -65 59 -94z" />
    <glyph glyph-name="uni01C7" unicode="&#x1c7;" horiz-adv-x="858" 
d="M446 0h-364q-9 0 -9 10v627q0 8 8 8h101q7 0 7 -7v-543h275q9 0 7 -8l-16 -80q-1 -7 -9 -7zM669 153v485q0 7 8 7h102q6 0 6 -6v-486q0 -211 -190 -211q-65 0 -100 19q-6 2 -6 11v84q0 9 8 6q42 -19 86 -19q46 0 66 23.5t20 86.5z" />
    <glyph glyph-name="uni01C8" unicode="&#x1c8;" horiz-adv-x="733" 
d="M446 0h-364q-9 0 -9 10v627q0 8 8 8h101q7 0 7 -7v-543h275q9 0 7 -8l-16 -80q-1 -7 -9 -7zM554 -23v501q0 8 8 8h100q8 0 8 -7v-433q0 -96 -10.5 -142.5t-33.5 -76.5q-40 -47 -115 -47q-29 0 -39 3q-7 2 -7 10v74q0 8 7 8q47 -2 64.5 19t17.5 83zM612 552
q-29 0 -46.5 16.5t-17.5 44.5q0 27 18.5 43.5t46.5 16.5q29 0 46.5 -16.5t17.5 -44.5t-18 -44t-47 -16z" />
    <glyph glyph-name="uni01C9" unicode="&#x1c9;" horiz-adv-x="500" 
d="M63 109v586q0 7 8 7h100q8 0 8 -8v-580q0 -20 7 -27.5t21 -7.5q3 0 10 0.5t11 0.5q2 1 3.5 -0.5t1.5 -4.5v-65q0 -8 -6 -10q-20 -10 -60 -10q-50 0 -77 26t-27 93zM321 -23v501q0 8 8 8h100q8 0 8 -7v-433q0 -96 -10.5 -142.5t-33.5 -76.5q-40 -47 -115 -47q-29 0 -39 3
q-7 2 -7 10v74q0 8 7 8q47 -2 64.5 19t17.5 83zM379 552q-29 0 -46.5 16.5t-17.5 44.5q0 27 18.5 43.5t46.5 16.5q29 0 46.5 -16.5t17.5 -44.5t-18 -44t-47 -16z" />
    <glyph glyph-name="uni01CA" unicode="&#x1ca;" horiz-adv-x="909" 
d="M728 645h102q6 0 6 -6v-611q0 -97 -45.5 -146t-124.5 -49q-41 0 -65 10q-7 3 -7 11v84q0 9 9 6q23 -9 51 -9q66 0 66 92v611q0 7 8 7zM73 638q0 7 7 7h129q9 0 11 -6q223 -429 246 -487h1q-3 78 -3 166v320q0 7 8 7h93q8 0 8 -8v-628q0 -9 -10 -9h-123q-7 0 -13 7
q-24 56 -127 261t-122 252h-1q3 -39 5 -197l-1 -315q0 -8 -7 -8h-93q-8 0 -8 9v629z" />
    <glyph glyph-name="uni01CB" unicode="&#x1cb;" horiz-adv-x="888" 
d="M73 638q0 7 7 7h129q9 0 11 -6q223 -429 246 -487h1q-3 78 -3 166v320q0 7 8 7h93q8 0 8 -8v-628q0 -9 -10 -9h-123q-7 0 -13 7q-24 56 -127 261t-122 252h-1q3 -39 5 -197l-1 -315q0 -8 -7 -8h-93q-8 0 -8 9v629zM710 -23v501q0 8 8 8h100q8 0 8 -7v-433
q0 -96 -10.5 -142.5t-34.5 -76.5q-40 -47 -115 -47q-29 0 -39 3q-7 3 -7 10v74q0 8 7 8q47 -2 65 19t18 83zM767 552q-28 0 -46 16.5t-18 44.5q0 27 18.5 43.5t47.5 16.5t46.5 -16.5t17.5 -44.5q0 -27 -18 -43.5t-48 -16.5z" />
    <glyph glyph-name="uni01CC" unicode="&#x1cc;" horiz-adv-x="773" 
d="M63 8v364q0 72 -5 107q0 7 7 7h86q8 0 12 -7q5 -14 7 -38q62 54 142 54q66 0 110.5 -44t44.5 -150v-293q0 -8 -8 -8h-99q-9 0 -9 8v293q0 99 -80 99q-51 0 -92 -41v-352q0 -7 -8 -7h-101q-7 0 -7 8zM594 -23v501q0 8 8 8h100q8 0 8 -7v-433q0 -96 -10.5 -142.5
t-33.5 -76.5q-40 -47 -115 -47q-30 0 -39 3q-7 2 -7 10v74q0 8 6 8q47 -2 65 19t18 83zM652 552q-29 0 -46.5 16.5t-17.5 44.5q0 27 18 43.5t47 16.5t46.5 -16.5t17.5 -44.5t-18 -44t-47 -16z" />
    <glyph glyph-name="uni01CD" unicode="&#x1cd;" horiz-adv-x="620" 
d="M410 181h-212l-57 -173q-1 -8 -9 -8h-97q-10 0 -7 9q171 508 194 577q6 20 7 53q0 6 6 6h133q6 0 8 -5q32 -92 105.5 -309.5t109.5 -321.5q3 -9 -5 -9h-107q-7 0 -9 6zM222 277h164q-5 18 -39 124t-44 147h-1q-11 -49 -80 -271zM247 806l60 -62l60 62q5 6 11 6h86
q3 0 4 -3t-1 -6l-109 -112q-4 -4 -9 -4h-87q-8 0 -11 5l-113 113q-2 2 -0.5 4.5t4.5 2.5h93q7 0 12 -6z" />
    <glyph glyph-name="uni01CE" unicode="&#x1ce;" horiz-adv-x="481" 
d="M306 87v141q-88 4 -125 -15.5t-37 -61.5q0 -31 23.5 -52t72.5 -21q40 0 66 9zM419 306v-205q0 -41 2 -61q0 -3 -2 -4q-95 -45 -196 -45q-87 0 -140 40t-53 118q0 168 275 159v19q0 15 -5.5 29.5t-28 29t-59.5 14.5q-64 0 -129 -31q-7 -2 -7 5v77q0 7 5 10q68 34 153 34
q91 0 138 -51.5t47 -137.5zM245 593q19 32 59 95q3 4 9 4h73q9 0 4 -8l-97 -145q-3 -5 -8 -5h-84q-6 0 -9 6l-100 145q-2 2 -0.5 4.5t4.5 2.5h80q6 0 10 -5q42 -65 59 -94z" />
    <glyph glyph-name="uni01CF" unicode="&#x1cf;" horiz-adv-x="262" 
d="M189 638v-629q0 -9 -8 -9h-100q-8 0 -8 9v629q0 7 8 7h101q7 0 7 -7zM75 806l60 -62l60 62q5 6 11 6h85q4 0 5 -3t-2 -6l-108 -112q-4 -4 -9 -4h-87q-7 0 -12 5l-112 113q-5 7 4 7h93q7 0 12 -6z" />
    <glyph glyph-name="uni01D0" unicode="&#x1d0;" horiz-adv-x="242" 
d="M63 8v470q0 8 7 8h102q7 0 7 -7v-471q0 -8 -8 -8h-99q-9 0 -9 8zM126 593q19 32 59 95q3 4 9 4h73q9 0 4 -8l-97 -145q-2 -5 -8 -5h-84q-6 0 -9 6l-100 145q-2 2 -0.5 4.5t4.5 2.5h80q6 0 10 -5q42 -65 59 -94z" />
    <glyph glyph-name="uni01D1" unicode="&#x1d1;" horiz-adv-x="676" 
d="M340 655q130 0 208 -92t78 -235q1 -159 -78 -248t-210 -89q-134 0 -211 89t-77 245q0 151 80 240.5t210 89.5zM169 325q0 -107 45.5 -172.5t127.5 -65.5q78 0 121.5 63t43.5 175q0 107 -45.5 170.5t-124.5 63.5q-75 0 -121.5 -61t-46.5 -173zM276 806l60 -62l60 62
q5 6 11 6h86q3 0 4 -3t-2 -6l-108 -112q-4 -4 -9 -4h-87q-8 0 -11 5l-113 113q-5 7 4 7h93q8 0 12 -6z" />
    <glyph glyph-name="uni01D2" unicode="&#x1d2;" horiz-adv-x="541" 
d="M273 495q107 0 166.5 -69.5t59.5 -180.5q0 -118 -62 -186t-166 -68q-78 0 -131.5 37.5t-75.5 92.5t-22 122q0 112 62.5 182t168.5 70zM268 409q-49 0 -79 -43.5t-30 -120.5t29.5 -122.5t84.5 -45.5q48 0 78.5 40.5t30.5 124.5q0 76 -28 121.5t-86 45.5zM272 593
q19 32 59 95q3 4 9 4h73q9 0 4 -8l-97 -145q-2 -5 -8 -5h-84q-6 0 -9 6l-100 145q-2 2 -0.5 4.5t4.5 2.5h80q6 0 10 -5q42 -65 59 -94z" />
    <glyph glyph-name="uni01D3" unicode="&#x1d3;" horiz-adv-x="640" 
d="M189 638v-407q0 -70 34 -107t99 -37q129 0 129 147v403q0 8 8 8h100q8 0 8 -8v-405q0 -125 -68.5 -183t-178.5 -58q-114 0 -180.5 58.5t-66.5 177.5v410q0 8 8 8h101q7 0 7 -7zM263 806l60 -62l60 62q5 6 11 6h85q4 0 5 -3t-2 -6l-108 -112q-4 -4 -10 -4h-86q-7 0 -12 5
l-112 113q-5 7 4 7h93q7 0 12 -6z" />
    <glyph glyph-name="uni01D4" unicode="&#x1d4;" 
d="M462 479v-373q0 -46 5 -99q1 -7 -7 -7h-88q-9 0 -11 6q-4 18 -4 34q-58 -49 -138 -49q-68 0 -112 40.5t-44 135.5v312q0 7 7 7h102q7 0 7 -7v-295q0 -99 77 -99q53 0 90 38v355q0 8 8 8h101q7 0 7 -7zM267 593q19 32 59 95q3 4 9 4h73q9 0 4 -8l-97 -145q-3 -5 -8 -5h-84
q-6 0 -9 6l-100 145q-2 2 -0.5 4.5t4.5 2.5h80q6 0 10 -5q42 -65 59 -94z" />
    <glyph glyph-name="uni01D5" unicode="&#x1d5;" horiz-adv-x="640" 
d="M189 638v-407q0 -70 34 -107t99 -37q129 0 129 147v403q0 8 8 8h100q8 0 8 -8v-405q0 -125 -68.5 -183t-178.5 -58q-114 0 -180.5 58.5t-66.5 177.5v410q0 8 8 8h101q7 0 7 -7zM187 872h265q6 0 6 -7v-59q0 -7 -6 -7h-265q-6 0 -6 7v59q0 7 6 7zM221 679q-22 0 -35.5 11
t-13.5 30t14 30.5t36 11.5t35 -11.5t13 -30.5t-13.5 -30t-35.5 -11zM418 679q-21 0 -34.5 11.5t-13.5 29.5q0 19 14 30.5t36 11.5t35 -11.5t13 -30.5t-13.5 -30t-36.5 -11z" />
    <glyph glyph-name="uni01D6" unicode="&#x1d6;" 
d="M462 479v-373q0 -46 5 -99q1 -7 -7 -7h-88q-9 0 -11 6q-4 18 -4 34q-58 -49 -138 -49q-68 0 -112 40.5t-44 135.5v312q0 7 7 7h102q7 0 7 -7v-295q0 -99 77 -99q53 0 90 38v355q0 8 8 8h101q7 0 7 -7zM176 535q-22 0 -35.5 12t-13.5 32q0 21 14 33.5t36 12.5t35 -12.5
t13 -33.5q0 -20 -14 -32t-35 -12zM348 535q-21 0 -34.5 12t-13.5 32q0 21 14 33.5t35 12.5q22 0 35.5 -13t13.5 -33t-14 -32t-36 -12zM131 744h265q6 0 6 -7v-63q0 -6 -7 -6h-264q-7 0 -7 6v63q0 7 7 7z" />
    <glyph glyph-name="uni01D7" unicode="&#x1d7;" horiz-adv-x="640" 
d="M189 638v-407q0 -70 34 -107t99 -37q129 0 129 147v403q0 8 8 8h100q8 0 8 -8v-405q0 -125 -68.5 -183t-178.5 -58q-114 0 -180.5 58.5t-66.5 177.5v410q0 8 8 8h101q7 0 7 -7zM267 788l68 82q3 5 8 5h98q6 0 3 -6l-77 -83q-3 -5 -10 -5h-86q-7 0 -4 7zM221 679
q-22 0 -36 11t-14 30t14.5 30.5t36.5 11.5t35 -11.5t13 -30.5q0 -18 -14 -29.5t-35 -11.5zM418 679q-21 0 -34.5 11t-13.5 30t14 30.5t36 11.5t35 -11.5t13 -30.5t-14 -30t-36 -11z" />
    <glyph glyph-name="uni01D8" unicode="&#x1d8;" 
d="M462 479v-373q0 -46 5 -99q1 -7 -7 -7h-88q-9 0 -11 6q-4 18 -4 34q-58 -49 -138 -49q-68 0 -112 40.5t-44 135.5v312q0 7 7 7h102q7 0 7 -7v-295q0 -99 77 -99q53 0 90 38v355q0 8 8 8h101q7 0 7 -7zM207 650l68 90q5 5 9 5h98q7 0 3 -6l-79 -91q-3 -4 -9 -4h-86
q-7 0 -4 6zM176 528q-22 0 -35.5 12t-13.5 32q0 21 14 33.5t36 12.5t35 -13t13 -33t-14 -32t-35 -12zM348 528q-21 0 -34.5 12t-13.5 32q0 21 14 33.5t36 12.5t35 -13t13 -33t-14 -32t-36 -12z" />
    <glyph glyph-name="uni01D9" unicode="&#x1d9;" horiz-adv-x="640" 
d="M189 638v-407q0 -70 34 -107t99 -37q129 0 129 147v403q0 8 8 8h100q8 0 8 -8v-405q0 -125 -68.5 -183t-178.5 -58q-114 0 -180.5 58.5t-66.5 177.5v410q0 8 8 8h101q7 0 7 -7zM321 824q39 33 50 43q4 4 10 4h80q9 0 4 -8l-87 -73q-4 -5 -11 -5h-98q-7 0 -11 5l-90 74
q-5 7 4 7h87q6 0 11 -5q19 -15 51 -42zM220 679q-22 0 -35.5 11t-13.5 30t14.5 31t35.5 12q22 0 35 -12t13 -31q0 -18 -14 -29.5t-35 -11.5zM419 679q-21 0 -34.5 11t-13.5 30t14 31t35 12q22 0 35.5 -12t13.5 -31t-14 -30t-36 -11z" />
    <glyph glyph-name="uni01DA" unicode="&#x1da;" 
d="M462 479v-373q0 -46 5 -99q1 -7 -7 -7h-88q-9 0 -11 6q-4 18 -4 34q-58 -49 -138 -49q-68 0 -112 40.5t-44 135.5v312q0 7 7 7h102q7 0 7 -7v-295q0 -99 77 -99q53 0 90 38v355q0 8 8 8h101q7 0 7 -7zM176 528q-22 0 -35.5 12t-13.5 32q0 21 14 33.5t36 12.5t35 -13
t13 -33t-14 -32t-35 -12zM348 528q-21 0 -34.5 12t-13.5 32q0 21 14 33.5t36 12.5t35 -13t13 -33t-14 -32t-36 -12zM262 689q36 36 50 49q3 4 9 4h80q8 0 4 -8l-88 -86q-4 -4 -10 -4h-95q-7 0 -11 4l-90 87q-2 2 -0.5 4.5t4.5 2.5h87q6 0 11 -4q4 -4 15 -14.5t19.5 -19.5
t14.5 -15z" />
    <glyph glyph-name="uni01DB" unicode="&#x1db;" horiz-adv-x="640" 
d="M189 638v-407q0 -70 34 -107t99 -37q129 0 129 147v403q0 8 8 8h100q8 0 8 -8v-405q0 -125 -68.5 -183t-178.5 -58q-114 0 -180.5 58.5t-66.5 177.5v410q0 8 8 8h101q7 0 7 -7zM312 870l67 -82q3 -7 -4 -7h-86q-6 0 -9 5l-78 83q-3 6 3 6h98q4 0 9 -5zM221 679
q-22 0 -36 11t-14 30t14.5 30.5t36.5 11.5t35 -11.5t13 -30.5q0 -18 -14 -29.5t-35 -11.5zM418 679q-21 0 -34.5 11t-13.5 30t14 30.5t36 11.5t35 -11.5t13 -30.5t-14 -30t-36 -11z" />
    <glyph glyph-name="uni01DC" unicode="&#x1dc;" 
d="M462 479v-373q0 -46 5 -99q1 -7 -7 -7h-88q-9 0 -11 6q-4 18 -4 34q-58 -49 -138 -49q-68 0 -112 40.5t-44 135.5v312q0 7 7 7h102q7 0 7 -7v-295q0 -99 77 -99q53 0 90 38v355q0 8 8 8h101q7 0 7 -7zM251 740l69 -90q3 -6 -4 -6h-86q-7 0 -10 4l-78 91q-4 6 3 6h97
q4 0 9 -5zM176 528q-22 0 -35.5 12t-13.5 32q0 21 14 33.5t36 12.5t35 -13t13 -33t-14 -32t-35 -12zM348 528q-21 0 -34.5 12t-13.5 32q0 21 14 33.5t36 12.5t35 -13t13 -33t-14 -32t-36 -12z" />
    <glyph glyph-name="Gcaron" unicode="&#x1e6;" horiz-adv-x="640" 
d="M463 250l-104 3q-8 0 -8 9v76q0 7 7 7h213q8 0 8 -8v-294q0 -7 -7 -11q-88 -41 -200 -41q-160 0 -241 92t-81 234q0 157 94 247.5t242 90.5q110 0 166 -33q6 -2 6 -12v-87q0 -10 -8 -6q-71 38 -162 38q-103 0 -161 -60.5t-58 -174.5q0 -101 55.5 -166.5t158.5 -65.5
q50 0 80 14v148zM294 806l61 -62l59 62q5 6 11 6h86q4 0 4.5 -3t-1.5 -6l-108 -112q-5 -4 -10 -4h-87q-8 0 -11 5l-112 113q-2 2 -1 4.5t5 2.5h92q8 0 12 -6z" />
    <glyph glyph-name="gcaron" unicode="&#x1e7;" horiz-adv-x="495" 
d="M312 329q0 42 -20 65.5t-59 23.5q-36 0 -58.5 -23.5t-22.5 -63.5t21.5 -64t59.5 -24q37 0 58 23t21 63zM377 -64q0 69 -137 69q-39 0 -61 -4q-17 -10 -32 -28t-15 -37q0 -32 32 -55t90 -23q62 0 92.5 22.5t30.5 55.5zM235 495q40 0 77 -7q11 -2 27 -2h132q6 0 6 -7v-72
q0 -6 -6 -6l-74 3q22 -27 22 -78q0 -77 -51.5 -118.5t-131.5 -41.5q-21 0 -35 4q-9 -14 -9 -36q0 -25 15 -40q8 1 47 1q113 0 174 -33t61 -112q0 -75 -65.5 -125.5t-174.5 -50.5q-102 0 -162.5 44.5t-60.5 114.5q0 55 87 123q-22 31 -22 72q0 35 19 65q-67 41 -67 135
q0 74 52.5 120.5t139.5 46.5zM242 593q19 32 59 95q3 4 9 4h73q9 0 4 -8l-97 -145q-2 -5 -8 -5h-84q-6 0 -9 6l-100 145q-2 2 -0.5 4.5t4.5 2.5h80q6 0 10 -5q42 -65 59 -94z" />
    <glyph glyph-name="uni01F1" unicode="&#x1f1;" horiz-adv-x="1163" 
d="M72 8v630q0 6 7 7q102 2 186 2q156 0 238.5 -84.5t82.5 -231.5q0 -82 -23.5 -144t-59 -97t-83.5 -56.5t-89 -28.5t-85 -7q-70 0 -168 2q-6 0 -6 8zM188 553v-462q7 0 28.5 -0.5t35.5 -0.5q100 0 157.5 58t57.5 180q0 114 -53 170.5t-149 56.5q-59 0 -77 -2zM1128 0h-464
q-8 0 -8 8v53q0 5 3 12l323 477h-313q-8 0 -7 8l14 80q1 7 9 7h435q6 0 6 -6v-58q0 -7 -5 -15l-315 -471h341q8 0 5 -8l-15 -80q-1 -7 -9 -7z" />
    <glyph glyph-name="uni01F2" unicode="&#x1f2;" horiz-adv-x="1046" 
d="M72 8v630q0 6 7 7q102 2 186 2q156 0 238.5 -84.5t82.5 -231.5q0 -82 -23.5 -144t-59 -97t-83.5 -56.5t-89 -28.5t-85 -7q-70 0 -168 2q-6 0 -6 8zM188 553v-462q7 0 28.5 -0.5t35.5 -0.5q100 0 157.5 58t57.5 180q0 114 -53 170.5t-149 56.5q-59 0 -77 -2zM1014 0h-354
q-6 0 -6 6v51q0 4 4 10q123 183 226 327q-19 -1 -92 -1h-131q-9 0 -6 9l13 76q2 8 8 8h335q6 0 6 -6l1 -52q0 -7 -5 -14q-136 -208 -219 -323q34 1 109 1h129q7 0 6 -8l-15 -77q-1 -7 -9 -7z" />
    <glyph glyph-name="uni01F3" unicode="&#x1f3;" horiz-adv-x="944" 
d="M282 -9q-109 0 -174.5 63t-65.5 185q0 111 72.5 183.5t191.5 72.5q32 0 50 -6v207q0 6 6 6h104q6 0 6 -6v-587q0 -36 3 -63q0 -5 -6 -9q-87 -46 -187 -46zM356 92v305q-21 8 -53 8q-64 0 -103.5 -42.5t-39.5 -118.5q0 -81 38 -120.5t97 -39.5q35 0 61 8zM912 0h-355
q-5 0 -5 6v51q0 5 3 10q123 183 226 327q-19 -1 -92 -1h-131q-9 0 -6 9l13 76q2 8 8 8h335q6 0 7 -6v-52q0 -7 -5 -14q-136 -208 -219 -323q34 1 109 1h129q7 0 6 -8l-15 -77q-1 -7 -8 -7z" />
    <glyph glyph-name="Aringacute" unicode="&#x1fa;" horiz-adv-x="620" 
d="M196 723q0 29 28 48t78 19q53 0 79.5 -18.5t26.5 -48.5q0 -31 -28.5 -50t-77.5 -19q-53 0 -79.5 18.5t-26.5 50.5zM262 723q0 -27 40 -27t40 27q0 12 -11.5 18.5t-28.5 6.5q-40 0 -40 -25zM243 810l86 57q6 5 16 5h106q6 0 7 -3t-3 -7l-98 -57q-7 -4 -18 -4h-92
q-4 0 -6 1.5t-1.5 3.5t3.5 4zM410 181h-212l-57 -173q-1 -8 -9 -8h-97q-10 0 -7 9q171 508 194 577q6 20 7 53q0 6 6 6h133q6 0 8 -5q32 -92 105.5 -309.5t109.5 -321.5q3 -9 -5 -9h-107q-7 0 -9 6zM222 277h164q-5 18 -39 124t-44 147h-1q-11 -49 -80 -271z" />
    <glyph glyph-name="aringacute" unicode="&#x1fb;" horiz-adv-x="481" 
d="M133 581q0 30 27 50t75 20q49 0 75.5 -20t26.5 -50t-27 -50.5t-75 -20.5t-75 20t-27 51zM197 581q0 -13 10.5 -21.5t27.5 -8.5q18 0 28 8.5t10 21.5t-10 21.5t-28 8.5q-17 0 -27.5 -8.5t-10.5 -21.5zM185 676l57 87q3 7 12 7h97q4 0 5.5 -3t-1.5 -7l-74 -87q-5 -6 -13 -6
h-79q-4 0 -5 3t1 6zM306 87v141q-88 4 -125 -15.5t-37 -61.5q0 -31 23.5 -52t72.5 -21q40 0 66 9zM419 306v-205q0 -41 2 -61q0 -3 -2 -4q-95 -45 -196 -45q-87 0 -140 40t-53 118q0 168 275 159v19q0 15 -5.5 29.5t-28 29t-59.5 14.5q-64 0 -129 -31q-7 -2 -7 5v77
q0 7 5 10q68 34 153 34q91 0 138 -51.5t47 -137.5z" />
    <glyph glyph-name="AEacute" unicode="&#x1fc;" horiz-adv-x="814" 
d="M141 0h-108q-8 0 -5 8l244 582q6 18 13 50q1 5 7 5h427q6 0 7 -6l10 -83q1 -6 -6 -6h-251l20 -184h225q5 0 5 -6v-83q0 -5 -6 -5h-211l19 -177h247q7 0 6 -7l-14 -82q-1 -6 -8 -6h-330q-4 0 -5 4l-22 197h-177l-79 -195q-2 -6 -8 -6zM262 297h132l-18 154q-1 14 -5 54
t-6 59h-2q-17 -55 -38 -110zM331 698l103 113q3 4 11 4h115q4 0 4.5 -3t-1.5 -5l-118 -110q-7 -6 -14 -6h-95q-4 0 -5.5 2.5t0.5 4.5z" />
    <glyph glyph-name="aeacute" unicode="&#x1fd;" horiz-adv-x="754" 
d="M142 148q0 -32 23 -50.5t64 -18.5q54 0 99 36q-21 43 -22 105h-53q-51 0 -81 -18t-30 -54zM28 148q0 73 62 110t162 37h54l1 27q0 31 -21.5 55.5t-78.5 24.5q-61 0 -125 -29q-8 -3 -8 6v75q0 6 5 8q69 33 149 33q108 0 144 -70q56 70 153 70q52 0 91 -19t60.5 -50.5
t32 -65.5t10.5 -70q0 -64 -10 -67q-22 -7 -102 -7h-193q2 -57 39 -93.5t109 -36.5q58 0 117 24q6 3 6 -5v-76q0 -7 -5 -11q-53 -27 -146 -27q-102 0 -157 57q-72 -57 -170 -57q-73 0 -126 39t-53 118zM519 411q-43 0 -72 -32t-33 -86h163q29 0 31 6q2 5 2 21q0 31 -22 61
t-69 30zM325 544l74 143q5 8 11 8h109q10 0 5 -9l-96 -144q-4 -5 -13 -5h-86q-7 0 -4 7z" />
    <glyph glyph-name="Oslashacute" unicode="&#x1fe;" horiz-adv-x="676" 
d="M186 33l-20 -29q-3 -4 -8 -4h-67q-9 0 -4 7l46 67q-83 93 -83 250q0 152 80.5 241.5t210.5 89.5q81 0 140 -38l16 24q3 4 7 4h68q8 0 4 -6l-40 -63q90 -88 91 -248q0 -157 -78 -247t-208 -90q-93 0 -155 42zM204 179l221 351q-34 30 -89 30q-74 0 -121 -59.5t-47 -175.5
q0 -90 36 -146zM469 474l-221 -355q38 -34 95 -34q80 1 123 64.5t43 176.5q0 96 -40 148zM262 697l102 113q4 4 12 4h114q9 0 4 -8l-119 -110q-6 -6 -14 -6h-95q-4 0 -5 2.5t1 4.5z" />
    <glyph glyph-name="oslashacute" unicode="&#x1ff;" horiz-adv-x="545" 
d="M176 155l164 233q-27 24 -69 24q-51 0 -83.5 -43t-32.5 -125q0 -54 21 -89zM152 23l-19 -25q-4 -5 -10 -5h-59q-4 0 -4.5 3t1.5 5l43 59q-62 72 -62 181q0 113 63 183.5t169 70.5q72 0 120 -33l16 21q2 4 7 4h59q9 0 4 -7l-40 -55q63 -66 63 -181q0 -118 -62.5 -185.5
t-166.5 -67.5q-73 0 -122 32zM370 331l-163 -233q27 -24 69 -24q49 0 82 40t33 126q0 57 -21 91zM208 544l74 143q5 8 11 8h109q10 0 5 -9l-96 -144q-4 -5 -13 -5h-86q-8 0 -4 7z" />
    <glyph glyph-name="uni0218" unicode="&#x218;" horiz-adv-x="483" 
d="M224 -9q-120 0 -186 49q-7 4 -7 14v92q0 9 8 5q88 -63 190 -63q51 0 76.5 21t25.5 53t-23.5 54.5t-97.5 56.5q-97 44 -135 88t-38 113q0 77 58 129t161 52q95 0 154 -35q6 -2 6 -11v-88q0 -3 -2.5 -5t-6.5 0q-72 44 -152 44q-57 0 -80.5 -23.5t-23.5 -51.5
q0 -29 22.5 -52t88.5 -52q110 -49 148 -95t38 -112q0 -85 -60.5 -134t-163.5 -49zM249 -230h-88q-8 0 -3 7q35 58 35 110q0 23 -15 61q-2 6 5 6h95q6 0 10 -6q14 -24 14 -55q0 -66 -43 -120q-3 -3 -10 -3z" />
    <glyph glyph-name="uni0219" unicode="&#x219;" horiz-adv-x="386" 
d="M327 370q-63 35 -129 35q-60 0 -60 -43q0 -19 16 -32.5t69 -37.5q75 -33 106 -66t31 -84q0 -73 -49.5 -112t-130.5 -39q-88 0 -144 36q-7 4 -7 10v89q0 9 8 5q78 -50 150 -50q31 0 46 13.5t15 32.5t-17.5 34t-68.5 38q-72 32 -101.5 66t-29.5 88q0 63 46.5 102.5
t128.5 39.5q77 0 124 -27q6 -4 6 -12l-1 -80q0 -12 -8 -6zM196 -222h-88q-6 0 -4 7q36 57 36 109q0 23 -15 61q-1 6 5 6h95q6 0 9 -6q15 -21 15 -55q0 -65 -43 -119q-3 -3 -10 -3z" />
    <glyph glyph-name="uni021A" unicode="&#x21a;" 
d="M200 9v541h-188q-8 0 -7 9l13 79q1 7 9 7h474q8 0 9 -7l9 -79q1 -9 -7 -9h-196v-541q0 -9 -8 -9h-99q-9 0 -9 9zM271 -222h-88q-6 0 -4 7q36 57 36 109q0 23 -15 61q-2 6 5 6h95q6 0 9 -6q15 -21 15 -55q0 -65 -43 -119q-3 -3 -10 -3z" />
    <glyph glyph-name="uni021B" unicode="&#x21b;" horiz-adv-x="312" 
d="M289 82v-65q0 -9 -6 -11q-33 -15 -85 -15q-125 0 -125 136v271l-60 1q-7 1 -7 9v70q0 8 8 8h59q6 99 10 120q1 8 8 9l96 18q7 1 7 -5q-3 -49 -5 -142h97q7 0 7 -7v-73q0 -6 -6 -7l-98 -1v-251q0 -35 12 -50.5t41 -15.5q22 0 41 7q2 1 4 -0.5t2 -5.5zM185 -222h-88
q-6 0 -4 7q36 57 36 110q0 23 -15 61q-2 6 5 6h95q5 0 9 -6q15 -23 15 -55q0 -66 -43 -120q-3 -3 -10 -3z" />
    <glyph glyph-name="uni021C" unicode="&#x21c;" horiz-adv-x="504" 
d="M426 564q-32 -36 -103 -111.5t-83 -88.5q60 -2 109.5 -21.5t82.5 -63.5t33 -106q0 -111 -79.5 -168.5t-190.5 -57.5q-104 0 -158 32q-6 6 -6 11v88q0 3 2.5 4.5t4.5 -0.5q69 -37 156 -37q76 0 115 33t39 86q0 56 -44.5 84.5t-116.5 28.5q-46 0 -82 -9q-6 -2 -6 4v59
q0 5 3 9l200 212q-38 -2 -103 -2h-165q-7 0 -6 8l18 82q1 5 8 5h371q5 0 5 -5v-67q0 -5 -4 -9z" />
    <glyph glyph-name="uni021D" unicode="&#x21d;" horiz-adv-x="419" 
d="M369 404q-25 -32 -83 -101.5t-77 -94.5q81 -5 139 -54t58 -141q0 -78 -36.5 -131.5t-91.5 -76t-122 -22.5q-93 0 -143 32q-5 3 -5 12v82q0 8 6 5q59 -37 141 -37q66 0 100 33.5t34 88.5q0 121 -146 121q-27 0 -57 -4q-8 -2 -8 5v58q0 7 4 12l170 203q-19 -1 -94 -1h-144
q-8 0 -7 9l13 77q1 7 9 7h338q6 0 6 -8v-63q0 -5 -4 -11z" />
    <glyph glyph-name="uni0232" unicode="&#x232;" horiz-adv-x="565" 
d="M216 262l-201 374q-6 9 5 9h115q7 0 9 -5q119 -242 144 -304q37 83 141 304q1 5 8 5h109q9 0 4 -8l-203 -379q-8 -13 -8 -31v-218q0 -9 -8 -9h-99q-9 0 -9 9v223q0 16 -7 30zM152 790h262q7 0 7 -7v-73q0 -8 -7 -8h-260q-9 0 -9 8v73q0 7 7 7z" />
    <glyph glyph-name="uni0233" unicode="&#x233;" horiz-adv-x="463" 
d="M12 486h111q7 0 9 -6q102 -302 112 -340h2q50 144 99 339q3 7 10 7h95q9 0 7 -9q-21 -93 -65 -218t-92 -230q-80 -168 -135 -236q-6 -7 -15 -7h-108q-5 0 -6.5 3t2.5 7q33 42 77.5 111t63.5 111q4 10 2 15q-81 192 -175 445q-2 8 6 8zM103 657h267q6 0 6 -6v-70
q0 -7 -6 -7h-268q-6 0 -6 7v69q0 7 7 7z" />
    <glyph glyph-name="uni0237" unicode="&#x237;" horiz-adv-x="243" 
d="M64 -23v501q0 8 8 8h100q8 0 8 -7v-433q0 -96 -10.5 -142.5t-34.5 -76.5q-40 -47 -114 -47q-30 0 -40 3q-7 3 -7 10v74q0 8 7 8q47 -2 65 19t18 83z" />
    <glyph glyph-name="uni0251" unicode="&#x251;" horiz-adv-x="535" 
d="M472 467v-358q0 -36 3 -63q0 -5 -6 -9q-87 -46 -187 -46q-109 0 -174.5 63t-65.5 185q0 110 72.5 183t191.5 73q89 0 160 -21q6 -2 6 -7zM356 98v293q-19 9 -53 9q-64 0 -103.5 -42t-39.5 -114q0 -78 38 -116t97 -38q35 0 61 8z" />
    <glyph glyph-name="uni0259" unicode="&#x259;" horiz-adv-x="497" 
d="M50 262q10 6 99 6h193v4q0 57 -34 93t-102 36t-130 -28q-8 -2 -8 5v66q0 8 6 13q67 36 155 36q60 0 105.5 -20.5t71.5 -56.5t38.5 -79t12.5 -93q0 -111 -60.5 -182t-162.5 -71q-97 0 -146 62t-49 144q0 56 11 65zM342 194h-154q-35 0 -36 -6q-2 -4 -2 -21
q0 -36 22.5 -67.5t68.5 -31.5q44 0 71 34t30 92z" />
    <glyph glyph-name="uni0261" unicode="&#x261;" horiz-adv-x="534" 
d="M355 105v293q-18 7 -50 7q-64 0 -101 -42t-37 -118q0 -79 36.5 -115t91.5 -36q37 0 60 11zM471 400v-354q0 -64 -13.5 -112t-35.5 -76t-53.5 -45.5t-63 -23.5t-69.5 -6q-90 0 -144 27q-6 2 -6 9v94q0 8 6 4q67 -32 135 -32t96 31.5t31 97.5q-37 -14 -83 -14
q-100 0 -161.5 61.5t-61.5 176.5q0 114 72.5 185.5t197.5 71.5q80 0 154 -28q3 -1 3 -6q-4 -27 -4 -61z" />
    <glyph glyph-name="uni0275" unicode="&#x275;" horiz-adv-x="541" 
d="M273 495q106 0 166 -69t60 -180q0 -119 -60.5 -187t-164.5 -68q-117 0 -174.5 73t-57.5 178q0 111 62.5 182t168.5 71zM158 291h226q-3 51 -31.5 84.5t-81.5 33.5q-49 0 -78.5 -32t-34.5 -86zM385 201h-227q4 -53 34.5 -88.5t81.5 -35.5q47 0 77 30.5t34 93.5z" />
    <glyph glyph-name="uni02BB" unicode="&#x2bb;" horiz-adv-x="178" 
d="M83 707h80q5 0 4 -6q-36 -104 -36 -180q0 -38 5 -65q0 -7 -5 -7h-84q-7 0 -10 8q-6 25 -6 66q0 92 44 180q3 4 8 4z" />
    <glyph glyph-name="uni02BC" unicode="&#x2bc;" horiz-adv-x="182" 
d="M97 449h-80q-7 0 -4 7q37 92 37 175q0 14 -7 70q0 6 5 6h86q7 0 8 -7q8 -26 8 -68q0 -93 -45 -177q-3 -6 -8 -6z" />
    <glyph glyph-name="uni02BE" unicode="&#x2be;" horiz-adv-x="400" 
d="M143 665v51q51 2 82 -25t31 -69q0 -44 -30.5 -70.5t-82.5 -24.5v52q26 -1 39.5 10.5t13.5 32.5q0 20 -14 32t-39 11z" />
    <glyph glyph-name="uni02BF" unicode="&#x2bf;" horiz-adv-x="400" 
d="M254 584v-58q-50 -1 -80.5 25.5t-30.5 68.5q0 44 30.5 70t80.5 25v-58q-44 -2 -44 -37q0 -33 44 -36z" />
    <glyph glyph-name="circumflex" unicode="&#x2c6;" horiz-adv-x="388" 
d="M190 633q-19 -32 -59 -95q-4 -4 -9 -4h-73q-9 0 -4 9l97 144q2 5 8 5h84q6 0 9 -5l100 -145q4 -8 -4 -8h-80q-5 0 -10 5q-9 15 -32.5 52t-26.5 42z" />
    <glyph glyph-name="caron" unicode="&#x2c7;" horiz-adv-x="388" 
d="M198 593q19 32 59 95q3 4 9 4h73q9 0 4 -8l-97 -145q-2 -5 -8 -5h-84q-6 0 -9 6l-100 145q-2 2 -0.5 4.5t4.5 2.5h80q6 0 10 -5q42 -65 59 -94z" />
    <glyph glyph-name="uni02C8" unicode="&#x2c8;" horiz-adv-x="400" 
d="M153 544l-8 143q0 7 7 7h96q7 0 6 -6l-10 -145q-1 -6 -8 -6h-76q-7 0 -7 7z" />
    <glyph glyph-name="uni02C9" unicode="&#x2c9;" horiz-adv-x="388" 
d="M61 657h267q6 0 6 -6v-70q0 -7 -6 -7h-268q-6 0 -6 7v69q0 7 7 7z" />
    <glyph glyph-name="uni02CA" unicode="&#x2ca;" horiz-adv-x="388" 
d="M137 544l74 143q5 8 11 8h109q10 0 5 -9l-96 -144q-4 -5 -13 -5h-86q-7 0 -4 7z" />
    <glyph glyph-name="uni02CB" unicode="&#x2cb;" horiz-adv-x="388" 
d="M185 689l78 -144q4 -8 -4 -8h-87q-7 0 -10 5l-101 144q-2 3 -1 6t4 3h111q5 0 10 -6z" />
    <glyph glyph-name="uni02CC" unicode="&#x2cc;" horiz-adv-x="400" 
d="M153 -203l-8 143q0 7 7 7h96q7 0 6 -6l-10 -145q-1 -6 -8 -6h-76q-7 0 -7 7z" />
    <glyph glyph-name="breve" unicode="&#x2d8;" horiz-adv-x="388" 
d="M41 680h78q5 0 5 -4q18 -50 69 -50q56 0 70 49q1 5 6 5h78q5 0 5 -5q-10 -64 -51.5 -98.5t-107.5 -34.5q-65 0 -106.5 33.5t-50.5 98.5q-1 6 5 6z" />
    <glyph glyph-name="dotaccent" unicode="&#x2d9;" horiz-adv-x="388" 
d="M194 552q-29 0 -46.5 16.5t-17.5 44.5q0 27 18 43.5t47 16.5t46.5 -16.5t17.5 -44.5t-18 -44t-47 -16z" />
    <glyph glyph-name="ring" unicode="&#x2da;" horiz-adv-x="388" 
d="M89 622q0 42 28.5 68t75.5 26q46 0 75.5 -26.5t29.5 -67.5q0 -43 -29 -69t-76 -26t-75.5 25.5t-28.5 69.5zM149 622q0 -19 12.5 -31t31.5 -12t32 11.5t13 31.5q0 19 -13 31t-32 12q-20 0 -32 -11.5t-12 -31.5z" />
    <glyph glyph-name="ogonek" unicode="&#x2db;" horiz-adv-x="388" 
d="M77 -115q0 77 123 143h88q-106 -55 -106 -110q0 -21 15 -33t41 -12q31 0 49 6q7 3 7 -5v-63q0 -9 -6 -13q-30 -15 -84 -15q-52 0 -89.5 25t-37.5 77z" />
    <glyph glyph-name="tilde" unicode="&#x2dc;" horiz-adv-x="388" 
d="M99 554h-64q-7 0 -7 7q0 62 27.5 94.5t70.5 32.5q34 0 76.5 -24t53.5 -24q26 0 29 40q0 6 6 6h63q7 0 7 -6q-1 -128 -94 -128q-30 0 -71.5 24t-58.5 24q-29 0 -33 -40q0 -6 -5 -6z" />
    <glyph glyph-name="hungarumlaut" unicode="&#x2dd;" horiz-adv-x="388" 
d="M61 549l64 132q3 7 13 7h84q11 0 5 -10l-79 -133q-5 -8 -13 -8h-68q-11 0 -6 12zM235 550l64 131q3 7 11 7h86q12 0 6 -10l-80 -133q-5 -7 -15 -7h-66q-12 0 -6 12z" />
    <glyph glyph-name="gravecomb" unicode="&#x300;" horiz-adv-x="0" 
d="M23 689l79 -144q4 -8 -5 -8h-87q-7 0 -10 5l-101 144q-2 3 -1 6t5 3h110q7 0 10 -6z" />
    <glyph glyph-name="acutecomb" unicode="&#x301;" horiz-adv-x="0" 
d="M-100 544l74 143q5 8 11 8h110q9 0 4 -9l-96 -144q-4 -5 -13 -5h-86q-8 0 -4 7z" />
    <glyph glyph-name="uni0302" unicode="&#x302;" horiz-adv-x="0" 
d="M-4 633q-19 -32 -59 -95q-4 -4 -9 -4h-73q-9 0 -4 9l97 144q2 5 8 5h84q6 0 9 -5l100 -145q4 -8 -4 -8h-80q-5 0 -10 5q-9 15 -32.5 52t-26.5 42z" />
    <glyph glyph-name="tildecomb" unicode="&#x303;" horiz-adv-x="0" 
d="M-96 554h-63q-7 0 -7 7q0 63 27 95t71 32q34 0 76.5 -24t52.5 -24q27 0 29 40q2 6 7 6h63q7 0 7 -6q-1 -128 -94 -128q-30 0 -72 24t-58 24q-29 0 -33 -40q0 -6 -6 -6z" />
    <glyph glyph-name="uni0304" unicode="&#x304;" horiz-adv-x="0" 
d="M-133 657h267q6 0 6 -6v-70q0 -7 -6 -7h-268q-6 0 -6 7v69q0 7 7 7z" />
    <glyph glyph-name="uni0306" unicode="&#x306;" horiz-adv-x="0" 
d="M-153 680h78q5 0 6 -4q17 -50 68 -50q55 0 71 49q1 5 5 5h79q4 0 4 -5q-10 -64 -51 -98.5t-108 -34.5q-65 0 -106 33.5t-51 98.5q0 6 5 6z" />
    <glyph glyph-name="uni0307" unicode="&#x307;" horiz-adv-x="0" 
d="M-1 552q-28 0 -46 16.5t-18 44.5q0 27 18.5 43.5t47.5 16.5t46.5 -16.5t17.5 -44.5q0 -27 -18 -43.5t-48 -16.5z" />
    <glyph glyph-name="uni0308" unicode="&#x308;" horiz-adv-x="0" 
d="M-94 553q-26 0 -42 16t-16 44q0 27 17 43.5t43 16.5q25 0 41 -17t16 -44t-16.5 -43t-42.5 -16zM93 553q-25 0 -41 16t-16 44q0 27 16.5 43.5t41.5 16.5q26 0 42 -16.5t16 -44.5q0 -27 -16.5 -43t-42.5 -16z" />
    <glyph glyph-name="hookabovecomb" unicode="&#x309;" horiz-adv-x="0" 
d="M-95 641v53q0 6 5 9q33 19 83 19q47 0 74.5 -23t27.5 -62q0 -43 -37 -74t-87 -43q-7 -2 -7 5v53q0 6 4 7q38 21 38 42q0 26 -30 26t-64 -16q-7 -3 -7 4z" />
    <glyph glyph-name="uni030A" unicode="&#x30a;" horiz-adv-x="0" 
d="M-104 622q0 42 28.5 68t75.5 26q46 0 75 -26.5t29 -67.5q0 -43 -28.5 -69t-75.5 -26q-48 0 -76 25.5t-28 69.5zM-45 622q0 -19 12.5 -31t32.5 -12q19 0 31.5 11.5t12.5 31.5q0 19 -12.5 31t-31.5 12q-20 0 -32.5 -11.5t-12.5 -31.5z" />
    <glyph glyph-name="uni030B" unicode="&#x30b;" horiz-adv-x="0" 
d="M-170 549l63 132q4 7 13 7h84q11 0 5 -10l-79 -133q-5 -8 -13 -8h-68q-5 0 -6.5 4t1.5 8zM3 550l64 131q3 7 11 7h86q12 0 6 -10l-80 -133q-5 -7 -14 -7h-67q-12 0 -6 12z" />
    <glyph glyph-name="uni030C" unicode="&#x30c;" horiz-adv-x="0" 
d="M4 593q19 32 59 95q3 4 9 4h73q9 0 4 -8l-97 -145q-2 -5 -8 -5h-84q-6 0 -9 6l-100 145q-2 2 -0.5 4.5t4.5 2.5h80q6 0 10 -5q42 -65 59 -94z" />
    <glyph glyph-name="uni031B" unicode="&#x31b;" horiz-adv-x="0" 
d="M217 589h84q8 0 11 -9q5 -16 5 -45q0 -84 -84 -108h-104q-12 0 -12 7v44q0 8 8 8h34q33 0 44 13t11 38q0 23 -3 44q-2 8 6 8z" />
    <glyph glyph-name="dotbelowcomb" unicode="&#x323;" horiz-adv-x="0" 
d="M-1 -179q-27 0 -44.5 17t-17.5 44t18 44t46 17t45 -17t17 -44q0 -28 -17.5 -44.5t-46.5 -16.5z" />
    <glyph glyph-name="uni0324" unicode="&#x324;" horiz-adv-x="0" 
d="M-94 -178q-26 0 -42 16.5t-16 43.5t17 43.5t43 16.5q25 0 41 -17t16 -44t-16.5 -43t-42.5 -16zM93 -178q-25 0 -41 16t-16 44q0 27 17 43.5t42 16.5q26 0 41.5 -16.5t15.5 -44.5q0 -27 -16.5 -43t-42.5 -16z" />
    <glyph glyph-name="uni0326" unicode="&#x326;" horiz-adv-x="0" 
d="M20 -222h-88q-8 0 -3 7q35 58 35 110q0 21 -14 61q-4 6 4 6h95q6 0 10 -6q14 -24 14 -55q0 -66 -43 -120q-3 -3 -10 -3z" />
    <glyph glyph-name="uni0327" unicode="&#x327;" horiz-adv-x="0" 
d="M-23 8h71l-34 -47q81 -24 81 -91q0 -41 -32 -67t-83 -26q-46 0 -69 13q-6 2 -6 10v47q0 8 7 5q31 -12 61 -12q40 0 40 28q0 34 -89 47q-2 2 -2 11.5t2 11.5z" />
    <glyph glyph-name="uni0328" unicode="&#x328;" horiz-adv-x="0" 
d="M-109 -115q0 78 123 143h88q-106 -55 -106 -110q0 -21 15 -33t41 -12q31 0 49 6q7 3 7 -5v-63q0 -9 -6 -13q-30 -15 -84 -15q-52 0 -89.5 25t-37.5 77z" />
    <glyph glyph-name="uni032E" unicode="&#x32e;" horiz-adv-x="0" 
d="M-154 -70h79q6 0 8 -6q17 -47 66 -47q52 0 69 48q2 5 8 5h78q7 0 7 -7q-8 -61 -54 -97.5t-108 -36.5q-64 0 -108.5 34.5t-50.5 99.5q0 7 6 7z" />
    <glyph glyph-name="uni0331" unicode="&#x331;" horiz-adv-x="0" 
d="M-117 -77h235q6 0 6 -6v-70q0 -6 -7 -6h-234q-7 0 -7 6v69q0 7 7 7z" />
    <glyph glyph-name="uni0374" unicode="&#x374;" horiz-adv-x="205" 
d="M12 401l63 235q1 6 9 6h103q8 0 6 -8l-79 -235q-1 -7 -10 -7h-86q-9 0 -6 9z" />
    <glyph glyph-name="uni0375" unicode="&#x375;" horiz-adv-x="213" 
d="M17 -104l63 235q3 7 10 7h103q8 0 5 -9l-78 -235q-2 -7 -11 -7h-86q-7 0 -6 9z" />
    <glyph glyph-name="uni037A" unicode="&#x37a;" horiz-adv-x="388" 
d="M118 -109q0 42 10 72q2 4 8 4h88q4 0 4 -4q-5 -27 -5 -47q0 -45 40 -45q18 0 30 3q3 1 4 0t1 -5v-60q0 -7 -5 -10q-24 -13 -72 -13q-53 0 -78 30.5t-25 74.5z" />
    <glyph glyph-name="uni037E" unicode="&#x37e;" horiz-adv-x="258" 
d="M140 316q-31 0 -50.5 18.5t-19.5 49.5q0 30 20 49.5t50 19.5q31 0 50.5 -19.5t19.5 -49.5t-19 -49t-51 -19zM116 -135h-80q-10 0 -6 8q70 122 62 264q0 6 5 6h94q6 0 7 -8q10 -159 -71 -264q-2 -6 -11 -6z" />
    <glyph glyph-name="tonos" unicode="&#x384;" horiz-adv-x="388" 
d="M140 544l75 143q5 8 10 8h110q10 0 5 -9l-97 -144q-4 -5 -12 -5h-87q-8 0 -4 7z" />
    <glyph glyph-name="dieresistonos" unicode="&#x385;" horiz-adv-x="388" 
d="M128 538l46 172q1 5 7 5h87q8 0 4 -6l-64 -172q-2 -5 -8 -5h-68q-6 0 -4 6zM52 559q-21 0 -35.5 14.5t-14.5 38.5t15 39t37 15q24 0 37.5 -15t13.5 -39t-14.5 -38.5t-38.5 -14.5zM333 559q-23 0 -37 14.5t-14 38.5t15 39t37 15q23 0 37 -15t14 -39t-14.5 -38.5
t-37.5 -14.5z" />
    <glyph glyph-name="Alphatonos" unicode="&#x386;" horiz-adv-x="682" 
d="M472 181h-212l-57 -173q-1 -8 -9 -8h-97q-10 0 -7 9q171 508 194 577q6 20 7 53q0 6 6 6h133q6 0 8 -5q32 -92 105.5 -309.5t109.5 -321.5q3 -9 -5 -9h-107q-7 0 -9 6zM284 277h164q-5 18 -39 124t-44 147h-1q-11 -49 -80 -271zM11 443l50 198q1 6 7 6h99q8 0 5 -7
l-63 -198q-3 -5 -8 -5h-84q-7 0 -6 6z" />
    <glyph glyph-name="anoteleia" unicode="&#x387;" horiz-adv-x="258" 
d="M129 316q-31 0 -50.5 18.5t-19.5 49.5q0 30 20 49.5t50 19.5q31 0 50 -19.5t19 -49.5t-18.5 -49t-50.5 -19z" />
    <glyph glyph-name="Epsilontonos" unicode="&#x388;" horiz-adv-x="666" 
d="M636 87l-14 -79q-1 -8 -9 -8h-375q-8 0 -8 8v629q0 8 8 8h362q8 0 9 -6l10 -80q2 -9 -6 -9h-267v-173h240q7 0 7 -7v-81q0 -7 -8 -7h-239v-187h283q8 0 7 -8zM1 442l49 198q2 6 8 6h98q8 0 5 -7l-63 -198q-1 -5 -8 -5h-83q-7 0 -6 6z" />
    <glyph glyph-name="Etatonos" unicode="&#x389;" horiz-adv-x="797" 
d="M717 0h-101q-8 0 -8 8v274h-262v-273q0 -9 -9 -9h-99q-8 0 -8 9v628q0 8 8 8h99q9 0 9 -7v-261h262v261q0 7 8 7h102q6 0 6 -7v-630q0 -8 -7 -8zM1 442l49 198q2 6 8 6h98q8 0 5 -7l-63 -198q-1 -5 -8 -5h-83q-7 0 -6 6z" />
    <glyph glyph-name="Iotatonos" unicode="&#x38a;" horiz-adv-x="414" 
d="M340 638v-629q0 -9 -8 -9h-99q-9 0 -9 9v629q0 7 8 7h101q7 0 7 -7zM1 442l49 198q2 6 8 6h98q8 0 5 -7l-63 -198q-1 -5 -8 -5h-83q-7 0 -6 6z" />
    <glyph glyph-name="Omicrontonos" unicode="&#x38c;" horiz-adv-x="796" 
d="M459 655q131 0 208.5 -92t78.5 -235q0 -159 -79 -248t-210 -89q-134 0 -211 89t-77 245q0 151 80 240.5t210 89.5zM288 325q0 -107 46 -172.5t128 -65.5q78 0 121 63t43 175q0 107 -45.5 170.5t-124.5 63.5q-75 0 -121.5 -61.5t-46.5 -172.5zM1 442l49 198q2 6 8 6h98
q8 0 5 -7l-63 -198q-1 -5 -8 -5h-83q-7 0 -6 6z" />
    <glyph glyph-name="Upsilontonos" unicode="&#x38e;" horiz-adv-x="756" 
d="M407 262l-202 374q-5 9 6 9h115q6 0 9 -5q125 -256 144 -304q35 79 140 304q3 5 9 5h109q7 0 4 -8l-204 -379q-7 -14 -7 -31v-218q0 -9 -8 -9h-99q-9 0 -9 9v223q0 16 -7 30zM1 442l49 198q2 6 8 6h98q8 0 5 -7l-63 -198q-1 -5 -8 -5h-83q-7 0 -6 6z" />
    <glyph glyph-name="Omegatonos" unicode="&#x38f;" horiz-adv-x="801" 
d="M414 0h-257q-7 0 -7 7l-7 80q0 7 7 7h145q-111 102 -111 260q0 132 77.5 216.5t208.5 84.5q130 0 201 -85.5t71 -210.5q0 -151 -114 -265h151q7 0 7 -7l-11 -80q0 -7 -7 -7h-256q-8 0 -8 8v66q0 7 6 12q113 96 113 260q0 95 -41.5 154t-117.5 59q-78 0 -120.5 -60.5
t-42.5 -154.5q0 -162 116 -257q5 -5 5 -11v-67q0 -9 -8 -9zM1 442l49 198q2 6 8 6h98q8 0 5 -7l-63 -198q-1 -5 -8 -5h-83q-7 0 -6 6z" />
    <glyph glyph-name="iotadieresistonos" unicode="&#x390;" horiz-adv-x="260" 
d="M63 479q0 7 7 7h103q6 0 6 -6v-362q0 -42 33 -42q15 0 24 3q6 2 6 -5v-62q0 -7 -5 -10q-22 -11 -66 -11q-108 0 -108 125v363zM81 538l46 172q1 5 7 5h87q8 0 4 -6l-63 -172q-3 -5 -8 -5h-69q-5 0 -4 6zM6 559q-22 0 -36.5 14.5t-14.5 38.5t15 39t37 15q24 0 37.5 -15
t13.5 -39t-14.5 -38.5t-37.5 -14.5zM286 559q-22 0 -36.5 14.5t-14.5 38.5t15 39t37 15q23 0 37 -15t14 -39t-14.5 -38.5t-37.5 -14.5z" />
    <glyph glyph-name="Alpha" unicode="&#x391;" horiz-adv-x="620" 
d="M410 181h-212l-57 -173q-1 -8 -9 -8h-97q-10 0 -7 9q171 508 194 577q6 20 7 53q0 6 6 6h133q6 0 8 -5q32 -92 105.5 -309.5t109.5 -321.5q3 -9 -5 -9h-107q-7 0 -9 6zM222 277h164q-5 18 -39 124t-44 147h-1q-11 -49 -80 -271z" />
    <glyph glyph-name="Beta" unicode="&#x392;" horiz-adv-x="564" 
d="M73 8v628q0 8 5 9q76 2 187 2q70 0 119 -15.5t72.5 -42t33 -53t9.5 -57.5q0 -52 -26.5 -88t-68.5 -53v-2q50 -14 85 -52t35 -101q0 -92 -72 -138.5t-199 -46.5q-69 -1 -174 2q-6 1 -6 8zM186 285v-193q20 -2 74 -2q144 0 144 98q0 97 -131 97h-87zM186 553v-174h86
q113 0 113 88q0 46 -30.5 67t-91.5 21q-55 0 -77 -2z" />
    <glyph glyph-name="Gamma" unicode="&#x393;" horiz-adv-x="475" 
d="M73 639q0 6 6 6h363q6 0 7 -5l10 -82q1 -8 -7 -8h-263v-542q0 -8 -7 -8h-102q-7 0 -7 8v631z" />
    <glyph glyph-name="uni0394" unicode="&#x394;" horiz-adv-x="624" 
d="M569 0h-515q-6 0 -6 7v57q0 4 3 13l174 508q5 21 6 55q1 5 6 5h133q7 0 8 -5q4 -12 32.5 -94t77 -224t84.5 -245q3 -7 3 -15v-54q0 -8 -6 -8zM164 95h285q-18 57 -53.5 166t-60 186t-30.5 98h-1q-24 -107 -140 -450z" />
    <glyph glyph-name="Epsilon" unicode="&#x395;" horiz-adv-x="509" 
d="M479 87l-14 -79q-1 -8 -10 -8h-374q-8 0 -8 8v629q0 8 8 8h362q8 0 9 -6l10 -80q2 -9 -6 -9h-267v-173h240q7 0 7 -7v-81q0 -7 -8 -7h-239v-187h283q8 0 7 -8z" />
    <glyph glyph-name="Zeta" unicode="&#x396;" 
d="M490 0h-464q-8 0 -8 8v53q0 5 3 12l324 477h-313q-9 0 -8 8l14 80q2 7 9 7h436q5 0 5 -6v-58q0 -7 -4 -15l-315 -471h340q8 0 6 -8l-16 -80q-1 -7 -9 -7z" />
    <glyph glyph-name="Eta" unicode="&#x397;" horiz-adv-x="641" 
d="M560 0h-100q-9 0 -9 8v274h-262v-273q0 -9 -8 -9h-100q-8 0 -8 9v628q0 8 8 8h100q8 0 8 -7v-261h262v261q0 7 8 7h102q6 0 6 -7v-630q0 -8 -7 -8z" />
    <glyph glyph-name="Theta" unicode="&#x398;" horiz-adv-x="678" 
d="M224 376h226q7 0 7 -6v-81q0 -7 -7 -7h-225q-8 0 -8 7v80q0 7 7 7zM339 655q131 0 208.5 -92t78.5 -235q0 -159 -79 -248t-210 -89q-134 0 -211 89t-77 245q0 151 80 240.5t210 89.5zM168 325q0 -107 46 -172.5t128 -65.5q78 0 121 63t43 175q0 107 -45.5 170.5
t-123.5 63.5q-75 0 -122 -61.5t-47 -172.5z" />
    <glyph glyph-name="Iota" unicode="&#x399;" horiz-adv-x="262" 
d="M189 638v-629q0 -9 -8 -9h-100q-8 0 -8 9v629q0 7 8 7h101q7 0 7 -7z" />
    <glyph glyph-name="Kappa" unicode="&#x39a;" horiz-adv-x="594" 
d="M180 0h-99q-8 0 -8 9v629q0 7 7 7h102q7 0 7 -7v-264h58q9 0 16 10q25 37 81.5 127t82.5 128q4 6 12 6h108q11 0 5 -10q-130 -199 -206 -296q-3 -4 0 -9q36 -44 73.5 -94.5t91.5 -126.5t70 -99q3 -4 1.5 -7t-5.5 -3h-117q-10 0 -16 7q-29 39 -93.5 131.5t-91.5 129.5
q-7 10 -17 10h-53v-269q0 -9 -9 -9z" />
    <glyph glyph-name="Lambda" unicode="&#x39b;" horiz-adv-x="617" 
d="M132 0h-99q-9 0 -6 8q81 240 193 576q6 19 10 55q0 6 7 6h129q6 0 10 -7q36 -103 110 -322t104 -307q3 -9 -6 -9h-104q-7 0 -10 8q-149 460 -168 536h-1q-14 -75 -159 -537q-3 -7 -10 -7z" />
    <glyph glyph-name="Mu" unicode="&#x39c;" horiz-adv-x="827" 
d="M123 640q1 5 8 5h148q8 0 9 -6q120 -433 128 -470h1q8 35 33.5 125.5t57 200t41.5 144.5q1 6 8 6h142q6 0 7 -5l63 -632q0 -8 -8 -8h-110q-7 0 -8 7q-31 486 -32 546h-1q-8 -39 -32.5 -131t-59.5 -218.5t-53 -196.5q-1 -7 -9 -7h-91q-9 0 -10 7q-115 429 -142 547h-1
q-3 -86 -43 -547q-1 -7 -8 -7h-95q-8 0 -8 7z" />
    <glyph glyph-name="Nu" unicode="&#x39d;" horiz-adv-x="646" 
d="M73 638q0 7 7 7h129q9 0 11 -6q223 -429 246 -487h1q-3 78 -3 166v320q0 7 8 7h93q8 0 8 -8v-628q0 -9 -10 -9h-123q-7 0 -13 7q-24 56 -127 261t-122 252h-1q3 -39 5 -197l-1 -315q0 -8 -7 -8h-93q-8 0 -8 9v629z" />
    <glyph glyph-name="Xi" unicode="&#x39e;" horiz-adv-x="515" 
d="M36 98h442q8 0 7 -7l-13 -85q-1 -6 -8 -6h-418q-7 0 -8 7l-8 84q-1 7 6 7zM83 375h347q7 0 7 -6v-84q0 -7 -7 -7h-346q-7 0 -7 7v84q0 6 6 6zM55 645h403q7 0 8 -6l11 -84q1 -8 -7 -8h-427q-6 0 -5 7l10 86q1 5 7 5z" />
    <glyph glyph-name="Omicron" unicode="&#x39f;" horiz-adv-x="676" 
d="M340 655q130 0 208 -92t78 -235q1 -159 -78 -248t-210 -89q-134 0 -211 89t-77 245q0 151 80 240.5t210 89.5zM169 325q0 -107 45.5 -172.5t127.5 -65.5q78 0 121.5 63t43.5 175q0 107 -45.5 170.5t-124.5 63.5q-75 0 -121.5 -61t-46.5 -173z" />
    <glyph glyph-name="Pi" unicode="&#x3a0;" horiz-adv-x="641" 
d="M561 0h-100q-9 0 -9 8v542h-262v-542q0 -8 -8 -8h-100q-8 0 -8 8v630q0 7 8 7h480q7 0 7 -7v-630q0 -5 -1.5 -6.5t-6.5 -1.5z" />
    <glyph glyph-name="Rho" unicode="&#x3a1;" horiz-adv-x="546" 
d="M73 7v631q0 7 6 7q64 2 176 2q131 0 192.5 -59t62.5 -155q0 -111 -76 -168t-191 -57q-47 0 -55 1v-202q0 -7 -7 -7h-101q-7 0 -7 7zM188 553v-251h18q18 -1 40 -1q64 0 106.5 30t42.5 100q0 60 -36 92t-103 32q-54 0 -68 -2z" />
    <glyph glyph-name="Sigma" unicode="&#x3a3;" horiz-adv-x="539" 
d="M472 645q7 0 8 -6l10 -82q1 -7 -6 -7h-298l186 -221q6 -6 0 -12l-190 -222h327q6 0 5 -7l-15 -81q-1 -7 -9 -7h-452q-7 0 -7 7v54q0 6 4 11l211 244l-207 249q-4 5 -4 13v61q0 6 5 6h432z" />
    <glyph glyph-name="Tau" unicode="&#x3a4;" 
d="M200 9v541h-188q-8 0 -7 9l13 79q1 7 9 7h474q8 0 9 -7l9 -79q1 -9 -7 -9h-196v-541q0 -9 -8 -9h-99q-9 0 -9 9z" />
    <glyph glyph-name="Upsilon" unicode="&#x3a5;" horiz-adv-x="565" 
d="M216 262l-201 374q-6 9 5 9h115q7 0 9 -5q119 -242 144 -304q37 83 141 304q1 5 8 5h109q9 0 4 -8l-203 -379q-8 -13 -8 -31v-218q0 -9 -8 -9h-99q-9 0 -9 9v223q0 16 -7 30z" />
    <glyph glyph-name="Phi" unicode="&#x3a6;" horiz-adv-x="718" 
d="M309 669h98q7 0 7 -6v-65q109 -7 182 -75t73 -196q0 -130 -72 -195.5t-183 -79.5v-67q0 -7 -7 -7h-98q-6 0 -6 7v67q-111 10 -182.5 76.5t-71.5 193.5q0 67 22.5 120t60.5 84.5t81 49.5t90 22v65q0 6 6 6zM303 145v364q-55 -7 -95 -51t-40 -132q0 -85 38.5 -129t96.5 -52
zM414 509v-364q58 6 96.5 48.5t38.5 132.5q0 92 -40.5 135.5t-94.5 47.5z" />
    <glyph glyph-name="Chi" unicode="&#x3a7;" horiz-adv-x="575" 
d="M545 635l-182 -303l196 -322q6 -10 -4 -10h-117q-10 0 -14 8l-142 247h-1l-137 -247q-3 -8 -13 -8h-111q-10 0 -4 10l193 314l-185 313q-5 8 5 8h116q9 0 12 -6l133 -244h1l132 243q3 7 12 7h106q9 0 4 -10z" />
    <glyph glyph-name="Psi" unicode="&#x3a8;" horiz-adv-x="672" 
d="M279 291v372q0 7 7 7h99q7 0 7 -6v-373q53 5 82.5 42.5t33.5 130.5q4 129 14 155q3 6 10 6h94q8 0 6 -9q-7 -31 -11 -151q-9 -247 -229 -269v-189q0 -7 -7 -7h-98q-8 0 -8 9v187q-221 20 -229 267q-3 106 -11 154q-2 8 6 8h94q8 0 10 -6q9 -23 14 -153q3 -95 33 -131.5
t83 -43.5z" />
    <glyph glyph-name="uni03A9" unicode="&#x3a9;" horiz-adv-x="676" 
d="M290 0h-257q-7 0 -7 7l-8 80q0 7 7 7h146q-112 103 -112 260q0 132 77.5 216.5t209.5 84.5q129 0 200 -85.5t71 -210.5q0 -153 -114 -265h152q7 0 7 -7l-12 -80q0 -7 -7 -7h-256q-8 0 -8 8v66q0 6 6 12q114 95 114 260q0 95 -42 154t-118 59q-77 0 -119.5 -60t-42.5 -155
q0 -162 115 -257q6 -5 6 -11v-67q0 -9 -8 -9z" />
    <glyph glyph-name="Iotadieresis" unicode="&#x3aa;" horiz-adv-x="262" 
d="M189 638v-629q0 -9 -8 -9h-100q-8 0 -8 9v629q0 7 8 7h101q7 0 7 -7zM29 695q-27 0 -44 15.5t-17 41.5t18 42.5t45 16.5q28 0 45 -16.5t17 -42.5t-17.5 -41.5t-46.5 -15.5zM231 695q-27 0 -44.5 15.5t-17.5 41.5t18 42.5t45 16.5q28 0 45 -16.5t17 -42.5q0 -27 -17.5 -42
t-45.5 -15z" />
    <glyph glyph-name="Upsilondieresis" unicode="&#x3ab;" horiz-adv-x="565" 
d="M216 262l-201 374q-6 9 5 9h115q7 0 9 -5q119 -242 144 -304q37 83 141 304q1 5 8 5h109q9 0 4 -8l-203 -379q-8 -13 -8 -31v-218q0 -9 -8 -9h-99q-9 0 -9 9v223q0 16 -7 30zM182 695q-27 0 -44 15.5t-17 41.5t18 42.5t45 16.5q28 0 45 -16.5t17 -42.5t-17.5 -41.5
t-46.5 -15.5zM384 695q-27 0 -44.5 15.5t-17.5 41.5t18 42.5t46 16.5q27 0 44 -16.5t17 -42.5q0 -27 -17.5 -42t-45.5 -15z" />
    <glyph glyph-name="alphatonos" unicode="&#x3ac;" horiz-adv-x="547" 
d="M223 -9q-82 0 -131.5 64.5t-49.5 177.5q0 115 58 188.5t149 73.5t124 -75q5 46 14 64q2 2 5 2h89q8 0 6 -7q-21 -81 -21 -197v-160q0 -43 32 -43q12 0 26 4q3 1 4.5 -0.5t1.5 -5.5v-65q0 -6 -5 -8q-22 -13 -62 -13q-79 0 -90 78v15q-45 -93 -150 -93zM160 241
q0 -78 27 -116.5t68 -38.5q49 0 75 44.5t26 120.5q0 156 -93 156q-49 0 -76 -44t-27 -122zM224 544l74 143q5 8 11 8h110q9 0 4 -9l-96 -144q-4 -5 -13 -5h-86q-8 0 -4 7z" />
    <glyph glyph-name="epsilontonos" unicode="&#x3ad;" horiz-adv-x="430" 
d="M133 247v2q-82 26 -82 110q0 54 49.5 95t145.5 41q87 0 137 -26q5 -4 5 -11v-77q0 -9 -8 -6q-52 28 -118 28q-45 0 -68 -16t-23 -40q0 -25 20.5 -40t58.5 -15h66q7 0 7 -8v-72q0 -8 -7 -8h-64q-40 0 -62.5 -15.5t-22.5 -40.5q0 -29 26.5 -46.5t75.5 -17.5q64 0 122 28
q8 3 8 -5v-71q0 -10 -7 -13q-53 -32 -150 -32q-87 0 -145 36.5t-58 109.5q0 42 26.5 70t67.5 40zM167 544l75 143q5 8 11 8h109q10 0 5 -9l-96 -144q-5 -5 -13 -5h-87q-6 0 -4 7z" />
    <glyph glyph-name="etatonos" unicode="&#x3ae;" horiz-adv-x="529" 
d="M63 7v364q0 68 -8 108q-2 7 5 7h89q9 0 11 -6q11 -22 13 -68q57 83 150 83q64 0 103.5 -44.5t39.5 -147.5v-492q0 -7 -6 -8q-92 -12 -103 -12q-7 0 -7 7v511q0 91 -65 91q-46 0 -76 -39t-30 -93v-259q0 -9 -8 -9h-101q-7 0 -7 7zM204 545l75 144q3 7 10 7h110q9 0 5 -9
l-97 -143q-4 -6 -12 -6h-87q-9 0 -4 7z" />
    <glyph glyph-name="iotatonos" unicode="&#x3af;" horiz-adv-x="260" 
d="M63 479q0 7 7 7h103q6 0 6 -6v-362q0 -42 33 -42q15 0 24 3q6 2 6 -5v-62q0 -7 -5 -10q-22 -11 -66 -11q-108 0 -108 125v363zM81 544l75 143q5 8 10 8h110q10 0 5 -9l-97 -144q-4 -5 -12 -5h-87q-7 0 -4 7z" />
    <glyph glyph-name="upsilondieresistonos" unicode="&#x3b0;" horiz-adv-x="512" 
d="M323 486h97q8 0 10 -6q37 -80 37 -206q0 -61 -11 -110t-35.5 -89.5t-68 -62.5t-104.5 -22q-87 0 -136.5 46.5t-49.5 132.5v167q0 99 -10 143q-2 7 7 7h99q8 0 10 -6q10 -24 10 -98v-219q0 -44 21.5 -64t55.5 -20q96 0 96 192q0 116 -34 208q-1 7 6 7zM195 538l46 172
q1 5 7 5h87q2 0 3.5 -2t0.5 -4l-64 -172q-2 -5 -8 -5h-68q-5 0 -4 6zM119 559q-22 0 -36 14.5t-14 38.5t15 39t37 15q24 0 37.5 -15t13.5 -39t-14.5 -38.5t-38.5 -14.5zM400 559q-23 0 -37 14.5t-14 38.5t15 39t37 15q23 0 37 -15t14 -39t-14.5 -38.5t-37.5 -14.5z" />
    <glyph glyph-name="alpha" unicode="&#x3b1;" horiz-adv-x="547" 
d="M223 -9q-82 0 -131.5 64.5t-49.5 177.5q0 115 58 188.5t149 73.5t124 -75q5 46 14 64q2 2 5 2h89q8 0 6 -7q-21 -81 -21 -197v-160q0 -43 32 -43q12 0 26 4q3 1 4.5 -0.5t1.5 -5.5v-65q0 -6 -5 -8q-22 -13 -62 -13q-79 0 -90 78v15q-45 -93 -150 -93zM160 241
q0 -78 27 -116.5t68 -38.5q49 0 75 44.5t26 120.5q0 156 -93 156q-49 0 -76 -44t-27 -122z" />
    <glyph glyph-name="beta" unicode="&#x3b2;" horiz-adv-x="541" 
d="M179 490v-374q38 -38 98 -38q51 0 78.5 33.5t27.5 85.5q0 56 -32.5 83t-84.5 27h-20q-6 0 -6 6v81q0 7 6 7h22q45 0 71.5 30t26.5 86q0 49 -25.5 78t-65.5 29q-96 0 -96 -134zM63 -201v660q0 122 55 187t160 65q90 0 143.5 -51t53.5 -134q0 -118 -100 -163v-1
q125 -40 125 -171q0 -95 -59 -148t-147 -53q-72 0 -115 31v-213q0 -7 -7 -8q-83 -8 -102 -8q-7 0 -7 7z" />
    <glyph glyph-name="gamma" unicode="&#x3b3;" horiz-adv-x="479" 
d="M273 -200q-83 -8 -100 -8q-7 0 -6 7q17 180 18 208q1 80 -52.5 215t-131.5 255q-6 9 3 9h121q7 0 10 -5q29 -45 65 -140.5t52 -180.5h2q14 57 50 165t56 156q2 5 9 5h104q7 0 4 -7q-50 -107 -106.5 -245.5t-72.5 -201.5q-1 -5 -3 -14t-3 -14q-3 -29 -7.5 -111.5
t-4.5 -84.5q0 -5 -7 -8z" />
    <glyph glyph-name="delta" unicode="&#x3b4;" horiz-adv-x="518" 
d="M447 660v-85q0 -8 -6 -4q-82 46 -164 46q-42 0 -61.5 -13.5t-19.5 -30.5q0 -19 20 -39.5t75 -53.5q106 -63 145.5 -119t39.5 -140q0 -105 -60 -167.5t-156 -62.5q-100 0 -159 62.5t-59 164.5q0 78 40 133t103 77q-53 40 -75 74.5t-22 73.5q0 52 49 93t147 41
q105 0 160 -41q3 -2 3 -9zM157 222q0 -69 31 -106.5t74 -37.5q45 0 72 37t27 100q0 92 -79 147q-17 10 -24 10q-32 0 -66.5 -41t-34.5 -109z" />
    <glyph glyph-name="epsilon" unicode="&#x3b5;" horiz-adv-x="430" 
d="M133 247v2q-82 26 -82 110q0 54 49.5 95t145.5 41q87 0 137 -26q5 -4 5 -11v-77q0 -9 -8 -6q-52 28 -118 28q-45 0 -68 -16t-23 -40q0 -25 20.5 -40t58.5 -15h66q7 0 7 -8v-72q0 -8 -7 -8h-64q-40 0 -62.5 -15.5t-22.5 -40.5q0 -29 26.5 -46.5t75.5 -17.5q64 0 122 28
q8 3 8 -5v-71q0 -10 -7 -13q-53 -32 -150 -32q-87 0 -145 36.5t-58 109.5q0 42 26.5 70t67.5 40z" />
    <glyph glyph-name="zeta" unicode="&#x3b6;" horiz-adv-x="402" 
d="M44 202q0 183 207 401h-57q-82 0 -99 3q-6 1 -6 7l12 79q0 5 5 5q51 -3 106 -3h182q7 0 7 -6v-63q0 -7 -5 -9q-21 -14 -40 -32q-93 -95 -145 -188t-52 -171q0 -58 23.5 -84t85.5 -44q68 -19 99 -49t31 -92q0 -60 -41.5 -109t-122.5 -63q-8 -2 -8 7v81q0 7 6 8
q58 17 58 59q-1 22 -15.5 34t-52.5 21q-95 22 -136.5 66.5t-41.5 141.5z" />
    <glyph glyph-name="eta" unicode="&#x3b7;" horiz-adv-x="529" 
d="M63 7v364q0 68 -8 108q-2 7 5 7h89q9 0 11 -6q11 -22 13 -68q57 83 150 83q64 0 103.5 -44.5t39.5 -147.5v-492q0 -7 -6 -8q-92 -12 -103 -12q-7 0 -7 7v511q0 91 -65 91q-46 0 -76 -39t-30 -93v-259q0 -9 -8 -9h-101q-7 0 -7 7z" />
    <glyph glyph-name="theta" unicode="&#x3b8;" horiz-adv-x="545" 
d="M273 -9q-107 0 -166 91t-59 271q0 166 62 262t168 96q108 0 164 -95t56 -263q0 -178 -58 -270t-167 -92zM163 398h219q-2 105 -29 165.5t-80 60.5t-80.5 -60.5t-29.5 -165.5zM384 309h-221q2 -110 31.5 -171t80.5 -61q104 0 109 232z" />
    <glyph glyph-name="iota" unicode="&#x3b9;" horiz-adv-x="260" 
d="M63 479q0 7 7 7h103q6 0 6 -6v-362q0 -42 33 -42q15 0 24 3q6 2 6 -5v-62q0 -7 -5 -10q-22 -11 -66 -11q-108 0 -108 125v363z" />
    <glyph glyph-name="kappa" unicode="&#x3ba;" horiz-adv-x="498" 
d="M69 486h102q7 0 8 -5v-193h51q13 23 51 93.5t54 99.5q3 5 10 5h112q9 0 4 -8q-28 -43 -149 -218q24 -15 60 -73q18 -26 108 -179q5 -8 -6 -8h-112q-8 0 -12 6q-1 2 -40 67.5t-56 90.5q-12 21 -21.5 27t-27.5 7h-26v-190q0 -8 -7 -8h-101q-8 0 -8 7v472q-1 7 6 7z" />
    <glyph glyph-name="lambda" unicode="&#x3bb;" horiz-adv-x="513" 
d="M360 6l-104 351h-1q-18 -95 -106 -351q-3 -6 -8 -6h-106q-8 0 -5 8l167 465q4 13 2 18l-12 32q-27 82 -104 82q-24 0 -42 -3q-6 0 -6 5v89q0 7 6 8q24 7 58 7q74 0 120 -36.5t84 -142.5q57 -160 182 -525q3 -7 -6 -7h-111q-6 0 -8 6z" />
    <glyph glyph-name="uni03BC" unicode="&#x3bc;" horiz-adv-x="544" 
d="M464 480v-357q1 -47 36 -47q12 0 22 2q3 1 4 -0.5t1 -4.5v-63q0 -6 -4 -8q-22 -11 -60 -11q-83 0 -96 79q0 1 -0.5 6t-0.5 6q-39 -92 -125 -92q-49 0 -70 28q6 -71 4 -209q0 -7 -7 -8q-65 -9 -98 -9q-7 0 -7 8v679q0 7 8 7h101q7 0 7 -7v-322q0 -33 17 -53.5t49 -20.5
q44 0 73.5 42t29.5 126v229q0 6 6 6h105q5 0 5 -6z" />
    <glyph glyph-name="nu" unicode="&#x3bd;" horiz-adv-x="469" 
d="M15 486h117q6 0 10 -5q23 -43 55.5 -159.5t45.5 -203.5h2q81 152 81 295q0 41 -4 65q0 8 7 8h91q8 0 9 -6q6 -22 6 -62q0 -101 -45 -210.5t-111 -199.5q-5 -8 -13 -8h-86q-9 0 -11 7q-19 104 -67.5 250.5t-91.5 220.5q-5 8 5 8z" />
    <glyph glyph-name="xi" unicode="&#x3be;" horiz-adv-x="433" 
d="M283 713q72 0 114 -19q5 -2 5 -10l1 -77q0 -9 -8 -6q-45 21 -99 21q-57 0 -88 -31t-31 -79q0 -56 33 -83t88 -27h58q8 0 8 -9v-74q0 -9 -9 -9h-68q-61 0 -93.5 -30.5t-32.5 -76.5q0 -53 29 -75.5t106 -40.5q74 -18 101.5 -49.5t27.5 -87.5q0 -58 -42 -103.5t-122 -59.5
q-8 -2 -8 6v76q0 8 6 9q28 9 43 24.5t15 33.5q-1 13 -4.5 21.5t-19.5 18t-46 15.5q-110 22 -157.5 63.5t-47.5 129.5q0 60 35.5 105.5t90.5 66.5q-106 44 -106 166q0 82 59 136.5t162 54.5z" />
    <glyph glyph-name="omicron" unicode="&#x3bf;" horiz-adv-x="535" 
d="M270 495q105 0 164 -69t59 -181q0 -119 -60.5 -186.5t-164.5 -67.5q-114 0 -170 72.5t-56 179.5q0 112 62 182t166 70zM265 409q-48 0 -77 -43.5t-29 -121.5q0 -75 29 -121t82 -46q47 0 76.5 42t29.5 123q0 76 -27.5 121.5t-83.5 45.5z" />
    <glyph glyph-name="pi" unicode="&#x3c0;" horiz-adv-x="542" 
d="M176 0h-94q-7 0 -6 7q20 60 21 136v252h-81q-7 0 -6 7l11 75q1 5 6 7q11 2 94 2h400q6 0 6 -6l-9 -78q0 -7 -7 -7h-68v-247q0 -86 21 -139q4 -9 -6 -9h-98q-8 0 -12 7q-21 41 -21 142v246h-120v-253q0 -89 -21 -136q-2 -6 -10 -6z" />
    <glyph glyph-name="rho" unicode="&#x3c1;" horiz-adv-x="532" 
d="M277 495q106 0 160 -69.5t54 -177.5q0 -116 -64 -187t-168 -71q-49 0 -80 22v-202q0 -7 -8 -9q-90 -9 -100 -9q-8 0 -8 8v476q0 102 57.5 160.5t156.5 58.5zM270 408q-39 0 -65 -29t-26 -85v-188q31 -28 79 -28q49 0 82 43t33 124q0 78 -27 120.5t-76 42.5z" />
    <glyph glyph-name="uni03C2" unicode="&#x3c2;" horiz-adv-x="422" 
d="M43 240q0 109 67 182t175 73q64 0 94 -16q5 -3 5 -11v-79q0 -9 -7 -6q-40 19 -84 19q-62 0 -98.5 -43t-36.5 -111q0 -73 26 -106t95 -53q64 -20 90.5 -49.5t26.5 -82.5q0 -59 -39.5 -106.5t-116.5 -60.5q-8 -3 -8 6v81q0 7 6 8q51 17 51 57q0 19 -14 31t-47 19
q-99 23 -142 80t-43 168z" />
    <glyph glyph-name="sigma" unicode="&#x3c3;" horiz-adv-x="544" 
d="M42 239q0 117 62 182.5t169 65.5q32 0 96 -0.5t89 -0.5h73q6 0 6 -6l-7 -80q-1 -5 -7 -5q-73 0 -116 3q31 -22 48 -68t17 -99q0 -121 -60 -181t-150 -60q-100 0 -160 67t-60 182zM263 77q46 0 70.5 43.5t24.5 118.5q0 81 -25.5 123.5t-71.5 42.5q-50 0 -76 -46t-26 -120
q0 -72 28 -117t76 -45z" />
    <glyph glyph-name="tau" unicode="&#x3c4;" horiz-adv-x="427" 
d="M147 116v279h-130q-7 0 -6 7l9 75q1 6 6 7q22 2 69 2h313q6 0 6 -6l-7 -79q-1 -6 -7 -6h-137v-274q0 -41 38 -41q15 0 28 4q2 1 3.5 -0.5t1.5 -4.5v-67q0 -6 -6 -10q-25 -11 -67 -11q-114 0 -114 125z" />
    <glyph glyph-name="upsilon" unicode="&#x3c5;" horiz-adv-x="512" 
d="M323 486h97q8 0 10 -6q37 -80 37 -206q0 -61 -11 -110t-35.5 -89.5t-68 -62.5t-104.5 -22q-87 0 -136.5 46.5t-49.5 132.5v167q0 99 -10 143q-2 7 7 7h99q8 0 10 -6q10 -24 10 -98v-219q0 -44 21.5 -64t55.5 -20q96 0 96 192q0 116 -34 208q-1 7 6 7z" />
    <glyph glyph-name="phi" unicode="&#x3c6;" horiz-adv-x="692" 
d="M296 631h100q7 0 7 -9v-131q115 -11 181 -74t66 -177q0 -115 -67.5 -177t-179.5 -72v-183q0 -8 -8 -9q-64 -8 -99 -8q-8 0 -8 9l1 191q-115 10 -181 72.5t-66 174.5q0 110 68.5 175.5t178.5 77.5v131q0 9 7 9zM289 77v329q-62 -7 -96 -51.5t-34 -115.5q0 -72 35 -112.5
t95 -49.5zM403 406v-329q61 7 95.5 47.5t34.5 116.5q0 74 -34.5 116t-95.5 49z" />
    <glyph glyph-name="chi" unicode="&#x3c7;" horiz-adv-x="472" 
d="M24 486h113q7 0 9 -6q19 -46 54 -135t42 -107h2q7 18 22.5 55.5t37.5 91.5t38 94q1 7 9 7h100q10 0 5 -8l-153 -318l154 -336q4 -9 -4 -11q-91 -22 -102 -22q-5 0 -9 7q-104 253 -110 269h-2q-12 -36 -113 -271q-1 -5 -7 -5q-2 0 -20 4t-42 9.5t-32 7.5q-6 3 -3 8
l158 338l-152 321q-3 7 5 7z" />
    <glyph glyph-name="psi" unicode="&#x3c8;" horiz-adv-x="688" 
d="M41 477q-3 8 7 8h95q8 0 10 -6q10 -26 20 -180q8 -117 38 -163.5t79 -53.5v516q0 7 8 7h99q8 0 8 -7v-516q35 4 57 22t38.5 65.5t22.5 129.5q7 147 19 180q2 6 11 6h88q7 0 6 -9q-7 -36 -18 -189q-11 -148 -68.5 -217t-155.5 -80v-182q0 -7 -7 -8q-72 -8 -101 -8
q-7 0 -7 7v191q-66 7 -111 35t-76.5 94.5t-40.5 171.5q-12 147 -21 186z" />
    <glyph glyph-name="omega" unicode="&#x3c9;" horiz-adv-x="700" 
d="M407 350l-2 -183q0 -81 58 -81q33 0 55 41t22 126q0 62 -21.5 122.5t-52.5 102.5q-2 2 -1.5 5t4.5 3h100q7 0 12 -4q30 -34 52.5 -97t22.5 -135q0 -125 -53 -192t-134 -67q-86 0 -123 76q-40 -76 -122 -76q-76 0 -128.5 62.5t-52.5 184.5q0 74 24 138.5t57 104.5
q5 5 11 5h94q9 0 4 -9q-32 -45 -53.5 -107t-21.5 -124q0 -84 22 -122t55 -38q27 0 42 23t14 57l-2 184q0 7 8 7h104q6 0 6 -7z" />
    <glyph glyph-name="iotadieresis" unicode="&#x3ca;" horiz-adv-x="260" 
d="M63 479q0 7 7 7h103q6 0 6 -6v-362q0 -42 33 -42q15 0 24 3q6 2 6 -5v-62q0 -7 -5 -10q-22 -11 -66 -11q-108 0 -108 125v363zM38 553q-25 0 -41.5 16t-16.5 44q0 27 17 43.5t43 16.5q25 0 41 -17t16 -44t-16.5 -43t-42.5 -16zM225 553q-25 0 -41 16t-16 44q0 27 17 43.5
t42 16.5q26 0 41.5 -16.5t15.5 -44.5q0 -27 -16.5 -43t-42.5 -16z" />
    <glyph glyph-name="upsilondieresis" unicode="&#x3cb;" horiz-adv-x="512" 
d="M323 486h97q8 0 10 -6q37 -80 37 -206q0 -61 -11 -110t-35.5 -89.5t-68 -62.5t-104.5 -22q-87 0 -136.5 46.5t-49.5 132.5v167q0 99 -10 143q-2 7 7 7h99q8 0 10 -6q10 -24 10 -98v-219q0 -44 21.5 -64t55.5 -20q96 0 96 192q0 116 -34 208q-1 7 6 7zM157 553
q-25 0 -41.5 16t-16.5 44q0 27 17 43.5t43 16.5q25 0 41 -17t16 -44t-16.5 -43t-42.5 -16zM344 553q-25 0 -41 16t-16 44q0 27 17 43.5t42 16.5q26 0 41.5 -16.5t15.5 -44.5q0 -27 -16.5 -43t-42.5 -16z" />
    <glyph glyph-name="omicrontonos" unicode="&#x3cc;" horiz-adv-x="535" 
d="M270 495q105 0 164 -69t59 -181q0 -119 -60.5 -186.5t-164.5 -67.5q-114 0 -170 72.5t-56 179.5q0 112 62 182t166 70zM265 409q-48 0 -77 -43.5t-29 -121.5q0 -75 29 -121t82 -46q47 0 76.5 42t29.5 123q0 76 -27.5 121.5t-83.5 45.5zM201 544l75 143q5 8 10 8h110
q10 0 5 -9l-97 -144q-4 -5 -12 -5h-87q-7 0 -4 7z" />
    <glyph glyph-name="upsilontonos" unicode="&#x3cd;" horiz-adv-x="512" 
d="M323 486h97q8 0 10 -6q37 -80 37 -206q0 -61 -11 -110t-35.5 -89.5t-68 -62.5t-104.5 -22q-87 0 -136.5 46.5t-49.5 132.5v167q0 99 -10 143q-2 7 7 7h99q8 0 10 -6q10 -24 10 -98v-219q0 -44 21.5 -64t55.5 -20q96 0 96 192q0 116 -34 208q-1 7 6 7zM193 544l75 143
q5 8 11 8h109q10 0 5 -9l-96 -144q-5 -5 -13 -5h-87q-6 0 -4 7z" />
    <glyph glyph-name="omegatonos" unicode="&#x3ce;" horiz-adv-x="700" 
d="M407 350l-2 -183q0 -81 58 -81q33 0 55 41t22 126q0 62 -21.5 122.5t-52.5 102.5q-2 2 -1.5 5t4.5 3h100q7 0 12 -4q30 -34 52.5 -97t22.5 -135q0 -125 -53 -192t-134 -67q-86 0 -123 76q-40 -76 -122 -76q-76 0 -128.5 62.5t-52.5 184.5q0 74 24 138.5t57 104.5
q5 5 11 5h94q9 0 4 -9q-32 -45 -53.5 -107t-21.5 -124q0 -84 22 -122t55 -38q27 0 42 23t14 57l-2 184q0 7 8 7h104q6 0 6 -7zM299 544l74 143q5 8 11 8h109q10 0 5 -9l-96 -144q-4 -5 -13 -5h-87q-6 0 -3 7z" />
    <glyph glyph-name="uni03D1" unicode="&#x3d1;" horiz-adv-x="520" 
d="M34 250h105q7 0 8 -5q24 -95 44 -131.5t64 -36.5q89 0 102 205q-40 -5 -67 -5q-120 0 -182 61t-62 161q0 90 55.5 151t145.5 61q104 0 165 -87.5t61 -256.5q0 -174 -58 -275t-170 -101q-50 0 -85 17t-59 56t-37.5 76t-32.5 104q-3 6 3 6zM359 369q2 117 -25.5 186.5
t-88.5 69.5q-41 0 -65 -32t-24 -84q0 -66 38 -106t113 -40q28 0 52 6z" />
    <glyph glyph-name="uni03D7" unicode="&#x3d7;" horiz-adv-x="551" 
d="M336 266q74 -21 121 -75t47 -140q0 -118 -80.5 -186.5t-217.5 -68.5q-126 0 -194 47q-5 3 -5 11v98q0 9 8 4q85 -55 188 -55q90 0 133.5 41t43.5 107q0 70 -51.5 107.5t-133.5 39.5v-188q0 -8 -7 -8h-101q-8 0 -8 9v365q0 64 -9 104q-1 8 7 8h100q7 0 9 -7q9 -24 9 -107
v-87q21 0 47 -2l115 198q3 5 10 5h114q9 0 4 -9z" />
    <glyph glyph-name="uni03D9" unicode="&#x3d9;" horiz-adv-x="535" 
d="M272 495q104 0 162.5 -69.5t58.5 -182.5q0 -104 -46.5 -167.5t-118.5 -75.5v-191q0 -7 -9 -8q-90 -9 -97 -9q-10 0 -10 8v198q-83 14 -126.5 82.5t-43.5 160.5q0 115 62 184.5t168 69.5zM267 409q-50 0 -79 -42.5t-29 -121.5q0 -75 28.5 -121.5t81.5 -46.5q47 0 77 41.5
t30 123.5q0 74 -27.5 120.5t-81.5 46.5z" />
    <glyph glyph-name="uni03DB" unicode="&#x3db;" horiz-adv-x="435" 
d="M355 -184h-86q-9 0 -5 10q40 67 40 115q0 19 -11.5 31t-41.5 18q-106 21 -157 79t-51 170q0 106 59 167.5t165 80.5q27 5 35.5 13t8.5 26q0 30 -10 72q-3 8 6 8l82 -1q7 0 10 -7q14 -42 14 -103q0 -52 -24.5 -71.5t-85.5 -28.5q-78 -13 -111.5 -48t-33.5 -99
q0 -76 31 -109.5t109 -52.5q65 -16 89.5 -42t24.5 -75q0 -44 -14 -84.5t-31 -62.5q-5 -6 -12 -6z" />
    <glyph glyph-name="uni03DD" unicode="&#x3dd;" horiz-adv-x="427" 
d="M179 95v-286q0 -6 -7 -8q-97 -9 -103 -9t-6 6v681q0 7 7 7h318q6 0 6 -5l9 -80q1 -7 -6 -7h-218v-208h195q6 0 6 -6v-79q0 -6 -7 -6h-194z" />
    <glyph glyph-name="uni03E1" unicode="&#x3e1;" horiz-adv-x="535" 
d="M87 546v101q0 6 6 4q125 -53 217 -159.5t138.5 -238.5t46.5 -274q0 -58 -3 -82q-1 -6 -7 -6h-82q-6 0 -6 6q7 137 -21 245l-210 -118q-4 -2 -7 3l-37 72q-2 5 3 7l223 121q-20 60 -56 110l-221 -115q-6 -2 -8 1l-37 76q-2 5 3 7l214 109q-59 79 -152 123q-4 4 -4 8z" />
    <glyph glyph-name="uni0400" unicode="&#x400;" horiz-adv-x="509" 
d="M479 87l-14 -79q-1 -8 -10 -8h-374q-8 0 -8 8v629q0 8 8 8h362q8 0 9 -6l10 -80q2 -9 -6 -9h-267v-173h240q7 0 7 -7v-81q0 -7 -8 -7h-239v-187h283q8 0 7 -8zM233 813l102 -111q6 -8 -4 -8h-94q-8 0 -14 5l-123 111q-6 8 4 8h117q7 0 12 -5z" />
    <glyph glyph-name="uni0401" unicode="&#x401;" horiz-adv-x="509" 
d="M479 87l-14 -79q-1 -8 -10 -8h-374q-8 0 -8 8v629q0 8 8 8h362q8 0 9 -6l10 -80q2 -9 -6 -9h-267v-173h240q7 0 7 -7v-81q0 -7 -8 -7h-239v-187h283q8 0 7 -8zM161 696q-28 0 -45 15.5t-17 42.5q0 25 18 41.5t46 16.5q27 0 44 -16.5t17 -42.5t-17.5 -41.5t-45.5 -15.5z
M362 696q-27 0 -44.5 15.5t-17.5 41.5t18 42.5t46 16.5q27 0 44.5 -16.5t17.5 -42.5t-17.5 -41.5t-46.5 -15.5z" />
    <glyph glyph-name="uni0402" unicode="&#x402;" horiz-adv-x="650" 
d="M289 303v-295q0 -5 -1.5 -6.5t-6.5 -1.5h-100q-8 0 -8 8v543h-162q-7 0 -6 7l13 82q1 5 8 5h483q6 0 7 -6l10 -81q0 -7 -6 -7h-231l1 -157q52 21 117 21q88 0 146.5 -62t58.5 -171q0 -68 -21.5 -122t-58 -87.5t-78 -53t-87.5 -26.5q-9 -1 -9 7v88q0 6 6 8q130 31 130 180
q0 68 -33.5 106.5t-88.5 38.5q-48 0 -83 -18z" />
    <glyph glyph-name="uni0403" unicode="&#x403;" horiz-adv-x="475" 
d="M73 639q0 6 6 6h363q6 0 7 -5l10 -82q1 -8 -7 -8h-263v-542q0 -8 -7 -8h-102q-7 0 -7 8v631zM192 700l102 113q3 4 11 4h115q4 0 5 -3t-2 -5l-118 -110q-7 -6 -14 -6h-95q-4 0 -5 2.5t1 4.5z" />
    <glyph glyph-name="uni0404" unicode="&#x404;" horiz-adv-x="554" 
d="M450 282h-276q6 -101 66 -147.5t143 -46.5q79 0 131 22q6 3 6 -4v-80q0 -6 -5 -9q-54 -26 -149 -26q-63 0 -117.5 18t-100 55t-71.5 102.5t-26 152.5q0 146 87 241t237 95q92 0 138 -25q4 -3 4 -9v-83q0 -8 -7 -5q-58 27 -132 27q-90 0 -144 -50.5t-61 -133.5h274
q8 0 8 -8v-77q-3 -9 -5 -9z" />
    <glyph glyph-name="uni0405" unicode="&#x405;" horiz-adv-x="483" 
d="M224 -9q-120 0 -186 49q-7 4 -7 14v92q0 9 8 5q88 -63 190 -63q51 0 76.5 21t25.5 53t-23.5 54.5t-97.5 56.5q-97 44 -135 88t-38 113q0 77 58 129t161 52q95 0 154 -35q6 -2 6 -11v-88q0 -3 -2.5 -5t-6.5 0q-72 44 -152 44q-57 0 -80.5 -23.5t-23.5 -51.5
q0 -29 22.5 -52t88.5 -52q110 -49 148 -95t38 -112q0 -85 -60.5 -134t-163.5 -49z" />
    <glyph glyph-name="uni0406" unicode="&#x406;" horiz-adv-x="262" 
d="M189 638v-629q0 -9 -8 -9h-100q-8 0 -8 9v629q0 7 8 7h101q7 0 7 -7z" />
    <glyph glyph-name="uni0407" unicode="&#x407;" horiz-adv-x="262" 
d="M189 638v-629q0 -9 -8 -9h-100q-8 0 -8 9v629q0 7 8 7h101q7 0 7 -7zM29 695q-27 0 -44 15.5t-17 41.5t18 42.5t45 16.5q28 0 45 -16.5t17 -42.5t-17.5 -41.5t-46.5 -15.5zM231 695q-27 0 -44.5 15.5t-17.5 41.5t18 42.5t45 16.5q28 0 45 -16.5t17 -42.5q0 -27 -17.5 -42
t-45.5 -15z" />
    <glyph glyph-name="uni0408" unicode="&#x408;" horiz-adv-x="368" 
d="M179 153v485q0 7 7 7h102q7 0 7 -6v-486q0 -211 -190 -211q-65 0 -100 19q-7 2 -7 11v84q0 9 8 6q42 -19 87 -19q46 0 66 23.5t20 86.5z" />
    <glyph glyph-name="uni0409" unicode="&#x409;" horiz-adv-x="873" 
d="M478 344l87 -258q7 -1 24 -1q52 0 88.5 32.5t36.5 95.5q0 134 -157 134q-59 0 -79 -3zM567 437q128 0 197 -56.5t69 -162.5q0 -109 -75 -165.5t-191 -56.5q-57 0 -86 3q-8 1 -10 10q-128 398 -167 536h-2q-6 -34 -31.5 -120t-67.5 -222t-60 -196q-3 -7 -10 -7h-100
q-7 0 -6 8l195 580q8 21 8 50q0 7 7 7h131q6 0 8 -6l71 -205q54 3 120 3z" />
    <glyph glyph-name="uni040A" unicode="&#x40a;" horiz-adv-x="910" 
d="M73 638q0 7 6 7h103q7 0 7 -6v-235h235v234q0 7 7 7h103q6 0 6 -6v-235h90q107 0 172.5 -48t65.5 -148q0 -108 -75 -159.5t-201 -51.5q-106 0 -162 4q-6 0 -6 7v301h-235v-301q0 -8 -7 -8h-102q-7 0 -7 7v631zM540 309v-221q13 -2 70 -2q138 0 138 112q0 111 -134 111
h-74z" />
    <glyph glyph-name="uni040B" unicode="&#x40b;" horiz-adv-x="653" 
d="M288 300l1 -293q0 -7 -7 -7h-104q-5 0 -5 7v544h-162q-7 0 -6 8l13 80q2 6 7 6h478q6 0 6 -5l10 -82q1 -7 -5 -7h-225v-165q60 30 133 30q33 0 62 -9t56 -28.5t42.5 -57t15.5 -89.5v-225q0 -7 -7 -7h-102q-7 0 -7 8v217q0 50 -27 75t-70 25q-52 0 -97 -25z" />
    <glyph glyph-name="uni040C" unicode="&#x40c;" horiz-adv-x="582" 
d="M73 639q0 6 6 6h103q7 0 7 -6v-266h65q22 39 88 145.5t76 122.5q3 4 8 4h118q8 0 4 -6q-83 -130 -211 -296q29 -17 78 -91q23 -39 84 -131.5t72 -112.5q5 -8 -5 -8h-118q-5 0 -9 5q-20 28 -69 110t-58 96q-27 42 -41 55t-29 13h-53v-272q0 -7 -7 -7h-102q-7 0 -7 8v631z
M228 696l103 112q4 5 11 5h115q4 0 4.5 -3t-1.5 -6l-118 -109q-6 -6 -14 -6h-95q-4 0 -5.5 2.5t0.5 4.5z" />
    <glyph glyph-name="uni040D" unicode="&#x40d;" horiz-adv-x="641" 
d="M79 645h98q6 0 6 -6v-209q0 -205 -5 -286h1q37 81 112 220l155 276q2 5 9 5h107q5 0 5 -6v-632q0 -7 -6 -7h-96q-8 0 -8 8v203q0 182 8 282h-2q-30 -78 -113 -231l-143 -257q-4 -5 -11 -5h-115q-8 0 -8 9v630q0 6 6 6zM290 805l103 -111q5 -8 -4 -8h-95q-8 0 -14 5
l-123 111q-2 2 -1 5t5 3h117q7 0 12 -5z" />
    <glyph glyph-name="uni040E" unicode="&#x40e;" horiz-adv-x="544" 
d="M13 645h119q6 0 9 -5q132 -313 150 -368q61 153 119 367q1 6 8 6h108q8 0 5 -7q-59 -196 -130 -358q-48 -105 -99 -181t-87 -109q-7 -7 -15 -7h-117q-4 0 -5.5 3.5t0.5 5.5q35 30 77 80t65 93q5 11 1 18l-212 455q-3 7 4 7zM135 822h73q6 0 7 -6q14 -54 64 -54
q53 0 65 53q2 7 6 7h73q7 0 7 -9q-8 -60 -49.5 -94.5t-101.5 -34.5q-63 0 -103.5 33t-46.5 97q-2 8 6 8z" />
    <glyph glyph-name="uni040F" unicode="&#x40f;" horiz-adv-x="641" 
d="M263 0h-182q-8 0 -8 7v631q0 7 7 7h101q8 0 8 -7v-544h263v543q0 8 8 8h102q6 0 6 -7v-630q0 -8 -7 -8h-185l-4 -165q0 -7 -6 -7h-91q-8 0 -8 7z" />
    <glyph glyph-name="uni0410" unicode="&#x410;" horiz-adv-x="620" 
d="M410 181h-212l-57 -173q-1 -8 -9 -8h-97q-10 0 -7 9q171 508 194 577q6 20 7 53q0 6 6 6h133q6 0 8 -5q32 -92 105.5 -309.5t109.5 -321.5q3 -9 -5 -9h-107q-7 0 -9 6zM222 277h164q-5 18 -39 124t-44 147h-1q-11 -49 -80 -271z" />
    <glyph glyph-name="uni0411" unicode="&#x411;" horiz-adv-x="564" 
d="M186 309v-217q30 -2 74 -2q64 0 103 27t39 84q0 109 -139 109q-63 0 -77 -1zM186 550v-148q34 2 96 2q115 0 178.5 -49t63.5 -148q0 -107 -81 -158.5t-209 -51.5q-51 0 -155 4q-6 0 -6 8v630q0 6 6 6h370q6 0 7 -5l10 -83q1 -7 -6 -7h-274z" />
    <glyph glyph-name="uni0412" unicode="&#x412;" horiz-adv-x="564" 
d="M73 8v628q0 8 5 9q76 2 187 2q70 0 119 -15.5t72.5 -42t33 -53t9.5 -57.5q0 -52 -26.5 -88t-68.5 -53v-2q50 -14 85 -52t35 -101q0 -92 -72 -138.5t-199 -46.5q-69 -1 -174 2q-6 1 -6 8zM186 285v-193q20 -2 74 -2q144 0 144 98q0 97 -131 97h-87zM186 553v-174h86
q113 0 113 88q0 46 -30.5 67t-91.5 21q-55 0 -77 -2z" />
    <glyph glyph-name="uni0413" unicode="&#x413;" horiz-adv-x="475" 
d="M73 639q0 6 6 6h363q6 0 7 -5l10 -82q1 -8 -7 -8h-263v-542q0 -8 -7 -8h-102q-7 0 -7 8v631z" />
    <glyph glyph-name="uni0414" unicode="&#x414;" horiz-adv-x="641" 
d="M635 85l-12 -250q-1 -6 -7 -6h-91q-8 0 -8 8l-4 163h-382l-8 -164q0 -7 -6 -7h-91q-7 0 -8 7l-4 249q0 5 6 6l56 4l161 500q4 12 7 46q1 4 6 4h111q6 0 8 -4l183 -546l77 -4q6 0 6 -6zM189 95h236q-4 15 -36 118.5t-55 182t-30 111.5q-9 -61 -115 -412z" />
    <glyph glyph-name="uni0415" unicode="&#x415;" horiz-adv-x="509" 
d="M479 87l-14 -79q-1 -8 -10 -8h-374q-8 0 -8 8v629q0 8 8 8h362q8 0 9 -6l10 -80q2 -9 -6 -9h-267v-173h240q7 0 7 -7v-81q0 -7 -8 -7h-239v-187h283q8 0 7 -8z" />
    <glyph glyph-name="uni0416" unicode="&#x416;" horiz-adv-x="816" 
d="M36 645h119q7 0 9 -6q21 -39 68.5 -130t71.5 -134h47v263q0 7 8 7h99q8 0 8 -7v-263h47q19 35 67.5 131t69.5 132q3 7 9 7h118q8 0 4 -9q-128 -215 -188 -291q28 -15 66 -76q112 -189 146 -260q5 -9 -5 -9h-118q-6 0 -9 6q-10 17 -51 99t-56 107q-21 38 -34.5 53
t-28.5 16h-37v-273q0 -8 -7 -8h-100q-8 0 -8 8v273h-36q-33 -1 -65 -60q-5 -9 -47 -94t-63 -120q-3 -7 -11 -7h-114q-9 0 -6 8q1 2 149 260q37 59 66 77q-32 40 -106.5 157t-86.5 135q-4 8 5 8z" />
    <glyph glyph-name="uni0417" unicode="&#x417;" horiz-adv-x="500" 
d="M42 519v85q0 7 6 9q71 39 175 39q103 0 159.5 -47t56.5 -122q0 -57 -29 -94t-74 -53v-1q56 -15 90.5 -53.5t34.5 -100.5q0 -92 -71.5 -141.5t-173.5 -49.5q-113 0 -178 38q-6 4 -6 11v98q0 3 2.5 4.5t4.5 -0.5q82 -50 172 -50q62 0 96 26t34 71q0 96 -132 96h-86
q-7 0 -7 7v77q0 7 7 7h84q60 0 89 21t29 67q0 41 -31.5 65.5t-90.5 24.5q-84 0 -154 -39q-7 -4 -7 5z" />
    <glyph glyph-name="uni0418" unicode="&#x418;" horiz-adv-x="641" 
d="M79 645h98q6 0 6 -6v-209q0 -205 -5 -286h1q37 81 112 220l155 276q2 5 9 5h107q5 0 5 -6v-632q0 -7 -6 -7h-96q-8 0 -8 8v203q0 182 8 282h-2q-30 -78 -113 -231l-143 -257q-4 -5 -11 -5h-115q-8 0 -8 9v630q0 6 6 6z" />
    <glyph glyph-name="uni0419" unicode="&#x419;" horiz-adv-x="641" 
d="M79 645h98q6 0 6 -6v-209q0 -205 -5 -286h1q37 81 112 220l155 276q2 5 9 5h107q5 0 5 -6v-632q0 -7 -6 -7h-96q-8 0 -8 8v203q0 182 8 282h-2q-30 -78 -113 -231l-143 -257q-4 -5 -11 -5h-115q-8 0 -8 9v630q0 6 6 6zM177 819h74q6 0 7 -5q15 -55 63 -55q53 0 65 54
q2 6 7 6h73q9 0 6 -8q-7 -60 -49 -94.5t-102 -34.5q-62 0 -103 33t-47 97q0 7 6 7z" />
    <glyph glyph-name="uni041A" unicode="&#x41a;" horiz-adv-x="582" 
d="M73 639q0 6 6 6h103q7 0 7 -6v-266h65q22 39 88 145.5t76 122.5q3 4 8 4h118q8 0 4 -6q-83 -130 -211 -296q29 -17 78 -91q23 -39 84 -131.5t72 -112.5q5 -8 -5 -8h-118q-5 0 -9 5q-20 28 -69 110t-58 96q-27 42 -41 55t-29 13h-53v-272q0 -7 -7 -7h-102q-7 0 -7 8v631z
" />
    <glyph glyph-name="uni041B" unicode="&#x41b;" horiz-adv-x="617" 
d="M132 0h-99q-9 0 -6 8q81 240 193 576q6 19 10 55q0 6 7 6h129q6 0 10 -7q36 -103 110 -322t104 -307q3 -9 -6 -9h-104q-7 0 -10 8q-149 460 -168 536h-1q-14 -75 -159 -537q-3 -7 -10 -7z" />
    <glyph glyph-name="uni041C" unicode="&#x41c;" horiz-adv-x="827" 
d="M123 640q1 5 8 5h148q8 0 9 -6q120 -433 128 -470h1q8 35 33.5 125.5t57 200t41.5 144.5q1 6 8 6h142q6 0 7 -5l63 -632q0 -8 -8 -8h-110q-7 0 -8 7q-31 486 -32 546h-1q-8 -39 -32.5 -131t-59.5 -218.5t-53 -196.5q-1 -7 -9 -7h-91q-9 0 -10 7q-115 429 -142 547h-1
q-3 -86 -43 -547q-1 -7 -8 -7h-95q-8 0 -8 7z" />
    <glyph glyph-name="uni041D" unicode="&#x41d;" horiz-adv-x="641" 
d="M560 0h-100q-9 0 -9 8v274h-262v-273q0 -9 -8 -9h-100q-8 0 -8 9v628q0 8 8 8h100q8 0 8 -7v-261h262v261q0 7 8 7h102q6 0 6 -7v-630q0 -8 -7 -8z" />
    <glyph glyph-name="uni041E" unicode="&#x41e;" horiz-adv-x="676" 
d="M340 655q130 0 208 -92t78 -235q1 -159 -78 -248t-210 -89q-134 0 -211 89t-77 245q0 151 80 240.5t210 89.5zM169 325q0 -107 45.5 -172.5t127.5 -65.5q78 0 121.5 63t43.5 175q0 107 -45.5 170.5t-124.5 63.5q-75 0 -121.5 -61t-46.5 -173z" />
    <glyph glyph-name="uni041F" unicode="&#x41f;" horiz-adv-x="641" 
d="M561 0h-100q-9 0 -9 8v542h-262v-542q0 -8 -8 -8h-100q-8 0 -8 8v630q0 7 8 7h480q7 0 7 -7v-630q0 -5 -1.5 -6.5t-6.5 -1.5z" />
    <glyph glyph-name="uni0420" unicode="&#x420;" horiz-adv-x="546" 
d="M73 7v631q0 7 6 7q64 2 176 2q131 0 192.5 -59t62.5 -155q0 -111 -76 -168t-191 -57q-47 0 -55 1v-202q0 -7 -7 -7h-101q-7 0 -7 7zM188 553v-251h18q18 -1 40 -1q64 0 106.5 30t42.5 100q0 60 -36 92t-103 32q-54 0 -68 -2z" />
    <glyph glyph-name="uni0421" unicode="&#x421;" horiz-adv-x="561" 
d="M50 321q0 144 91.5 239.5t240.5 95.5q84 0 128 -21q5 -3 5 -10v-87q0 -11 -7 -6q-55 23 -122 23q-98 0 -157.5 -62t-59.5 -169q0 -65 20 -112.5t53.5 -71.5t68.5 -34.5t72 -10.5q78 0 131 24q7 3 7 -5v-85q0 -8 -6 -12q-54 -26 -152 -26q-62 0 -116.5 18.5t-99.5 56.5
t-71 103.5t-26 151.5z" />
    <glyph glyph-name="uni0422" unicode="&#x422;" 
d="M200 9v541h-188q-8 0 -7 9l13 79q1 7 9 7h474q8 0 9 -7l9 -79q1 -9 -7 -9h-196v-541q0 -9 -8 -9h-99q-9 0 -9 9z" />
    <glyph glyph-name="uni0423" unicode="&#x423;" horiz-adv-x="544" 
d="M13 645h119q6 0 9 -5q132 -313 150 -368q61 153 119 367q1 6 8 6h108q8 0 5 -7q-59 -196 -130 -358q-48 -105 -99 -181t-87 -109q-7 -7 -15 -7h-117q-4 0 -5.5 3.5t0.5 5.5q35 30 77 80t65 93q5 11 1 18l-212 455q-3 7 4 7z" />
    <glyph glyph-name="uni0424" unicode="&#x424;" horiz-adv-x="719" 
d="M310 669h98q6 0 6 -6v-65q110 -7 182.5 -74t72.5 -198q0 -134 -71 -198.5t-184 -77.5v-67q0 -7 -7 -7h-97q-7 0 -7 7v67q-113 13 -183.5 77t-70.5 194q0 56 15.5 102t40 76.5t58.5 52t68.5 32.5t71.5 14v65q0 6 7 6zM303 143v366q-55 -6 -94.5 -49t-39.5 -135
q0 -89 38 -132t96 -50zM414 509v-366q136 14 136 182q0 170 -136 184z" />
    <glyph glyph-name="uni0425" unicode="&#x425;" horiz-adv-x="575" 
d="M545 635l-182 -303l196 -322q6 -10 -4 -10h-117q-10 0 -14 8l-142 247h-1l-137 -247q-3 -8 -13 -8h-111q-10 0 -4 10l193 314l-185 313q-5 8 5 8h116q9 0 12 -6l133 -244h1l132 243q3 7 12 7h106q9 0 4 -10z" />
    <glyph glyph-name="uni0426" unicode="&#x426;" horiz-adv-x="645" 
d="M521 0h-440q-8 0 -8 8v631q0 6 6 6h104q6 0 6 -6v-545h262v544q0 7 8 7h102q6 0 6 -5v-547l71 -2q5 -2 5 -6l-16 -249q-1 -7 -8 -7h-88q-7 0 -7 8z" />
    <glyph glyph-name="uni0427" unicode="&#x427;" horiz-adv-x="582" 
d="M60 645h104q6 0 6 -6v-186q0 -113 119 -113q56 0 103 20v278q0 7 7 7h104q6 0 6 -6v-631q0 -8 -7 -8h-102q-8 0 -8 8v265q-62 -27 -138 -27q-87 0 -143.5 45.5t-56.5 149.5v198q0 6 6 6z" />
    <glyph glyph-name="uni0428" unicode="&#x428;" horiz-adv-x="860" 
d="M73 639q0 6 6 6h104q6 0 6 -7v-544h183v544q0 7 7 7h103q6 0 6 -6v-545h183v545q0 6 7 6h103q6 0 6 -6v-633q0 -6 -7 -6h-699q-8 0 -8 8v631z" />
    <glyph glyph-name="uni0429" unicode="&#x429;" horiz-adv-x="864" 
d="M741 0h-660q-8 0 -8 8v631q0 6 6 6h104q6 0 6 -7v-544h183v544q0 7 7 7h103q6 0 6 -6v-545h183v545q0 6 7 6h103q6 0 6 -6v-546l71 -2q5 -2 5 -6l-16 -246q-1 -7 -8 -7h-88q-8 0 -8 7z" />
    <glyph glyph-name="uni042A" unicode="&#x42a;" horiz-adv-x="657" 
d="M11 551q-6 0 -5 7l13 82q2 5 7 5h260q6 0 6 -6v-210q26 2 80 2q114 0 179.5 -53t65.5 -157q0 -114 -77 -169t-207 -55q-112 0 -149 4q-5 0 -5 7v543h-168zM292 340v-253q15 -1 59 -1q146 0 146 129q0 62 -37 94.5t-103 32.5q-29 0 -65 -2z" />
    <glyph glyph-name="uni042B" unicode="&#x42b;" horiz-adv-x="793" 
d="M78 645h104q6 0 6 -5v-211q24 2 82 2q116 0 184.5 -54t68.5 -157q0 -115 -80.5 -169t-213.5 -54q-94 0 -150 4q-6 0 -6 8v630q0 6 5 6zM188 339v-252q28 -2 64 -2q71 0 111 32.5t40 97.5q0 62 -39 94t-106 32q-32 0 -70 -2zM720 638v-630q0 -8 -7 -8h-101q-8 0 -8 8v630
q0 7 8 7h101q7 0 7 -7z" />
    <glyph glyph-name="uni042C" unicode="&#x42c;" horiz-adv-x="560" 
d="M76 645h103q6 0 6 -5v-211q32 2 82 2q119 0 186 -53.5t67 -157.5q0 -115 -81 -169t-212 -54q-101 0 -151 4q-6 0 -6 8v630q0 6 6 6zM185 339v-252q28 -2 65 -2q71 0 110.5 32.5t39.5 96.5q0 62 -39 94.5t-106 32.5q-34 0 -70 -2z" />
    <glyph glyph-name="uni042D" unicode="&#x42d;" horiz-adv-x="566" 
d="M398 282h-280q-8 0 -8 8v80q0 6 7 6h279q-6 84 -52.5 133.5t-135.5 49.5q-83 0 -159 -36q-7 -3 -7 5v83q0 6 4 7q74 37 176 37q146 0 220 -93.5t74 -236.5q0 -86 -25.5 -152.5t-69.5 -105t-97 -57.5t-113 -19q-113 0 -174 37q-5 4 -5 11v90q0 7 6 4q77 -43 164 -43
q82 0 136.5 44.5t59.5 147.5z" />
    </font>
</defs>
</svg>
